<?xml version="1.0" encoding="utf-8" standalone="no"?>
<!DOCTYPE svg PUBLIC "-//W3C//DTD SVG 1.1//EN"
  "http://www.w3.org/Graphics/SVG/1.1/DTD/svg11.dtd">
<svg xmlns:xlink="http://www.w3.org/1999/xlink" width="576pt" height="360pt" viewBox="0 0 576 360" xmlns="http://www.w3.org/2000/svg" version="1.1">
 <metadata>
  <rdf:RDF xmlns:dc="http://purl.org/dc/elements/1.1/" xmlns:cc="http://creativecommons.org/ns#" xmlns:rdf="http://www.w3.org/1999/02/22-rdf-syntax-ns#">
   <cc:Work>
    <dc:type rdf:resource="http://purl.org/dc/dcmitype/StillImage"/>
    <dc:date>2025-03-26T15:40:32.762105</dc:date>
    <dc:format>image/svg+xml</dc:format>
    <dc:creator>
     <cc:Agent>
      <dc:title>Matplotlib v3.10.1, https://matplotlib.org/</dc:title>
     </cc:Agent>
    </dc:creator>
   </cc:Work>
  </rdf:RDF>
 </metadata>
 <defs>
  <style type="text/css">*{stroke-linejoin: round; stroke-linecap: butt}</style>
 </defs>
 <g id="figure_1">
  <g id="patch_1">
   <path d="M 0 360 
L 576 360 
L 576 0 
L 0 0 
z
" style="fill: #ffffff"/>
  </g>
  <g id="axes_1">
   <g id="patch_2">
    <path d="M 72 320.4 
L 518.4 320.4 
L 518.4 43.2 
L 72 43.2 
z
" style="fill: #ffffff"/>
   </g>
   <g id="matplotlib.axis_1">
    <g id="xtick_1">
     <g id="line2d_1">
      <path d="M 92.290909 320.4 
L 92.290909 43.2 
" clip-path="url(#pd86fe0fa24)" style="fill: none; stroke: #b0b0b0; stroke-width: 0.8; stroke-linecap: square"/>
     </g>
     <g id="line2d_2">
      <defs>
       <path id="ma699eab582" d="M 0 0 
L 0 3.5 
" style="stroke: #000000; stroke-width: 0.8"/>
      </defs>
      <g>
       <use xlink:href="#ma699eab582" x="92.290909" y="320.4" style="stroke: #000000; stroke-width: 0.8"/>
      </g>
     </g>
     <g id="text_1">
      <!-- 0.0 -->
      <g transform="translate(84.339347 334.998438) scale(0.1 -0.1)">
       <defs>
        <path id="DejaVuSans-30" d="M 2034 4250 
Q 1547 4250 1301 3770 
Q 1056 3291 1056 2328 
Q 1056 1369 1301 889 
Q 1547 409 2034 409 
Q 2525 409 2770 889 
Q 3016 1369 3016 2328 
Q 3016 3291 2770 3770 
Q 2525 4250 2034 4250 
z
M 2034 4750 
Q 2819 4750 3233 4129 
Q 3647 3509 3647 2328 
Q 3647 1150 3233 529 
Q 2819 -91 2034 -91 
Q 1250 -91 836 529 
Q 422 1150 422 2328 
Q 422 3509 836 4129 
Q 1250 4750 2034 4750 
z
" transform="scale(0.015625)"/>
        <path id="DejaVuSans-2e" d="M 684 794 
L 1344 794 
L 1344 0 
L 684 0 
L 684 794 
z
" transform="scale(0.015625)"/>
       </defs>
       <use xlink:href="#DejaVuSans-30"/>
       <use xlink:href="#DejaVuSans-2e" transform="translate(63.623047 0)"/>
       <use xlink:href="#DejaVuSans-30" transform="translate(95.410156 0)"/>
      </g>
     </g>
    </g>
    <g id="xtick_2">
     <g id="line2d_3">
      <path d="M 173.454545 320.4 
L 173.454545 43.2 
" clip-path="url(#pd86fe0fa24)" style="fill: none; stroke: #b0b0b0; stroke-width: 0.8; stroke-linecap: square"/>
     </g>
     <g id="line2d_4">
      <g>
       <use xlink:href="#ma699eab582" x="173.454545" y="320.4" style="stroke: #000000; stroke-width: 0.8"/>
      </g>
     </g>
     <g id="text_2">
      <!-- 0.2 -->
      <g transform="translate(165.502983 334.998438) scale(0.1 -0.1)">
       <defs>
        <path id="DejaVuSans-32" d="M 1228 531 
L 3431 531 
L 3431 0 
L 469 0 
L 469 531 
Q 828 903 1448 1529 
Q 2069 2156 2228 2338 
Q 2531 2678 2651 2914 
Q 2772 3150 2772 3378 
Q 2772 3750 2511 3984 
Q 2250 4219 1831 4219 
Q 1534 4219 1204 4116 
Q 875 4013 500 3803 
L 500 4441 
Q 881 4594 1212 4672 
Q 1544 4750 1819 4750 
Q 2544 4750 2975 4387 
Q 3406 4025 3406 3419 
Q 3406 3131 3298 2873 
Q 3191 2616 2906 2266 
Q 2828 2175 2409 1742 
Q 1991 1309 1228 531 
z
" transform="scale(0.015625)"/>
       </defs>
       <use xlink:href="#DejaVuSans-30"/>
       <use xlink:href="#DejaVuSans-2e" transform="translate(63.623047 0)"/>
       <use xlink:href="#DejaVuSans-32" transform="translate(95.410156 0)"/>
      </g>
     </g>
    </g>
    <g id="xtick_3">
     <g id="line2d_5">
      <path d="M 254.618182 320.4 
L 254.618182 43.2 
" clip-path="url(#pd86fe0fa24)" style="fill: none; stroke: #b0b0b0; stroke-width: 0.8; stroke-linecap: square"/>
     </g>
     <g id="line2d_6">
      <g>
       <use xlink:href="#ma699eab582" x="254.618182" y="320.4" style="stroke: #000000; stroke-width: 0.8"/>
      </g>
     </g>
     <g id="text_3">
      <!-- 0.4 -->
      <g transform="translate(246.666619 334.998438) scale(0.1 -0.1)">
       <defs>
        <path id="DejaVuSans-34" d="M 2419 4116 
L 825 1625 
L 2419 1625 
L 2419 4116 
z
M 2253 4666 
L 3047 4666 
L 3047 1625 
L 3713 1625 
L 3713 1100 
L 3047 1100 
L 3047 0 
L 2419 0 
L 2419 1100 
L 313 1100 
L 313 1709 
L 2253 4666 
z
" transform="scale(0.015625)"/>
       </defs>
       <use xlink:href="#DejaVuSans-30"/>
       <use xlink:href="#DejaVuSans-2e" transform="translate(63.623047 0)"/>
       <use xlink:href="#DejaVuSans-34" transform="translate(95.410156 0)"/>
      </g>
     </g>
    </g>
    <g id="xtick_4">
     <g id="line2d_7">
      <path d="M 335.781818 320.4 
L 335.781818 43.2 
" clip-path="url(#pd86fe0fa24)" style="fill: none; stroke: #b0b0b0; stroke-width: 0.8; stroke-linecap: square"/>
     </g>
     <g id="line2d_8">
      <g>
       <use xlink:href="#ma699eab582" x="335.781818" y="320.4" style="stroke: #000000; stroke-width: 0.8"/>
      </g>
     </g>
     <g id="text_4">
      <!-- 0.6 -->
      <g transform="translate(327.830256 334.998438) scale(0.1 -0.1)">
       <defs>
        <path id="DejaVuSans-36" d="M 2113 2584 
Q 1688 2584 1439 2293 
Q 1191 2003 1191 1497 
Q 1191 994 1439 701 
Q 1688 409 2113 409 
Q 2538 409 2786 701 
Q 3034 994 3034 1497 
Q 3034 2003 2786 2293 
Q 2538 2584 2113 2584 
z
M 3366 4563 
L 3366 3988 
Q 3128 4100 2886 4159 
Q 2644 4219 2406 4219 
Q 1781 4219 1451 3797 
Q 1122 3375 1075 2522 
Q 1259 2794 1537 2939 
Q 1816 3084 2150 3084 
Q 2853 3084 3261 2657 
Q 3669 2231 3669 1497 
Q 3669 778 3244 343 
Q 2819 -91 2113 -91 
Q 1303 -91 875 529 
Q 447 1150 447 2328 
Q 447 3434 972 4092 
Q 1497 4750 2381 4750 
Q 2619 4750 2861 4703 
Q 3103 4656 3366 4563 
z
" transform="scale(0.015625)"/>
       </defs>
       <use xlink:href="#DejaVuSans-30"/>
       <use xlink:href="#DejaVuSans-2e" transform="translate(63.623047 0)"/>
       <use xlink:href="#DejaVuSans-36" transform="translate(95.410156 0)"/>
      </g>
     </g>
    </g>
    <g id="xtick_5">
     <g id="line2d_9">
      <path d="M 416.945455 320.4 
L 416.945455 43.2 
" clip-path="url(#pd86fe0fa24)" style="fill: none; stroke: #b0b0b0; stroke-width: 0.8; stroke-linecap: square"/>
     </g>
     <g id="line2d_10">
      <g>
       <use xlink:href="#ma699eab582" x="416.945455" y="320.4" style="stroke: #000000; stroke-width: 0.8"/>
      </g>
     </g>
     <g id="text_5">
      <!-- 0.8 -->
      <g transform="translate(408.993892 334.998438) scale(0.1 -0.1)">
       <defs>
        <path id="DejaVuSans-38" d="M 2034 2216 
Q 1584 2216 1326 1975 
Q 1069 1734 1069 1313 
Q 1069 891 1326 650 
Q 1584 409 2034 409 
Q 2484 409 2743 651 
Q 3003 894 3003 1313 
Q 3003 1734 2745 1975 
Q 2488 2216 2034 2216 
z
M 1403 2484 
Q 997 2584 770 2862 
Q 544 3141 544 3541 
Q 544 4100 942 4425 
Q 1341 4750 2034 4750 
Q 2731 4750 3128 4425 
Q 3525 4100 3525 3541 
Q 3525 3141 3298 2862 
Q 3072 2584 2669 2484 
Q 3125 2378 3379 2068 
Q 3634 1759 3634 1313 
Q 3634 634 3220 271 
Q 2806 -91 2034 -91 
Q 1263 -91 848 271 
Q 434 634 434 1313 
Q 434 1759 690 2068 
Q 947 2378 1403 2484 
z
M 1172 3481 
Q 1172 3119 1398 2916 
Q 1625 2713 2034 2713 
Q 2441 2713 2670 2916 
Q 2900 3119 2900 3481 
Q 2900 3844 2670 4047 
Q 2441 4250 2034 4250 
Q 1625 4250 1398 4047 
Q 1172 3844 1172 3481 
z
" transform="scale(0.015625)"/>
       </defs>
       <use xlink:href="#DejaVuSans-30"/>
       <use xlink:href="#DejaVuSans-2e" transform="translate(63.623047 0)"/>
       <use xlink:href="#DejaVuSans-38" transform="translate(95.410156 0)"/>
      </g>
     </g>
    </g>
    <g id="xtick_6">
     <g id="line2d_11">
      <path d="M 498.109091 320.4 
L 498.109091 43.2 
" clip-path="url(#pd86fe0fa24)" style="fill: none; stroke: #b0b0b0; stroke-width: 0.8; stroke-linecap: square"/>
     </g>
     <g id="line2d_12">
      <g>
       <use xlink:href="#ma699eab582" x="498.109091" y="320.4" style="stroke: #000000; stroke-width: 0.8"/>
      </g>
     </g>
     <g id="text_6">
      <!-- 1.0 -->
      <g transform="translate(490.157528 334.998438) scale(0.1 -0.1)">
       <defs>
        <path id="DejaVuSans-31" d="M 794 531 
L 1825 531 
L 1825 4091 
L 703 3866 
L 703 4441 
L 1819 4666 
L 2450 4666 
L 2450 531 
L 3481 531 
L 3481 0 
L 794 0 
L 794 531 
z
" transform="scale(0.015625)"/>
       </defs>
       <use xlink:href="#DejaVuSans-31"/>
       <use xlink:href="#DejaVuSans-2e" transform="translate(63.623047 0)"/>
       <use xlink:href="#DejaVuSans-30" transform="translate(95.410156 0)"/>
      </g>
     </g>
    </g>
    <g id="text_7">
     <!-- Bounding Box Size (Normalised) -->
     <g transform="translate(214.904687 348.676562) scale(0.1 -0.1)">
      <defs>
       <path id="DejaVuSans-42" d="M 1259 2228 
L 1259 519 
L 2272 519 
Q 2781 519 3026 730 
Q 3272 941 3272 1375 
Q 3272 1813 3026 2020 
Q 2781 2228 2272 2228 
L 1259 2228 
z
M 1259 4147 
L 1259 2741 
L 2194 2741 
Q 2656 2741 2882 2914 
Q 3109 3088 3109 3444 
Q 3109 3797 2882 3972 
Q 2656 4147 2194 4147 
L 1259 4147 
z
M 628 4666 
L 2241 4666 
Q 2963 4666 3353 4366 
Q 3744 4066 3744 3513 
Q 3744 3084 3544 2831 
Q 3344 2578 2956 2516 
Q 3422 2416 3680 2098 
Q 3938 1781 3938 1306 
Q 3938 681 3513 340 
Q 3088 0 2303 0 
L 628 0 
L 628 4666 
z
" transform="scale(0.015625)"/>
       <path id="DejaVuSans-6f" d="M 1959 3097 
Q 1497 3097 1228 2736 
Q 959 2375 959 1747 
Q 959 1119 1226 758 
Q 1494 397 1959 397 
Q 2419 397 2687 759 
Q 2956 1122 2956 1747 
Q 2956 2369 2687 2733 
Q 2419 3097 1959 3097 
z
M 1959 3584 
Q 2709 3584 3137 3096 
Q 3566 2609 3566 1747 
Q 3566 888 3137 398 
Q 2709 -91 1959 -91 
Q 1206 -91 779 398 
Q 353 888 353 1747 
Q 353 2609 779 3096 
Q 1206 3584 1959 3584 
z
" transform="scale(0.015625)"/>
       <path id="DejaVuSans-75" d="M 544 1381 
L 544 3500 
L 1119 3500 
L 1119 1403 
Q 1119 906 1312 657 
Q 1506 409 1894 409 
Q 2359 409 2629 706 
Q 2900 1003 2900 1516 
L 2900 3500 
L 3475 3500 
L 3475 0 
L 2900 0 
L 2900 538 
Q 2691 219 2414 64 
Q 2138 -91 1772 -91 
Q 1169 -91 856 284 
Q 544 659 544 1381 
z
M 1991 3584 
L 1991 3584 
z
" transform="scale(0.015625)"/>
       <path id="DejaVuSans-6e" d="M 3513 2113 
L 3513 0 
L 2938 0 
L 2938 2094 
Q 2938 2591 2744 2837 
Q 2550 3084 2163 3084 
Q 1697 3084 1428 2787 
Q 1159 2491 1159 1978 
L 1159 0 
L 581 0 
L 581 3500 
L 1159 3500 
L 1159 2956 
Q 1366 3272 1645 3428 
Q 1925 3584 2291 3584 
Q 2894 3584 3203 3211 
Q 3513 2838 3513 2113 
z
" transform="scale(0.015625)"/>
       <path id="DejaVuSans-64" d="M 2906 2969 
L 2906 4863 
L 3481 4863 
L 3481 0 
L 2906 0 
L 2906 525 
Q 2725 213 2448 61 
Q 2172 -91 1784 -91 
Q 1150 -91 751 415 
Q 353 922 353 1747 
Q 353 2572 751 3078 
Q 1150 3584 1784 3584 
Q 2172 3584 2448 3432 
Q 2725 3281 2906 2969 
z
M 947 1747 
Q 947 1113 1208 752 
Q 1469 391 1925 391 
Q 2381 391 2643 752 
Q 2906 1113 2906 1747 
Q 2906 2381 2643 2742 
Q 2381 3103 1925 3103 
Q 1469 3103 1208 2742 
Q 947 2381 947 1747 
z
" transform="scale(0.015625)"/>
       <path id="DejaVuSans-69" d="M 603 3500 
L 1178 3500 
L 1178 0 
L 603 0 
L 603 3500 
z
M 603 4863 
L 1178 4863 
L 1178 4134 
L 603 4134 
L 603 4863 
z
" transform="scale(0.015625)"/>
       <path id="DejaVuSans-67" d="M 2906 1791 
Q 2906 2416 2648 2759 
Q 2391 3103 1925 3103 
Q 1463 3103 1205 2759 
Q 947 2416 947 1791 
Q 947 1169 1205 825 
Q 1463 481 1925 481 
Q 2391 481 2648 825 
Q 2906 1169 2906 1791 
z
M 3481 434 
Q 3481 -459 3084 -895 
Q 2688 -1331 1869 -1331 
Q 1566 -1331 1297 -1286 
Q 1028 -1241 775 -1147 
L 775 -588 
Q 1028 -725 1275 -790 
Q 1522 -856 1778 -856 
Q 2344 -856 2625 -561 
Q 2906 -266 2906 331 
L 2906 616 
Q 2728 306 2450 153 
Q 2172 0 1784 0 
Q 1141 0 747 490 
Q 353 981 353 1791 
Q 353 2603 747 3093 
Q 1141 3584 1784 3584 
Q 2172 3584 2450 3431 
Q 2728 3278 2906 2969 
L 2906 3500 
L 3481 3500 
L 3481 434 
z
" transform="scale(0.015625)"/>
       <path id="DejaVuSans-20" transform="scale(0.015625)"/>
       <path id="DejaVuSans-78" d="M 3513 3500 
L 2247 1797 
L 3578 0 
L 2900 0 
L 1881 1375 
L 863 0 
L 184 0 
L 1544 1831 
L 300 3500 
L 978 3500 
L 1906 2253 
L 2834 3500 
L 3513 3500 
z
" transform="scale(0.015625)"/>
       <path id="DejaVuSans-53" d="M 3425 4513 
L 3425 3897 
Q 3066 4069 2747 4153 
Q 2428 4238 2131 4238 
Q 1616 4238 1336 4038 
Q 1056 3838 1056 3469 
Q 1056 3159 1242 3001 
Q 1428 2844 1947 2747 
L 2328 2669 
Q 3034 2534 3370 2195 
Q 3706 1856 3706 1288 
Q 3706 609 3251 259 
Q 2797 -91 1919 -91 
Q 1588 -91 1214 -16 
Q 841 59 441 206 
L 441 856 
Q 825 641 1194 531 
Q 1563 422 1919 422 
Q 2459 422 2753 634 
Q 3047 847 3047 1241 
Q 3047 1584 2836 1778 
Q 2625 1972 2144 2069 
L 1759 2144 
Q 1053 2284 737 2584 
Q 422 2884 422 3419 
Q 422 4038 858 4394 
Q 1294 4750 2059 4750 
Q 2388 4750 2728 4690 
Q 3069 4631 3425 4513 
z
" transform="scale(0.015625)"/>
       <path id="DejaVuSans-7a" d="M 353 3500 
L 3084 3500 
L 3084 2975 
L 922 459 
L 3084 459 
L 3084 0 
L 275 0 
L 275 525 
L 2438 3041 
L 353 3041 
L 353 3500 
z
" transform="scale(0.015625)"/>
       <path id="DejaVuSans-65" d="M 3597 1894 
L 3597 1613 
L 953 1613 
Q 991 1019 1311 708 
Q 1631 397 2203 397 
Q 2534 397 2845 478 
Q 3156 559 3463 722 
L 3463 178 
Q 3153 47 2828 -22 
Q 2503 -91 2169 -91 
Q 1331 -91 842 396 
Q 353 884 353 1716 
Q 353 2575 817 3079 
Q 1281 3584 2069 3584 
Q 2775 3584 3186 3129 
Q 3597 2675 3597 1894 
z
M 3022 2063 
Q 3016 2534 2758 2815 
Q 2500 3097 2075 3097 
Q 1594 3097 1305 2825 
Q 1016 2553 972 2059 
L 3022 2063 
z
" transform="scale(0.015625)"/>
       <path id="DejaVuSans-28" d="M 1984 4856 
Q 1566 4138 1362 3434 
Q 1159 2731 1159 2009 
Q 1159 1288 1364 580 
Q 1569 -128 1984 -844 
L 1484 -844 
Q 1016 -109 783 600 
Q 550 1309 550 2009 
Q 550 2706 781 3412 
Q 1013 4119 1484 4856 
L 1984 4856 
z
" transform="scale(0.015625)"/>
       <path id="DejaVuSans-4e" d="M 628 4666 
L 1478 4666 
L 3547 763 
L 3547 4666 
L 4159 4666 
L 4159 0 
L 3309 0 
L 1241 3903 
L 1241 0 
L 628 0 
L 628 4666 
z
" transform="scale(0.015625)"/>
       <path id="DejaVuSans-72" d="M 2631 2963 
Q 2534 3019 2420 3045 
Q 2306 3072 2169 3072 
Q 1681 3072 1420 2755 
Q 1159 2438 1159 1844 
L 1159 0 
L 581 0 
L 581 3500 
L 1159 3500 
L 1159 2956 
Q 1341 3275 1631 3429 
Q 1922 3584 2338 3584 
Q 2397 3584 2469 3576 
Q 2541 3569 2628 3553 
L 2631 2963 
z
" transform="scale(0.015625)"/>
       <path id="DejaVuSans-6d" d="M 3328 2828 
Q 3544 3216 3844 3400 
Q 4144 3584 4550 3584 
Q 5097 3584 5394 3201 
Q 5691 2819 5691 2113 
L 5691 0 
L 5113 0 
L 5113 2094 
Q 5113 2597 4934 2840 
Q 4756 3084 4391 3084 
Q 3944 3084 3684 2787 
Q 3425 2491 3425 1978 
L 3425 0 
L 2847 0 
L 2847 2094 
Q 2847 2600 2669 2842 
Q 2491 3084 2119 3084 
Q 1678 3084 1418 2786 
Q 1159 2488 1159 1978 
L 1159 0 
L 581 0 
L 581 3500 
L 1159 3500 
L 1159 2956 
Q 1356 3278 1631 3431 
Q 1906 3584 2284 3584 
Q 2666 3584 2933 3390 
Q 3200 3197 3328 2828 
z
" transform="scale(0.015625)"/>
       <path id="DejaVuSans-61" d="M 2194 1759 
Q 1497 1759 1228 1600 
Q 959 1441 959 1056 
Q 959 750 1161 570 
Q 1363 391 1709 391 
Q 2188 391 2477 730 
Q 2766 1069 2766 1631 
L 2766 1759 
L 2194 1759 
z
M 3341 1997 
L 3341 0 
L 2766 0 
L 2766 531 
Q 2569 213 2275 61 
Q 1981 -91 1556 -91 
Q 1019 -91 701 211 
Q 384 513 384 1019 
Q 384 1609 779 1909 
Q 1175 2209 1959 2209 
L 2766 2209 
L 2766 2266 
Q 2766 2663 2505 2880 
Q 2244 3097 1772 3097 
Q 1472 3097 1187 3025 
Q 903 2953 641 2809 
L 641 3341 
Q 956 3463 1253 3523 
Q 1550 3584 1831 3584 
Q 2591 3584 2966 3190 
Q 3341 2797 3341 1997 
z
" transform="scale(0.015625)"/>
       <path id="DejaVuSans-6c" d="M 603 4863 
L 1178 4863 
L 1178 0 
L 603 0 
L 603 4863 
z
" transform="scale(0.015625)"/>
       <path id="DejaVuSans-73" d="M 2834 3397 
L 2834 2853 
Q 2591 2978 2328 3040 
Q 2066 3103 1784 3103 
Q 1356 3103 1142 2972 
Q 928 2841 928 2578 
Q 928 2378 1081 2264 
Q 1234 2150 1697 2047 
L 1894 2003 
Q 2506 1872 2764 1633 
Q 3022 1394 3022 966 
Q 3022 478 2636 193 
Q 2250 -91 1575 -91 
Q 1294 -91 989 -36 
Q 684 19 347 128 
L 347 722 
Q 666 556 975 473 
Q 1284 391 1588 391 
Q 1994 391 2212 530 
Q 2431 669 2431 922 
Q 2431 1156 2273 1281 
Q 2116 1406 1581 1522 
L 1381 1569 
Q 847 1681 609 1914 
Q 372 2147 372 2553 
Q 372 3047 722 3315 
Q 1072 3584 1716 3584 
Q 2034 3584 2315 3537 
Q 2597 3491 2834 3397 
z
" transform="scale(0.015625)"/>
       <path id="DejaVuSans-29" d="M 513 4856 
L 1013 4856 
Q 1481 4119 1714 3412 
Q 1947 2706 1947 2009 
Q 1947 1309 1714 600 
Q 1481 -109 1013 -844 
L 513 -844 
Q 928 -128 1133 580 
Q 1338 1288 1338 2009 
Q 1338 2731 1133 3434 
Q 928 4138 513 4856 
z
" transform="scale(0.015625)"/>
      </defs>
      <use xlink:href="#DejaVuSans-42"/>
      <use xlink:href="#DejaVuSans-6f" transform="translate(68.603516 0)"/>
      <use xlink:href="#DejaVuSans-75" transform="translate(129.785156 0)"/>
      <use xlink:href="#DejaVuSans-6e" transform="translate(193.164062 0)"/>
      <use xlink:href="#DejaVuSans-64" transform="translate(256.542969 0)"/>
      <use xlink:href="#DejaVuSans-69" transform="translate(320.019531 0)"/>
      <use xlink:href="#DejaVuSans-6e" transform="translate(347.802734 0)"/>
      <use xlink:href="#DejaVuSans-67" transform="translate(411.181641 0)"/>
      <use xlink:href="#DejaVuSans-20" transform="translate(474.658203 0)"/>
      <use xlink:href="#DejaVuSans-42" transform="translate(506.445312 0)"/>
      <use xlink:href="#DejaVuSans-6f" transform="translate(575.048828 0)"/>
      <use xlink:href="#DejaVuSans-78" transform="translate(633.105469 0)"/>
      <use xlink:href="#DejaVuSans-20" transform="translate(692.285156 0)"/>
      <use xlink:href="#DejaVuSans-53" transform="translate(724.072266 0)"/>
      <use xlink:href="#DejaVuSans-69" transform="translate(787.548828 0)"/>
      <use xlink:href="#DejaVuSans-7a" transform="translate(815.332031 0)"/>
      <use xlink:href="#DejaVuSans-65" transform="translate(867.822266 0)"/>
      <use xlink:href="#DejaVuSans-20" transform="translate(929.345703 0)"/>
      <use xlink:href="#DejaVuSans-28" transform="translate(961.132812 0)"/>
      <use xlink:href="#DejaVuSans-4e" transform="translate(1000.146484 0)"/>
      <use xlink:href="#DejaVuSans-6f" transform="translate(1074.951172 0)"/>
      <use xlink:href="#DejaVuSans-72" transform="translate(1136.132812 0)"/>
      <use xlink:href="#DejaVuSans-6d" transform="translate(1175.496094 0)"/>
      <use xlink:href="#DejaVuSans-61" transform="translate(1272.908203 0)"/>
      <use xlink:href="#DejaVuSans-6c" transform="translate(1334.1875 0)"/>
      <use xlink:href="#DejaVuSans-69" transform="translate(1361.970703 0)"/>
      <use xlink:href="#DejaVuSans-73" transform="translate(1389.753906 0)"/>
      <use xlink:href="#DejaVuSans-65" transform="translate(1441.853516 0)"/>
      <use xlink:href="#DejaVuSans-64" transform="translate(1503.376953 0)"/>
      <use xlink:href="#DejaVuSans-29" transform="translate(1566.853516 0)"/>
     </g>
    </g>
   </g>
   <g id="matplotlib.axis_2">
    <g id="ytick_1">
     <g id="line2d_13">
      <path d="M 72 291 
L 518.4 291 
" clip-path="url(#pd86fe0fa24)" style="fill: none; stroke: #b0b0b0; stroke-width: 0.8; stroke-linecap: square"/>
     </g>
     <g id="line2d_14">
      <defs>
       <path id="m715d3de335" d="M 0 0 
L -3.5 0 
" style="stroke: #000000; stroke-width: 0.8"/>
      </defs>
      <g>
       <use xlink:href="#m715d3de335" x="72" y="291" style="stroke: #000000; stroke-width: 0.8"/>
      </g>
     </g>
     <g id="text_8">
      <!-- 1.0 -->
      <g transform="translate(49.096875 294.799219) scale(0.1 -0.1)">
       <use xlink:href="#DejaVuSans-31"/>
       <use xlink:href="#DejaVuSans-2e" transform="translate(63.623047 0)"/>
       <use xlink:href="#DejaVuSans-30" transform="translate(95.410156 0)"/>
      </g>
     </g>
    </g>
    <g id="ytick_2">
     <g id="line2d_15">
      <path d="M 72 257.4 
L 518.4 257.4 
" clip-path="url(#pd86fe0fa24)" style="fill: none; stroke: #b0b0b0; stroke-width: 0.8; stroke-linecap: square"/>
     </g>
     <g id="line2d_16">
      <g>
       <use xlink:href="#m715d3de335" x="72" y="257.4" style="stroke: #000000; stroke-width: 0.8"/>
      </g>
     </g>
     <g id="text_9">
      <!-- 1.2 -->
      <g transform="translate(49.096875 261.199219) scale(0.1 -0.1)">
       <use xlink:href="#DejaVuSans-31"/>
       <use xlink:href="#DejaVuSans-2e" transform="translate(63.623047 0)"/>
       <use xlink:href="#DejaVuSans-32" transform="translate(95.410156 0)"/>
      </g>
     </g>
    </g>
    <g id="ytick_3">
     <g id="line2d_17">
      <path d="M 72 223.8 
L 518.4 223.8 
" clip-path="url(#pd86fe0fa24)" style="fill: none; stroke: #b0b0b0; stroke-width: 0.8; stroke-linecap: square"/>
     </g>
     <g id="line2d_18">
      <g>
       <use xlink:href="#m715d3de335" x="72" y="223.8" style="stroke: #000000; stroke-width: 0.8"/>
      </g>
     </g>
     <g id="text_10">
      <!-- 1.4 -->
      <g transform="translate(49.096875 227.599219) scale(0.1 -0.1)">
       <use xlink:href="#DejaVuSans-31"/>
       <use xlink:href="#DejaVuSans-2e" transform="translate(63.623047 0)"/>
       <use xlink:href="#DejaVuSans-34" transform="translate(95.410156 0)"/>
      </g>
     </g>
    </g>
    <g id="ytick_4">
     <g id="line2d_19">
      <path d="M 72 190.2 
L 518.4 190.2 
" clip-path="url(#pd86fe0fa24)" style="fill: none; stroke: #b0b0b0; stroke-width: 0.8; stroke-linecap: square"/>
     </g>
     <g id="line2d_20">
      <g>
       <use xlink:href="#m715d3de335" x="72" y="190.2" style="stroke: #000000; stroke-width: 0.8"/>
      </g>
     </g>
     <g id="text_11">
      <!-- 1.6 -->
      <g transform="translate(49.096875 193.999219) scale(0.1 -0.1)">
       <use xlink:href="#DejaVuSans-31"/>
       <use xlink:href="#DejaVuSans-2e" transform="translate(63.623047 0)"/>
       <use xlink:href="#DejaVuSans-36" transform="translate(95.410156 0)"/>
      </g>
     </g>
    </g>
    <g id="ytick_5">
     <g id="line2d_21">
      <path d="M 72 156.6 
L 518.4 156.6 
" clip-path="url(#pd86fe0fa24)" style="fill: none; stroke: #b0b0b0; stroke-width: 0.8; stroke-linecap: square"/>
     </g>
     <g id="line2d_22">
      <g>
       <use xlink:href="#m715d3de335" x="72" y="156.6" style="stroke: #000000; stroke-width: 0.8"/>
      </g>
     </g>
     <g id="text_12">
      <!-- 1.8 -->
      <g transform="translate(49.096875 160.399219) scale(0.1 -0.1)">
       <use xlink:href="#DejaVuSans-31"/>
       <use xlink:href="#DejaVuSans-2e" transform="translate(63.623047 0)"/>
       <use xlink:href="#DejaVuSans-38" transform="translate(95.410156 0)"/>
      </g>
     </g>
    </g>
    <g id="ytick_6">
     <g id="line2d_23">
      <path d="M 72 123 
L 518.4 123 
" clip-path="url(#pd86fe0fa24)" style="fill: none; stroke: #b0b0b0; stroke-width: 0.8; stroke-linecap: square"/>
     </g>
     <g id="line2d_24">
      <g>
       <use xlink:href="#m715d3de335" x="72" y="123" style="stroke: #000000; stroke-width: 0.8"/>
      </g>
     </g>
     <g id="text_13">
      <!-- 2.0 -->
      <g transform="translate(49.096875 126.799219) scale(0.1 -0.1)">
       <use xlink:href="#DejaVuSans-32"/>
       <use xlink:href="#DejaVuSans-2e" transform="translate(63.623047 0)"/>
       <use xlink:href="#DejaVuSans-30" transform="translate(95.410156 0)"/>
      </g>
     </g>
    </g>
    <g id="ytick_7">
     <g id="line2d_25">
      <path d="M 72 89.4 
L 518.4 89.4 
" clip-path="url(#pd86fe0fa24)" style="fill: none; stroke: #b0b0b0; stroke-width: 0.8; stroke-linecap: square"/>
     </g>
     <g id="line2d_26">
      <g>
       <use xlink:href="#m715d3de335" x="72" y="89.4" style="stroke: #000000; stroke-width: 0.8"/>
      </g>
     </g>
     <g id="text_14">
      <!-- 2.2 -->
      <g transform="translate(49.096875 93.199219) scale(0.1 -0.1)">
       <use xlink:href="#DejaVuSans-32"/>
       <use xlink:href="#DejaVuSans-2e" transform="translate(63.623047 0)"/>
       <use xlink:href="#DejaVuSans-32" transform="translate(95.410156 0)"/>
      </g>
     </g>
    </g>
    <g id="ytick_8">
     <g id="line2d_27">
      <path d="M 72 55.8 
L 518.4 55.8 
" clip-path="url(#pd86fe0fa24)" style="fill: none; stroke: #b0b0b0; stroke-width: 0.8; stroke-linecap: square"/>
     </g>
     <g id="line2d_28">
      <g>
       <use xlink:href="#m715d3de335" x="72" y="55.8" style="stroke: #000000; stroke-width: 0.8"/>
      </g>
     </g>
     <g id="text_15">
      <!-- 2.4 -->
      <g transform="translate(49.096875 59.599219) scale(0.1 -0.1)">
       <use xlink:href="#DejaVuSans-32"/>
       <use xlink:href="#DejaVuSans-2e" transform="translate(63.623047 0)"/>
       <use xlink:href="#DejaVuSans-34" transform="translate(95.410156 0)"/>
      </g>
     </g>
    </g>
    <g id="text_16">
     <!-- IoU Weight -->
     <g transform="translate(43.017187 209.001562) rotate(-90) scale(0.1 -0.1)">
      <defs>
       <path id="DejaVuSans-49" d="M 628 4666 
L 1259 4666 
L 1259 0 
L 628 0 
L 628 4666 
z
" transform="scale(0.015625)"/>
       <path id="DejaVuSans-55" d="M 556 4666 
L 1191 4666 
L 1191 1831 
Q 1191 1081 1462 751 
Q 1734 422 2344 422 
Q 2950 422 3222 751 
Q 3494 1081 3494 1831 
L 3494 4666 
L 4128 4666 
L 4128 1753 
Q 4128 841 3676 375 
Q 3225 -91 2344 -91 
Q 1459 -91 1007 375 
Q 556 841 556 1753 
L 556 4666 
z
" transform="scale(0.015625)"/>
       <path id="DejaVuSans-57" d="M 213 4666 
L 850 4666 
L 1831 722 
L 2809 4666 
L 3519 4666 
L 4500 722 
L 5478 4666 
L 6119 4666 
L 4947 0 
L 4153 0 
L 3169 4050 
L 2175 0 
L 1381 0 
L 213 4666 
z
" transform="scale(0.015625)"/>
       <path id="DejaVuSans-68" d="M 3513 2113 
L 3513 0 
L 2938 0 
L 2938 2094 
Q 2938 2591 2744 2837 
Q 2550 3084 2163 3084 
Q 1697 3084 1428 2787 
Q 1159 2491 1159 1978 
L 1159 0 
L 581 0 
L 581 4863 
L 1159 4863 
L 1159 2956 
Q 1366 3272 1645 3428 
Q 1925 3584 2291 3584 
Q 2894 3584 3203 3211 
Q 3513 2838 3513 2113 
z
" transform="scale(0.015625)"/>
       <path id="DejaVuSans-74" d="M 1172 4494 
L 1172 3500 
L 2356 3500 
L 2356 3053 
L 1172 3053 
L 1172 1153 
Q 1172 725 1289 603 
Q 1406 481 1766 481 
L 2356 481 
L 2356 0 
L 1766 0 
Q 1100 0 847 248 
Q 594 497 594 1153 
L 594 3053 
L 172 3053 
L 172 3500 
L 594 3500 
L 594 4494 
L 1172 4494 
z
" transform="scale(0.015625)"/>
      </defs>
      <use xlink:href="#DejaVuSans-49"/>
      <use xlink:href="#DejaVuSans-6f" transform="translate(29.492188 0)"/>
      <use xlink:href="#DejaVuSans-55" transform="translate(90.673828 0)"/>
      <use xlink:href="#DejaVuSans-20" transform="translate(163.867188 0)"/>
      <use xlink:href="#DejaVuSans-57" transform="translate(195.654297 0)"/>
      <use xlink:href="#DejaVuSans-65" transform="translate(288.65625 0)"/>
      <use xlink:href="#DejaVuSans-69" transform="translate(350.179688 0)"/>
      <use xlink:href="#DejaVuSans-67" transform="translate(377.962891 0)"/>
      <use xlink:href="#DejaVuSans-68" transform="translate(441.439453 0)"/>
      <use xlink:href="#DejaVuSans-74" transform="translate(504.818359 0)"/>
     </g>
    </g>
   </g>
   <g id="line2d_29">
    <path d="M 92.290909 291 
L 498.109091 291 
L 498.109091 291 
" clip-path="url(#pd86fe0fa24)" style="fill: none; stroke: #1f77b4; stroke-width: 1.5; stroke-linecap: square"/>
   </g>
   <g id="line2d_30">
    <path d="M 92.290909 274.2 
L 103.665192 278.789163 
L 110.164783 281.155359 
L 115.851925 282.987866 
L 121.132842 284.466855 
L 126.413759 285.72907 
L 132.100901 286.858636 
L 138.194267 287.831621 
L 144.693857 288.639001 
L 152.005897 289.317611 
L 160.536609 289.875735 
L 170.692219 290.30934 
L 183.6914 290.63248 
L 201.971499 290.849736 
L 233.250778 290.967722 
L 323.838821 290.999628 
L 498.109091 291 
L 498.109091 291 
" clip-path="url(#pd86fe0fa24)" style="fill: none; stroke: #ff7f0e; stroke-width: 1.5; stroke-linecap: square"/>
   </g>
   <g id="line2d_31">
    <path d="M 92.290909 257.4 
L 101.63407 265.001893 
L 106.914988 269.009855 
L 111.383456 272.136267 
L 115.4457 274.730147 
L 119.507944 277.070141 
L 123.570188 279.151881 
L 127.632432 280.981029 
L 131.694676 282.57079 
L 136.163145 284.064948 
L 140.631613 285.319851 
L 145.506306 286.45079 
L 150.787224 287.437981 
L 156.474365 288.273311 
L 162.973956 288.998391 
L 170.692219 289.61868 
L 179.629156 290.104211 
L 191.00344 290.485662 
L 206.033743 290.753798 
L 229.188534 290.921153 
L 276.310565 290.992261 
L 498.109091 291 
L 498.109091 291 
" clip-path="url(#pd86fe0fa24)" style="fill: none; stroke: #2ca02c; stroke-width: 1.5; stroke-linecap: square"/>
   </g>
   <g id="line2d_32">
    <path d="M 92.290909 240.6 
L 101.227846 251.523089 
L 106.102539 257.120173 
L 110.164783 261.466077 
L 113.820803 265.083641 
L 117.476822 268.398624 
L 121.132842 271.400564 
L 124.788862 274.090005 
L 128.444881 276.476407 
L 132.100901 278.575909 
L 135.756921 280.409166 
L 139.41294 281.999464 
L 143.475184 283.511137 
L 147.537428 284.786105 
L 152.005897 285.952832 
L 156.88059 286.987808 
L 162.161507 287.878729 
L 168.254873 288.669681 
L 175.160688 289.330781 
L 183.285176 289.875392 
L 193.034562 290.301472 
L 206.033743 290.630697 
L 224.313841 290.849661 
L 255.59312 290.967782 
L 346.181163 290.999629 
L 498.109091 291 
L 498.109091 291 
" clip-path="url(#pd86fe0fa24)" style="fill: none; stroke: #d62728; stroke-width: 1.5; stroke-linecap: square"/>
   </g>
   <g id="line2d_33">
    <path d="M 92.290909 223.8 
L 100.821622 237.721669 
L 105.696314 245.22454 
L 109.758559 251.061761 
L 113.414578 255.928431 
L 116.664373 259.918441 
L 119.914169 263.579828 
L 123.163964 266.91047 
L 126.413759 269.91628 
L 129.663554 272.609563 
L 132.91335 275.007356 
L 136.163145 277.129897 
L 139.41294 278.999285 
L 143.06896 280.828214 
L 146.72498 282.398 
L 150.380999 283.739683 
L 154.443243 284.99812 
L 158.911712 286.141555 
L 163.786405 287.149403 
L 169.067322 288.012148 
L 175.160688 288.774375 
L 182.066503 289.408804 
L 190.190991 289.929635 
L 200.346601 290.349074 
L 213.752007 290.663001 
L 232.844554 290.868281 
L 266.561179 290.974977 
L 377.866667 290.999896 
L 498.109091 291 
L 498.109091 291 
" clip-path="url(#pd86fe0fa24)" style="fill: none; stroke: #9467bd; stroke-width: 1.5; stroke-linecap: square"/>
   </g>
   <g id="line2d_34">
    <path d="M 92.290909 207 
L 100.821622 224.402087 
L 105.29009 233.022908 
L 109.352334 240.371903 
L 113.008354 246.508801 
L 116.258149 251.5469 
L 119.507944 256.175354 
L 122.75774 260.390117 
L 125.60131 263.743376 
L 128.444881 266.794012 
L 131.288452 269.555237 
L 134.132023 272.043008 
L 137.381818 274.574203 
L 140.631613 276.799627 
L 143.881409 278.747914 
L 147.131204 280.447237 
L 150.787224 282.094952 
L 154.443243 283.49765 
L 158.505487 284.808662 
L 162.973956 285.995978 
L 167.848649 287.039449 
L 173.129566 287.930423 
L 179.222932 288.715858 
L 186.128747 289.36837 
L 194.253235 289.903209 
L 204.408845 290.333382 
L 217.408026 290.648062 
L 236.094349 290.859698 
L 268.592301 290.9717 
L 369.335954 290.999802 
L 498.109091 291 
L 498.109091 291 
" clip-path="url(#pd86fe0fa24)" style="fill: none; stroke: #8c564b; stroke-width: 1.5; stroke-linecap: square"/>
   </g>
   <g id="line2d_35">
    <path d="M 92.290909 190.2 
L 100.415397 210.114826 
L 104.883866 220.512513 
L 108.94611 229.393167 
L 112.602129 236.821077 
L 115.851925 242.927198 
L 119.10172 248.543334 
L 121.945291 253.05003 
L 124.788862 257.18001 
L 127.632432 260.943086 
L 130.476003 264.35395 
L 133.319574 267.43093 
L 136.163145 270.194845 
L 139.006716 272.668015 
L 141.850287 274.873416 
L 145.100082 277.095424 
L 148.349877 279.03103 
L 151.599672 280.711956 
L 155.255692 282.335346 
L 158.911712 283.712332 
L 162.973956 284.995173 
L 167.442424 286.153542 
L 172.317117 287.168888 
L 177.598034 288.033867 
L 183.6914 288.794878 
L 190.597215 289.426028 
L 198.721704 289.942633 
L 208.877314 290.357669 
L 222.282719 290.667718 
L 241.781491 290.872764 
L 276.310565 290.976784 
L 394.521867 290.999931 
L 498.109091 291 
L 498.109091 291 
" clip-path="url(#pd86fe0fa24)" style="fill: none; stroke: #e377c2; stroke-width: 1.5; stroke-linecap: square"/>
   </g>
   <g id="line2d_36">
    <path d="M 92.290909 173.4 
L 100.415397 196.633963 
L 104.883866 208.764598 
L 108.539885 218.122281 
L 112.195905 226.861624 
L 115.4457 234.055515 
L 118.695495 240.679879 
L 121.539066 246.001011 
L 124.382637 250.881558 
L 127.226208 255.332031 
L 130.069779 259.368849 
L 132.91335 263.012873 
L 135.756921 266.288054 
L 138.600491 269.220244 
L 141.444062 271.836192 
L 144.287633 274.162728 
L 147.131204 276.226132 
L 150.380999 278.294445 
L 153.630794 280.087534 
L 156.88059 281.638218 
L 160.536609 283.130142 
L 164.192629 284.391267 
L 168.254873 285.56259 
L 172.723342 286.617311 
L 177.598034 287.539512 
L 183.285176 288.375915 
L 189.784767 289.089291 
L 197.096806 289.66414 
L 206.033743 290.138293 
L 217.408026 290.507286 
L 232.844554 290.769492 
L 256.811794 290.929205 
L 307.589844 290.994202 
L 498.109091 291 
L 498.109091 291 
" clip-path="url(#pd86fe0fa24)" style="fill: none; stroke: #7f7f7f; stroke-width: 1.5; stroke-linecap: square"/>
   </g>
   <g id="line2d_37">
    <path d="M 92.290909 156.6 
L 100.415397 183.153101 
L 104.883866 197.016684 
L 108.539885 207.711179 
L 112.195905 217.698998 
L 115.4457 225.920588 
L 118.695495 233.491291 
L 121.539066 239.572584 
L 124.382637 245.150352 
L 127.226208 250.236607 
L 130.069779 254.850114 
L 132.91335 259.014713 
L 135.756921 262.757776 
L 138.600491 266.10885 
L 141.444062 269.098505 
L 144.287633 271.757403 
L 147.131204 274.11558 
L 149.974775 276.201898 
L 153.22457 278.288343 
L 156.474365 280.093243 
L 159.724161 281.651224 
L 163.38018 283.147624 
L 167.0362 284.410587 
L 171.098444 285.582027 
L 175.566912 286.635545 
L 180.441605 287.555679 
L 186.128747 288.389391 
L 192.628337 289.099858 
L 199.940377 289.671953 
L 208.877314 290.143559 
L 220.251597 290.510398 
L 235.688124 290.770981 
L 259.655364 290.929669 
L 310.83964 290.994354 
L 498.109091 290.999999 
L 498.109091 290.999999 
" clip-path="url(#pd86fe0fa24)" style="fill: none; stroke: #bcbd22; stroke-width: 1.5; stroke-linecap: square"/>
   </g>
   <g id="line2d_38">
    <path d="M 92.290909 139.8 
L 100.415397 169.672238 
L 104.883866 185.268769 
L 108.539885 197.300076 
L 111.789681 207.330203 
L 115.039476 216.669056 
L 118.289271 225.278743 
L 121.132842 232.201693 
L 123.976413 238.556979 
L 126.819984 244.356873 
L 129.663554 249.621517 
L 132.507125 254.377027 
L 135.350696 258.653727 
L 138.194267 262.484592 
L 141.037838 265.903919 
L 143.881409 268.946245 
L 146.72498 271.645499 
L 149.56855 274.034374 
L 152.412121 276.143871 
L 155.255692 278.003018 
L 158.505487 279.855591 
L 161.755283 281.452812 
L 165.411302 282.985234 
L 169.067322 284.277333 
L 173.129566 285.474762 
L 177.598034 286.550801 
L 182.472727 287.489948 
L 188.159869 288.340357 
L 194.659459 289.064656 
L 201.971499 289.647624 
L 210.908436 290.128015 
L 222.282719 290.501577 
L 237.719247 290.766877 
L 261.686486 290.928412 
L 312.058313 290.994019 
L 498.109091 290.999999 
L 498.109091 290.999999 
" clip-path="url(#pd86fe0fa24)" style="fill: none; stroke: #17becf; stroke-width: 1.5; stroke-linecap: square"/>
   </g>
   <g id="line2d_39">
    <path d="M 92.290909 123 
L 100.415397 156.191376 
L 104.883866 173.520854 
L 108.539885 186.888973 
L 111.789681 198.033559 
L 115.039476 208.410062 
L 117.883047 216.825699 
L 120.726618 224.608475 
L 123.570188 231.759406 
L 126.413759 238.290701 
L 129.25733 244.223621 
L 132.100901 249.586362 
L 134.944472 254.412061 
L 137.788043 258.737032 
L 140.631613 262.599254 
L 143.475184 266.037124 
L 146.318755 269.088489 
L 149.162326 271.789904 
L 152.005897 274.176107 
L 154.849468 276.279679 
L 157.693038 278.130836 
L 160.942834 279.972873 
L 164.192629 281.558952 
L 167.848649 283.078898 
L 171.504668 284.359118 
L 175.566912 285.544431 
L 180.035381 286.608674 
L 184.910074 287.536824 
L 190.597215 288.376713 
L 197.096806 289.091629 
L 204.408845 289.666763 
L 213.345782 290.14051 
L 224.720066 290.508787 
L 240.156593 290.770272 
L 264.123833 290.929459 
L 314.901884 290.994223 
L 498.109091 290.999999 
L 498.109091 290.999999 
" clip-path="url(#pd86fe0fa24)" style="fill: none; stroke: #1f77b4; stroke-width: 1.5; stroke-linecap: square"/>
   </g>
   <g id="line2d_40">
    <path d="M 92.290909 106.2 
L 100.415397 142.710513 
L 104.883866 161.77294 
L 108.539885 176.477871 
L 111.789681 188.736915 
L 115.039476 200.151068 
L 117.883047 209.408268 
L 120.726618 217.969323 
L 123.570188 225.835347 
L 126.413759 233.019771 
L 129.25733 239.545984 
L 132.100901 245.444998 
L 134.538247 250.029624 
L 136.975594 254.205246 
L 139.41294 257.998035 
L 141.850287 261.434595 
L 144.287633 264.54143 
L 147.131204 267.783922 
L 149.974775 270.65261 
L 152.818346 273.185061 
L 155.661916 275.416385 
L 158.505487 277.379056 
L 161.755283 279.331214 
L 165.005078 281.011439 
L 168.254873 282.455499 
L 171.910893 283.837015 
L 175.973137 285.115928 
L 180.441605 286.264059 
L 185.316298 287.265251 
L 190.597215 288.114384 
L 196.690581 288.858588 
L 203.596396 289.473774 
L 212.127109 289.996197 
L 222.688943 290.402871 
L 236.500573 290.697449 
L 256.811794 290.888751 
L 294.590663 290.982709 
L 446.518591 290.99999 
L 498.109091 290.999999 
L 498.109091 290.999999 
" clip-path="url(#pd86fe0fa24)" style="fill: none; stroke: #ff7f0e; stroke-width: 1.5; stroke-linecap: square"/>
   </g>
   <g id="line2d_41">
    <path d="M 92.290909 89.4 
L 100.415397 129.229651 
L 104.883866 150.025025 
L 108.539885 166.066768 
L 111.789681 179.440271 
L 115.039476 191.892075 
L 117.883047 201.990838 
L 120.726618 211.33017 
L 123.570188 219.911287 
L 126.413759 227.748841 
L 129.25733 234.868346 
L 131.694676 240.424741 
L 134.132023 245.503219 
L 136.569369 250.130848 
L 139.006716 254.33603 
L 141.444062 258.147757 
L 143.881409 261.594993 
L 146.318755 264.706187 
L 149.162326 267.947885 
L 152.005897 270.811329 
L 154.849468 273.335615 
L 157.693038 275.557003 
L 160.536609 277.508816 
L 163.786405 279.448209 
L 167.0362 281.115881 
L 170.285995 282.547995 
L 173.942015 283.917083 
L 178.004259 285.183621 
L 182.472727 286.31993 
L 187.34742 287.310265 
L 192.628337 288.149787 
L 198.721704 288.885267 
L 205.627518 289.493028 
L 214.158231 290.008993 
L 224.720066 290.410545 
L 238.531695 290.70136 
L 259.24914 290.892371 
L 297.840459 290.983929 
L 459.923997 290.999995 
L 498.109091 290.999999 
L 498.109091 290.999999 
" clip-path="url(#pd86fe0fa24)" style="fill: none; stroke: #2ca02c; stroke-width: 1.5; stroke-linecap: square"/>
   </g>
   <g id="line2d_42">
    <path d="M 92.290909 72.6 
L 100.415397 115.748789 
L 104.883866 138.277111 
L 108.539885 155.655665 
L 111.789681 170.143627 
L 115.039476 183.633081 
L 117.883047 194.573408 
L 120.726618 204.691018 
L 123.570188 213.987228 
L 126.413759 222.477911 
L 129.25733 230.190708 
L 131.694676 236.210137 
L 134.132023 241.71182 
L 136.569369 246.725085 
L 139.006716 251.280699 
L 141.444062 255.41007 
L 143.881409 259.144576 
L 146.318755 262.515036 
L 148.756102 265.551296 
L 151.193448 268.281923 
L 154.037019 271.117398 
L 156.88059 273.613833 
L 159.724161 275.808239 
L 162.567731 277.734438 
L 165.817527 279.646616 
L 169.067322 281.289481 
L 172.317117 282.699257 
L 175.973137 284.046097 
L 180.035381 285.291276 
L 184.503849 286.407788 
L 189.378542 287.380379 
L 194.659459 288.204503 
L 200.752826 288.926224 
L 208.064865 289.551616 
L 216.595577 290.04766 
L 227.157412 290.433608 
L 241.375266 290.718751 
L 262.498935 290.900653 
L 303.121376 290.986579 
L 493.234398 290.999999 
L 498.109091 290.999999 
L 498.109091 290.999999 
" clip-path="url(#pd86fe0fa24)" style="fill: none; stroke: #d62728; stroke-width: 1.5; stroke-linecap: square"/>
   </g>
   <g id="line2d_43">
    <path d="M 92.290909 55.8 
L 100.415397 102.267926 
L 104.883866 126.529196 
L 108.539885 145.244563 
L 111.789681 160.846983 
L 115.039476 175.374087 
L 117.883047 187.155978 
L 120.726618 198.051865 
L 123.570188 208.063168 
L 126.413759 217.206981 
L 129.25733 225.51307 
L 131.694676 231.995532 
L 134.132023 237.920422 
L 136.569369 243.319322 
L 139.006716 248.225369 
L 141.444062 252.672383 
L 143.881409 256.694159 
L 146.318755 260.323885 
L 148.756102 263.593704 
L 151.193448 266.534379 
L 154.037019 269.587967 
L 156.88059 272.276435 
L 159.724161 274.639642 
L 162.567731 276.71401 
L 165.411302 278.532586 
L 168.661097 280.335843 
L 171.910893 281.883474 
L 175.566912 283.362203 
L 179.222932 284.604403 
L 183.285176 285.75183 
L 187.753645 286.779866 
L 192.628337 287.674752 
L 198.315479 288.483187 
L 204.81507 289.170321 
L 212.533333 289.747688 
L 221.876495 290.209023 
L 233.657002 290.557062 
L 249.905979 290.801031 
L 275.904341 290.944733 
L 336.431777 290.997201 
L 498.109091 290.999999 
L 498.109091 290.999999 
" clip-path="url(#pd86fe0fa24)" style="fill: none; stroke: #9467bd; stroke-width: 1.5; stroke-linecap: square"/>
   </g>
   <g id="line2d_44">
    <path d="M 72 307.8 
L 518.4 307.8 
" clip-path="url(#pd86fe0fa24)" style="fill: none; stroke-dasharray: 1.85,0.8; stroke-dashoffset: 0; stroke: #000000; stroke-width: 0.5"/>
   </g>
   <g id="line2d_45">
    <path d="M 92.290909 320.4 
L 92.290909 43.2 
" clip-path="url(#pd86fe0fa24)" style="fill: none; stroke-dasharray: 1.85,0.8; stroke-dashoffset: 0; stroke: #000000; stroke-width: 0.5"/>
   </g>
   <g id="patch_3">
    <path d="M 72 320.4 
L 72 43.2 
" style="fill: none; stroke: #000000; stroke-width: 0.8; stroke-linejoin: miter; stroke-linecap: square"/>
   </g>
   <g id="patch_4">
    <path d="M 518.4 320.4 
L 518.4 43.2 
" style="fill: none; stroke: #000000; stroke-width: 0.8; stroke-linejoin: miter; stroke-linecap: square"/>
   </g>
   <g id="patch_5">
    <path d="M 72 320.4 
L 518.4 320.4 
" style="fill: none; stroke: #000000; stroke-width: 0.8; stroke-linejoin: miter; stroke-linecap: square"/>
   </g>
   <g id="patch_6">
    <path d="M 72 43.2 
L 518.4 43.2 
" style="fill: none; stroke: #000000; stroke-width: 0.8; stroke-linejoin: miter; stroke-linecap: square"/>
   </g>
   <g id="text_17">
    <!-- IoU weight as a function of the normalised predicted bbox size (for different values of a) -->
    <g transform="translate(30.375 37.2) scale(0.12 -0.12)">
     <defs>
      <path id="DejaVuSans-77" d="M 269 3500 
L 844 3500 
L 1563 769 
L 2278 3500 
L 2956 3500 
L 3675 769 
L 4391 3500 
L 4966 3500 
L 4050 0 
L 3372 0 
L 2619 2869 
L 1863 0 
L 1184 0 
L 269 3500 
z
" transform="scale(0.015625)"/>
      <path id="DejaVuSans-66" d="M 2375 4863 
L 2375 4384 
L 1825 4384 
Q 1516 4384 1395 4259 
Q 1275 4134 1275 3809 
L 1275 3500 
L 2222 3500 
L 2222 3053 
L 1275 3053 
L 1275 0 
L 697 0 
L 697 3053 
L 147 3053 
L 147 3500 
L 697 3500 
L 697 3744 
Q 697 4328 969 4595 
Q 1241 4863 1831 4863 
L 2375 4863 
z
" transform="scale(0.015625)"/>
      <path id="DejaVuSans-63" d="M 3122 3366 
L 3122 2828 
Q 2878 2963 2633 3030 
Q 2388 3097 2138 3097 
Q 1578 3097 1268 2742 
Q 959 2388 959 1747 
Q 959 1106 1268 751 
Q 1578 397 2138 397 
Q 2388 397 2633 464 
Q 2878 531 3122 666 
L 3122 134 
Q 2881 22 2623 -34 
Q 2366 -91 2075 -91 
Q 1284 -91 818 406 
Q 353 903 353 1747 
Q 353 2603 823 3093 
Q 1294 3584 2113 3584 
Q 2378 3584 2631 3529 
Q 2884 3475 3122 3366 
z
" transform="scale(0.015625)"/>
      <path id="DejaVuSans-70" d="M 1159 525 
L 1159 -1331 
L 581 -1331 
L 581 3500 
L 1159 3500 
L 1159 2969 
Q 1341 3281 1617 3432 
Q 1894 3584 2278 3584 
Q 2916 3584 3314 3078 
Q 3713 2572 3713 1747 
Q 3713 922 3314 415 
Q 2916 -91 2278 -91 
Q 1894 -91 1617 61 
Q 1341 213 1159 525 
z
M 3116 1747 
Q 3116 2381 2855 2742 
Q 2594 3103 2138 3103 
Q 1681 3103 1420 2742 
Q 1159 2381 1159 1747 
Q 1159 1113 1420 752 
Q 1681 391 2138 391 
Q 2594 391 2855 752 
Q 3116 1113 3116 1747 
z
" transform="scale(0.015625)"/>
      <path id="DejaVuSans-62" d="M 3116 1747 
Q 3116 2381 2855 2742 
Q 2594 3103 2138 3103 
Q 1681 3103 1420 2742 
Q 1159 2381 1159 1747 
Q 1159 1113 1420 752 
Q 1681 391 2138 391 
Q 2594 391 2855 752 
Q 3116 1113 3116 1747 
z
M 1159 2969 
Q 1341 3281 1617 3432 
Q 1894 3584 2278 3584 
Q 2916 3584 3314 3078 
Q 3713 2572 3713 1747 
Q 3713 922 3314 415 
Q 2916 -91 2278 -91 
Q 1894 -91 1617 61 
Q 1341 213 1159 525 
L 1159 0 
L 581 0 
L 581 4863 
L 1159 4863 
L 1159 2969 
z
" transform="scale(0.015625)"/>
      <path id="DejaVuSans-76" d="M 191 3500 
L 800 3500 
L 1894 563 
L 2988 3500 
L 3597 3500 
L 2284 0 
L 1503 0 
L 191 3500 
z
" transform="scale(0.015625)"/>
     </defs>
     <use xlink:href="#DejaVuSans-49"/>
     <use xlink:href="#DejaVuSans-6f" transform="translate(29.492188 0)"/>
     <use xlink:href="#DejaVuSans-55" transform="translate(90.673828 0)"/>
     <use xlink:href="#DejaVuSans-20" transform="translate(163.867188 0)"/>
     <use xlink:href="#DejaVuSans-77" transform="translate(195.654297 0)"/>
     <use xlink:href="#DejaVuSans-65" transform="translate(277.441406 0)"/>
     <use xlink:href="#DejaVuSans-69" transform="translate(338.964844 0)"/>
     <use xlink:href="#DejaVuSans-67" transform="translate(366.748047 0)"/>
     <use xlink:href="#DejaVuSans-68" transform="translate(430.224609 0)"/>
     <use xlink:href="#DejaVuSans-74" transform="translate(493.603516 0)"/>
     <use xlink:href="#DejaVuSans-20" transform="translate(532.8125 0)"/>
     <use xlink:href="#DejaVuSans-61" transform="translate(564.599609 0)"/>
     <use xlink:href="#DejaVuSans-73" transform="translate(625.878906 0)"/>
     <use xlink:href="#DejaVuSans-20" transform="translate(677.978516 0)"/>
     <use xlink:href="#DejaVuSans-61" transform="translate(709.765625 0)"/>
     <use xlink:href="#DejaVuSans-20" transform="translate(771.044922 0)"/>
     <use xlink:href="#DejaVuSans-66" transform="translate(802.832031 0)"/>
     <use xlink:href="#DejaVuSans-75" transform="translate(838.037109 0)"/>
     <use xlink:href="#DejaVuSans-6e" transform="translate(901.416016 0)"/>
     <use xlink:href="#DejaVuSans-63" transform="translate(964.794922 0)"/>
     <use xlink:href="#DejaVuSans-74" transform="translate(1019.775391 0)"/>
     <use xlink:href="#DejaVuSans-69" transform="translate(1058.984375 0)"/>
     <use xlink:href="#DejaVuSans-6f" transform="translate(1086.767578 0)"/>
     <use xlink:href="#DejaVuSans-6e" transform="translate(1147.949219 0)"/>
     <use xlink:href="#DejaVuSans-20" transform="translate(1211.328125 0)"/>
     <use xlink:href="#DejaVuSans-6f" transform="translate(1243.115234 0)"/>
     <use xlink:href="#DejaVuSans-66" transform="translate(1304.296875 0)"/>
     <use xlink:href="#DejaVuSans-20" transform="translate(1339.501953 0)"/>
     <use xlink:href="#DejaVuSans-74" transform="translate(1371.289062 0)"/>
     <use xlink:href="#DejaVuSans-68" transform="translate(1410.498047 0)"/>
     <use xlink:href="#DejaVuSans-65" transform="translate(1473.876953 0)"/>
     <use xlink:href="#DejaVuSans-20" transform="translate(1535.400391 0)"/>
     <use xlink:href="#DejaVuSans-6e" transform="translate(1567.1875 0)"/>
     <use xlink:href="#DejaVuSans-6f" transform="translate(1630.566406 0)"/>
     <use xlink:href="#DejaVuSans-72" transform="translate(1691.748047 0)"/>
     <use xlink:href="#DejaVuSans-6d" transform="translate(1731.111328 0)"/>
     <use xlink:href="#DejaVuSans-61" transform="translate(1828.523438 0)"/>
     <use xlink:href="#DejaVuSans-6c" transform="translate(1889.802734 0)"/>
     <use xlink:href="#DejaVuSans-69" transform="translate(1917.585938 0)"/>
     <use xlink:href="#DejaVuSans-73" transform="translate(1945.369141 0)"/>
     <use xlink:href="#DejaVuSans-65" transform="translate(1997.46875 0)"/>
     <use xlink:href="#DejaVuSans-64" transform="translate(2058.992188 0)"/>
     <use xlink:href="#DejaVuSans-20" transform="translate(2122.46875 0)"/>
     <use xlink:href="#DejaVuSans-70" transform="translate(2154.255859 0)"/>
     <use xlink:href="#DejaVuSans-72" transform="translate(2217.732422 0)"/>
     <use xlink:href="#DejaVuSans-65" transform="translate(2256.595703 0)"/>
     <use xlink:href="#DejaVuSans-64" transform="translate(2318.119141 0)"/>
     <use xlink:href="#DejaVuSans-69" transform="translate(2381.595703 0)"/>
     <use xlink:href="#DejaVuSans-63" transform="translate(2409.378906 0)"/>
     <use xlink:href="#DejaVuSans-74" transform="translate(2464.359375 0)"/>
     <use xlink:href="#DejaVuSans-65" transform="translate(2503.568359 0)"/>
     <use xlink:href="#DejaVuSans-64" transform="translate(2565.091797 0)"/>
     <use xlink:href="#DejaVuSans-20" transform="translate(2628.568359 0)"/>
     <use xlink:href="#DejaVuSans-62" transform="translate(2660.355469 0)"/>
     <use xlink:href="#DejaVuSans-62" transform="translate(2723.832031 0)"/>
     <use xlink:href="#DejaVuSans-6f" transform="translate(2787.308594 0)"/>
     <use xlink:href="#DejaVuSans-78" transform="translate(2845.365234 0)"/>
     <use xlink:href="#DejaVuSans-20" transform="translate(2904.544922 0)"/>
     <use xlink:href="#DejaVuSans-73" transform="translate(2936.332031 0)"/>
     <use xlink:href="#DejaVuSans-69" transform="translate(2988.431641 0)"/>
     <use xlink:href="#DejaVuSans-7a" transform="translate(3016.214844 0)"/>
     <use xlink:href="#DejaVuSans-65" transform="translate(3068.705078 0)"/>
     <use xlink:href="#DejaVuSans-20" transform="translate(3130.228516 0)"/>
     <use xlink:href="#DejaVuSans-28" transform="translate(3162.015625 0)"/>
     <use xlink:href="#DejaVuSans-66" transform="translate(3201.029297 0)"/>
     <use xlink:href="#DejaVuSans-6f" transform="translate(3236.234375 0)"/>
     <use xlink:href="#DejaVuSans-72" transform="translate(3297.416016 0)"/>
     <use xlink:href="#DejaVuSans-20" transform="translate(3338.529297 0)"/>
     <use xlink:href="#DejaVuSans-64" transform="translate(3370.316406 0)"/>
     <use xlink:href="#DejaVuSans-69" transform="translate(3433.792969 0)"/>
     <use xlink:href="#DejaVuSans-66" transform="translate(3461.576172 0)"/>
     <use xlink:href="#DejaVuSans-66" transform="translate(3496.78125 0)"/>
     <use xlink:href="#DejaVuSans-65" transform="translate(3531.986328 0)"/>
     <use xlink:href="#DejaVuSans-72" transform="translate(3593.509766 0)"/>
     <use xlink:href="#DejaVuSans-65" transform="translate(3632.373047 0)"/>
     <use xlink:href="#DejaVuSans-6e" transform="translate(3693.896484 0)"/>
     <use xlink:href="#DejaVuSans-74" transform="translate(3757.275391 0)"/>
     <use xlink:href="#DejaVuSans-20" transform="translate(3796.484375 0)"/>
     <use xlink:href="#DejaVuSans-76" transform="translate(3828.271484 0)"/>
     <use xlink:href="#DejaVuSans-61" transform="translate(3887.451172 0)"/>
     <use xlink:href="#DejaVuSans-6c" transform="translate(3948.730469 0)"/>
     <use xlink:href="#DejaVuSans-75" transform="translate(3976.513672 0)"/>
     <use xlink:href="#DejaVuSans-65" transform="translate(4039.892578 0)"/>
     <use xlink:href="#DejaVuSans-73" transform="translate(4101.416016 0)"/>
     <use xlink:href="#DejaVuSans-20" transform="translate(4153.515625 0)"/>
     <use xlink:href="#DejaVuSans-6f" transform="translate(4185.302734 0)"/>
     <use xlink:href="#DejaVuSans-66" transform="translate(4246.484375 0)"/>
     <use xlink:href="#DejaVuSans-20" transform="translate(4281.689453 0)"/>
     <use xlink:href="#DejaVuSans-61" transform="translate(4313.476562 0)"/>
     <use xlink:href="#DejaVuSans-29" transform="translate(4374.755859 0)"/>
    </g>
   </g>
   <g id="legend_1">
    <g id="patch_7">
     <path d="M 448.989062 271.371875 
L 511.4 271.371875 
Q 513.4 271.371875 513.4 269.371875 
L 513.4 50.2 
Q 513.4 48.2 511.4 48.2 
L 448.989062 48.2 
Q 446.989062 48.2 446.989062 50.2 
L 446.989062 269.371875 
Q 446.989062 271.371875 448.989062 271.371875 
z
" style="fill: #ffffff; opacity: 0.8; stroke: #cccccc; stroke-linejoin: miter"/>
    </g>
    <g id="line2d_46">
     <path d="M 450.989062 56.298437 
L 460.989062 56.298437 
L 470.989062 56.298437 
" style="fill: none; stroke: #1f77b4; stroke-width: 1.5; stroke-linecap: square"/>
    </g>
    <g id="text_18">
     <!-- a=1.0 -->
     <g transform="translate(478.989062 59.798437) scale(0.1 -0.1)">
      <defs>
       <path id="DejaVuSans-3d" d="M 678 2906 
L 4684 2906 
L 4684 2381 
L 678 2381 
L 678 2906 
z
M 678 1631 
L 4684 1631 
L 4684 1100 
L 678 1100 
L 678 1631 
z
" transform="scale(0.015625)"/>
      </defs>
      <use xlink:href="#DejaVuSans-61"/>
      <use xlink:href="#DejaVuSans-3d" transform="translate(61.279297 0)"/>
      <use xlink:href="#DejaVuSans-31" transform="translate(145.068359 0)"/>
      <use xlink:href="#DejaVuSans-2e" transform="translate(208.691406 0)"/>
      <use xlink:href="#DejaVuSans-30" transform="translate(240.478516 0)"/>
     </g>
    </g>
    <g id="line2d_47">
     <path d="M 450.989062 70.976562 
L 460.989062 70.976562 
L 470.989062 70.976562 
" style="fill: none; stroke: #ff7f0e; stroke-width: 1.5; stroke-linecap: square"/>
    </g>
    <g id="text_19">
     <!-- a=1.1 -->
     <g transform="translate(478.989062 74.476562) scale(0.1 -0.1)">
      <use xlink:href="#DejaVuSans-61"/>
      <use xlink:href="#DejaVuSans-3d" transform="translate(61.279297 0)"/>
      <use xlink:href="#DejaVuSans-31" transform="translate(145.068359 0)"/>
      <use xlink:href="#DejaVuSans-2e" transform="translate(208.691406 0)"/>
      <use xlink:href="#DejaVuSans-31" transform="translate(240.478516 0)"/>
     </g>
    </g>
    <g id="line2d_48">
     <path d="M 450.989062 85.654688 
L 460.989062 85.654688 
L 470.989062 85.654688 
" style="fill: none; stroke: #2ca02c; stroke-width: 1.5; stroke-linecap: square"/>
    </g>
    <g id="text_20">
     <!-- a=1.2 -->
     <g transform="translate(478.989062 89.154688) scale(0.1 -0.1)">
      <use xlink:href="#DejaVuSans-61"/>
      <use xlink:href="#DejaVuSans-3d" transform="translate(61.279297 0)"/>
      <use xlink:href="#DejaVuSans-31" transform="translate(145.068359 0)"/>
      <use xlink:href="#DejaVuSans-2e" transform="translate(208.691406 0)"/>
      <use xlink:href="#DejaVuSans-32" transform="translate(240.478516 0)"/>
     </g>
    </g>
    <g id="line2d_49">
     <path d="M 450.989062 100.332812 
L 460.989062 100.332812 
L 470.989062 100.332812 
" style="fill: none; stroke: #d62728; stroke-width: 1.5; stroke-linecap: square"/>
    </g>
    <g id="text_21">
     <!-- a=1.3 -->
     <g transform="translate(478.989062 103.832812) scale(0.1 -0.1)">
      <defs>
       <path id="DejaVuSans-33" d="M 2597 2516 
Q 3050 2419 3304 2112 
Q 3559 1806 3559 1356 
Q 3559 666 3084 287 
Q 2609 -91 1734 -91 
Q 1441 -91 1130 -33 
Q 819 25 488 141 
L 488 750 
Q 750 597 1062 519 
Q 1375 441 1716 441 
Q 2309 441 2620 675 
Q 2931 909 2931 1356 
Q 2931 1769 2642 2001 
Q 2353 2234 1838 2234 
L 1294 2234 
L 1294 2753 
L 1863 2753 
Q 2328 2753 2575 2939 
Q 2822 3125 2822 3475 
Q 2822 3834 2567 4026 
Q 2313 4219 1838 4219 
Q 1578 4219 1281 4162 
Q 984 4106 628 3988 
L 628 4550 
Q 988 4650 1302 4700 
Q 1616 4750 1894 4750 
Q 2613 4750 3031 4423 
Q 3450 4097 3450 3541 
Q 3450 3153 3228 2886 
Q 3006 2619 2597 2516 
z
" transform="scale(0.015625)"/>
      </defs>
      <use xlink:href="#DejaVuSans-61"/>
      <use xlink:href="#DejaVuSans-3d" transform="translate(61.279297 0)"/>
      <use xlink:href="#DejaVuSans-31" transform="translate(145.068359 0)"/>
      <use xlink:href="#DejaVuSans-2e" transform="translate(208.691406 0)"/>
      <use xlink:href="#DejaVuSans-33" transform="translate(240.478516 0)"/>
     </g>
    </g>
    <g id="line2d_50">
     <path d="M 450.989062 115.010938 
L 460.989062 115.010938 
L 470.989062 115.010938 
" style="fill: none; stroke: #9467bd; stroke-width: 1.5; stroke-linecap: square"/>
    </g>
    <g id="text_22">
     <!-- a=1.4 -->
     <g transform="translate(478.989062 118.510938) scale(0.1 -0.1)">
      <use xlink:href="#DejaVuSans-61"/>
      <use xlink:href="#DejaVuSans-3d" transform="translate(61.279297 0)"/>
      <use xlink:href="#DejaVuSans-31" transform="translate(145.068359 0)"/>
      <use xlink:href="#DejaVuSans-2e" transform="translate(208.691406 0)"/>
      <use xlink:href="#DejaVuSans-34" transform="translate(240.478516 0)"/>
     </g>
    </g>
    <g id="line2d_51">
     <path d="M 450.989062 129.689062 
L 460.989062 129.689062 
L 470.989062 129.689062 
" style="fill: none; stroke: #8c564b; stroke-width: 1.5; stroke-linecap: square"/>
    </g>
    <g id="text_23">
     <!-- a=1.5 -->
     <g transform="translate(478.989062 133.189062) scale(0.1 -0.1)">
      <defs>
       <path id="DejaVuSans-35" d="M 691 4666 
L 3169 4666 
L 3169 4134 
L 1269 4134 
L 1269 2991 
Q 1406 3038 1543 3061 
Q 1681 3084 1819 3084 
Q 2600 3084 3056 2656 
Q 3513 2228 3513 1497 
Q 3513 744 3044 326 
Q 2575 -91 1722 -91 
Q 1428 -91 1123 -41 
Q 819 9 494 109 
L 494 744 
Q 775 591 1075 516 
Q 1375 441 1709 441 
Q 2250 441 2565 725 
Q 2881 1009 2881 1497 
Q 2881 1984 2565 2268 
Q 2250 2553 1709 2553 
Q 1456 2553 1204 2497 
Q 953 2441 691 2322 
L 691 4666 
z
" transform="scale(0.015625)"/>
      </defs>
      <use xlink:href="#DejaVuSans-61"/>
      <use xlink:href="#DejaVuSans-3d" transform="translate(61.279297 0)"/>
      <use xlink:href="#DejaVuSans-31" transform="translate(145.068359 0)"/>
      <use xlink:href="#DejaVuSans-2e" transform="translate(208.691406 0)"/>
      <use xlink:href="#DejaVuSans-35" transform="translate(240.478516 0)"/>
     </g>
    </g>
    <g id="line2d_52">
     <path d="M 450.989062 144.367188 
L 460.989062 144.367188 
L 470.989062 144.367188 
" style="fill: none; stroke: #e377c2; stroke-width: 1.5; stroke-linecap: square"/>
    </g>
    <g id="text_24">
     <!-- a=1.6 -->
     <g transform="translate(478.989062 147.867188) scale(0.1 -0.1)">
      <use xlink:href="#DejaVuSans-61"/>
      <use xlink:href="#DejaVuSans-3d" transform="translate(61.279297 0)"/>
      <use xlink:href="#DejaVuSans-31" transform="translate(145.068359 0)"/>
      <use xlink:href="#DejaVuSans-2e" transform="translate(208.691406 0)"/>
      <use xlink:href="#DejaVuSans-36" transform="translate(240.478516 0)"/>
     </g>
    </g>
    <g id="line2d_53">
     <path d="M 450.989062 159.045312 
L 460.989062 159.045312 
L 470.989062 159.045312 
" style="fill: none; stroke: #7f7f7f; stroke-width: 1.5; stroke-linecap: square"/>
    </g>
    <g id="text_25">
     <!-- a=1.7 -->
     <g transform="translate(478.989062 162.545312) scale(0.1 -0.1)">
      <defs>
       <path id="DejaVuSans-37" d="M 525 4666 
L 3525 4666 
L 3525 4397 
L 1831 0 
L 1172 0 
L 2766 4134 
L 525 4134 
L 525 4666 
z
" transform="scale(0.015625)"/>
      </defs>
      <use xlink:href="#DejaVuSans-61"/>
      <use xlink:href="#DejaVuSans-3d" transform="translate(61.279297 0)"/>
      <use xlink:href="#DejaVuSans-31" transform="translate(145.068359 0)"/>
      <use xlink:href="#DejaVuSans-2e" transform="translate(208.691406 0)"/>
      <use xlink:href="#DejaVuSans-37" transform="translate(240.478516 0)"/>
     </g>
    </g>
    <g id="line2d_54">
     <path d="M 450.989062 173.723437 
L 460.989062 173.723437 
L 470.989062 173.723437 
" style="fill: none; stroke: #bcbd22; stroke-width: 1.5; stroke-linecap: square"/>
    </g>
    <g id="text_26">
     <!-- a=1.8 -->
     <g transform="translate(478.989062 177.223437) scale(0.1 -0.1)">
      <use xlink:href="#DejaVuSans-61"/>
      <use xlink:href="#DejaVuSans-3d" transform="translate(61.279297 0)"/>
      <use xlink:href="#DejaVuSans-31" transform="translate(145.068359 0)"/>
      <use xlink:href="#DejaVuSans-2e" transform="translate(208.691406 0)"/>
      <use xlink:href="#DejaVuSans-38" transform="translate(240.478516 0)"/>
     </g>
    </g>
    <g id="line2d_55">
     <path d="M 450.989062 188.401562 
L 460.989062 188.401562 
L 470.989062 188.401562 
" style="fill: none; stroke: #17becf; stroke-width: 1.5; stroke-linecap: square"/>
    </g>
    <g id="text_27">
     <!-- a=1.9 -->
     <g transform="translate(478.989062 191.901562) scale(0.1 -0.1)">
      <defs>
       <path id="DejaVuSans-39" d="M 703 97 
L 703 672 
Q 941 559 1184 500 
Q 1428 441 1663 441 
Q 2288 441 2617 861 
Q 2947 1281 2994 2138 
Q 2813 1869 2534 1725 
Q 2256 1581 1919 1581 
Q 1219 1581 811 2004 
Q 403 2428 403 3163 
Q 403 3881 828 4315 
Q 1253 4750 1959 4750 
Q 2769 4750 3195 4129 
Q 3622 3509 3622 2328 
Q 3622 1225 3098 567 
Q 2575 -91 1691 -91 
Q 1453 -91 1209 -44 
Q 966 3 703 97 
z
M 1959 2075 
Q 2384 2075 2632 2365 
Q 2881 2656 2881 3163 
Q 2881 3666 2632 3958 
Q 2384 4250 1959 4250 
Q 1534 4250 1286 3958 
Q 1038 3666 1038 3163 
Q 1038 2656 1286 2365 
Q 1534 2075 1959 2075 
z
" transform="scale(0.015625)"/>
      </defs>
      <use xlink:href="#DejaVuSans-61"/>
      <use xlink:href="#DejaVuSans-3d" transform="translate(61.279297 0)"/>
      <use xlink:href="#DejaVuSans-31" transform="translate(145.068359 0)"/>
      <use xlink:href="#DejaVuSans-2e" transform="translate(208.691406 0)"/>
      <use xlink:href="#DejaVuSans-39" transform="translate(240.478516 0)"/>
     </g>
    </g>
    <g id="line2d_56">
     <path d="M 450.989062 203.079687 
L 460.989062 203.079687 
L 470.989062 203.079687 
" style="fill: none; stroke: #1f77b4; stroke-width: 1.5; stroke-linecap: square"/>
    </g>
    <g id="text_28">
     <!-- a=2.0 -->
     <g transform="translate(478.989062 206.579687) scale(0.1 -0.1)">
      <use xlink:href="#DejaVuSans-61"/>
      <use xlink:href="#DejaVuSans-3d" transform="translate(61.279297 0)"/>
      <use xlink:href="#DejaVuSans-32" transform="translate(145.068359 0)"/>
      <use xlink:href="#DejaVuSans-2e" transform="translate(208.691406 0)"/>
      <use xlink:href="#DejaVuSans-30" transform="translate(240.478516 0)"/>
     </g>
    </g>
    <g id="line2d_57">
     <path d="M 450.989062 217.757812 
L 460.989062 217.757812 
L 470.989062 217.757812 
" style="fill: none; stroke: #ff7f0e; stroke-width: 1.5; stroke-linecap: square"/>
    </g>
    <g id="text_29">
     <!-- a=2.1 -->
     <g transform="translate(478.989062 221.257812) scale(0.1 -0.1)">
      <use xlink:href="#DejaVuSans-61"/>
      <use xlink:href="#DejaVuSans-3d" transform="translate(61.279297 0)"/>
      <use xlink:href="#DejaVuSans-32" transform="translate(145.068359 0)"/>
      <use xlink:href="#DejaVuSans-2e" transform="translate(208.691406 0)"/>
      <use xlink:href="#DejaVuSans-31" transform="translate(240.478516 0)"/>
     </g>
    </g>
    <g id="line2d_58">
     <path d="M 450.989062 232.435937 
L 460.989062 232.435937 
L 470.989062 232.435937 
" style="fill: none; stroke: #2ca02c; stroke-width: 1.5; stroke-linecap: square"/>
    </g>
    <g id="text_30">
     <!-- a=2.2 -->
     <g transform="translate(478.989062 235.935937) scale(0.1 -0.1)">
      <use xlink:href="#DejaVuSans-61"/>
      <use xlink:href="#DejaVuSans-3d" transform="translate(61.279297 0)"/>
      <use xlink:href="#DejaVuSans-32" transform="translate(145.068359 0)"/>
      <use xlink:href="#DejaVuSans-2e" transform="translate(208.691406 0)"/>
      <use xlink:href="#DejaVuSans-32" transform="translate(240.478516 0)"/>
     </g>
    </g>
    <g id="line2d_59">
     <path d="M 450.989062 247.114062 
L 460.989062 247.114062 
L 470.989062 247.114062 
" style="fill: none; stroke: #d62728; stroke-width: 1.5; stroke-linecap: square"/>
    </g>
    <g id="text_31">
     <!-- a=2.3 -->
     <g transform="translate(478.989062 250.614062) scale(0.1 -0.1)">
      <use xlink:href="#DejaVuSans-61"/>
      <use xlink:href="#DejaVuSans-3d" transform="translate(61.279297 0)"/>
      <use xlink:href="#DejaVuSans-32" transform="translate(145.068359 0)"/>
      <use xlink:href="#DejaVuSans-2e" transform="translate(208.691406 0)"/>
      <use xlink:href="#DejaVuSans-33" transform="translate(240.478516 0)"/>
     </g>
    </g>
    <g id="line2d_60">
     <path d="M 450.989062 261.792187 
L 460.989062 261.792187 
L 470.989062 261.792187 
" style="fill: none; stroke: #9467bd; stroke-width: 1.5; stroke-linecap: square"/>
    </g>
    <g id="text_32">
     <!-- a=2.4 -->
     <g transform="translate(478.989062 265.292187) scale(0.1 -0.1)">
      <use xlink:href="#DejaVuSans-61"/>
      <use xlink:href="#DejaVuSans-3d" transform="translate(61.279297 0)"/>
      <use xlink:href="#DejaVuSans-32" transform="translate(145.068359 0)"/>
      <use xlink:href="#DejaVuSans-2e" transform="translate(208.691406 0)"/>
      <use xlink:href="#DejaVuSans-34" transform="translate(240.478516 0)"/>
     </g>
    </g>
   </g>
  </g>
 </g>
 <defs>
  <clipPath id="pd86fe0fa24">
   <rect x="72" y="43.2" width="446.4" height="277.2"/>
  </clipPath>
 </defs>
</svg>
