<?xml version="1.0" encoding="utf-8" standalone="no"?>
<!DOCTYPE svg PUBLIC "-//W3C//DTD SVG 1.1//EN"
  "http://www.w3.org/Graphics/SVG/1.1/DTD/svg11.dtd">
<svg xmlns:xlink="http://www.w3.org/1999/xlink" width="720pt" height="432pt" viewBox="0 0 720 432" xmlns="http://www.w3.org/2000/svg" version="1.1">
 <metadata>
  <rdf:RDF xmlns:dc="http://purl.org/dc/elements/1.1/" xmlns:cc="http://creativecommons.org/ns#" xmlns:rdf="http://www.w3.org/1999/02/22-rdf-syntax-ns#">
   <cc:Work>
    <dc:type rdf:resource="http://purl.org/dc/dcmitype/StillImage"/>
    <dc:date>2025-05-30T10:12:39.790642</dc:date>
    <dc:format>image/svg+xml</dc:format>
    <dc:creator>
     <cc:Agent>
      <dc:title>Matplotlib v3.10.3, https://matplotlib.org/</dc:title>
     </cc:Agent>
    </dc:creator>
   </cc:Work>
  </rdf:RDF>
 </metadata>
 <defs>
  <style type="text/css">*{stroke-linejoin: round; stroke-linecap: butt}</style>
 </defs>
 <g id="figure_1">
  <g id="patch_1">
   <path d="M 0 432 
L 720 432 
L 720 0 
L 0 0 
z
" style="fill: #ffffff"/>
  </g>
  <g id="axes_1">
   <g id="patch_2">
    <path d="M 90 384.48 
L 648 384.48 
L 648 51.84 
L 90 51.84 
z
" style="fill: #ffffff"/>
   </g>
   <g id="matplotlib.axis_1">
    <g id="xtick_1">
     <g id="line2d_1">
      <path d="M 199.909091 384.48 
L 199.909091 51.84 
" clip-path="url(#p336cfb6f7b)" style="fill: none; stroke: #b0b0b0; stroke-width: 0.8; stroke-linecap: square"/>
     </g>
     <g id="line2d_2">
      <defs>
       <path id="m93caa63d7a" d="M 0 0 
L 0 3.5 
" style="stroke: #000000; stroke-width: 0.8"/>
      </defs>
      <g>
       <use xlink:href="#m93caa63d7a" x="199.909091" y="384.48" style="stroke: #000000; stroke-width: 0.8"/>
      </g>
     </g>
     <g id="text_1">
      <!-- 0.2 -->
      <g transform="translate(191.957528 399.078438) scale(0.1 -0.1)">
       <defs>
        <path id="DejaVuSans-30" d="M 2034 4250 
Q 1547 4250 1301 3770 
Q 1056 3291 1056 2328 
Q 1056 1369 1301 889 
Q 1547 409 2034 409 
Q 2525 409 2770 889 
Q 3016 1369 3016 2328 
Q 3016 3291 2770 3770 
Q 2525 4250 2034 4250 
z
M 2034 4750 
Q 2819 4750 3233 4129 
Q 3647 3509 3647 2328 
Q 3647 1150 3233 529 
Q 2819 -91 2034 -91 
Q 1250 -91 836 529 
Q 422 1150 422 2328 
Q 422 3509 836 4129 
Q 1250 4750 2034 4750 
z
" transform="scale(0.015625)"/>
        <path id="DejaVuSans-2e" d="M 684 794 
L 1344 794 
L 1344 0 
L 684 0 
L 684 794 
z
" transform="scale(0.015625)"/>
        <path id="DejaVuSans-32" d="M 1228 531 
L 3431 531 
L 3431 0 
L 469 0 
L 469 531 
Q 828 903 1448 1529 
Q 2069 2156 2228 2338 
Q 2531 2678 2651 2914 
Q 2772 3150 2772 3378 
Q 2772 3750 2511 3984 
Q 2250 4219 1831 4219 
Q 1534 4219 1204 4116 
Q 875 4013 500 3803 
L 500 4441 
Q 881 4594 1212 4672 
Q 1544 4750 1819 4750 
Q 2544 4750 2975 4387 
Q 3406 4025 3406 3419 
Q 3406 3131 3298 2873 
Q 3191 2616 2906 2266 
Q 2828 2175 2409 1742 
Q 1991 1309 1228 531 
z
" transform="scale(0.015625)"/>
       </defs>
       <use xlink:href="#DejaVuSans-30"/>
       <use xlink:href="#DejaVuSans-2e" transform="translate(63.623047 0)"/>
       <use xlink:href="#DejaVuSans-32" transform="translate(95.410156 0)"/>
      </g>
     </g>
    </g>
    <g id="xtick_2">
     <g id="line2d_3">
      <path d="M 312.636364 384.48 
L 312.636364 51.84 
" clip-path="url(#p336cfb6f7b)" style="fill: none; stroke: #b0b0b0; stroke-width: 0.8; stroke-linecap: square"/>
     </g>
     <g id="line2d_4">
      <g>
       <use xlink:href="#m93caa63d7a" x="312.636364" y="384.48" style="stroke: #000000; stroke-width: 0.8"/>
      </g>
     </g>
     <g id="text_2">
      <!-- 0.4 -->
      <g transform="translate(304.684801 399.078438) scale(0.1 -0.1)">
       <defs>
        <path id="DejaVuSans-34" d="M 2419 4116 
L 825 1625 
L 2419 1625 
L 2419 4116 
z
M 2253 4666 
L 3047 4666 
L 3047 1625 
L 3713 1625 
L 3713 1100 
L 3047 1100 
L 3047 0 
L 2419 0 
L 2419 1100 
L 313 1100 
L 313 1709 
L 2253 4666 
z
" transform="scale(0.015625)"/>
       </defs>
       <use xlink:href="#DejaVuSans-30"/>
       <use xlink:href="#DejaVuSans-2e" transform="translate(63.623047 0)"/>
       <use xlink:href="#DejaVuSans-34" transform="translate(95.410156 0)"/>
      </g>
     </g>
    </g>
    <g id="xtick_3">
     <g id="line2d_5">
      <path d="M 425.363636 384.48 
L 425.363636 51.84 
" clip-path="url(#p336cfb6f7b)" style="fill: none; stroke: #b0b0b0; stroke-width: 0.8; stroke-linecap: square"/>
     </g>
     <g id="line2d_6">
      <g>
       <use xlink:href="#m93caa63d7a" x="425.363636" y="384.48" style="stroke: #000000; stroke-width: 0.8"/>
      </g>
     </g>
     <g id="text_3">
      <!-- 0.6 -->
      <g transform="translate(417.412074 399.078438) scale(0.1 -0.1)">
       <defs>
        <path id="DejaVuSans-36" d="M 2113 2584 
Q 1688 2584 1439 2293 
Q 1191 2003 1191 1497 
Q 1191 994 1439 701 
Q 1688 409 2113 409 
Q 2538 409 2786 701 
Q 3034 994 3034 1497 
Q 3034 2003 2786 2293 
Q 2538 2584 2113 2584 
z
M 3366 4563 
L 3366 3988 
Q 3128 4100 2886 4159 
Q 2644 4219 2406 4219 
Q 1781 4219 1451 3797 
Q 1122 3375 1075 2522 
Q 1259 2794 1537 2939 
Q 1816 3084 2150 3084 
Q 2853 3084 3261 2657 
Q 3669 2231 3669 1497 
Q 3669 778 3244 343 
Q 2819 -91 2113 -91 
Q 1303 -91 875 529 
Q 447 1150 447 2328 
Q 447 3434 972 4092 
Q 1497 4750 2381 4750 
Q 2619 4750 2861 4703 
Q 3103 4656 3366 4563 
z
" transform="scale(0.015625)"/>
       </defs>
       <use xlink:href="#DejaVuSans-30"/>
       <use xlink:href="#DejaVuSans-2e" transform="translate(63.623047 0)"/>
       <use xlink:href="#DejaVuSans-36" transform="translate(95.410156 0)"/>
      </g>
     </g>
    </g>
    <g id="xtick_4">
     <g id="line2d_7">
      <path d="M 538.090909 384.48 
L 538.090909 51.84 
" clip-path="url(#p336cfb6f7b)" style="fill: none; stroke: #b0b0b0; stroke-width: 0.8; stroke-linecap: square"/>
     </g>
     <g id="line2d_8">
      <g>
       <use xlink:href="#m93caa63d7a" x="538.090909" y="384.48" style="stroke: #000000; stroke-width: 0.8"/>
      </g>
     </g>
     <g id="text_4">
      <!-- 0.8 -->
      <g transform="translate(530.139347 399.078438) scale(0.1 -0.1)">
       <defs>
        <path id="DejaVuSans-38" d="M 2034 2216 
Q 1584 2216 1326 1975 
Q 1069 1734 1069 1313 
Q 1069 891 1326 650 
Q 1584 409 2034 409 
Q 2484 409 2743 651 
Q 3003 894 3003 1313 
Q 3003 1734 2745 1975 
Q 2488 2216 2034 2216 
z
M 1403 2484 
Q 997 2584 770 2862 
Q 544 3141 544 3541 
Q 544 4100 942 4425 
Q 1341 4750 2034 4750 
Q 2731 4750 3128 4425 
Q 3525 4100 3525 3541 
Q 3525 3141 3298 2862 
Q 3072 2584 2669 2484 
Q 3125 2378 3379 2068 
Q 3634 1759 3634 1313 
Q 3634 634 3220 271 
Q 2806 -91 2034 -91 
Q 1263 -91 848 271 
Q 434 634 434 1313 
Q 434 1759 690 2068 
Q 947 2378 1403 2484 
z
M 1172 3481 
Q 1172 3119 1398 2916 
Q 1625 2713 2034 2713 
Q 2441 2713 2670 2916 
Q 2900 3119 2900 3481 
Q 2900 3844 2670 4047 
Q 2441 4250 2034 4250 
Q 1625 4250 1398 4047 
Q 1172 3844 1172 3481 
z
" transform="scale(0.015625)"/>
       </defs>
       <use xlink:href="#DejaVuSans-30"/>
       <use xlink:href="#DejaVuSans-2e" transform="translate(63.623047 0)"/>
       <use xlink:href="#DejaVuSans-38" transform="translate(95.410156 0)"/>
      </g>
     </g>
    </g>
    <g id="text_5">
     <!-- Confidence threshold -->
     <g transform="translate(315.752344 412.756563) scale(0.1 -0.1)">
      <defs>
       <path id="DejaVuSans-43" d="M 4122 4306 
L 4122 3641 
Q 3803 3938 3442 4084 
Q 3081 4231 2675 4231 
Q 1875 4231 1450 3742 
Q 1025 3253 1025 2328 
Q 1025 1406 1450 917 
Q 1875 428 2675 428 
Q 3081 428 3442 575 
Q 3803 722 4122 1019 
L 4122 359 
Q 3791 134 3420 21 
Q 3050 -91 2638 -91 
Q 1578 -91 968 557 
Q 359 1206 359 2328 
Q 359 3453 968 4101 
Q 1578 4750 2638 4750 
Q 3056 4750 3426 4639 
Q 3797 4528 4122 4306 
z
" transform="scale(0.015625)"/>
       <path id="DejaVuSans-6f" d="M 1959 3097 
Q 1497 3097 1228 2736 
Q 959 2375 959 1747 
Q 959 1119 1226 758 
Q 1494 397 1959 397 
Q 2419 397 2687 759 
Q 2956 1122 2956 1747 
Q 2956 2369 2687 2733 
Q 2419 3097 1959 3097 
z
M 1959 3584 
Q 2709 3584 3137 3096 
Q 3566 2609 3566 1747 
Q 3566 888 3137 398 
Q 2709 -91 1959 -91 
Q 1206 -91 779 398 
Q 353 888 353 1747 
Q 353 2609 779 3096 
Q 1206 3584 1959 3584 
z
" transform="scale(0.015625)"/>
       <path id="DejaVuSans-6e" d="M 3513 2113 
L 3513 0 
L 2938 0 
L 2938 2094 
Q 2938 2591 2744 2837 
Q 2550 3084 2163 3084 
Q 1697 3084 1428 2787 
Q 1159 2491 1159 1978 
L 1159 0 
L 581 0 
L 581 3500 
L 1159 3500 
L 1159 2956 
Q 1366 3272 1645 3428 
Q 1925 3584 2291 3584 
Q 2894 3584 3203 3211 
Q 3513 2838 3513 2113 
z
" transform="scale(0.015625)"/>
       <path id="DejaVuSans-66" d="M 2375 4863 
L 2375 4384 
L 1825 4384 
Q 1516 4384 1395 4259 
Q 1275 4134 1275 3809 
L 1275 3500 
L 2222 3500 
L 2222 3053 
L 1275 3053 
L 1275 0 
L 697 0 
L 697 3053 
L 147 3053 
L 147 3500 
L 697 3500 
L 697 3744 
Q 697 4328 969 4595 
Q 1241 4863 1831 4863 
L 2375 4863 
z
" transform="scale(0.015625)"/>
       <path id="DejaVuSans-69" d="M 603 3500 
L 1178 3500 
L 1178 0 
L 603 0 
L 603 3500 
z
M 603 4863 
L 1178 4863 
L 1178 4134 
L 603 4134 
L 603 4863 
z
" transform="scale(0.015625)"/>
       <path id="DejaVuSans-64" d="M 2906 2969 
L 2906 4863 
L 3481 4863 
L 3481 0 
L 2906 0 
L 2906 525 
Q 2725 213 2448 61 
Q 2172 -91 1784 -91 
Q 1150 -91 751 415 
Q 353 922 353 1747 
Q 353 2572 751 3078 
Q 1150 3584 1784 3584 
Q 2172 3584 2448 3432 
Q 2725 3281 2906 2969 
z
M 947 1747 
Q 947 1113 1208 752 
Q 1469 391 1925 391 
Q 2381 391 2643 752 
Q 2906 1113 2906 1747 
Q 2906 2381 2643 2742 
Q 2381 3103 1925 3103 
Q 1469 3103 1208 2742 
Q 947 2381 947 1747 
z
" transform="scale(0.015625)"/>
       <path id="DejaVuSans-65" d="M 3597 1894 
L 3597 1613 
L 953 1613 
Q 991 1019 1311 708 
Q 1631 397 2203 397 
Q 2534 397 2845 478 
Q 3156 559 3463 722 
L 3463 178 
Q 3153 47 2828 -22 
Q 2503 -91 2169 -91 
Q 1331 -91 842 396 
Q 353 884 353 1716 
Q 353 2575 817 3079 
Q 1281 3584 2069 3584 
Q 2775 3584 3186 3129 
Q 3597 2675 3597 1894 
z
M 3022 2063 
Q 3016 2534 2758 2815 
Q 2500 3097 2075 3097 
Q 1594 3097 1305 2825 
Q 1016 2553 972 2059 
L 3022 2063 
z
" transform="scale(0.015625)"/>
       <path id="DejaVuSans-63" d="M 3122 3366 
L 3122 2828 
Q 2878 2963 2633 3030 
Q 2388 3097 2138 3097 
Q 1578 3097 1268 2742 
Q 959 2388 959 1747 
Q 959 1106 1268 751 
Q 1578 397 2138 397 
Q 2388 397 2633 464 
Q 2878 531 3122 666 
L 3122 134 
Q 2881 22 2623 -34 
Q 2366 -91 2075 -91 
Q 1284 -91 818 406 
Q 353 903 353 1747 
Q 353 2603 823 3093 
Q 1294 3584 2113 3584 
Q 2378 3584 2631 3529 
Q 2884 3475 3122 3366 
z
" transform="scale(0.015625)"/>
       <path id="DejaVuSans-20" transform="scale(0.015625)"/>
       <path id="DejaVuSans-74" d="M 1172 4494 
L 1172 3500 
L 2356 3500 
L 2356 3053 
L 1172 3053 
L 1172 1153 
Q 1172 725 1289 603 
Q 1406 481 1766 481 
L 2356 481 
L 2356 0 
L 1766 0 
Q 1100 0 847 248 
Q 594 497 594 1153 
L 594 3053 
L 172 3053 
L 172 3500 
L 594 3500 
L 594 4494 
L 1172 4494 
z
" transform="scale(0.015625)"/>
       <path id="DejaVuSans-68" d="M 3513 2113 
L 3513 0 
L 2938 0 
L 2938 2094 
Q 2938 2591 2744 2837 
Q 2550 3084 2163 3084 
Q 1697 3084 1428 2787 
Q 1159 2491 1159 1978 
L 1159 0 
L 581 0 
L 581 4863 
L 1159 4863 
L 1159 2956 
Q 1366 3272 1645 3428 
Q 1925 3584 2291 3584 
Q 2894 3584 3203 3211 
Q 3513 2838 3513 2113 
z
" transform="scale(0.015625)"/>
       <path id="DejaVuSans-72" d="M 2631 2963 
Q 2534 3019 2420 3045 
Q 2306 3072 2169 3072 
Q 1681 3072 1420 2755 
Q 1159 2438 1159 1844 
L 1159 0 
L 581 0 
L 581 3500 
L 1159 3500 
L 1159 2956 
Q 1341 3275 1631 3429 
Q 1922 3584 2338 3584 
Q 2397 3584 2469 3576 
Q 2541 3569 2628 3553 
L 2631 2963 
z
" transform="scale(0.015625)"/>
       <path id="DejaVuSans-73" d="M 2834 3397 
L 2834 2853 
Q 2591 2978 2328 3040 
Q 2066 3103 1784 3103 
Q 1356 3103 1142 2972 
Q 928 2841 928 2578 
Q 928 2378 1081 2264 
Q 1234 2150 1697 2047 
L 1894 2003 
Q 2506 1872 2764 1633 
Q 3022 1394 3022 966 
Q 3022 478 2636 193 
Q 2250 -91 1575 -91 
Q 1294 -91 989 -36 
Q 684 19 347 128 
L 347 722 
Q 666 556 975 473 
Q 1284 391 1588 391 
Q 1994 391 2212 530 
Q 2431 669 2431 922 
Q 2431 1156 2273 1281 
Q 2116 1406 1581 1522 
L 1381 1569 
Q 847 1681 609 1914 
Q 372 2147 372 2553 
Q 372 3047 722 3315 
Q 1072 3584 1716 3584 
Q 2034 3584 2315 3537 
Q 2597 3491 2834 3397 
z
" transform="scale(0.015625)"/>
       <path id="DejaVuSans-6c" d="M 603 4863 
L 1178 4863 
L 1178 0 
L 603 0 
L 603 4863 
z
" transform="scale(0.015625)"/>
      </defs>
      <use xlink:href="#DejaVuSans-43"/>
      <use xlink:href="#DejaVuSans-6f" transform="translate(69.824219 0)"/>
      <use xlink:href="#DejaVuSans-6e" transform="translate(131.005859 0)"/>
      <use xlink:href="#DejaVuSans-66" transform="translate(194.384766 0)"/>
      <use xlink:href="#DejaVuSans-69" transform="translate(229.589844 0)"/>
      <use xlink:href="#DejaVuSans-64" transform="translate(257.373047 0)"/>
      <use xlink:href="#DejaVuSans-65" transform="translate(320.849609 0)"/>
      <use xlink:href="#DejaVuSans-6e" transform="translate(382.373047 0)"/>
      <use xlink:href="#DejaVuSans-63" transform="translate(445.751953 0)"/>
      <use xlink:href="#DejaVuSans-65" transform="translate(500.732422 0)"/>
      <use xlink:href="#DejaVuSans-20" transform="translate(562.255859 0)"/>
      <use xlink:href="#DejaVuSans-74" transform="translate(594.042969 0)"/>
      <use xlink:href="#DejaVuSans-68" transform="translate(633.251953 0)"/>
      <use xlink:href="#DejaVuSans-72" transform="translate(696.630859 0)"/>
      <use xlink:href="#DejaVuSans-65" transform="translate(735.494141 0)"/>
      <use xlink:href="#DejaVuSans-73" transform="translate(797.017578 0)"/>
      <use xlink:href="#DejaVuSans-68" transform="translate(849.117188 0)"/>
      <use xlink:href="#DejaVuSans-6f" transform="translate(912.496094 0)"/>
      <use xlink:href="#DejaVuSans-6c" transform="translate(973.677734 0)"/>
      <use xlink:href="#DejaVuSans-64" transform="translate(1001.460938 0)"/>
     </g>
    </g>
   </g>
   <g id="matplotlib.axis_2">
    <g id="ytick_1">
     <g id="line2d_9">
      <path d="M 90 369.36 
L 648 369.36 
" clip-path="url(#p336cfb6f7b)" style="fill: none; stroke: #b0b0b0; stroke-width: 0.8; stroke-linecap: square"/>
     </g>
     <g id="line2d_10">
      <defs>
       <path id="m9c9888746e" d="M 0 0 
L -3.5 0 
" style="stroke: #000000; stroke-width: 0.8"/>
      </defs>
      <g>
       <use xlink:href="#m9c9888746e" x="90" y="369.36" style="stroke: #000000; stroke-width: 0.8"/>
      </g>
     </g>
     <g id="text_6">
      <!-- 0.0 -->
      <g transform="translate(67.096875 373.159219) scale(0.1 -0.1)">
       <use xlink:href="#DejaVuSans-30"/>
       <use xlink:href="#DejaVuSans-2e" transform="translate(63.623047 0)"/>
       <use xlink:href="#DejaVuSans-30" transform="translate(95.410156 0)"/>
      </g>
     </g>
    </g>
    <g id="ytick_2">
     <g id="line2d_11">
      <path d="M 90 302.634353 
L 648 302.634353 
" clip-path="url(#p336cfb6f7b)" style="fill: none; stroke: #b0b0b0; stroke-width: 0.8; stroke-linecap: square"/>
     </g>
     <g id="line2d_12">
      <g>
       <use xlink:href="#m9c9888746e" x="90" y="302.634353" style="stroke: #000000; stroke-width: 0.8"/>
      </g>
     </g>
     <g id="text_7">
      <!-- 0.2 -->
      <g transform="translate(67.096875 306.433572) scale(0.1 -0.1)">
       <use xlink:href="#DejaVuSans-30"/>
       <use xlink:href="#DejaVuSans-2e" transform="translate(63.623047 0)"/>
       <use xlink:href="#DejaVuSans-32" transform="translate(95.410156 0)"/>
      </g>
     </g>
    </g>
    <g id="ytick_3">
     <g id="line2d_13">
      <path d="M 90 235.908706 
L 648 235.908706 
" clip-path="url(#p336cfb6f7b)" style="fill: none; stroke: #b0b0b0; stroke-width: 0.8; stroke-linecap: square"/>
     </g>
     <g id="line2d_14">
      <g>
       <use xlink:href="#m9c9888746e" x="90" y="235.908706" style="stroke: #000000; stroke-width: 0.8"/>
      </g>
     </g>
     <g id="text_8">
      <!-- 0.4 -->
      <g transform="translate(67.096875 239.707925) scale(0.1 -0.1)">
       <use xlink:href="#DejaVuSans-30"/>
       <use xlink:href="#DejaVuSans-2e" transform="translate(63.623047 0)"/>
       <use xlink:href="#DejaVuSans-34" transform="translate(95.410156 0)"/>
      </g>
     </g>
    </g>
    <g id="ytick_4">
     <g id="line2d_15">
      <path d="M 90 169.183059 
L 648 169.183059 
" clip-path="url(#p336cfb6f7b)" style="fill: none; stroke: #b0b0b0; stroke-width: 0.8; stroke-linecap: square"/>
     </g>
     <g id="line2d_16">
      <g>
       <use xlink:href="#m9c9888746e" x="90" y="169.183059" style="stroke: #000000; stroke-width: 0.8"/>
      </g>
     </g>
     <g id="text_9">
      <!-- 0.6 -->
      <g transform="translate(67.096875 172.982278) scale(0.1 -0.1)">
       <use xlink:href="#DejaVuSans-30"/>
       <use xlink:href="#DejaVuSans-2e" transform="translate(63.623047 0)"/>
       <use xlink:href="#DejaVuSans-36" transform="translate(95.410156 0)"/>
      </g>
     </g>
    </g>
    <g id="ytick_5">
     <g id="line2d_17">
      <path d="M 90 102.457412 
L 648 102.457412 
" clip-path="url(#p336cfb6f7b)" style="fill: none; stroke: #b0b0b0; stroke-width: 0.8; stroke-linecap: square"/>
     </g>
     <g id="line2d_18">
      <g>
       <use xlink:href="#m9c9888746e" x="90" y="102.457412" style="stroke: #000000; stroke-width: 0.8"/>
      </g>
     </g>
     <g id="text_10">
      <!-- 0.8 -->
      <g transform="translate(67.096875 106.256631) scale(0.1 -0.1)">
       <use xlink:href="#DejaVuSans-30"/>
       <use xlink:href="#DejaVuSans-2e" transform="translate(63.623047 0)"/>
       <use xlink:href="#DejaVuSans-38" transform="translate(95.410156 0)"/>
      </g>
     </g>
    </g>
    <g id="text_11">
     <!-- Recall -->
     <g transform="translate(61.017187 233.077187) rotate(-90) scale(0.1 -0.1)">
      <defs>
       <path id="DejaVuSans-52" d="M 2841 2188 
Q 3044 2119 3236 1894 
Q 3428 1669 3622 1275 
L 4263 0 
L 3584 0 
L 2988 1197 
Q 2756 1666 2539 1819 
Q 2322 1972 1947 1972 
L 1259 1972 
L 1259 0 
L 628 0 
L 628 4666 
L 2053 4666 
Q 2853 4666 3247 4331 
Q 3641 3997 3641 3322 
Q 3641 2881 3436 2590 
Q 3231 2300 2841 2188 
z
M 1259 4147 
L 1259 2491 
L 2053 2491 
Q 2509 2491 2742 2702 
Q 2975 2913 2975 3322 
Q 2975 3731 2742 3939 
Q 2509 4147 2053 4147 
L 1259 4147 
z
" transform="scale(0.015625)"/>
       <path id="DejaVuSans-61" d="M 2194 1759 
Q 1497 1759 1228 1600 
Q 959 1441 959 1056 
Q 959 750 1161 570 
Q 1363 391 1709 391 
Q 2188 391 2477 730 
Q 2766 1069 2766 1631 
L 2766 1759 
L 2194 1759 
z
M 3341 1997 
L 3341 0 
L 2766 0 
L 2766 531 
Q 2569 213 2275 61 
Q 1981 -91 1556 -91 
Q 1019 -91 701 211 
Q 384 513 384 1019 
Q 384 1609 779 1909 
Q 1175 2209 1959 2209 
L 2766 2209 
L 2766 2266 
Q 2766 2663 2505 2880 
Q 2244 3097 1772 3097 
Q 1472 3097 1187 3025 
Q 903 2953 641 2809 
L 641 3341 
Q 956 3463 1253 3523 
Q 1550 3584 1831 3584 
Q 2591 3584 2966 3190 
Q 3341 2797 3341 1997 
z
" transform="scale(0.015625)"/>
      </defs>
      <use xlink:href="#DejaVuSans-52"/>
      <use xlink:href="#DejaVuSans-65" transform="translate(64.982422 0)"/>
      <use xlink:href="#DejaVuSans-63" transform="translate(126.505859 0)"/>
      <use xlink:href="#DejaVuSans-61" transform="translate(181.486328 0)"/>
      <use xlink:href="#DejaVuSans-6c" transform="translate(242.765625 0)"/>
      <use xlink:href="#DejaVuSans-6c" transform="translate(270.548828 0)"/>
     </g>
    </g>
   </g>
   <g id="line2d_19">
    <path d="M 115.363636 85.934118 
L 143.545455 85.934118 
L 171.727273 85.934118 
L 199.909091 85.934118 
L 228.090909 85.934118 
L 256.272727 89.491765 
L 284.454545 93.84 
L 312.636364 97.002353 
L 340.818182 100.56 
L 369 106.094118 
L 397.181818 112.418824 
L 425.363636 122.301176 
L 453.545455 134.555294 
L 481.727273 151.948235 
L 509.909091 181.990588 
L 538.090909 225.077647 
L 566.272727 294.254118 
L 594.454545 355.524706 
L 622.636364 369.36 
" clip-path="url(#p336cfb6f7b)" style="fill: none; stroke: #4682b4; stroke-width: 1.5; stroke-linecap: square"/>
    <defs>
     <path id="mbc62cd0a25" d="M -3 3 
L 3 -3 
M -3 -3 
L 3 3 
" style="stroke: #4682b4"/>
    </defs>
    <g clip-path="url(#p336cfb6f7b)">
     <use xlink:href="#mbc62cd0a25" x="115.363636" y="85.934118" style="fill: #4682b4; stroke: #4682b4"/>
     <use xlink:href="#mbc62cd0a25" x="143.545455" y="85.934118" style="fill: #4682b4; stroke: #4682b4"/>
     <use xlink:href="#mbc62cd0a25" x="171.727273" y="85.934118" style="fill: #4682b4; stroke: #4682b4"/>
     <use xlink:href="#mbc62cd0a25" x="199.909091" y="85.934118" style="fill: #4682b4; stroke: #4682b4"/>
     <use xlink:href="#mbc62cd0a25" x="228.090909" y="85.934118" style="fill: #4682b4; stroke: #4682b4"/>
     <use xlink:href="#mbc62cd0a25" x="256.272727" y="89.491765" style="fill: #4682b4; stroke: #4682b4"/>
     <use xlink:href="#mbc62cd0a25" x="284.454545" y="93.84" style="fill: #4682b4; stroke: #4682b4"/>
     <use xlink:href="#mbc62cd0a25" x="312.636364" y="97.002353" style="fill: #4682b4; stroke: #4682b4"/>
     <use xlink:href="#mbc62cd0a25" x="340.818182" y="100.56" style="fill: #4682b4; stroke: #4682b4"/>
     <use xlink:href="#mbc62cd0a25" x="369" y="106.094118" style="fill: #4682b4; stroke: #4682b4"/>
     <use xlink:href="#mbc62cd0a25" x="397.181818" y="112.418824" style="fill: #4682b4; stroke: #4682b4"/>
     <use xlink:href="#mbc62cd0a25" x="425.363636" y="122.301176" style="fill: #4682b4; stroke: #4682b4"/>
     <use xlink:href="#mbc62cd0a25" x="453.545455" y="134.555294" style="fill: #4682b4; stroke: #4682b4"/>
     <use xlink:href="#mbc62cd0a25" x="481.727273" y="151.948235" style="fill: #4682b4; stroke: #4682b4"/>
     <use xlink:href="#mbc62cd0a25" x="509.909091" y="181.990588" style="fill: #4682b4; stroke: #4682b4"/>
     <use xlink:href="#mbc62cd0a25" x="538.090909" y="225.077647" style="fill: #4682b4; stroke: #4682b4"/>
     <use xlink:href="#mbc62cd0a25" x="566.272727" y="294.254118" style="fill: #4682b4; stroke: #4682b4"/>
     <use xlink:href="#mbc62cd0a25" x="594.454545" y="355.524706" style="fill: #4682b4; stroke: #4682b4"/>
     <use xlink:href="#mbc62cd0a25" x="622.636364" y="369.36" style="fill: #4682b4; stroke: #4682b4"/>
    </g>
   </g>
   <g id="line2d_20">
    <path d="M 115.363636 66.96 
L 143.545455 66.96 
L 171.727273 66.96 
L 199.909091 66.96 
L 228.090909 66.96 
L 256.272727 70.912941 
L 284.454545 75.261176 
L 312.636364 78.423529 
L 340.818182 84.352941 
L 369 90.677647 
L 397.181818 97.002353 
L 425.363636 108.861176 
L 453.545455 123.882353 
L 481.727273 144.042353 
L 509.909091 176.456471 
L 538.090909 222.705882 
L 566.272727 292.672941 
L 594.454545 355.524706 
L 622.636364 369.36 
" clip-path="url(#p336cfb6f7b)" style="fill: none; stroke: #000080; stroke-width: 1.5; stroke-linecap: square"/>
    <defs>
     <path id="m2a1d3d1595" d="M -3 3 
L 3 3 
L 3 -3 
L -3 -3 
z
" style="stroke: #000080; stroke-linejoin: miter"/>
    </defs>
    <g clip-path="url(#p336cfb6f7b)">
     <use xlink:href="#m2a1d3d1595" x="115.363636" y="66.96" style="fill: #000080; stroke: #000080; stroke-linejoin: miter"/>
     <use xlink:href="#m2a1d3d1595" x="143.545455" y="66.96" style="fill: #000080; stroke: #000080; stroke-linejoin: miter"/>
     <use xlink:href="#m2a1d3d1595" x="171.727273" y="66.96" style="fill: #000080; stroke: #000080; stroke-linejoin: miter"/>
     <use xlink:href="#m2a1d3d1595" x="199.909091" y="66.96" style="fill: #000080; stroke: #000080; stroke-linejoin: miter"/>
     <use xlink:href="#m2a1d3d1595" x="228.090909" y="66.96" style="fill: #000080; stroke: #000080; stroke-linejoin: miter"/>
     <use xlink:href="#m2a1d3d1595" x="256.272727" y="70.912941" style="fill: #000080; stroke: #000080; stroke-linejoin: miter"/>
     <use xlink:href="#m2a1d3d1595" x="284.454545" y="75.261176" style="fill: #000080; stroke: #000080; stroke-linejoin: miter"/>
     <use xlink:href="#m2a1d3d1595" x="312.636364" y="78.423529" style="fill: #000080; stroke: #000080; stroke-linejoin: miter"/>
     <use xlink:href="#m2a1d3d1595" x="340.818182" y="84.352941" style="fill: #000080; stroke: #000080; stroke-linejoin: miter"/>
     <use xlink:href="#m2a1d3d1595" x="369" y="90.677647" style="fill: #000080; stroke: #000080; stroke-linejoin: miter"/>
     <use xlink:href="#m2a1d3d1595" x="397.181818" y="97.002353" style="fill: #000080; stroke: #000080; stroke-linejoin: miter"/>
     <use xlink:href="#m2a1d3d1595" x="425.363636" y="108.861176" style="fill: #000080; stroke: #000080; stroke-linejoin: miter"/>
     <use xlink:href="#m2a1d3d1595" x="453.545455" y="123.882353" style="fill: #000080; stroke: #000080; stroke-linejoin: miter"/>
     <use xlink:href="#m2a1d3d1595" x="481.727273" y="144.042353" style="fill: #000080; stroke: #000080; stroke-linejoin: miter"/>
     <use xlink:href="#m2a1d3d1595" x="509.909091" y="176.456471" style="fill: #000080; stroke: #000080; stroke-linejoin: miter"/>
     <use xlink:href="#m2a1d3d1595" x="538.090909" y="222.705882" style="fill: #000080; stroke: #000080; stroke-linejoin: miter"/>
     <use xlink:href="#m2a1d3d1595" x="566.272727" y="292.672941" style="fill: #000080; stroke: #000080; stroke-linejoin: miter"/>
     <use xlink:href="#m2a1d3d1595" x="594.454545" y="355.524706" style="fill: #000080; stroke: #000080; stroke-linejoin: miter"/>
     <use xlink:href="#m2a1d3d1595" x="622.636364" y="369.36" style="fill: #000080; stroke: #000080; stroke-linejoin: miter"/>
    </g>
   </g>
   <g id="line2d_21">
    <path d="M 115.363636 93.84 
L 143.545455 93.84 
L 171.727273 93.84 
L 199.909091 93.84 
L 228.090909 93.84 
L 256.272727 93.84 
L 284.454545 93.84 
L 312.636364 93.84 
L 340.818182 93.84 
L 369 92.654118 
L 397.181818 98.188235 
L 425.363636 109.651765 
L 453.545455 122.696471 
L 481.727273 136.927059 
L 509.909091 169.736471 
L 538.090909 214.404706 
L 566.272727 286.743529 
L 594.454545 355.92 
L 622.636364 369.36 
" clip-path="url(#p336cfb6f7b)" style="fill: none; stroke: #c71585; stroke-width: 1.5; stroke-linecap: square"/>
    <defs>
     <path id="m540a61ae31" d="M 0 3 
C 0.795609 3 1.55874 2.683901 2.12132 2.12132 
C 2.683901 1.55874 3 0.795609 3 0 
C 3 -0.795609 2.683901 -1.55874 2.12132 -2.12132 
C 1.55874 -2.683901 0.795609 -3 0 -3 
C -0.795609 -3 -1.55874 -2.683901 -2.12132 -2.12132 
C -2.683901 -1.55874 -3 -0.795609 -3 0 
C -3 0.795609 -2.683901 1.55874 -2.12132 2.12132 
C -1.55874 2.683901 -0.795609 3 0 3 
z
" style="stroke: #c71585"/>
    </defs>
    <g clip-path="url(#p336cfb6f7b)">
     <use xlink:href="#m540a61ae31" x="115.363636" y="93.84" style="fill: #c71585; stroke: #c71585"/>
     <use xlink:href="#m540a61ae31" x="143.545455" y="93.84" style="fill: #c71585; stroke: #c71585"/>
     <use xlink:href="#m540a61ae31" x="171.727273" y="93.84" style="fill: #c71585; stroke: #c71585"/>
     <use xlink:href="#m540a61ae31" x="199.909091" y="93.84" style="fill: #c71585; stroke: #c71585"/>
     <use xlink:href="#m540a61ae31" x="228.090909" y="93.84" style="fill: #c71585; stroke: #c71585"/>
     <use xlink:href="#m540a61ae31" x="256.272727" y="93.84" style="fill: #c71585; stroke: #c71585"/>
     <use xlink:href="#m540a61ae31" x="284.454545" y="93.84" style="fill: #c71585; stroke: #c71585"/>
     <use xlink:href="#m540a61ae31" x="312.636364" y="93.84" style="fill: #c71585; stroke: #c71585"/>
     <use xlink:href="#m540a61ae31" x="340.818182" y="93.84" style="fill: #c71585; stroke: #c71585"/>
     <use xlink:href="#m540a61ae31" x="369" y="92.654118" style="fill: #c71585; stroke: #c71585"/>
     <use xlink:href="#m540a61ae31" x="397.181818" y="98.188235" style="fill: #c71585; stroke: #c71585"/>
     <use xlink:href="#m540a61ae31" x="425.363636" y="109.651765" style="fill: #c71585; stroke: #c71585"/>
     <use xlink:href="#m540a61ae31" x="453.545455" y="122.696471" style="fill: #c71585; stroke: #c71585"/>
     <use xlink:href="#m540a61ae31" x="481.727273" y="136.927059" style="fill: #c71585; stroke: #c71585"/>
     <use xlink:href="#m540a61ae31" x="509.909091" y="169.736471" style="fill: #c71585; stroke: #c71585"/>
     <use xlink:href="#m540a61ae31" x="538.090909" y="214.404706" style="fill: #c71585; stroke: #c71585"/>
     <use xlink:href="#m540a61ae31" x="566.272727" y="286.743529" style="fill: #c71585; stroke: #c71585"/>
     <use xlink:href="#m540a61ae31" x="594.454545" y="355.92" style="fill: #c71585; stroke: #c71585"/>
     <use xlink:href="#m540a61ae31" x="622.636364" y="369.36" style="fill: #c71585; stroke: #c71585"/>
    </g>
   </g>
   <g id="patch_3">
    <path d="M 90 384.48 
L 90 51.84 
" style="fill: none; stroke: #000000; stroke-width: 0.8; stroke-linejoin: miter; stroke-linecap: square"/>
   </g>
   <g id="patch_4">
    <path d="M 648 384.48 
L 648 51.84 
" style="fill: none; stroke: #000000; stroke-width: 0.8; stroke-linejoin: miter; stroke-linecap: square"/>
   </g>
   <g id="patch_5">
    <path d="M 90 384.48 
L 648 384.48 
" style="fill: none; stroke: #000000; stroke-width: 0.8; stroke-linejoin: miter; stroke-linecap: square"/>
   </g>
   <g id="patch_6">
    <path d="M 90 51.84 
L 648 51.84 
" style="fill: none; stroke: #000000; stroke-width: 0.8; stroke-linejoin: miter; stroke-linecap: square"/>
   </g>
   <g id="text_12">
    <!-- Recall vs confidence threshold - three ways to compute the iou score (iou_t = 0.6) (body detection) -->
    <g transform="translate(70.313438 45.84) scale(0.12 -0.12)">
     <defs>
      <path id="DejaVuSans-76" d="M 191 3500 
L 800 3500 
L 1894 563 
L 2988 3500 
L 3597 3500 
L 2284 0 
L 1503 0 
L 191 3500 
z
" transform="scale(0.015625)"/>
      <path id="DejaVuSans-2d" d="M 313 2009 
L 1997 2009 
L 1997 1497 
L 313 1497 
L 313 2009 
z
" transform="scale(0.015625)"/>
      <path id="DejaVuSans-77" d="M 269 3500 
L 844 3500 
L 1563 769 
L 2278 3500 
L 2956 3500 
L 3675 769 
L 4391 3500 
L 4966 3500 
L 4050 0 
L 3372 0 
L 2619 2869 
L 1863 0 
L 1184 0 
L 269 3500 
z
" transform="scale(0.015625)"/>
      <path id="DejaVuSans-79" d="M 2059 -325 
Q 1816 -950 1584 -1140 
Q 1353 -1331 966 -1331 
L 506 -1331 
L 506 -850 
L 844 -850 
Q 1081 -850 1212 -737 
Q 1344 -625 1503 -206 
L 1606 56 
L 191 3500 
L 800 3500 
L 1894 763 
L 2988 3500 
L 3597 3500 
L 2059 -325 
z
" transform="scale(0.015625)"/>
      <path id="DejaVuSans-6d" d="M 3328 2828 
Q 3544 3216 3844 3400 
Q 4144 3584 4550 3584 
Q 5097 3584 5394 3201 
Q 5691 2819 5691 2113 
L 5691 0 
L 5113 0 
L 5113 2094 
Q 5113 2597 4934 2840 
Q 4756 3084 4391 3084 
Q 3944 3084 3684 2787 
Q 3425 2491 3425 1978 
L 3425 0 
L 2847 0 
L 2847 2094 
Q 2847 2600 2669 2842 
Q 2491 3084 2119 3084 
Q 1678 3084 1418 2786 
Q 1159 2488 1159 1978 
L 1159 0 
L 581 0 
L 581 3500 
L 1159 3500 
L 1159 2956 
Q 1356 3278 1631 3431 
Q 1906 3584 2284 3584 
Q 2666 3584 2933 3390 
Q 3200 3197 3328 2828 
z
" transform="scale(0.015625)"/>
      <path id="DejaVuSans-70" d="M 1159 525 
L 1159 -1331 
L 581 -1331 
L 581 3500 
L 1159 3500 
L 1159 2969 
Q 1341 3281 1617 3432 
Q 1894 3584 2278 3584 
Q 2916 3584 3314 3078 
Q 3713 2572 3713 1747 
Q 3713 922 3314 415 
Q 2916 -91 2278 -91 
Q 1894 -91 1617 61 
Q 1341 213 1159 525 
z
M 3116 1747 
Q 3116 2381 2855 2742 
Q 2594 3103 2138 3103 
Q 1681 3103 1420 2742 
Q 1159 2381 1159 1747 
Q 1159 1113 1420 752 
Q 1681 391 2138 391 
Q 2594 391 2855 752 
Q 3116 1113 3116 1747 
z
" transform="scale(0.015625)"/>
      <path id="DejaVuSans-75" d="M 544 1381 
L 544 3500 
L 1119 3500 
L 1119 1403 
Q 1119 906 1312 657 
Q 1506 409 1894 409 
Q 2359 409 2629 706 
Q 2900 1003 2900 1516 
L 2900 3500 
L 3475 3500 
L 3475 0 
L 2900 0 
L 2900 538 
Q 2691 219 2414 64 
Q 2138 -91 1772 -91 
Q 1169 -91 856 284 
Q 544 659 544 1381 
z
M 1991 3584 
L 1991 3584 
z
" transform="scale(0.015625)"/>
      <path id="DejaVuSans-28" d="M 1984 4856 
Q 1566 4138 1362 3434 
Q 1159 2731 1159 2009 
Q 1159 1288 1364 580 
Q 1569 -128 1984 -844 
L 1484 -844 
Q 1016 -109 783 600 
Q 550 1309 550 2009 
Q 550 2706 781 3412 
Q 1013 4119 1484 4856 
L 1984 4856 
z
" transform="scale(0.015625)"/>
      <path id="DejaVuSans-5f" d="M 3263 -1063 
L 3263 -1509 
L -63 -1509 
L -63 -1063 
L 3263 -1063 
z
" transform="scale(0.015625)"/>
      <path id="DejaVuSans-3d" d="M 678 2906 
L 4684 2906 
L 4684 2381 
L 678 2381 
L 678 2906 
z
M 678 1631 
L 4684 1631 
L 4684 1100 
L 678 1100 
L 678 1631 
z
" transform="scale(0.015625)"/>
      <path id="DejaVuSans-29" d="M 513 4856 
L 1013 4856 
Q 1481 4119 1714 3412 
Q 1947 2706 1947 2009 
Q 1947 1309 1714 600 
Q 1481 -109 1013 -844 
L 513 -844 
Q 928 -128 1133 580 
Q 1338 1288 1338 2009 
Q 1338 2731 1133 3434 
Q 928 4138 513 4856 
z
" transform="scale(0.015625)"/>
      <path id="DejaVuSans-62" d="M 3116 1747 
Q 3116 2381 2855 2742 
Q 2594 3103 2138 3103 
Q 1681 3103 1420 2742 
Q 1159 2381 1159 1747 
Q 1159 1113 1420 752 
Q 1681 391 2138 391 
Q 2594 391 2855 752 
Q 3116 1113 3116 1747 
z
M 1159 2969 
Q 1341 3281 1617 3432 
Q 1894 3584 2278 3584 
Q 2916 3584 3314 3078 
Q 3713 2572 3713 1747 
Q 3713 922 3314 415 
Q 2916 -91 2278 -91 
Q 1894 -91 1617 61 
Q 1341 213 1159 525 
L 1159 0 
L 581 0 
L 581 4863 
L 1159 4863 
L 1159 2969 
z
" transform="scale(0.015625)"/>
     </defs>
     <use xlink:href="#DejaVuSans-52"/>
     <use xlink:href="#DejaVuSans-65" transform="translate(64.982422 0)"/>
     <use xlink:href="#DejaVuSans-63" transform="translate(126.505859 0)"/>
     <use xlink:href="#DejaVuSans-61" transform="translate(181.486328 0)"/>
     <use xlink:href="#DejaVuSans-6c" transform="translate(242.765625 0)"/>
     <use xlink:href="#DejaVuSans-6c" transform="translate(270.548828 0)"/>
     <use xlink:href="#DejaVuSans-20" transform="translate(298.332031 0)"/>
     <use xlink:href="#DejaVuSans-76" transform="translate(330.119141 0)"/>
     <use xlink:href="#DejaVuSans-73" transform="translate(389.298828 0)"/>
     <use xlink:href="#DejaVuSans-20" transform="translate(441.398438 0)"/>
     <use xlink:href="#DejaVuSans-63" transform="translate(473.185547 0)"/>
     <use xlink:href="#DejaVuSans-6f" transform="translate(528.166016 0)"/>
     <use xlink:href="#DejaVuSans-6e" transform="translate(589.347656 0)"/>
     <use xlink:href="#DejaVuSans-66" transform="translate(652.726562 0)"/>
     <use xlink:href="#DejaVuSans-69" transform="translate(687.931641 0)"/>
     <use xlink:href="#DejaVuSans-64" transform="translate(715.714844 0)"/>
     <use xlink:href="#DejaVuSans-65" transform="translate(779.191406 0)"/>
     <use xlink:href="#DejaVuSans-6e" transform="translate(840.714844 0)"/>
     <use xlink:href="#DejaVuSans-63" transform="translate(904.09375 0)"/>
     <use xlink:href="#DejaVuSans-65" transform="translate(959.074219 0)"/>
     <use xlink:href="#DejaVuSans-20" transform="translate(1020.597656 0)"/>
     <use xlink:href="#DejaVuSans-74" transform="translate(1052.384766 0)"/>
     <use xlink:href="#DejaVuSans-68" transform="translate(1091.59375 0)"/>
     <use xlink:href="#DejaVuSans-72" transform="translate(1154.972656 0)"/>
     <use xlink:href="#DejaVuSans-65" transform="translate(1193.835938 0)"/>
     <use xlink:href="#DejaVuSans-73" transform="translate(1255.359375 0)"/>
     <use xlink:href="#DejaVuSans-68" transform="translate(1307.458984 0)"/>
     <use xlink:href="#DejaVuSans-6f" transform="translate(1370.837891 0)"/>
     <use xlink:href="#DejaVuSans-6c" transform="translate(1432.019531 0)"/>
     <use xlink:href="#DejaVuSans-64" transform="translate(1459.802734 0)"/>
     <use xlink:href="#DejaVuSans-20" transform="translate(1523.279297 0)"/>
     <use xlink:href="#DejaVuSans-2d" transform="translate(1555.066406 0)"/>
     <use xlink:href="#DejaVuSans-20" transform="translate(1591.150391 0)"/>
     <use xlink:href="#DejaVuSans-74" transform="translate(1622.9375 0)"/>
     <use xlink:href="#DejaVuSans-68" transform="translate(1662.146484 0)"/>
     <use xlink:href="#DejaVuSans-72" transform="translate(1725.525391 0)"/>
     <use xlink:href="#DejaVuSans-65" transform="translate(1764.388672 0)"/>
     <use xlink:href="#DejaVuSans-65" transform="translate(1825.912109 0)"/>
     <use xlink:href="#DejaVuSans-20" transform="translate(1887.435547 0)"/>
     <use xlink:href="#DejaVuSans-77" transform="translate(1919.222656 0)"/>
     <use xlink:href="#DejaVuSans-61" transform="translate(2001.009766 0)"/>
     <use xlink:href="#DejaVuSans-79" transform="translate(2062.289062 0)"/>
     <use xlink:href="#DejaVuSans-73" transform="translate(2121.46875 0)"/>
     <use xlink:href="#DejaVuSans-20" transform="translate(2173.568359 0)"/>
     <use xlink:href="#DejaVuSans-74" transform="translate(2205.355469 0)"/>
     <use xlink:href="#DejaVuSans-6f" transform="translate(2244.564453 0)"/>
     <use xlink:href="#DejaVuSans-20" transform="translate(2305.746094 0)"/>
     <use xlink:href="#DejaVuSans-63" transform="translate(2337.533203 0)"/>
     <use xlink:href="#DejaVuSans-6f" transform="translate(2392.513672 0)"/>
     <use xlink:href="#DejaVuSans-6d" transform="translate(2453.695312 0)"/>
     <use xlink:href="#DejaVuSans-70" transform="translate(2551.107422 0)"/>
     <use xlink:href="#DejaVuSans-75" transform="translate(2614.583984 0)"/>
     <use xlink:href="#DejaVuSans-74" transform="translate(2677.962891 0)"/>
     <use xlink:href="#DejaVuSans-65" transform="translate(2717.171875 0)"/>
     <use xlink:href="#DejaVuSans-20" transform="translate(2778.695312 0)"/>
     <use xlink:href="#DejaVuSans-74" transform="translate(2810.482422 0)"/>
     <use xlink:href="#DejaVuSans-68" transform="translate(2849.691406 0)"/>
     <use xlink:href="#DejaVuSans-65" transform="translate(2913.070312 0)"/>
     <use xlink:href="#DejaVuSans-20" transform="translate(2974.59375 0)"/>
     <use xlink:href="#DejaVuSans-69" transform="translate(3006.380859 0)"/>
     <use xlink:href="#DejaVuSans-6f" transform="translate(3034.164062 0)"/>
     <use xlink:href="#DejaVuSans-75" transform="translate(3095.345703 0)"/>
     <use xlink:href="#DejaVuSans-20" transform="translate(3158.724609 0)"/>
     <use xlink:href="#DejaVuSans-73" transform="translate(3190.511719 0)"/>
     <use xlink:href="#DejaVuSans-63" transform="translate(3242.611328 0)"/>
     <use xlink:href="#DejaVuSans-6f" transform="translate(3297.591797 0)"/>
     <use xlink:href="#DejaVuSans-72" transform="translate(3358.773438 0)"/>
     <use xlink:href="#DejaVuSans-65" transform="translate(3397.636719 0)"/>
     <use xlink:href="#DejaVuSans-20" transform="translate(3459.160156 0)"/>
     <use xlink:href="#DejaVuSans-28" transform="translate(3490.947266 0)"/>
     <use xlink:href="#DejaVuSans-69" transform="translate(3529.960938 0)"/>
     <use xlink:href="#DejaVuSans-6f" transform="translate(3557.744141 0)"/>
     <use xlink:href="#DejaVuSans-75" transform="translate(3618.925781 0)"/>
     <use xlink:href="#DejaVuSans-5f" transform="translate(3682.304688 0)"/>
     <use xlink:href="#DejaVuSans-74" transform="translate(3732.304688 0)"/>
     <use xlink:href="#DejaVuSans-20" transform="translate(3771.513672 0)"/>
     <use xlink:href="#DejaVuSans-3d" transform="translate(3803.300781 0)"/>
     <use xlink:href="#DejaVuSans-20" transform="translate(3887.089844 0)"/>
     <use xlink:href="#DejaVuSans-30" transform="translate(3918.876953 0)"/>
     <use xlink:href="#DejaVuSans-2e" transform="translate(3982.5 0)"/>
     <use xlink:href="#DejaVuSans-36" transform="translate(4014.287109 0)"/>
     <use xlink:href="#DejaVuSans-29" transform="translate(4077.910156 0)"/>
     <use xlink:href="#DejaVuSans-20" transform="translate(4116.923828 0)"/>
     <use xlink:href="#DejaVuSans-28" transform="translate(4148.710938 0)"/>
     <use xlink:href="#DejaVuSans-62" transform="translate(4187.724609 0)"/>
     <use xlink:href="#DejaVuSans-6f" transform="translate(4251.201172 0)"/>
     <use xlink:href="#DejaVuSans-64" transform="translate(4312.382812 0)"/>
     <use xlink:href="#DejaVuSans-79" transform="translate(4375.859375 0)"/>
     <use xlink:href="#DejaVuSans-20" transform="translate(4435.039062 0)"/>
     <use xlink:href="#DejaVuSans-64" transform="translate(4466.826172 0)"/>
     <use xlink:href="#DejaVuSans-65" transform="translate(4530.302734 0)"/>
     <use xlink:href="#DejaVuSans-74" transform="translate(4591.826172 0)"/>
     <use xlink:href="#DejaVuSans-65" transform="translate(4631.035156 0)"/>
     <use xlink:href="#DejaVuSans-63" transform="translate(4692.558594 0)"/>
     <use xlink:href="#DejaVuSans-74" transform="translate(4747.539062 0)"/>
     <use xlink:href="#DejaVuSans-69" transform="translate(4786.748047 0)"/>
     <use xlink:href="#DejaVuSans-6f" transform="translate(4814.53125 0)"/>
     <use xlink:href="#DejaVuSans-6e" transform="translate(4875.712891 0)"/>
     <use xlink:href="#DejaVuSans-29" transform="translate(4939.091797 0)"/>
    </g>
   </g>
   <g id="legend_1">
    <g id="patch_7">
     <path d="M 474.385937 103.874375 
L 641 103.874375 
Q 643 103.874375 643 101.874375 
L 643 58.84 
Q 643 56.84 641 56.84 
L 474.385937 56.84 
Q 472.385937 56.84 472.385937 58.84 
L 472.385937 101.874375 
Q 472.385937 103.874375 474.385937 103.874375 
z
" style="fill: #ffffff; opacity: 0.8; stroke: #cccccc; stroke-linejoin: miter"/>
    </g>
    <g id="line2d_22">
     <path d="M 476.385937 64.938437 
L 486.385937 64.938437 
L 496.385937 64.938437 
" style="fill: none; stroke: #4682b4; stroke-width: 1.5; stroke-linecap: square"/>
     <g>
      <use xlink:href="#mbc62cd0a25" x="486.385937" y="64.938437" style="fill: #4682b4; stroke: #4682b4"/>
     </g>
    </g>
    <g id="text_13">
     <!-- Recall (IOU) -->
     <g transform="translate(504.385937 68.438437) scale(0.1 -0.1)">
      <defs>
       <path id="DejaVuSans-49" d="M 628 4666 
L 1259 4666 
L 1259 0 
L 628 0 
L 628 4666 
z
" transform="scale(0.015625)"/>
       <path id="DejaVuSans-4f" d="M 2522 4238 
Q 1834 4238 1429 3725 
Q 1025 3213 1025 2328 
Q 1025 1447 1429 934 
Q 1834 422 2522 422 
Q 3209 422 3611 934 
Q 4013 1447 4013 2328 
Q 4013 3213 3611 3725 
Q 3209 4238 2522 4238 
z
M 2522 4750 
Q 3503 4750 4090 4092 
Q 4678 3434 4678 2328 
Q 4678 1225 4090 567 
Q 3503 -91 2522 -91 
Q 1538 -91 948 565 
Q 359 1222 359 2328 
Q 359 3434 948 4092 
Q 1538 4750 2522 4750 
z
" transform="scale(0.015625)"/>
       <path id="DejaVuSans-55" d="M 556 4666 
L 1191 4666 
L 1191 1831 
Q 1191 1081 1462 751 
Q 1734 422 2344 422 
Q 2950 422 3222 751 
Q 3494 1081 3494 1831 
L 3494 4666 
L 4128 4666 
L 4128 1753 
Q 4128 841 3676 375 
Q 3225 -91 2344 -91 
Q 1459 -91 1007 375 
Q 556 841 556 1753 
L 556 4666 
z
" transform="scale(0.015625)"/>
      </defs>
      <use xlink:href="#DejaVuSans-52"/>
      <use xlink:href="#DejaVuSans-65" transform="translate(64.982422 0)"/>
      <use xlink:href="#DejaVuSans-63" transform="translate(126.505859 0)"/>
      <use xlink:href="#DejaVuSans-61" transform="translate(181.486328 0)"/>
      <use xlink:href="#DejaVuSans-6c" transform="translate(242.765625 0)"/>
      <use xlink:href="#DejaVuSans-6c" transform="translate(270.548828 0)"/>
      <use xlink:href="#DejaVuSans-20" transform="translate(298.332031 0)"/>
      <use xlink:href="#DejaVuSans-28" transform="translate(330.119141 0)"/>
      <use xlink:href="#DejaVuSans-49" transform="translate(369.132812 0)"/>
      <use xlink:href="#DejaVuSans-4f" transform="translate(398.625 0)"/>
      <use xlink:href="#DejaVuSans-55" transform="translate(477.335938 0)"/>
      <use xlink:href="#DejaVuSans-29" transform="translate(550.529297 0)"/>
     </g>
    </g>
    <g id="line2d_23">
     <path d="M 476.385937 79.616562 
L 486.385937 79.616562 
L 496.385937 79.616562 
" style="fill: none; stroke: #000080; stroke-width: 1.5; stroke-linecap: square"/>
     <g>
      <use xlink:href="#m2a1d3d1595" x="486.385937" y="79.616562" style="fill: #000080; stroke: #000080; stroke-linejoin: miter"/>
     </g>
    </g>
    <g id="text_14">
     <!-- Recall (weighted IOU) -->
     <g transform="translate(504.385937 83.116562) scale(0.1 -0.1)">
      <defs>
       <path id="DejaVuSans-67" d="M 2906 1791 
Q 2906 2416 2648 2759 
Q 2391 3103 1925 3103 
Q 1463 3103 1205 2759 
Q 947 2416 947 1791 
Q 947 1169 1205 825 
Q 1463 481 1925 481 
Q 2391 481 2648 825 
Q 2906 1169 2906 1791 
z
M 3481 434 
Q 3481 -459 3084 -895 
Q 2688 -1331 1869 -1331 
Q 1566 -1331 1297 -1286 
Q 1028 -1241 775 -1147 
L 775 -588 
Q 1028 -725 1275 -790 
Q 1522 -856 1778 -856 
Q 2344 -856 2625 -561 
Q 2906 -266 2906 331 
L 2906 616 
Q 2728 306 2450 153 
Q 2172 0 1784 0 
Q 1141 0 747 490 
Q 353 981 353 1791 
Q 353 2603 747 3093 
Q 1141 3584 1784 3584 
Q 2172 3584 2450 3431 
Q 2728 3278 2906 2969 
L 2906 3500 
L 3481 3500 
L 3481 434 
z
" transform="scale(0.015625)"/>
      </defs>
      <use xlink:href="#DejaVuSans-52"/>
      <use xlink:href="#DejaVuSans-65" transform="translate(64.982422 0)"/>
      <use xlink:href="#DejaVuSans-63" transform="translate(126.505859 0)"/>
      <use xlink:href="#DejaVuSans-61" transform="translate(181.486328 0)"/>
      <use xlink:href="#DejaVuSans-6c" transform="translate(242.765625 0)"/>
      <use xlink:href="#DejaVuSans-6c" transform="translate(270.548828 0)"/>
      <use xlink:href="#DejaVuSans-20" transform="translate(298.332031 0)"/>
      <use xlink:href="#DejaVuSans-28" transform="translate(330.119141 0)"/>
      <use xlink:href="#DejaVuSans-77" transform="translate(369.132812 0)"/>
      <use xlink:href="#DejaVuSans-65" transform="translate(450.919922 0)"/>
      <use xlink:href="#DejaVuSans-69" transform="translate(512.443359 0)"/>
      <use xlink:href="#DejaVuSans-67" transform="translate(540.226562 0)"/>
      <use xlink:href="#DejaVuSans-68" transform="translate(603.703125 0)"/>
      <use xlink:href="#DejaVuSans-74" transform="translate(667.082031 0)"/>
      <use xlink:href="#DejaVuSans-65" transform="translate(706.291016 0)"/>
      <use xlink:href="#DejaVuSans-64" transform="translate(767.814453 0)"/>
      <use xlink:href="#DejaVuSans-20" transform="translate(831.291016 0)"/>
      <use xlink:href="#DejaVuSans-49" transform="translate(863.078125 0)"/>
      <use xlink:href="#DejaVuSans-4f" transform="translate(892.570312 0)"/>
      <use xlink:href="#DejaVuSans-55" transform="translate(971.28125 0)"/>
      <use xlink:href="#DejaVuSans-29" transform="translate(1044.474609 0)"/>
     </g>
    </g>
    <g id="line2d_24">
     <path d="M 476.385937 94.294687 
L 486.385937 94.294687 
L 496.385937 94.294687 
" style="fill: none; stroke: #c71585; stroke-width: 1.5; stroke-linecap: square"/>
     <g>
      <use xlink:href="#m540a61ae31" x="486.385937" y="94.294687" style="fill: #c71585; stroke: #c71585"/>
     </g>
    </g>
    <g id="text_15">
     <!-- Recall (built in - ultralytics) -->
     <g transform="translate(504.385937 97.794687) scale(0.1 -0.1)">
      <use xlink:href="#DejaVuSans-52"/>
      <use xlink:href="#DejaVuSans-65" transform="translate(64.982422 0)"/>
      <use xlink:href="#DejaVuSans-63" transform="translate(126.505859 0)"/>
      <use xlink:href="#DejaVuSans-61" transform="translate(181.486328 0)"/>
      <use xlink:href="#DejaVuSans-6c" transform="translate(242.765625 0)"/>
      <use xlink:href="#DejaVuSans-6c" transform="translate(270.548828 0)"/>
      <use xlink:href="#DejaVuSans-20" transform="translate(298.332031 0)"/>
      <use xlink:href="#DejaVuSans-28" transform="translate(330.119141 0)"/>
      <use xlink:href="#DejaVuSans-62" transform="translate(369.132812 0)"/>
      <use xlink:href="#DejaVuSans-75" transform="translate(432.609375 0)"/>
      <use xlink:href="#DejaVuSans-69" transform="translate(495.988281 0)"/>
      <use xlink:href="#DejaVuSans-6c" transform="translate(523.771484 0)"/>
      <use xlink:href="#DejaVuSans-74" transform="translate(551.554688 0)"/>
      <use xlink:href="#DejaVuSans-20" transform="translate(590.763672 0)"/>
      <use xlink:href="#DejaVuSans-69" transform="translate(622.550781 0)"/>
      <use xlink:href="#DejaVuSans-6e" transform="translate(650.333984 0)"/>
      <use xlink:href="#DejaVuSans-20" transform="translate(713.712891 0)"/>
      <use xlink:href="#DejaVuSans-2d" transform="translate(745.5 0)"/>
      <use xlink:href="#DejaVuSans-20" transform="translate(781.583984 0)"/>
      <use xlink:href="#DejaVuSans-75" transform="translate(813.371094 0)"/>
      <use xlink:href="#DejaVuSans-6c" transform="translate(876.75 0)"/>
      <use xlink:href="#DejaVuSans-74" transform="translate(904.533203 0)"/>
      <use xlink:href="#DejaVuSans-72" transform="translate(943.742188 0)"/>
      <use xlink:href="#DejaVuSans-61" transform="translate(984.855469 0)"/>
      <use xlink:href="#DejaVuSans-6c" transform="translate(1046.134766 0)"/>
      <use xlink:href="#DejaVuSans-79" transform="translate(1073.917969 0)"/>
      <use xlink:href="#DejaVuSans-74" transform="translate(1133.097656 0)"/>
      <use xlink:href="#DejaVuSans-69" transform="translate(1172.306641 0)"/>
      <use xlink:href="#DejaVuSans-63" transform="translate(1200.089844 0)"/>
      <use xlink:href="#DejaVuSans-73" transform="translate(1255.070312 0)"/>
      <use xlink:href="#DejaVuSans-29" transform="translate(1307.169922 0)"/>
     </g>
    </g>
   </g>
  </g>
 </g>
 <defs>
  <clipPath id="p336cfb6f7b">
   <rect x="90" y="51.84" width="558" height="332.64"/>
  </clipPath>
 </defs>
</svg>
