<?xml version="1.0" encoding="utf-8" standalone="no"?>
<!DOCTYPE svg PUBLIC "-//W3C//DTD SVG 1.1//EN"
  "http://www.w3.org/Graphics/SVG/1.1/DTD/svg11.dtd">
<svg xmlns:xlink="http://www.w3.org/1999/xlink" width="576pt" height="360pt" viewBox="0 0 576 360" xmlns="http://www.w3.org/2000/svg" version="1.1">
 <metadata>
  <rdf:RDF xmlns:dc="http://purl.org/dc/elements/1.1/" xmlns:cc="http://creativecommons.org/ns#" xmlns:rdf="http://www.w3.org/1999/02/22-rdf-syntax-ns#">
   <cc:Work>
    <dc:type rdf:resource="http://purl.org/dc/dcmitype/StillImage"/>
    <dc:date>2025-02-25T16:19:09.635142</dc:date>
    <dc:format>image/svg+xml</dc:format>
    <dc:creator>
     <cc:Agent>
      <dc:title>Matplotlib v3.8.3, https://matplotlib.org/</dc:title>
     </cc:Agent>
    </dc:creator>
   </cc:Work>
  </rdf:RDF>
 </metadata>
 <defs>
  <style type="text/css">*{stroke-linejoin: round; stroke-linecap: butt}</style>
 </defs>
 <g id="figure_1">
  <g id="patch_1">
   <path d="M 0 360 
L 576 360 
L 576 0 
L 0 0 
z
" style="fill: #ffffff"/>
  </g>
  <g id="axes_1">
   <g id="patch_2">
    <path d="M 72 320.4 
L 518.4 320.4 
L 518.4 43.2 
L 72 43.2 
z
" style="fill: #ffffff"/>
   </g>
   <g id="PolyCollection_1">
    <defs>
     <path id="m166f47594f" d="M 32.911023 -39.878671 
L 32.911023 -39.6 
L 35.52576 -39.6 
L 38.140498 -39.6 
L 40.755236 -39.6 
L 43.369974 -39.6 
L 45.984711 -39.6 
L 48.599449 -39.6 
L 51.214187 -39.6 
L 53.828925 -39.6 
L 56.443662 -39.6 
L 59.0584 -39.6 
L 61.673138 -39.6 
L 64.287876 -39.6 
L 66.902613 -39.6 
L 69.517351 -39.6 
L 72.132089 -39.6 
L 74.746827 -39.6 
L 77.361564 -39.6 
L 79.976302 -39.6 
L 82.59104 -39.6 
L 85.205778 -39.6 
L 87.820515 -39.6 
L 90.435253 -39.6 
L 93.049991 -39.6 
L 95.664729 -39.6 
L 98.279466 -39.6 
L 100.894204 -39.6 
L 103.508942 -39.6 
L 106.12368 -39.6 
L 108.738417 -39.6 
L 111.353155 -39.6 
L 113.967893 -39.6 
L 116.582631 -39.6 
L 119.197368 -39.6 
L 121.812106 -39.6 
L 124.426844 -39.6 
L 127.041582 -39.6 
L 129.656319 -39.6 
L 132.271057 -39.6 
L 134.885795 -39.6 
L 137.500533 -39.6 
L 140.11527 -39.6 
L 142.730008 -39.6 
L 145.344746 -39.6 
L 147.959484 -39.6 
L 150.574221 -39.6 
L 153.188959 -39.6 
L 155.803697 -39.6 
L 158.418435 -39.6 
L 161.033172 -39.6 
L 163.64791 -39.6 
L 166.262648 -39.6 
L 168.877386 -39.6 
L 171.492123 -39.6 
L 174.106861 -39.6 
L 176.721599 -39.6 
L 179.336337 -39.6 
L 181.951074 -39.6 
L 184.565812 -39.6 
L 187.18055 -39.6 
L 189.795288 -39.6 
L 192.410025 -39.6 
L 195.024763 -39.6 
L 197.639501 -39.6 
L 200.254239 -39.6 
L 202.868976 -39.6 
L 205.483714 -39.6 
L 208.098452 -39.6 
L 210.71319 -39.6 
L 213.327927 -39.6 
L 215.942665 -39.6 
L 218.557403 -39.6 
L 221.172141 -39.6 
L 223.786878 -39.6 
L 226.401616 -39.6 
L 229.016354 -39.6 
L 231.631092 -39.6 
L 234.245829 -39.6 
L 236.860567 -39.6 
L 239.475305 -39.6 
L 242.090043 -39.6 
L 244.70478 -39.6 
L 247.319518 -39.6 
L 249.934256 -39.6 
L 252.548994 -39.6 
L 255.163731 -39.6 
L 257.778469 -39.6 
L 260.393207 -39.6 
L 263.007945 -39.6 
L 265.622682 -39.6 
L 268.23742 -39.6 
L 270.852158 -39.6 
L 273.466896 -39.6 
L 276.081633 -39.6 
L 278.696371 -39.6 
L 281.311109 -39.6 
L 283.925847 -39.6 
L 286.540584 -39.6 
L 289.155322 -39.6 
L 291.77006 -39.6 
L 294.384798 -39.6 
L 296.999535 -39.6 
L 299.614273 -39.6 
L 302.229011 -39.6 
L 304.843749 -39.6 
L 307.458486 -39.6 
L 310.073224 -39.6 
L 312.687962 -39.6 
L 315.3027 -39.6 
L 317.917437 -39.6 
L 320.532175 -39.6 
L 323.146913 -39.6 
L 325.761651 -39.6 
L 328.376388 -39.6 
L 330.991126 -39.6 
L 333.605864 -39.6 
L 336.220602 -39.6 
L 338.835339 -39.6 
L 341.450077 -39.6 
L 344.064815 -39.6 
L 346.679553 -39.6 
L 349.29429 -39.6 
L 351.909028 -39.6 
L 354.523766 -39.6 
L 357.138504 -39.6 
L 359.753241 -39.6 
L 362.367979 -39.6 
L 364.982717 -39.6 
L 367.597455 -39.6 
L 370.212192 -39.6 
L 372.82693 -39.6 
L 375.441668 -39.6 
L 378.056406 -39.6 
L 380.671143 -39.6 
L 383.285881 -39.6 
L 385.900619 -39.6 
L 388.515357 -39.6 
L 391.130094 -39.6 
L 393.744832 -39.6 
L 396.35957 -39.6 
L 398.974308 -39.6 
L 401.589045 -39.6 
L 404.203783 -39.6 
L 406.818521 -39.6 
L 409.433259 -39.6 
L 412.047996 -39.6 
L 414.662734 -39.6 
L 417.277472 -39.6 
L 419.89221 -39.6 
L 422.506947 -39.6 
L 425.121685 -39.6 
L 427.736423 -39.6 
L 430.351161 -39.6 
L 432.965898 -39.6 
L 435.580636 -39.6 
L 438.195374 -39.6 
L 440.810112 -39.6 
L 443.424849 -39.6 
L 446.039587 -39.6 
L 448.654325 -39.6 
L 451.269063 -39.6 
L 453.8838 -39.6 
L 456.498538 -39.6 
L 459.113276 -39.6 
L 461.728014 -39.6 
L 464.342751 -39.6 
L 466.957489 -39.6 
L 469.572227 -39.6 
L 472.186965 -39.6 
L 474.801702 -39.6 
L 477.41644 -39.6 
L 480.031178 -39.6 
L 482.645916 -39.6 
L 485.260653 -39.6 
L 487.875391 -39.6 
L 490.490129 -39.6 
L 493.104867 -39.6 
L 495.719604 -39.6 
L 498.334342 -39.6 
L 500.94908 -39.6 
L 503.563818 -39.6 
L 506.178555 -39.6 
L 508.793293 -39.6 
L 511.408031 -39.6 
L 514.022769 -39.6 
L 516.637506 -39.6 
L 519.252244 -39.6 
L 521.866982 -39.6 
L 524.48172 -39.6 
L 527.096457 -39.6 
L 529.711195 -39.6 
L 532.325933 -39.6 
L 534.940671 -39.6 
L 537.555408 -39.6 
L 540.170146 -39.6 
L 542.784884 -39.6 
L 545.399622 -39.6 
L 548.014359 -39.6 
L 550.629097 -39.6 
L 553.243835 -39.6 
L 553.243835 -39.661683 
L 553.243835 -39.661683 
L 550.629097 -39.721623 
L 548.014359 -39.83202 
L 545.399622 -40.028423 
L 542.784884 -40.366026 
L 540.170146 -40.926865 
L 537.555408 -41.827501 
L 534.940671 -43.225923 
L 532.325933 -45.325837 
L 529.711195 -48.376062 
L 527.096457 -52.662707 
L 524.48172 -58.492324 
L 521.866982 -66.165411 
L 519.252244 -75.941413 
L 516.637506 -87.998451 
L 514.022769 -102.392954 
L 511.408031 -119.025703 
L 508.793293 -137.62109 
L 506.178555 -157.725377 
L 503.563818 -178.727508 
L 500.94908 -199.902625 
L 498.334342 -220.47453 
L 495.719604 -239.689366 
L 493.104867 -256.889748 
L 490.490129 -271.577238 
L 487.875391 -283.452335 
L 485.260653 -292.425059 
L 482.645916 -298.595313 
L 480.031178 -302.208859 
L 477.41644 -303.6 
L 474.801702 -303.134055 
L 472.186965 -301.160846 
L 469.572227 -297.985272 
L 466.957489 -293.854847 
L 464.342751 -288.959211 
L 461.728014 -283.434896 
L 459.113276 -277.370453 
L 456.498538 -270.810904 
L 453.8838 -263.764217 
L 451.269063 -256.213911 
L 448.654325 -248.140085 
L 446.039587 -239.546957 
L 443.424849 -230.49039 
L 440.810112 -221.096426 
L 438.195374 -211.562806 
L 435.580636 -202.140064 
L 432.965898 -193.095079 
L 430.351161 -184.665823 
L 427.736423 -177.018941 
L 425.121685 -170.221058 
L 422.506947 -164.230522 
L 419.89221 -158.910578 
L 417.277472 -154.059555 
L 414.662734 -149.450192 
L 412.047996 -144.869318 
L 409.433259 -140.150395 
L 406.818521 -135.194115 
L 404.203783 -129.975286 
L 401.589045 -124.537038 
L 398.974308 -118.975407 
L 396.35957 -113.418592 
L 393.744832 -108.005487 
L 391.130094 -102.867478 
L 388.515357 -98.116149 
L 385.900619 -93.837688 
L 383.285881 -90.09292 
L 380.671143 -86.920625 
L 378.056406 -84.341375 
L 375.441668 -82.359756 
L 372.82693 -80.96414 
L 370.212192 -80.124638 
L 367.597455 -79.790838 
L 364.982717 -79.891167 
L 362.367979 -80.335052 
L 359.753241 -81.018014 
L 357.138504 -81.828772 
L 354.523766 -82.656941 
L 351.909028 -83.400032 
L 349.29429 -83.969104 
L 346.679553 -84.293151 
L 344.064815 -84.322687 
L 341.450077 -84.032888 
L 338.835339 -83.426012 
L 336.220602 -82.532225 
L 333.605864 -81.407635 
L 330.991126 -80.12871 
L 328.376388 -78.783196 
L 325.761651 -77.458873 
L 323.146913 -76.232363 
L 320.532175 -75.160485 
L 317.917437 -74.275985 
L 315.3027 -73.588298 
L 312.687962 -73.088529 
L 310.073224 -72.756752 
L 307.458486 -72.56926 
L 304.843749 -72.503706 
L 302.229011 -72.540964 
L 299.614273 -72.663695 
L 296.999535 -72.852695 
L 294.384798 -73.082739 
L 291.77006 -73.31976 
L 289.155322 -73.520671 
L 286.540584 -73.636272 
L 283.925847 -73.616623 
L 281.311109 -73.417519 
L 278.696371 -73.006382 
L 276.081633 -72.366166 
L 273.466896 -71.496552 
L 270.852158 -70.412532 
L 268.23742 -69.141067 
L 265.622682 -67.716775 
L 263.007945 -66.17749 
L 260.393207 -64.560303 
L 257.778469 -62.898465 
L 255.163731 -61.219425 
L 252.548994 -59.544282 
L 249.934256 -57.888797 
L 247.319518 -56.265896 
L 244.70478 -54.689161 
L 242.090043 -53.176404 
L 239.475305 -51.752221 
L 236.860567 -50.448534 
L 234.245829 -49.302665 
L 231.631092 -48.353123 
L 229.016354 -47.633993 
L 226.401616 -47.169205 
L 223.786878 -46.968 
L 221.172141 -47.022563 
L 218.557403 -47.308245 
L 215.942665 -47.786117 
L 213.327927 -48.407181 
L 210.71319 -49.117283 
L 208.098452 -49.861868 
L 205.483714 -50.589958 
L 202.868976 -51.257106 
L 200.254239 -51.827289 
L 197.639501 -52.273898 
L 195.024763 -52.579955 
L 192.410025 -52.73764 
L 189.795288 -52.747233 
L 187.18055 -52.615611 
L 184.565812 -52.354604 
L 181.951074 -51.979523 
L 179.336337 -51.508189 
L 176.721599 -50.960555 
L 174.106861 -50.358778 
L 171.492123 -49.727364 
L 168.877386 -49.09298 
L 166.262648 -48.483604 
L 163.64791 -47.926935 
L 161.033172 -47.448192 
L 158.418435 -47.067611 
L 155.803697 -46.797978 
L 153.188959 -46.642559 
L 150.574221 -46.59377 
L 147.959484 -46.632968 
L 145.344746 -46.731672 
L 142.730008 -46.854398 
L 140.11527 -46.962989 
L 137.500533 -47.021885 
L 134.885795 -47.003445 
L 132.271057 -46.892229 
L 129.656319 -46.687288 
L 127.041582 -46.401938 
L 124.426844 -46.061146 
L 121.812106 -45.697288 
L 119.197368 -45.345533 
L 116.582631 -45.040205 
L 113.967893 -44.81325 
L 111.353155 -44.695317 
L 108.738417 -44.719115 
L 106.12368 -44.923785 
L 103.508942 -45.358263 
L 100.894204 -46.081238 
L 98.279466 -47.15558 
L 95.664729 -48.63623 
L 93.049991 -50.552385 
L 90.435253 -52.887127 
L 87.820515 -55.559736 
L 85.205778 -58.416883 
L 82.59104 -61.238123 
L 79.976302 -63.75814 
L 77.361564 -65.703775 
L 74.746827 -66.839068 
L 72.132089 -67.008204 
L 69.517351 -66.165679 
L 66.902613 -64.385794 
L 64.287876 -61.848892 
L 61.673138 -58.808014 
L 59.0584 -55.544571 
L 56.443662 -52.323799 
L 53.828925 -49.359606 
L 51.214187 -46.794685 
L 48.599449 -44.69704 
L 45.984711 -43.069938 
L 43.369974 -41.869858 
L 40.755236 -41.02669 
L 38.140498 -40.461584 
L 35.52576 -40.099907 
L 32.911023 -39.878671 
z
" style="stroke: #0000ff"/>
    </defs>
    <g clip-path="url(#pcdc8a94249)">
     <use xlink:href="#m166f47594f" x="0" y="360" style="fill: #0000ff; fill-opacity: 0.25; stroke: #0000ff"/>
    </g>
   </g>
   <g id="matplotlib.axis_1">
    <g id="xtick_1">
     <g id="line2d_1">
      <path d="M 72 320.4 
L 72 43.2 
" clip-path="url(#pcdc8a94249)" style="fill: none; stroke: #b0b0b0; stroke-width: 0.8; stroke-linecap: square"/>
     </g>
     <g id="line2d_2">
      <defs>
       <path id="m5b0e952509" d="M 0 0 
L 0 3.5 
" style="stroke: #000000; stroke-width: 0.8"/>
      </defs>
      <g>
       <use xlink:href="#m5b0e952509" x="72" y="320.4" style="stroke: #000000; stroke-width: 0.8"/>
      </g>
     </g>
     <g id="text_1">
      <!-- 0.0 -->
      <g transform="translate(64.048438 334.998438) scale(0.1 -0.1)">
       <defs>
        <path id="DejaVuSans-30" d="M 2034 4250 
Q 1547 4250 1301 3770 
Q 1056 3291 1056 2328 
Q 1056 1369 1301 889 
Q 1547 409 2034 409 
Q 2525 409 2770 889 
Q 3016 1369 3016 2328 
Q 3016 3291 2770 3770 
Q 2525 4250 2034 4250 
z
M 2034 4750 
Q 2819 4750 3233 4129 
Q 3647 3509 3647 2328 
Q 3647 1150 3233 529 
Q 2819 -91 2034 -91 
Q 1250 -91 836 529 
Q 422 1150 422 2328 
Q 422 3509 836 4129 
Q 1250 4750 2034 4750 
z
" transform="scale(0.015625)"/>
        <path id="DejaVuSans-2e" d="M 684 794 
L 1344 794 
L 1344 0 
L 684 0 
L 684 794 
z
" transform="scale(0.015625)"/>
       </defs>
       <use xlink:href="#DejaVuSans-30"/>
       <use xlink:href="#DejaVuSans-2e" x="63.623047"/>
       <use xlink:href="#DejaVuSans-30" x="95.410156"/>
      </g>
     </g>
    </g>
    <g id="xtick_2">
     <g id="line2d_3">
      <path d="M 161.28 320.4 
L 161.28 43.2 
" clip-path="url(#pcdc8a94249)" style="fill: none; stroke: #b0b0b0; stroke-width: 0.8; stroke-linecap: square"/>
     </g>
     <g id="line2d_4">
      <g>
       <use xlink:href="#m5b0e952509" x="161.28" y="320.4" style="stroke: #000000; stroke-width: 0.8"/>
      </g>
     </g>
     <g id="text_2">
      <!-- 0.2 -->
      <g transform="translate(153.328438 334.998438) scale(0.1 -0.1)">
       <defs>
        <path id="DejaVuSans-32" d="M 1228 531 
L 3431 531 
L 3431 0 
L 469 0 
L 469 531 
Q 828 903 1448 1529 
Q 2069 2156 2228 2338 
Q 2531 2678 2651 2914 
Q 2772 3150 2772 3378 
Q 2772 3750 2511 3984 
Q 2250 4219 1831 4219 
Q 1534 4219 1204 4116 
Q 875 4013 500 3803 
L 500 4441 
Q 881 4594 1212 4672 
Q 1544 4750 1819 4750 
Q 2544 4750 2975 4387 
Q 3406 4025 3406 3419 
Q 3406 3131 3298 2873 
Q 3191 2616 2906 2266 
Q 2828 2175 2409 1742 
Q 1991 1309 1228 531 
z
" transform="scale(0.015625)"/>
       </defs>
       <use xlink:href="#DejaVuSans-30"/>
       <use xlink:href="#DejaVuSans-2e" x="63.623047"/>
       <use xlink:href="#DejaVuSans-32" x="95.410156"/>
      </g>
     </g>
    </g>
    <g id="xtick_3">
     <g id="line2d_5">
      <path d="M 250.56 320.4 
L 250.56 43.2 
" clip-path="url(#pcdc8a94249)" style="fill: none; stroke: #b0b0b0; stroke-width: 0.8; stroke-linecap: square"/>
     </g>
     <g id="line2d_6">
      <g>
       <use xlink:href="#m5b0e952509" x="250.56" y="320.4" style="stroke: #000000; stroke-width: 0.8"/>
      </g>
     </g>
     <g id="text_3">
      <!-- 0.4 -->
      <g transform="translate(242.608438 334.998438) scale(0.1 -0.1)">
       <defs>
        <path id="DejaVuSans-34" d="M 2419 4116 
L 825 1625 
L 2419 1625 
L 2419 4116 
z
M 2253 4666 
L 3047 4666 
L 3047 1625 
L 3713 1625 
L 3713 1100 
L 3047 1100 
L 3047 0 
L 2419 0 
L 2419 1100 
L 313 1100 
L 313 1709 
L 2253 4666 
z
" transform="scale(0.015625)"/>
       </defs>
       <use xlink:href="#DejaVuSans-30"/>
       <use xlink:href="#DejaVuSans-2e" x="63.623047"/>
       <use xlink:href="#DejaVuSans-34" x="95.410156"/>
      </g>
     </g>
    </g>
    <g id="xtick_4">
     <g id="line2d_7">
      <path d="M 339.84 320.4 
L 339.84 43.2 
" clip-path="url(#pcdc8a94249)" style="fill: none; stroke: #b0b0b0; stroke-width: 0.8; stroke-linecap: square"/>
     </g>
     <g id="line2d_8">
      <g>
       <use xlink:href="#m5b0e952509" x="339.84" y="320.4" style="stroke: #000000; stroke-width: 0.8"/>
      </g>
     </g>
     <g id="text_4">
      <!-- 0.6 -->
      <g transform="translate(331.888438 334.998438) scale(0.1 -0.1)">
       <defs>
        <path id="DejaVuSans-36" d="M 2113 2584 
Q 1688 2584 1439 2293 
Q 1191 2003 1191 1497 
Q 1191 994 1439 701 
Q 1688 409 2113 409 
Q 2538 409 2786 701 
Q 3034 994 3034 1497 
Q 3034 2003 2786 2293 
Q 2538 2584 2113 2584 
z
M 3366 4563 
L 3366 3988 
Q 3128 4100 2886 4159 
Q 2644 4219 2406 4219 
Q 1781 4219 1451 3797 
Q 1122 3375 1075 2522 
Q 1259 2794 1537 2939 
Q 1816 3084 2150 3084 
Q 2853 3084 3261 2657 
Q 3669 2231 3669 1497 
Q 3669 778 3244 343 
Q 2819 -91 2113 -91 
Q 1303 -91 875 529 
Q 447 1150 447 2328 
Q 447 3434 972 4092 
Q 1497 4750 2381 4750 
Q 2619 4750 2861 4703 
Q 3103 4656 3366 4563 
z
" transform="scale(0.015625)"/>
       </defs>
       <use xlink:href="#DejaVuSans-30"/>
       <use xlink:href="#DejaVuSans-2e" x="63.623047"/>
       <use xlink:href="#DejaVuSans-36" x="95.410156"/>
      </g>
     </g>
    </g>
    <g id="xtick_5">
     <g id="line2d_9">
      <path d="M 429.12 320.4 
L 429.12 43.2 
" clip-path="url(#pcdc8a94249)" style="fill: none; stroke: #b0b0b0; stroke-width: 0.8; stroke-linecap: square"/>
     </g>
     <g id="line2d_10">
      <g>
       <use xlink:href="#m5b0e952509" x="429.12" y="320.4" style="stroke: #000000; stroke-width: 0.8"/>
      </g>
     </g>
     <g id="text_5">
      <!-- 0.8 -->
      <g transform="translate(421.168437 334.998438) scale(0.1 -0.1)">
       <defs>
        <path id="DejaVuSans-38" d="M 2034 2216 
Q 1584 2216 1326 1975 
Q 1069 1734 1069 1313 
Q 1069 891 1326 650 
Q 1584 409 2034 409 
Q 2484 409 2743 651 
Q 3003 894 3003 1313 
Q 3003 1734 2745 1975 
Q 2488 2216 2034 2216 
z
M 1403 2484 
Q 997 2584 770 2862 
Q 544 3141 544 3541 
Q 544 4100 942 4425 
Q 1341 4750 2034 4750 
Q 2731 4750 3128 4425 
Q 3525 4100 3525 3541 
Q 3525 3141 3298 2862 
Q 3072 2584 2669 2484 
Q 3125 2378 3379 2068 
Q 3634 1759 3634 1313 
Q 3634 634 3220 271 
Q 2806 -91 2034 -91 
Q 1263 -91 848 271 
Q 434 634 434 1313 
Q 434 1759 690 2068 
Q 947 2378 1403 2484 
z
M 1172 3481 
Q 1172 3119 1398 2916 
Q 1625 2713 2034 2713 
Q 2441 2713 2670 2916 
Q 2900 3119 2900 3481 
Q 2900 3844 2670 4047 
Q 2441 4250 2034 4250 
Q 1625 4250 1398 4047 
Q 1172 3844 1172 3481 
z
" transform="scale(0.015625)"/>
       </defs>
       <use xlink:href="#DejaVuSans-30"/>
       <use xlink:href="#DejaVuSans-2e" x="63.623047"/>
       <use xlink:href="#DejaVuSans-38" x="95.410156"/>
      </g>
     </g>
    </g>
    <g id="xtick_6">
     <g id="line2d_11">
      <path d="M 518.4 320.4 
L 518.4 43.2 
" clip-path="url(#pcdc8a94249)" style="fill: none; stroke: #b0b0b0; stroke-width: 0.8; stroke-linecap: square"/>
     </g>
     <g id="line2d_12">
      <g>
       <use xlink:href="#m5b0e952509" x="518.4" y="320.4" style="stroke: #000000; stroke-width: 0.8"/>
      </g>
     </g>
     <g id="text_6">
      <!-- 1.0 -->
      <g transform="translate(510.448437 334.998438) scale(0.1 -0.1)">
       <defs>
        <path id="DejaVuSans-31" d="M 794 531 
L 1825 531 
L 1825 4091 
L 703 3866 
L 703 4441 
L 1819 4666 
L 2450 4666 
L 2450 531 
L 3481 531 
L 3481 0 
L 794 0 
L 794 531 
z
" transform="scale(0.015625)"/>
       </defs>
       <use xlink:href="#DejaVuSans-31"/>
       <use xlink:href="#DejaVuSans-2e" x="63.623047"/>
       <use xlink:href="#DejaVuSans-30" x="95.410156"/>
      </g>
     </g>
    </g>
    <g id="text_7">
     <!-- Best matches -->
     <g transform="translate(261.045312 348.676562) scale(0.1 -0.1)">
      <defs>
       <path id="DejaVuSans-42" d="M 1259 2228 
L 1259 519 
L 2272 519 
Q 2781 519 3026 730 
Q 3272 941 3272 1375 
Q 3272 1813 3026 2020 
Q 2781 2228 2272 2228 
L 1259 2228 
z
M 1259 4147 
L 1259 2741 
L 2194 2741 
Q 2656 2741 2882 2914 
Q 3109 3088 3109 3444 
Q 3109 3797 2882 3972 
Q 2656 4147 2194 4147 
L 1259 4147 
z
M 628 4666 
L 2241 4666 
Q 2963 4666 3353 4366 
Q 3744 4066 3744 3513 
Q 3744 3084 3544 2831 
Q 3344 2578 2956 2516 
Q 3422 2416 3680 2098 
Q 3938 1781 3938 1306 
Q 3938 681 3513 340 
Q 3088 0 2303 0 
L 628 0 
L 628 4666 
z
" transform="scale(0.015625)"/>
       <path id="DejaVuSans-65" d="M 3597 1894 
L 3597 1613 
L 953 1613 
Q 991 1019 1311 708 
Q 1631 397 2203 397 
Q 2534 397 2845 478 
Q 3156 559 3463 722 
L 3463 178 
Q 3153 47 2828 -22 
Q 2503 -91 2169 -91 
Q 1331 -91 842 396 
Q 353 884 353 1716 
Q 353 2575 817 3079 
Q 1281 3584 2069 3584 
Q 2775 3584 3186 3129 
Q 3597 2675 3597 1894 
z
M 3022 2063 
Q 3016 2534 2758 2815 
Q 2500 3097 2075 3097 
Q 1594 3097 1305 2825 
Q 1016 2553 972 2059 
L 3022 2063 
z
" transform="scale(0.015625)"/>
       <path id="DejaVuSans-73" d="M 2834 3397 
L 2834 2853 
Q 2591 2978 2328 3040 
Q 2066 3103 1784 3103 
Q 1356 3103 1142 2972 
Q 928 2841 928 2578 
Q 928 2378 1081 2264 
Q 1234 2150 1697 2047 
L 1894 2003 
Q 2506 1872 2764 1633 
Q 3022 1394 3022 966 
Q 3022 478 2636 193 
Q 2250 -91 1575 -91 
Q 1294 -91 989 -36 
Q 684 19 347 128 
L 347 722 
Q 666 556 975 473 
Q 1284 391 1588 391 
Q 1994 391 2212 530 
Q 2431 669 2431 922 
Q 2431 1156 2273 1281 
Q 2116 1406 1581 1522 
L 1381 1569 
Q 847 1681 609 1914 
Q 372 2147 372 2553 
Q 372 3047 722 3315 
Q 1072 3584 1716 3584 
Q 2034 3584 2315 3537 
Q 2597 3491 2834 3397 
z
" transform="scale(0.015625)"/>
       <path id="DejaVuSans-74" d="M 1172 4494 
L 1172 3500 
L 2356 3500 
L 2356 3053 
L 1172 3053 
L 1172 1153 
Q 1172 725 1289 603 
Q 1406 481 1766 481 
L 2356 481 
L 2356 0 
L 1766 0 
Q 1100 0 847 248 
Q 594 497 594 1153 
L 594 3053 
L 172 3053 
L 172 3500 
L 594 3500 
L 594 4494 
L 1172 4494 
z
" transform="scale(0.015625)"/>
       <path id="DejaVuSans-20" transform="scale(0.015625)"/>
       <path id="DejaVuSans-6d" d="M 3328 2828 
Q 3544 3216 3844 3400 
Q 4144 3584 4550 3584 
Q 5097 3584 5394 3201 
Q 5691 2819 5691 2113 
L 5691 0 
L 5113 0 
L 5113 2094 
Q 5113 2597 4934 2840 
Q 4756 3084 4391 3084 
Q 3944 3084 3684 2787 
Q 3425 2491 3425 1978 
L 3425 0 
L 2847 0 
L 2847 2094 
Q 2847 2600 2669 2842 
Q 2491 3084 2119 3084 
Q 1678 3084 1418 2786 
Q 1159 2488 1159 1978 
L 1159 0 
L 581 0 
L 581 3500 
L 1159 3500 
L 1159 2956 
Q 1356 3278 1631 3431 
Q 1906 3584 2284 3584 
Q 2666 3584 2933 3390 
Q 3200 3197 3328 2828 
z
" transform="scale(0.015625)"/>
       <path id="DejaVuSans-61" d="M 2194 1759 
Q 1497 1759 1228 1600 
Q 959 1441 959 1056 
Q 959 750 1161 570 
Q 1363 391 1709 391 
Q 2188 391 2477 730 
Q 2766 1069 2766 1631 
L 2766 1759 
L 2194 1759 
z
M 3341 1997 
L 3341 0 
L 2766 0 
L 2766 531 
Q 2569 213 2275 61 
Q 1981 -91 1556 -91 
Q 1019 -91 701 211 
Q 384 513 384 1019 
Q 384 1609 779 1909 
Q 1175 2209 1959 2209 
L 2766 2209 
L 2766 2266 
Q 2766 2663 2505 2880 
Q 2244 3097 1772 3097 
Q 1472 3097 1187 3025 
Q 903 2953 641 2809 
L 641 3341 
Q 956 3463 1253 3523 
Q 1550 3584 1831 3584 
Q 2591 3584 2966 3190 
Q 3341 2797 3341 1997 
z
" transform="scale(0.015625)"/>
       <path id="DejaVuSans-63" d="M 3122 3366 
L 3122 2828 
Q 2878 2963 2633 3030 
Q 2388 3097 2138 3097 
Q 1578 3097 1268 2742 
Q 959 2388 959 1747 
Q 959 1106 1268 751 
Q 1578 397 2138 397 
Q 2388 397 2633 464 
Q 2878 531 3122 666 
L 3122 134 
Q 2881 22 2623 -34 
Q 2366 -91 2075 -91 
Q 1284 -91 818 406 
Q 353 903 353 1747 
Q 353 2603 823 3093 
Q 1294 3584 2113 3584 
Q 2378 3584 2631 3529 
Q 2884 3475 3122 3366 
z
" transform="scale(0.015625)"/>
       <path id="DejaVuSans-68" d="M 3513 2113 
L 3513 0 
L 2938 0 
L 2938 2094 
Q 2938 2591 2744 2837 
Q 2550 3084 2163 3084 
Q 1697 3084 1428 2787 
Q 1159 2491 1159 1978 
L 1159 0 
L 581 0 
L 581 4863 
L 1159 4863 
L 1159 2956 
Q 1366 3272 1645 3428 
Q 1925 3584 2291 3584 
Q 2894 3584 3203 3211 
Q 3513 2838 3513 2113 
z
" transform="scale(0.015625)"/>
      </defs>
      <use xlink:href="#DejaVuSans-42"/>
      <use xlink:href="#DejaVuSans-65" x="68.603516"/>
      <use xlink:href="#DejaVuSans-73" x="130.126953"/>
      <use xlink:href="#DejaVuSans-74" x="182.226562"/>
      <use xlink:href="#DejaVuSans-20" x="221.435547"/>
      <use xlink:href="#DejaVuSans-6d" x="253.222656"/>
      <use xlink:href="#DejaVuSans-61" x="350.634766"/>
      <use xlink:href="#DejaVuSans-74" x="411.914062"/>
      <use xlink:href="#DejaVuSans-63" x="451.123047"/>
      <use xlink:href="#DejaVuSans-68" x="506.103516"/>
      <use xlink:href="#DejaVuSans-65" x="569.482422"/>
      <use xlink:href="#DejaVuSans-73" x="631.005859"/>
     </g>
    </g>
   </g>
   <g id="matplotlib.axis_2">
    <g id="ytick_1">
     <g id="line2d_13">
      <path d="M 72 320.4 
L 518.4 320.4 
" clip-path="url(#pcdc8a94249)" style="fill: none; stroke: #b0b0b0; stroke-width: 0.8; stroke-linecap: square"/>
     </g>
     <g id="line2d_14">
      <defs>
       <path id="m3af2876d7f" d="M 0 0 
L -3.5 0 
" style="stroke: #000000; stroke-width: 0.8"/>
      </defs>
      <g>
       <use xlink:href="#m3af2876d7f" x="72" y="320.4" style="stroke: #000000; stroke-width: 0.8"/>
      </g>
     </g>
     <g id="text_8">
      <!-- 0.0 -->
      <g transform="translate(49.096875 324.199219) scale(0.1 -0.1)">
       <use xlink:href="#DejaVuSans-30"/>
       <use xlink:href="#DejaVuSans-2e" x="63.623047"/>
       <use xlink:href="#DejaVuSans-30" x="95.410156"/>
      </g>
     </g>
    </g>
    <g id="ytick_2">
     <g id="line2d_15">
      <path d="M 72 287.737282 
L 518.4 287.737282 
" clip-path="url(#pcdc8a94249)" style="fill: none; stroke: #b0b0b0; stroke-width: 0.8; stroke-linecap: square"/>
     </g>
     <g id="line2d_16">
      <g>
       <use xlink:href="#m3af2876d7f" x="72" y="287.737282" style="stroke: #000000; stroke-width: 0.8"/>
      </g>
     </g>
     <g id="text_9">
      <!-- 0.5 -->
      <g transform="translate(49.096875 291.536501) scale(0.1 -0.1)">
       <defs>
        <path id="DejaVuSans-35" d="M 691 4666 
L 3169 4666 
L 3169 4134 
L 1269 4134 
L 1269 2991 
Q 1406 3038 1543 3061 
Q 1681 3084 1819 3084 
Q 2600 3084 3056 2656 
Q 3513 2228 3513 1497 
Q 3513 744 3044 326 
Q 2575 -91 1722 -91 
Q 1428 -91 1123 -41 
Q 819 9 494 109 
L 494 744 
Q 775 591 1075 516 
Q 1375 441 1709 441 
Q 2250 441 2565 725 
Q 2881 1009 2881 1497 
Q 2881 1984 2565 2268 
Q 2250 2553 1709 2553 
Q 1456 2553 1204 2497 
Q 953 2441 691 2322 
L 691 4666 
z
" transform="scale(0.015625)"/>
       </defs>
       <use xlink:href="#DejaVuSans-30"/>
       <use xlink:href="#DejaVuSans-2e" x="63.623047"/>
       <use xlink:href="#DejaVuSans-35" x="95.410156"/>
      </g>
     </g>
    </g>
    <g id="ytick_3">
     <g id="line2d_17">
      <path d="M 72 255.074564 
L 518.4 255.074564 
" clip-path="url(#pcdc8a94249)" style="fill: none; stroke: #b0b0b0; stroke-width: 0.8; stroke-linecap: square"/>
     </g>
     <g id="line2d_18">
      <g>
       <use xlink:href="#m3af2876d7f" x="72" y="255.074564" style="stroke: #000000; stroke-width: 0.8"/>
      </g>
     </g>
     <g id="text_10">
      <!-- 1.0 -->
      <g transform="translate(49.096875 258.873783) scale(0.1 -0.1)">
       <use xlink:href="#DejaVuSans-31"/>
       <use xlink:href="#DejaVuSans-2e" x="63.623047"/>
       <use xlink:href="#DejaVuSans-30" x="95.410156"/>
      </g>
     </g>
    </g>
    <g id="ytick_4">
     <g id="line2d_19">
      <path d="M 72 222.411846 
L 518.4 222.411846 
" clip-path="url(#pcdc8a94249)" style="fill: none; stroke: #b0b0b0; stroke-width: 0.8; stroke-linecap: square"/>
     </g>
     <g id="line2d_20">
      <g>
       <use xlink:href="#m3af2876d7f" x="72" y="222.411846" style="stroke: #000000; stroke-width: 0.8"/>
      </g>
     </g>
     <g id="text_11">
      <!-- 1.5 -->
      <g transform="translate(49.096875 226.211065) scale(0.1 -0.1)">
       <use xlink:href="#DejaVuSans-31"/>
       <use xlink:href="#DejaVuSans-2e" x="63.623047"/>
       <use xlink:href="#DejaVuSans-35" x="95.410156"/>
      </g>
     </g>
    </g>
    <g id="ytick_5">
     <g id="line2d_21">
      <path d="M 72 189.749128 
L 518.4 189.749128 
" clip-path="url(#pcdc8a94249)" style="fill: none; stroke: #b0b0b0; stroke-width: 0.8; stroke-linecap: square"/>
     </g>
     <g id="line2d_22">
      <g>
       <use xlink:href="#m3af2876d7f" x="72" y="189.749128" style="stroke: #000000; stroke-width: 0.8"/>
      </g>
     </g>
     <g id="text_12">
      <!-- 2.0 -->
      <g transform="translate(49.096875 193.548346) scale(0.1 -0.1)">
       <use xlink:href="#DejaVuSans-32"/>
       <use xlink:href="#DejaVuSans-2e" x="63.623047"/>
       <use xlink:href="#DejaVuSans-30" x="95.410156"/>
      </g>
     </g>
    </g>
    <g id="ytick_6">
     <g id="line2d_23">
      <path d="M 72 157.08641 
L 518.4 157.08641 
" clip-path="url(#pcdc8a94249)" style="fill: none; stroke: #b0b0b0; stroke-width: 0.8; stroke-linecap: square"/>
     </g>
     <g id="line2d_24">
      <g>
       <use xlink:href="#m3af2876d7f" x="72" y="157.08641" style="stroke: #000000; stroke-width: 0.8"/>
      </g>
     </g>
     <g id="text_13">
      <!-- 2.5 -->
      <g transform="translate(49.096875 160.885628) scale(0.1 -0.1)">
       <use xlink:href="#DejaVuSans-32"/>
       <use xlink:href="#DejaVuSans-2e" x="63.623047"/>
       <use xlink:href="#DejaVuSans-35" x="95.410156"/>
      </g>
     </g>
    </g>
    <g id="ytick_7">
     <g id="line2d_25">
      <path d="M 72 124.423692 
L 518.4 124.423692 
" clip-path="url(#pcdc8a94249)" style="fill: none; stroke: #b0b0b0; stroke-width: 0.8; stroke-linecap: square"/>
     </g>
     <g id="line2d_26">
      <g>
       <use xlink:href="#m3af2876d7f" x="72" y="124.423692" style="stroke: #000000; stroke-width: 0.8"/>
      </g>
     </g>
     <g id="text_14">
      <!-- 3.0 -->
      <g transform="translate(49.096875 128.22291) scale(0.1 -0.1)">
       <defs>
        <path id="DejaVuSans-33" d="M 2597 2516 
Q 3050 2419 3304 2112 
Q 3559 1806 3559 1356 
Q 3559 666 3084 287 
Q 2609 -91 1734 -91 
Q 1441 -91 1130 -33 
Q 819 25 488 141 
L 488 750 
Q 750 597 1062 519 
Q 1375 441 1716 441 
Q 2309 441 2620 675 
Q 2931 909 2931 1356 
Q 2931 1769 2642 2001 
Q 2353 2234 1838 2234 
L 1294 2234 
L 1294 2753 
L 1863 2753 
Q 2328 2753 2575 2939 
Q 2822 3125 2822 3475 
Q 2822 3834 2567 4026 
Q 2313 4219 1838 4219 
Q 1578 4219 1281 4162 
Q 984 4106 628 3988 
L 628 4550 
Q 988 4650 1302 4700 
Q 1616 4750 1894 4750 
Q 2613 4750 3031 4423 
Q 3450 4097 3450 3541 
Q 3450 3153 3228 2886 
Q 3006 2619 2597 2516 
z
" transform="scale(0.015625)"/>
       </defs>
       <use xlink:href="#DejaVuSans-33"/>
       <use xlink:href="#DejaVuSans-2e" x="63.623047"/>
       <use xlink:href="#DejaVuSans-30" x="95.410156"/>
      </g>
     </g>
    </g>
    <g id="ytick_8">
     <g id="line2d_27">
      <path d="M 72 91.760974 
L 518.4 91.760974 
" clip-path="url(#pcdc8a94249)" style="fill: none; stroke: #b0b0b0; stroke-width: 0.8; stroke-linecap: square"/>
     </g>
     <g id="line2d_28">
      <g>
       <use xlink:href="#m3af2876d7f" x="72" y="91.760974" style="stroke: #000000; stroke-width: 0.8"/>
      </g>
     </g>
     <g id="text_15">
      <!-- 3.5 -->
      <g transform="translate(49.096875 95.560192) scale(0.1 -0.1)">
       <use xlink:href="#DejaVuSans-33"/>
       <use xlink:href="#DejaVuSans-2e" x="63.623047"/>
       <use xlink:href="#DejaVuSans-35" x="95.410156"/>
      </g>
     </g>
    </g>
    <g id="ytick_9">
     <g id="line2d_29">
      <path d="M 72 59.098255 
L 518.4 59.098255 
" clip-path="url(#pcdc8a94249)" style="fill: none; stroke: #b0b0b0; stroke-width: 0.8; stroke-linecap: square"/>
     </g>
     <g id="line2d_30">
      <g>
       <use xlink:href="#m3af2876d7f" x="72" y="59.098255" style="stroke: #000000; stroke-width: 0.8"/>
      </g>
     </g>
     <g id="text_16">
      <!-- 4.0 -->
      <g transform="translate(49.096875 62.897474) scale(0.1 -0.1)">
       <use xlink:href="#DejaVuSans-34"/>
       <use xlink:href="#DejaVuSans-2e" x="63.623047"/>
       <use xlink:href="#DejaVuSans-30" x="95.410156"/>
      </g>
     </g>
    </g>
    <g id="text_17">
     <!-- Density -->
     <g transform="translate(43.017187 200.808594) rotate(-90) scale(0.1 -0.1)">
      <defs>
       <path id="DejaVuSans-44" d="M 1259 4147 
L 1259 519 
L 2022 519 
Q 2988 519 3436 956 
Q 3884 1394 3884 2338 
Q 3884 3275 3436 3711 
Q 2988 4147 2022 4147 
L 1259 4147 
z
M 628 4666 
L 1925 4666 
Q 3281 4666 3915 4102 
Q 4550 3538 4550 2338 
Q 4550 1131 3912 565 
Q 3275 0 1925 0 
L 628 0 
L 628 4666 
z
" transform="scale(0.015625)"/>
       <path id="DejaVuSans-6e" d="M 3513 2113 
L 3513 0 
L 2938 0 
L 2938 2094 
Q 2938 2591 2744 2837 
Q 2550 3084 2163 3084 
Q 1697 3084 1428 2787 
Q 1159 2491 1159 1978 
L 1159 0 
L 581 0 
L 581 3500 
L 1159 3500 
L 1159 2956 
Q 1366 3272 1645 3428 
Q 1925 3584 2291 3584 
Q 2894 3584 3203 3211 
Q 3513 2838 3513 2113 
z
" transform="scale(0.015625)"/>
       <path id="DejaVuSans-69" d="M 603 3500 
L 1178 3500 
L 1178 0 
L 603 0 
L 603 3500 
z
M 603 4863 
L 1178 4863 
L 1178 4134 
L 603 4134 
L 603 4863 
z
" transform="scale(0.015625)"/>
       <path id="DejaVuSans-79" d="M 2059 -325 
Q 1816 -950 1584 -1140 
Q 1353 -1331 966 -1331 
L 506 -1331 
L 506 -850 
L 844 -850 
Q 1081 -850 1212 -737 
Q 1344 -625 1503 -206 
L 1606 56 
L 191 3500 
L 800 3500 
L 1894 763 
L 2988 3500 
L 3597 3500 
L 2059 -325 
z
" transform="scale(0.015625)"/>
      </defs>
      <use xlink:href="#DejaVuSans-44"/>
      <use xlink:href="#DejaVuSans-65" x="77.001953"/>
      <use xlink:href="#DejaVuSans-6e" x="138.525391"/>
      <use xlink:href="#DejaVuSans-73" x="201.904297"/>
      <use xlink:href="#DejaVuSans-69" x="254.003906"/>
      <use xlink:href="#DejaVuSans-74" x="281.787109"/>
      <use xlink:href="#DejaVuSans-79" x="320.996094"/>
     </g>
    </g>
   </g>
   <g id="line2d_31">
    <path d="M 339.84 320.4 
L 339.84 43.2 
" clip-path="url(#pcdc8a94249)" style="fill: none; stroke-dasharray: 7.4,3.2; stroke-dashoffset: 0; stroke: #ff0000; stroke-width: 2"/>
   </g>
   <g id="patch_3">
    <path d="M 72 320.4 
L 72 43.2 
" style="fill: none; stroke: #000000; stroke-width: 0.8; stroke-linejoin: miter; stroke-linecap: square"/>
   </g>
   <g id="patch_4">
    <path d="M 518.4 320.4 
L 518.4 43.2 
" style="fill: none; stroke: #000000; stroke-width: 0.8; stroke-linejoin: miter; stroke-linecap: square"/>
   </g>
   <g id="patch_5">
    <path d="M 72 320.4 
L 518.4 320.4 
" style="fill: none; stroke: #000000; stroke-width: 0.8; stroke-linejoin: miter; stroke-linecap: square"/>
   </g>
   <g id="patch_6">
    <path d="M 72 43.2 
L 518.4 43.2 
" style="fill: none; stroke: #000000; stroke-width: 0.8; stroke-linejoin: miter; stroke-linecap: square"/>
   </g>
   <g id="text_18">
    <!-- Distribution of the best IOU matches between ground truth and predicted bounding boxes -->
    <g transform="translate(24.685313 37.2) scale(0.12 -0.12)">
     <defs>
      <path id="DejaVuSans-72" d="M 2631 2963 
Q 2534 3019 2420 3045 
Q 2306 3072 2169 3072 
Q 1681 3072 1420 2755 
Q 1159 2438 1159 1844 
L 1159 0 
L 581 0 
L 581 3500 
L 1159 3500 
L 1159 2956 
Q 1341 3275 1631 3429 
Q 1922 3584 2338 3584 
Q 2397 3584 2469 3576 
Q 2541 3569 2628 3553 
L 2631 2963 
z
" transform="scale(0.015625)"/>
      <path id="DejaVuSans-62" d="M 3116 1747 
Q 3116 2381 2855 2742 
Q 2594 3103 2138 3103 
Q 1681 3103 1420 2742 
Q 1159 2381 1159 1747 
Q 1159 1113 1420 752 
Q 1681 391 2138 391 
Q 2594 391 2855 752 
Q 3116 1113 3116 1747 
z
M 1159 2969 
Q 1341 3281 1617 3432 
Q 1894 3584 2278 3584 
Q 2916 3584 3314 3078 
Q 3713 2572 3713 1747 
Q 3713 922 3314 415 
Q 2916 -91 2278 -91 
Q 1894 -91 1617 61 
Q 1341 213 1159 525 
L 1159 0 
L 581 0 
L 581 4863 
L 1159 4863 
L 1159 2969 
z
" transform="scale(0.015625)"/>
      <path id="DejaVuSans-75" d="M 544 1381 
L 544 3500 
L 1119 3500 
L 1119 1403 
Q 1119 906 1312 657 
Q 1506 409 1894 409 
Q 2359 409 2629 706 
Q 2900 1003 2900 1516 
L 2900 3500 
L 3475 3500 
L 3475 0 
L 2900 0 
L 2900 538 
Q 2691 219 2414 64 
Q 2138 -91 1772 -91 
Q 1169 -91 856 284 
Q 544 659 544 1381 
z
M 1991 3584 
L 1991 3584 
z
" transform="scale(0.015625)"/>
      <path id="DejaVuSans-6f" d="M 1959 3097 
Q 1497 3097 1228 2736 
Q 959 2375 959 1747 
Q 959 1119 1226 758 
Q 1494 397 1959 397 
Q 2419 397 2687 759 
Q 2956 1122 2956 1747 
Q 2956 2369 2687 2733 
Q 2419 3097 1959 3097 
z
M 1959 3584 
Q 2709 3584 3137 3096 
Q 3566 2609 3566 1747 
Q 3566 888 3137 398 
Q 2709 -91 1959 -91 
Q 1206 -91 779 398 
Q 353 888 353 1747 
Q 353 2609 779 3096 
Q 1206 3584 1959 3584 
z
" transform="scale(0.015625)"/>
      <path id="DejaVuSans-66" d="M 2375 4863 
L 2375 4384 
L 1825 4384 
Q 1516 4384 1395 4259 
Q 1275 4134 1275 3809 
L 1275 3500 
L 2222 3500 
L 2222 3053 
L 1275 3053 
L 1275 0 
L 697 0 
L 697 3053 
L 147 3053 
L 147 3500 
L 697 3500 
L 697 3744 
Q 697 4328 969 4595 
Q 1241 4863 1831 4863 
L 2375 4863 
z
" transform="scale(0.015625)"/>
      <path id="DejaVuSans-49" d="M 628 4666 
L 1259 4666 
L 1259 0 
L 628 0 
L 628 4666 
z
" transform="scale(0.015625)"/>
      <path id="DejaVuSans-4f" d="M 2522 4238 
Q 1834 4238 1429 3725 
Q 1025 3213 1025 2328 
Q 1025 1447 1429 934 
Q 1834 422 2522 422 
Q 3209 422 3611 934 
Q 4013 1447 4013 2328 
Q 4013 3213 3611 3725 
Q 3209 4238 2522 4238 
z
M 2522 4750 
Q 3503 4750 4090 4092 
Q 4678 3434 4678 2328 
Q 4678 1225 4090 567 
Q 3503 -91 2522 -91 
Q 1538 -91 948 565 
Q 359 1222 359 2328 
Q 359 3434 948 4092 
Q 1538 4750 2522 4750 
z
" transform="scale(0.015625)"/>
      <path id="DejaVuSans-55" d="M 556 4666 
L 1191 4666 
L 1191 1831 
Q 1191 1081 1462 751 
Q 1734 422 2344 422 
Q 2950 422 3222 751 
Q 3494 1081 3494 1831 
L 3494 4666 
L 4128 4666 
L 4128 1753 
Q 4128 841 3676 375 
Q 3225 -91 2344 -91 
Q 1459 -91 1007 375 
Q 556 841 556 1753 
L 556 4666 
z
" transform="scale(0.015625)"/>
      <path id="DejaVuSans-77" d="M 269 3500 
L 844 3500 
L 1563 769 
L 2278 3500 
L 2956 3500 
L 3675 769 
L 4391 3500 
L 4966 3500 
L 4050 0 
L 3372 0 
L 2619 2869 
L 1863 0 
L 1184 0 
L 269 3500 
z
" transform="scale(0.015625)"/>
      <path id="DejaVuSans-67" d="M 2906 1791 
Q 2906 2416 2648 2759 
Q 2391 3103 1925 3103 
Q 1463 3103 1205 2759 
Q 947 2416 947 1791 
Q 947 1169 1205 825 
Q 1463 481 1925 481 
Q 2391 481 2648 825 
Q 2906 1169 2906 1791 
z
M 3481 434 
Q 3481 -459 3084 -895 
Q 2688 -1331 1869 -1331 
Q 1566 -1331 1297 -1286 
Q 1028 -1241 775 -1147 
L 775 -588 
Q 1028 -725 1275 -790 
Q 1522 -856 1778 -856 
Q 2344 -856 2625 -561 
Q 2906 -266 2906 331 
L 2906 616 
Q 2728 306 2450 153 
Q 2172 0 1784 0 
Q 1141 0 747 490 
Q 353 981 353 1791 
Q 353 2603 747 3093 
Q 1141 3584 1784 3584 
Q 2172 3584 2450 3431 
Q 2728 3278 2906 2969 
L 2906 3500 
L 3481 3500 
L 3481 434 
z
" transform="scale(0.015625)"/>
      <path id="DejaVuSans-64" d="M 2906 2969 
L 2906 4863 
L 3481 4863 
L 3481 0 
L 2906 0 
L 2906 525 
Q 2725 213 2448 61 
Q 2172 -91 1784 -91 
Q 1150 -91 751 415 
Q 353 922 353 1747 
Q 353 2572 751 3078 
Q 1150 3584 1784 3584 
Q 2172 3584 2448 3432 
Q 2725 3281 2906 2969 
z
M 947 1747 
Q 947 1113 1208 752 
Q 1469 391 1925 391 
Q 2381 391 2643 752 
Q 2906 1113 2906 1747 
Q 2906 2381 2643 2742 
Q 2381 3103 1925 3103 
Q 1469 3103 1208 2742 
Q 947 2381 947 1747 
z
" transform="scale(0.015625)"/>
      <path id="DejaVuSans-70" d="M 1159 525 
L 1159 -1331 
L 581 -1331 
L 581 3500 
L 1159 3500 
L 1159 2969 
Q 1341 3281 1617 3432 
Q 1894 3584 2278 3584 
Q 2916 3584 3314 3078 
Q 3713 2572 3713 1747 
Q 3713 922 3314 415 
Q 2916 -91 2278 -91 
Q 1894 -91 1617 61 
Q 1341 213 1159 525 
z
M 3116 1747 
Q 3116 2381 2855 2742 
Q 2594 3103 2138 3103 
Q 1681 3103 1420 2742 
Q 1159 2381 1159 1747 
Q 1159 1113 1420 752 
Q 1681 391 2138 391 
Q 2594 391 2855 752 
Q 3116 1113 3116 1747 
z
" transform="scale(0.015625)"/>
      <path id="DejaVuSans-78" d="M 3513 3500 
L 2247 1797 
L 3578 0 
L 2900 0 
L 1881 1375 
L 863 0 
L 184 0 
L 1544 1831 
L 300 3500 
L 978 3500 
L 1906 2253 
L 2834 3500 
L 3513 3500 
z
" transform="scale(0.015625)"/>
     </defs>
     <use xlink:href="#DejaVuSans-44"/>
     <use xlink:href="#DejaVuSans-69" x="77.001953"/>
     <use xlink:href="#DejaVuSans-73" x="104.785156"/>
     <use xlink:href="#DejaVuSans-74" x="156.884766"/>
     <use xlink:href="#DejaVuSans-72" x="196.09375"/>
     <use xlink:href="#DejaVuSans-69" x="237.207031"/>
     <use xlink:href="#DejaVuSans-62" x="264.990234"/>
     <use xlink:href="#DejaVuSans-75" x="328.466797"/>
     <use xlink:href="#DejaVuSans-74" x="391.845703"/>
     <use xlink:href="#DejaVuSans-69" x="431.054688"/>
     <use xlink:href="#DejaVuSans-6f" x="458.837891"/>
     <use xlink:href="#DejaVuSans-6e" x="520.019531"/>
     <use xlink:href="#DejaVuSans-20" x="583.398438"/>
     <use xlink:href="#DejaVuSans-6f" x="615.185547"/>
     <use xlink:href="#DejaVuSans-66" x="676.367188"/>
     <use xlink:href="#DejaVuSans-20" x="711.572266"/>
     <use xlink:href="#DejaVuSans-74" x="743.359375"/>
     <use xlink:href="#DejaVuSans-68" x="782.568359"/>
     <use xlink:href="#DejaVuSans-65" x="845.947266"/>
     <use xlink:href="#DejaVuSans-20" x="907.470703"/>
     <use xlink:href="#DejaVuSans-62" x="939.257812"/>
     <use xlink:href="#DejaVuSans-65" x="1002.734375"/>
     <use xlink:href="#DejaVuSans-73" x="1064.257812"/>
     <use xlink:href="#DejaVuSans-74" x="1116.357422"/>
     <use xlink:href="#DejaVuSans-20" x="1155.566406"/>
     <use xlink:href="#DejaVuSans-49" x="1187.353516"/>
     <use xlink:href="#DejaVuSans-4f" x="1216.845703"/>
     <use xlink:href="#DejaVuSans-55" x="1295.556641"/>
     <use xlink:href="#DejaVuSans-20" x="1368.75"/>
     <use xlink:href="#DejaVuSans-6d" x="1400.537109"/>
     <use xlink:href="#DejaVuSans-61" x="1497.949219"/>
     <use xlink:href="#DejaVuSans-74" x="1559.228516"/>
     <use xlink:href="#DejaVuSans-63" x="1598.4375"/>
     <use xlink:href="#DejaVuSans-68" x="1653.417969"/>
     <use xlink:href="#DejaVuSans-65" x="1716.796875"/>
     <use xlink:href="#DejaVuSans-73" x="1778.320312"/>
     <use xlink:href="#DejaVuSans-20" x="1830.419922"/>
     <use xlink:href="#DejaVuSans-62" x="1862.207031"/>
     <use xlink:href="#DejaVuSans-65" x="1925.683594"/>
     <use xlink:href="#DejaVuSans-74" x="1987.207031"/>
     <use xlink:href="#DejaVuSans-77" x="2026.416016"/>
     <use xlink:href="#DejaVuSans-65" x="2108.203125"/>
     <use xlink:href="#DejaVuSans-65" x="2169.726562"/>
     <use xlink:href="#DejaVuSans-6e" x="2231.25"/>
     <use xlink:href="#DejaVuSans-20" x="2294.628906"/>
     <use xlink:href="#DejaVuSans-67" x="2326.416016"/>
     <use xlink:href="#DejaVuSans-72" x="2389.892578"/>
     <use xlink:href="#DejaVuSans-6f" x="2428.755859"/>
     <use xlink:href="#DejaVuSans-75" x="2489.9375"/>
     <use xlink:href="#DejaVuSans-6e" x="2553.316406"/>
     <use xlink:href="#DejaVuSans-64" x="2616.695312"/>
     <use xlink:href="#DejaVuSans-20" x="2680.171875"/>
     <use xlink:href="#DejaVuSans-74" x="2711.958984"/>
     <use xlink:href="#DejaVuSans-72" x="2751.167969"/>
     <use xlink:href="#DejaVuSans-75" x="2792.28125"/>
     <use xlink:href="#DejaVuSans-74" x="2855.660156"/>
     <use xlink:href="#DejaVuSans-68" x="2894.869141"/>
     <use xlink:href="#DejaVuSans-20" x="2958.248047"/>
     <use xlink:href="#DejaVuSans-61" x="2990.035156"/>
     <use xlink:href="#DejaVuSans-6e" x="3051.314453"/>
     <use xlink:href="#DejaVuSans-64" x="3114.693359"/>
     <use xlink:href="#DejaVuSans-20" x="3178.169922"/>
     <use xlink:href="#DejaVuSans-70" x="3209.957031"/>
     <use xlink:href="#DejaVuSans-72" x="3273.433594"/>
     <use xlink:href="#DejaVuSans-65" x="3312.296875"/>
     <use xlink:href="#DejaVuSans-64" x="3373.820312"/>
     <use xlink:href="#DejaVuSans-69" x="3437.296875"/>
     <use xlink:href="#DejaVuSans-63" x="3465.080078"/>
     <use xlink:href="#DejaVuSans-74" x="3520.060547"/>
     <use xlink:href="#DejaVuSans-65" x="3559.269531"/>
     <use xlink:href="#DejaVuSans-64" x="3620.792969"/>
     <use xlink:href="#DejaVuSans-20" x="3684.269531"/>
     <use xlink:href="#DejaVuSans-62" x="3716.056641"/>
     <use xlink:href="#DejaVuSans-6f" x="3779.533203"/>
     <use xlink:href="#DejaVuSans-75" x="3840.714844"/>
     <use xlink:href="#DejaVuSans-6e" x="3904.09375"/>
     <use xlink:href="#DejaVuSans-64" x="3967.472656"/>
     <use xlink:href="#DejaVuSans-69" x="4030.949219"/>
     <use xlink:href="#DejaVuSans-6e" x="4058.732422"/>
     <use xlink:href="#DejaVuSans-67" x="4122.111328"/>
     <use xlink:href="#DejaVuSans-20" x="4185.587891"/>
     <use xlink:href="#DejaVuSans-62" x="4217.375"/>
     <use xlink:href="#DejaVuSans-6f" x="4280.851562"/>
     <use xlink:href="#DejaVuSans-78" x="4338.908203"/>
     <use xlink:href="#DejaVuSans-65" x="4394.962891"/>
     <use xlink:href="#DejaVuSans-73" x="4456.486328"/>
    </g>
   </g>
   <g id="legend_1">
    <g id="patch_7">
     <path d="M 79 80.55625 
L 181.698438 80.55625 
Q 183.698438 80.55625 183.698438 78.55625 
L 183.698438 50.2 
Q 183.698438 48.2 181.698438 48.2 
L 79 48.2 
Q 77 48.2 77 50.2 
L 77 78.55625 
Q 77 80.55625 79 80.55625 
z
" style="fill: #ffffff; opacity: 0.8; stroke: #cccccc; stroke-linejoin: miter"/>
    </g>
    <g id="patch_8">
     <path d="M 81 59.798437 
L 101 59.798437 
L 101 52.798437 
L 81 52.798437 
z
" style="fill: #0000ff; fill-opacity: 0.25; stroke: #0000ff; stroke-linejoin: miter"/>
    </g>
    <g id="text_19">
     <!-- Density Curve -->
     <g transform="translate(109 59.798437) scale(0.1 -0.1)">
      <defs>
       <path id="DejaVuSans-43" d="M 4122 4306 
L 4122 3641 
Q 3803 3938 3442 4084 
Q 3081 4231 2675 4231 
Q 1875 4231 1450 3742 
Q 1025 3253 1025 2328 
Q 1025 1406 1450 917 
Q 1875 428 2675 428 
Q 3081 428 3442 575 
Q 3803 722 4122 1019 
L 4122 359 
Q 3791 134 3420 21 
Q 3050 -91 2638 -91 
Q 1578 -91 968 557 
Q 359 1206 359 2328 
Q 359 3453 968 4101 
Q 1578 4750 2638 4750 
Q 3056 4750 3426 4639 
Q 3797 4528 4122 4306 
z
" transform="scale(0.015625)"/>
       <path id="DejaVuSans-76" d="M 191 3500 
L 800 3500 
L 1894 563 
L 2988 3500 
L 3597 3500 
L 2284 0 
L 1503 0 
L 191 3500 
z
" transform="scale(0.015625)"/>
      </defs>
      <use xlink:href="#DejaVuSans-44"/>
      <use xlink:href="#DejaVuSans-65" x="77.001953"/>
      <use xlink:href="#DejaVuSans-6e" x="138.525391"/>
      <use xlink:href="#DejaVuSans-73" x="201.904297"/>
      <use xlink:href="#DejaVuSans-69" x="254.003906"/>
      <use xlink:href="#DejaVuSans-74" x="281.787109"/>
      <use xlink:href="#DejaVuSans-79" x="320.996094"/>
      <use xlink:href="#DejaVuSans-20" x="380.175781"/>
      <use xlink:href="#DejaVuSans-43" x="411.962891"/>
      <use xlink:href="#DejaVuSans-75" x="481.787109"/>
      <use xlink:href="#DejaVuSans-72" x="545.166016"/>
      <use xlink:href="#DejaVuSans-76" x="586.279297"/>
      <use xlink:href="#DejaVuSans-65" x="645.458984"/>
     </g>
    </g>
    <g id="line2d_32">
     <path d="M 81 70.976562 
L 91 70.976562 
L 101 70.976562 
" style="fill: none; stroke-dasharray: 7.4,3.2; stroke-dashoffset: 0; stroke: #ff0000; stroke-width: 2"/>
    </g>
    <g id="text_20">
     <!-- Threshold () -->
     <g transform="translate(109 74.476562) scale(0.1 -0.1)">
      <defs>
       <path id="DejaVuSans-54" d="M -19 4666 
L 3928 4666 
L 3928 4134 
L 2272 4134 
L 2272 0 
L 1638 0 
L 1638 4134 
L -19 4134 
L -19 4666 
z
" transform="scale(0.015625)"/>
       <path id="DejaVuSans-6c" d="M 603 4863 
L 1178 4863 
L 1178 0 
L 603 0 
L 603 4863 
z
" transform="scale(0.015625)"/>
       <path id="DejaVuSans-28" d="M 1984 4856 
Q 1566 4138 1362 3434 
Q 1159 2731 1159 2009 
Q 1159 1288 1364 580 
Q 1569 -128 1984 -844 
L 1484 -844 
Q 1016 -109 783 600 
Q 550 1309 550 2009 
Q 550 2706 781 3412 
Q 1013 4119 1484 4856 
L 1984 4856 
z
" transform="scale(0.015625)"/>
       <path id="DejaVuSans-29" d="M 513 4856 
L 1013 4856 
Q 1481 4119 1714 3412 
Q 1947 2706 1947 2009 
Q 1947 1309 1714 600 
Q 1481 -109 1013 -844 
L 513 -844 
Q 928 -128 1133 580 
Q 1338 1288 1338 2009 
Q 1338 2731 1133 3434 
Q 928 4138 513 4856 
z
" transform="scale(0.015625)"/>
      </defs>
      <use xlink:href="#DejaVuSans-54"/>
      <use xlink:href="#DejaVuSans-68" x="61.083984"/>
      <use xlink:href="#DejaVuSans-72" x="124.462891"/>
      <use xlink:href="#DejaVuSans-65" x="163.326172"/>
      <use xlink:href="#DejaVuSans-73" x="224.849609"/>
      <use xlink:href="#DejaVuSans-68" x="276.949219"/>
      <use xlink:href="#DejaVuSans-6f" x="340.328125"/>
      <use xlink:href="#DejaVuSans-6c" x="401.509766"/>
      <use xlink:href="#DejaVuSans-64" x="429.292969"/>
      <use xlink:href="#DejaVuSans-20" x="492.769531"/>
      <use xlink:href="#DejaVuSans-28" x="524.556641"/>
      <use xlink:href="#DejaVuSans-29" x="563.570312"/>
     </g>
    </g>
   </g>
  </g>
 </g>
 <defs>
  <clipPath id="pcdc8a94249">
   <rect x="72" y="43.2" width="446.4" height="277.2"/>
  </clipPath>
 </defs>
</svg>
