<?xml version="1.0" encoding="utf-8" standalone="no"?>
<!DOCTYPE svg PUBLIC "-//W3C//DTD SVG 1.1//EN"
  "http://www.w3.org/Graphics/SVG/1.1/DTD/svg11.dtd">
<svg xmlns:xlink="http://www.w3.org/1999/xlink" width="576pt" height="360pt" viewBox="0 0 576 360" xmlns="http://www.w3.org/2000/svg" version="1.1">
 <metadata>
  <rdf:RDF xmlns:dc="http://purl.org/dc/elements/1.1/" xmlns:cc="http://creativecommons.org/ns#" xmlns:rdf="http://www.w3.org/1999/02/22-rdf-syntax-ns#">
   <cc:Work>
    <dc:type rdf:resource="http://purl.org/dc/dcmitype/StillImage"/>
    <dc:date>2025-03-14T00:57:56.967789</dc:date>
    <dc:format>image/svg+xml</dc:format>
    <dc:creator>
     <cc:Agent>
      <dc:title>Matplotlib v3.10.1, https://matplotlib.org/</dc:title>
     </cc:Agent>
    </dc:creator>
   </cc:Work>
  </rdf:RDF>
 </metadata>
 <defs>
  <style type="text/css">*{stroke-linejoin: round; stroke-linecap: butt}</style>
 </defs>
 <g id="figure_1">
  <g id="patch_1">
   <path d="M 0 360 
L 576 360 
L 576 0 
L 0 0 
z
" style="fill: #ffffff"/>
  </g>
  <g id="axes_1">
   <g id="patch_2">
    <path d="M 72 320.4 
L 518.4 320.4 
L 518.4 43.2 
L 72 43.2 
z
" style="fill: #ffffff"/>
   </g>
   <g id="FillBetweenPolyCollection_1">
    <defs>
     <path id="m3a51177211" d="M 92.290909 -52.2 
L 92.290909 -304.2 
L 92.697133 -301.347812 
L 93.103358 -298.567092 
L 93.509582 -295.856395 
L 93.915807 -293.214286 
L 94.322031 -290.63934 
L 94.728256 -288.130146 
L 95.13448 -285.685305 
L 95.540704 -283.303435 
L 95.946929 -280.983165 
L 96.353153 -278.723143 
L 96.759378 -276.522032 
L 97.165602 -274.378512 
L 97.571826 -272.291282 
L 97.978051 -270.259058 
L 98.384275 -268.280573 
L 98.7905 -266.354582 
L 99.196724 -264.479856 
L 99.602948 -262.655188 
L 100.009173 -260.87939 
L 100.415397 -259.151292 
L 100.821622 -257.469748 
L 101.227846 -255.833628 
L 101.63407 -254.241825 
L 102.040295 -252.693251 
L 102.446519 -251.18684 
L 102.852744 -249.721543 
L 103.258968 -248.296335 
L 103.665192 -246.91021 
L 104.071417 -245.56218 
L 104.477641 -244.251281 
L 104.883866 -242.976565 
L 105.29009 -241.737106 
L 105.696314 -240.531998 
L 106.102539 -239.360353 
L 106.508763 -238.221304 
L 106.914988 -237.114 
L 107.321212 -236.037612 
L 107.727437 -234.991328 
L 108.133661 -233.974355 
L 108.539885 -232.985918 
L 108.94611 -232.025259 
L 109.352334 -231.091639 
L 109.758559 -230.184336 
L 110.164783 -229.302645 
L 110.571007 -228.445877 
L 110.977232 -227.613359 
L 111.383456 -226.804438 
L 111.789681 -226.018473 
L 112.195905 -225.254839 
L 112.602129 -224.512929 
L 113.008354 -223.792149 
L 113.414578 -223.09192 
L 113.820803 -222.411678 
L 114.227027 -221.750873 
L 114.633251 -221.10897 
L 115.039476 -220.485445 
L 115.4457 -219.87979 
L 115.851925 -219.29151 
L 116.258149 -218.72012 
L 116.664373 -218.165151 
L 117.070598 -217.626144 
L 117.476822 -217.102654 
L 117.883047 -216.594245 
L 118.289271 -216.100495 
L 118.695495 -215.620992 
L 119.10172 -215.155335 
L 119.507944 -214.703134 
L 119.914169 -214.264009 
L 120.320393 -213.83759 
L 120.726618 -213.423519 
L 121.132842 -213.021444 
L 121.539066 -212.631026 
L 121.945291 -212.251934 
L 122.351515 -211.883845 
L 122.75774 -211.526446 
L 123.163964 -211.179433 
L 123.570188 -210.842508 
L 123.976413 -210.515383 
L 124.382637 -210.197779 
L 124.788862 -209.889423 
L 125.195086 -209.590049 
L 125.60131 -209.2994 
L 126.007535 -209.017225 
L 126.413759 -208.743281 
L 126.819984 -208.477332 
L 127.226208 -208.219146 
L 127.632432 -207.9685 
L 128.038657 -207.725178 
L 128.444881 -207.488967 
L 128.851106 -207.259662 
L 129.25733 -207.037063 
L 129.663554 -206.820977 
L 130.069779 -206.611216 
L 130.476003 -206.407595 
L 130.882228 -206.209938 
L 131.288452 -206.01807 
L 131.694676 -205.831825 
L 132.100901 -205.651039 
L 132.507125 -205.475554 
L 132.91335 -205.305214 
L 133.319574 -205.139872 
L 133.725799 -204.979381 
L 134.132023 -204.8236 
L 134.538247 -204.672392 
L 134.944472 -204.525624 
L 135.350696 -204.383167 
L 135.756921 -204.244894 
L 136.163145 -204.110684 
L 136.569369 -203.980418 
L 136.975594 -203.853981 
L 137.381818 -203.731261 
L 137.788043 -203.612149 
L 138.194267 -203.496541 
L 138.600491 -203.384333 
L 139.006716 -203.275426 
L 139.41294 -203.169723 
L 139.819165 -203.067132 
L 140.225389 -202.96756 
L 140.631613 -202.870919 
L 141.037838 -202.777124 
L 141.444062 -202.68609 
L 141.850287 -202.597738 
L 142.256511 -202.511988 
L 142.662735 -202.428764 
L 143.06896 -202.347991 
L 143.475184 -202.269599 
L 143.881409 -202.193517 
L 144.287633 -202.119678 
L 144.693857 -202.048015 
L 145.100082 -201.978464 
L 145.506306 -201.910964 
L 145.912531 -201.845454 
L 146.318755 -201.781876 
L 146.72498 -201.720173 
L 147.131204 -201.66029 
L 147.537428 -201.602173 
L 147.943653 -201.54577 
L 148.349877 -201.491032 
L 148.756102 -201.437908 
L 149.162326 -201.386352 
L 149.56855 -201.336317 
L 149.974775 -201.287759 
L 150.380999 -201.240634 
L 150.787224 -201.1949 
L 151.193448 -201.150515 
L 151.599672 -201.107441 
L 152.005897 -201.065639 
L 152.412121 -201.02507 
L 152.818346 -200.985699 
L 153.22457 -200.947491 
L 153.630794 -200.910411 
L 154.037019 -200.874426 
L 154.443243 -200.839504 
L 154.849468 -200.805613 
L 155.255692 -200.772723 
L 155.661916 -200.740804 
L 156.068141 -200.709828 
L 156.474365 -200.679767 
L 156.88059 -200.650594 
L 157.286814 -200.622283 
L 157.693038 -200.594808 
L 158.099263 -200.568145 
L 158.505487 -200.54227 
L 158.911712 -200.517159 
L 159.317936 -200.492791 
L 159.724161 -200.469142 
L 160.130385 -200.446192 
L 160.536609 -200.42392 
L 160.942834 -200.402306 
L 161.349058 -200.381331 
L 161.755283 -200.360976 
L 162.161507 -200.341223 
L 162.567731 -200.322053 
L 162.973956 -200.30345 
L 163.38018 -200.285397 
L 163.786405 -200.267877 
L 164.192629 -200.250876 
L 164.598853 -200.234376 
L 165.005078 -200.218365 
L 165.411302 -200.202827 
L 165.817527 -200.187748 
L 166.223751 -200.173115 
L 166.629975 -200.158914 
L 167.0362 -200.145133 
L 167.442424 -200.13176 
L 167.848649 -200.118782 
L 168.254873 -200.106188 
L 168.661097 -200.093966 
L 169.067322 -200.082105 
L 169.473546 -200.070595 
L 169.879771 -200.059426 
L 170.285995 -200.048586 
L 170.692219 -200.038068 
L 171.098444 -200.02786 
L 171.504668 -200.017954 
L 171.910893 -200.008341 
L 172.317117 -199.999012 
L 172.723342 -199.989959 
L 173.129566 -199.981174 
L 173.53579 -199.972648 
L 173.942015 -199.964375 
L 174.348239 -199.956346 
L 174.754464 -199.948555 
L 175.160688 -199.940994 
L 175.566912 -199.933657 
L 175.973137 -199.926536 
L 176.379361 -199.919627 
L 176.785586 -199.912921 
L 177.19181 -199.906414 
L 177.598034 -199.9001 
L 178.004259 -199.893972 
L 178.410483 -199.888025 
L 178.816708 -199.882254 
L 179.222932 -199.876654 
L 179.629156 -199.87122 
L 180.035381 -199.865946 
L 180.441605 -199.860828 
L 180.84783 -199.855862 
L 181.254054 -199.851042 
L 181.660278 -199.846365 
L 182.066503 -199.841826 
L 182.472727 -199.837422 
L 182.878952 -199.833148 
L 183.285176 -199.829 
L 183.6914 -199.824975 
L 184.097625 -199.821069 
L 184.503849 -199.817279 
L 184.910074 -199.8136 
L 185.316298 -199.810031 
L 185.722523 -199.806567 
L 186.128747 -199.803205 
L 186.534971 -199.799943 
L 186.941196 -199.796778 
L 187.34742 -199.793706 
L 187.753645 -199.790725 
L 188.159869 -199.787832 
L 188.566093 -199.785024 
L 188.972318 -199.7823 
L 189.378542 -199.779656 
L 189.784767 -199.777091 
L 190.190991 -199.774601 
L 190.597215 -199.772185 
L 191.00344 -199.769841 
L 191.409664 -199.767566 
L 191.815889 -199.765358 
L 192.222113 -199.763215 
L 192.628337 -199.761136 
L 193.034562 -199.759118 
L 193.440786 -199.75716 
L 193.847011 -199.75526 
L 194.253235 -199.753416 
L 194.659459 -199.751627 
L 195.065684 -199.749891 
L 195.471908 -199.748206 
L 195.878133 -199.74657 
L 196.284357 -199.744984 
L 196.690581 -199.743444 
L 197.096806 -199.741949 
L 197.50303 -199.740499 
L 197.909255 -199.739092 
L 198.315479 -199.737726 
L 198.721704 -199.736401 
L 199.127928 -199.735115 
L 199.534152 -199.733867 
L 199.940377 -199.732656 
L 200.346601 -199.731481 
L 200.752826 -199.730341 
L 201.15905 -199.729234 
L 201.565274 -199.72816 
L 201.971499 -199.727118 
L 202.377723 -199.726106 
L 202.783948 -199.725125 
L 203.190172 -199.724172 
L 203.596396 -199.723248 
L 204.002621 -199.722351 
L 204.408845 -199.721481 
L 204.81507 -199.720636 
L 205.221294 -199.719817 
L 205.627518 -199.719021 
L 206.033743 -199.718249 
L 206.439967 -199.7175 
L 206.846192 -199.716773 
L 207.252416 -199.716068 
L 207.65864 -199.715384 
L 208.064865 -199.714719 
L 208.471089 -199.714075 
L 208.877314 -199.713449 
L 209.283538 -199.712842 
L 209.689762 -199.712253 
L 210.095987 -199.711681 
L 210.502211 -199.711127 
L 210.908436 -199.710588 
L 211.31466 -199.710066 
L 211.720885 -199.709559 
L 212.127109 -199.709067 
L 212.533333 -199.70859 
L 212.939558 -199.708126 
L 213.345782 -199.707677 
L 213.752007 -199.707241 
L 214.158231 -199.706817 
L 214.564455 -199.706406 
L 214.97068 -199.706008 
L 215.376904 -199.705621 
L 215.783129 -199.705245 
L 216.189353 -199.704881 
L 216.595577 -199.704528 
L 217.001802 -199.704184 
L 217.408026 -199.703851 
L 217.814251 -199.703528 
L 218.220475 -199.703215 
L 218.626699 -199.702911 
L 219.032924 -199.702615 
L 219.439148 -199.702329 
L 219.845373 -199.702051 
L 220.251597 -199.701781 
L 220.657821 -199.701519 
L 221.064046 -199.701265 
L 221.47027 -199.701018 
L 221.876495 -199.700779 
L 222.282719 -199.700547 
L 222.688943 -199.700322 
L 223.095168 -199.700103 
L 223.501392 -199.699891 
L 223.907617 -199.699685 
L 224.313841 -199.699485 
L 224.720066 -199.699291 
L 225.12629 -199.699103 
L 225.532514 -199.69892 
L 225.938739 -199.698743 
L 226.344963 -199.698571 
L 226.751188 -199.698404 
L 227.157412 -199.698242 
L 227.563636 -199.698085 
L 227.969861 -199.697933 
L 228.376085 -199.697785 
L 228.78231 -199.697641 
L 229.188534 -199.697502 
L 229.594758 -199.697366 
L 230.000983 -199.697235 
L 230.407207 -199.697108 
L 230.813432 -199.696984 
L 231.219656 -199.696864 
L 231.62588 -199.696748 
L 232.032105 -199.696635 
L 232.438329 -199.696525 
L 232.844554 -199.696419 
L 233.250778 -199.696316 
L 233.657002 -199.696215 
L 234.063227 -199.696118 
L 234.469451 -199.696024 
L 234.875676 -199.695932 
L 235.2819 -199.695844 
L 235.688124 -199.695757 
L 236.094349 -199.695674 
L 236.500573 -199.695593 
L 236.906798 -199.695514 
L 237.313022 -199.695437 
L 237.719247 -199.695363 
L 238.125471 -199.695291 
L 238.531695 -199.695221 
L 238.93792 -199.695154 
L 239.344144 -199.695088 
L 239.750369 -199.695024 
L 240.156593 -199.694962 
L 240.562817 -199.694902 
L 240.969042 -199.694844 
L 241.375266 -199.694787 
L 241.781491 -199.694732 
L 242.187715 -199.694679 
L 242.593939 -199.694627 
L 243.000164 -199.694577 
L 243.406388 -199.694528 
L 243.812613 -199.694481 
L 244.218837 -199.694435 
L 244.625061 -199.69439 
L 245.031286 -199.694347 
L 245.43751 -199.694305 
L 245.843735 -199.694264 
L 246.249959 -199.694225 
L 246.656183 -199.694187 
L 247.062408 -199.69415 
L 247.468632 -199.694113 
L 247.874857 -199.694078 
L 248.281081 -199.694044 
L 248.687305 -199.694011 
L 249.09353 -199.693979 
L 249.499754 -199.693948 
L 249.905979 -199.693918 
L 250.312203 -199.693889 
L 250.718428 -199.693861 
L 251.124652 -199.693833 
L 251.530876 -199.693806 
L 251.937101 -199.69378 
L 252.343325 -199.693755 
L 252.74955 -199.693731 
L 253.155774 -199.693707 
L 253.561998 -199.693684 
L 253.968223 -199.693662 
L 254.374447 -199.69364 
L 254.780672 -199.693619 
L 255.186896 -199.693599 
L 255.59312 -199.693579 
L 255.999345 -199.69356 
L 256.405569 -199.693541 
L 256.811794 -199.693523 
L 257.218018 -199.693506 
L 257.624242 -199.693489 
L 258.030467 -199.693472 
L 258.436691 -199.693456 
L 258.842916 -199.69344 
L 259.24914 -199.693425 
L 259.655364 -199.693411 
L 260.061589 -199.693396 
L 260.467813 -199.693383 
L 260.874038 -199.693369 
L 261.280262 -199.693356 
L 261.686486 -199.693344 
L 262.092711 -199.693331 
L 262.498935 -199.693319 
L 262.90516 -199.693308 
L 263.311384 -199.693297 
L 263.717609 -199.693286 
L 264.123833 -199.693275 
L 264.530057 -199.693265 
L 264.936282 -199.693255 
L 265.342506 -199.693246 
L 265.748731 -199.693236 
L 266.154955 -199.693227 
L 266.561179 -199.693218 
L 266.967404 -199.69321 
L 267.373628 -199.693202 
L 267.779853 -199.693194 
L 268.186077 -199.693186 
L 268.592301 -199.693178 
L 268.998526 -199.693171 
L 269.40475 -199.693164 
L 269.810975 -199.693157 
L 270.217199 -199.69315 
L 270.623423 -199.693144 
L 271.029648 -199.693137 
L 271.435872 -199.693131 
L 271.842097 -199.693125 
L 272.248321 -199.693119 
L 272.654545 -199.693114 
L 273.06077 -199.693108 
L 273.466994 -199.693103 
L 273.873219 -199.693098 
L 274.279443 -199.693093 
L 274.685667 -199.693088 
L 275.091892 -199.693083 
L 275.498116 -199.693079 
L 275.904341 -199.693075 
L 276.310565 -199.69307 
L 276.71679 -199.693066 
L 277.123014 -199.693062 
L 277.529238 -199.693058 
L 277.935463 -199.693054 
L 278.341687 -199.693051 
L 278.747912 -199.693047 
L 279.154136 -199.693044 
L 279.56036 -199.69304 
L 279.966585 -199.693037 
L 280.372809 -199.693034 
L 280.779034 -199.693031 
L 281.185258 -199.693028 
L 281.591482 -199.693025 
L 281.997707 -199.693022 
L 282.403931 -199.693019 
L 282.810156 -199.693017 
L 283.21638 -199.693014 
L 283.622604 -199.693012 
L 284.028829 -199.693009 
L 284.435053 -199.693007 
L 284.841278 -199.693005 
L 285.247502 -199.693002 
L 285.653726 -199.693 
L 286.059951 -199.692998 
L 286.466175 -199.692996 
L 286.8724 -199.692994 
L 287.278624 -199.692992 
L 287.684848 -199.69299 
L 288.091073 -199.692989 
L 288.497297 -199.692987 
L 288.903522 -199.692985 
L 289.309746 -199.692984 
L 289.715971 -199.692982 
L 290.122195 -199.69298 
L 290.528419 -199.692979 
L 290.934644 -199.692977 
L 291.340868 -199.692976 
L 291.747093 -199.692975 
L 292.153317 -199.692973 
L 292.559541 -199.692972 
L 292.965766 -199.692971 
L 293.37199 -199.69297 
L 293.778215 -199.692968 
L 294.184439 -199.692967 
L 294.590663 -199.692966 
L 294.996888 -199.692965 
L 295.403112 -199.692964 
L 295.809337 -199.692963 
L 296.215561 -199.692962 
L 296.621785 -199.692961 
L 297.02801 -199.69296 
L 297.434234 -199.692959 
L 297.840459 -199.692958 
L 298.246683 -199.692958 
L 298.652907 -199.692957 
L 299.059132 -199.692956 
L 299.465356 -199.692955 
L 299.871581 -199.692954 
L 300.277805 -199.692954 
L 300.684029 -199.692953 
L 301.090254 -199.692952 
L 301.496478 -199.692952 
L 301.902703 -199.692951 
L 302.308927 -199.69295 
L 302.715152 -199.69295 
L 303.121376 -199.692949 
L 303.5276 -199.692949 
L 303.933825 -199.692948 
L 304.340049 -199.692948 
L 304.746274 -199.692947 
L 305.152498 -199.692947 
L 305.558722 -199.692946 
L 305.964947 -199.692946 
L 306.371171 -199.692945 
L 306.777396 -199.692945 
L 307.18362 -199.692944 
L 307.589844 -199.692944 
L 307.996069 -199.692943 
L 308.402293 -199.692943 
L 308.808518 -199.692943 
L 309.214742 -199.692942 
L 309.620966 -199.692942 
L 310.027191 -199.692941 
L 310.433415 -199.692941 
L 310.83964 -199.692941 
L 311.245864 -199.69294 
L 311.652088 -199.69294 
L 312.058313 -199.69294 
L 312.464537 -199.69294 
L 312.870762 -199.692939 
L 313.276986 -199.692939 
L 313.68321 -199.692939 
L 314.089435 -199.692938 
L 314.495659 -199.692938 
L 314.901884 -199.692938 
L 315.308108 -199.692938 
L 315.714333 -199.692937 
L 316.120557 -199.692937 
L 316.526781 -199.692937 
L 316.933006 -199.692937 
L 317.33923 -199.692937 
L 317.745455 -199.692936 
L 318.151679 -199.692936 
L 318.557903 -199.692936 
L 318.964128 -199.692936 
L 319.370352 -199.692936 
L 319.776577 -199.692936 
L 320.182801 -199.692935 
L 320.589025 -199.692935 
L 320.99525 -199.692935 
L 321.401474 -199.692935 
L 321.807699 -199.692935 
L 322.213923 -199.692935 
L 322.620147 -199.692934 
L 323.026372 -199.692934 
L 323.432596 -199.692934 
L 323.838821 -199.692934 
L 324.245045 -199.692934 
L 324.651269 -199.692934 
L 325.057494 -199.692934 
L 325.463718 -199.692934 
L 325.869943 -199.692933 
L 326.276167 -199.692933 
L 326.682391 -199.692933 
L 327.088616 -199.692933 
L 327.49484 -199.692933 
L 327.901065 -199.692933 
L 328.307289 -199.692933 
L 328.713514 -199.692933 
L 329.119738 -199.692933 
L 329.525962 -199.692933 
L 329.932187 -199.692933 
L 330.338411 -199.692932 
L 330.744636 -199.692932 
L 331.15086 -199.692932 
L 331.557084 -199.692932 
L 331.963309 -199.692932 
L 332.369533 -199.692932 
L 332.775758 -199.692932 
L 333.181982 -199.692932 
L 333.588206 -199.692932 
L 333.994431 -199.692932 
L 334.400655 -199.692932 
L 334.80688 -199.692932 
L 335.213104 -199.692932 
L 335.619328 -199.692932 
L 336.025553 -199.692932 
L 336.431777 -199.692932 
L 336.838002 -199.692931 
L 337.244226 -199.692931 
L 337.65045 -199.692931 
L 338.056675 -199.692931 
L 338.462899 -199.692931 
L 338.869124 -199.692931 
L 339.275348 -199.692931 
L 339.681572 -199.692931 
L 340.087797 -199.692931 
L 340.494021 -199.692931 
L 340.900246 -199.692931 
L 341.30647 -199.692931 
L 341.712695 -199.692931 
L 342.118919 -199.692931 
L 342.525143 -199.692931 
L 342.931368 -199.692931 
L 343.337592 -199.692931 
L 343.743817 -199.692931 
L 344.150041 -199.692931 
L 344.556265 -199.692931 
L 344.96249 -199.692931 
L 345.368714 -199.692931 
L 345.774939 -199.692931 
L 346.181163 -199.692931 
L 346.587387 -199.692931 
L 346.993612 -199.692931 
L 347.399836 -199.692931 
L 347.806061 -199.692931 
L 348.212285 -199.692931 
L 348.618509 -199.692931 
L 349.024734 -199.692931 
L 349.430958 -199.692931 
L 349.837183 -199.69293 
L 350.243407 -199.69293 
L 350.649631 -199.69293 
L 351.055856 -199.69293 
L 351.46208 -199.69293 
L 351.868305 -199.69293 
L 352.274529 -199.69293 
L 352.680753 -199.69293 
L 353.086978 -199.69293 
L 353.493202 -199.69293 
L 353.899427 -199.69293 
L 354.305651 -199.69293 
L 354.711876 -199.69293 
L 355.1181 -199.69293 
L 355.524324 -199.69293 
L 355.930549 -199.69293 
L 356.336773 -199.69293 
L 356.742998 -199.69293 
L 357.149222 -199.69293 
L 357.555446 -199.69293 
L 357.961671 -199.69293 
L 358.367895 -199.69293 
L 358.77412 -199.69293 
L 359.180344 -199.69293 
L 359.586568 -199.69293 
L 359.992793 -199.69293 
L 360.399017 -199.69293 
L 360.805242 -199.69293 
L 361.211466 -199.69293 
L 361.61769 -199.69293 
L 362.023915 -199.69293 
L 362.430139 -199.69293 
L 362.836364 -199.69293 
L 363.242588 -199.69293 
L 363.648812 -199.69293 
L 364.055037 -199.69293 
L 364.461261 -199.69293 
L 364.867486 -199.69293 
L 365.27371 -199.69293 
L 365.679934 -199.69293 
L 366.086159 -199.69293 
L 366.492383 -199.69293 
L 366.898608 -199.69293 
L 367.304832 -199.69293 
L 367.711057 -199.69293 
L 368.117281 -199.69293 
L 368.523505 -199.69293 
L 368.92973 -199.69293 
L 369.335954 -199.69293 
L 369.742179 -199.69293 
L 370.148403 -199.69293 
L 370.554627 -199.69293 
L 370.960852 -199.69293 
L 371.367076 -199.69293 
L 371.773301 -199.69293 
L 372.179525 -199.69293 
L 372.585749 -199.69293 
L 372.991974 -199.69293 
L 373.398198 -199.69293 
L 373.804423 -199.69293 
L 374.210647 -199.69293 
L 374.616871 -199.69293 
L 375.023096 -199.69293 
L 375.42932 -199.69293 
L 375.835545 -199.69293 
L 376.241769 -199.69293 
L 376.647993 -199.69293 
L 377.054218 -199.69293 
L 377.460442 -199.69293 
L 377.866667 -199.69293 
L 378.272891 -199.69293 
L 378.679115 -199.69293 
L 379.08534 -199.69293 
L 379.491564 -199.69293 
L 379.897789 -199.69293 
L 380.304013 -199.69293 
L 380.710238 -199.69293 
L 381.116462 -199.69293 
L 381.522686 -199.69293 
L 381.928911 -199.69293 
L 382.335135 -199.69293 
L 382.74136 -199.69293 
L 383.147584 -199.69293 
L 383.553808 -199.69293 
L 383.960033 -199.69293 
L 384.366257 -199.69293 
L 384.772482 -199.69293 
L 385.178706 -199.69293 
L 385.58493 -199.69293 
L 385.991155 -199.69293 
L 386.397379 -199.69293 
L 386.803604 -199.69293 
L 387.209828 -199.69293 
L 387.616052 -199.69293 
L 388.022277 -199.69293 
L 388.428501 -199.69293 
L 388.834726 -199.69293 
L 389.24095 -199.69293 
L 389.647174 -199.69293 
L 390.053399 -199.69293 
L 390.459623 -199.69293 
L 390.865848 -199.69293 
L 391.272072 -199.69293 
L 391.678296 -199.69293 
L 392.084521 -199.69293 
L 392.490745 -199.69293 
L 392.89697 -199.69293 
L 393.303194 -199.69293 
L 393.709419 -199.69293 
L 394.115643 -199.69293 
L 394.521867 -199.69293 
L 394.928092 -199.69293 
L 395.334316 -199.69293 
L 395.740541 -199.69293 
L 396.146765 -199.69293 
L 396.552989 -199.69293 
L 396.959214 -199.69293 
L 397.365438 -199.69293 
L 397.771663 -199.69293 
L 398.177887 -199.69293 
L 398.584111 -199.69293 
L 398.990336 -199.69293 
L 399.39656 -199.69293 
L 399.802785 -199.69293 
L 400.209009 -199.69293 
L 400.615233 -199.69293 
L 401.021458 -199.69293 
L 401.427682 -199.69293 
L 401.833907 -199.69293 
L 402.240131 -199.69293 
L 402.646355 -199.69293 
L 403.05258 -199.69293 
L 403.458804 -199.69293 
L 403.865029 -199.69293 
L 404.271253 -199.69293 
L 404.677477 -199.69293 
L 405.083702 -199.69293 
L 405.489926 -199.69293 
L 405.896151 -199.69293 
L 406.302375 -199.69293 
L 406.7086 -199.69293 
L 407.114824 -199.69293 
L 407.521048 -199.69293 
L 407.927273 -199.69293 
L 408.333497 -199.69293 
L 408.739722 -199.69293 
L 409.145946 -199.69293 
L 409.55217 -199.69293 
L 409.958395 -199.69293 
L 410.364619 -199.69293 
L 410.770844 -199.69293 
L 411.177068 -199.69293 
L 411.583292 -199.69293 
L 411.989517 -199.69293 
L 412.395741 -199.69293 
L 412.801966 -199.69293 
L 413.20819 -199.69293 
L 413.614414 -199.69293 
L 414.020639 -199.69293 
L 414.426863 -199.69293 
L 414.833088 -199.69293 
L 415.239312 -199.69293 
L 415.645536 -199.69293 
L 416.051761 -199.69293 
L 416.457985 -199.69293 
L 416.86421 -199.69293 
L 417.270434 -199.69293 
L 417.676658 -199.69293 
L 418.082883 -199.69293 
L 418.489107 -199.69293 
L 418.895332 -199.69293 
L 419.301556 -199.69293 
L 419.707781 -199.69293 
L 420.114005 -199.69293 
L 420.520229 -199.69293 
L 420.926454 -199.69293 
L 421.332678 -199.69293 
L 421.738903 -199.69293 
L 422.145127 -199.69293 
L 422.551351 -199.69293 
L 422.957576 -199.69293 
L 423.3638 -199.69293 
L 423.770025 -199.69293 
L 424.176249 -199.69293 
L 424.582473 -199.69293 
L 424.988698 -199.69293 
L 425.394922 -199.69293 
L 425.801147 -199.69293 
L 426.207371 -199.69293 
L 426.613595 -199.69293 
L 427.01982 -199.69293 
L 427.426044 -199.69293 
L 427.832269 -199.69293 
L 428.238493 -199.69293 
L 428.644717 -199.69293 
L 429.050942 -199.69293 
L 429.457166 -199.69293 
L 429.863391 -199.69293 
L 430.269615 -199.69293 
L 430.675839 -199.69293 
L 431.082064 -199.69293 
L 431.488288 -199.69293 
L 431.894513 -199.69293 
L 432.300737 -199.69293 
L 432.706962 -199.69293 
L 433.113186 -199.69293 
L 433.51941 -199.69293 
L 433.925635 -199.69293 
L 434.331859 -199.69293 
L 434.738084 -199.69293 
L 435.144308 -199.69293 
L 435.550532 -199.69293 
L 435.956757 -199.69293 
L 436.362981 -199.69293 
L 436.769206 -199.69293 
L 437.17543 -199.69293 
L 437.581654 -199.69293 
L 437.987879 -199.69293 
L 438.394103 -199.69293 
L 438.800328 -199.69293 
L 439.206552 -199.69293 
L 439.612776 -199.69293 
L 440.019001 -199.69293 
L 440.425225 -199.69293 
L 440.83145 -199.69293 
L 441.237674 -199.69293 
L 441.643898 -199.69293 
L 442.050123 -199.69293 
L 442.456347 -199.69293 
L 442.862572 -199.69293 
L 443.268796 -199.69293 
L 443.67502 -199.69293 
L 444.081245 -199.69293 
L 444.487469 -199.69293 
L 444.893694 -199.69293 
L 445.299918 -199.69293 
L 445.706143 -199.69293 
L 446.112367 -199.69293 
L 446.518591 -199.69293 
L 446.924816 -199.69293 
L 447.33104 -199.69293 
L 447.737265 -199.69293 
L 448.143489 -199.69293 
L 448.549713 -199.69293 
L 448.955938 -199.69293 
L 449.362162 -199.69293 
L 449.768387 -199.69293 
L 450.174611 -199.69293 
L 450.580835 -199.69293 
L 450.98706 -199.69293 
L 451.393284 -199.69293 
L 451.799509 -199.69293 
L 452.205733 -199.69293 
L 452.611957 -199.69293 
L 453.018182 -199.69293 
L 453.424406 -199.69293 
L 453.830631 -199.69293 
L 454.236855 -199.69293 
L 454.643079 -199.69293 
L 455.049304 -199.69293 
L 455.455528 -199.69293 
L 455.861753 -199.69293 
L 456.267977 -199.69293 
L 456.674201 -199.69293 
L 457.080426 -199.69293 
L 457.48665 -199.69293 
L 457.892875 -199.69293 
L 458.299099 -199.69293 
L 458.705324 -199.69293 
L 459.111548 -199.69293 
L 459.517772 -199.69293 
L 459.923997 -199.69293 
L 460.330221 -199.69293 
L 460.736446 -199.69293 
L 461.14267 -199.69293 
L 461.548894 -199.69293 
L 461.955119 -199.69293 
L 462.361343 -199.69293 
L 462.767568 -199.69293 
L 463.173792 -199.69293 
L 463.580016 -199.69293 
L 463.986241 -199.69293 
L 464.392465 -199.69293 
L 464.79869 -199.69293 
L 465.204914 -199.69293 
L 465.611138 -199.69293 
L 466.017363 -199.69293 
L 466.423587 -199.69293 
L 466.829812 -199.69293 
L 467.236036 -199.69293 
L 467.64226 -199.69293 
L 468.048485 -199.69293 
L 468.454709 -199.69293 
L 468.860934 -199.69293 
L 469.267158 -199.69293 
L 469.673382 -199.69293 
L 470.079607 -199.69293 
L 470.485831 -199.69293 
L 470.892056 -199.69293 
L 471.29828 -199.69293 
L 471.704505 -199.69293 
L 472.110729 -199.69293 
L 472.516953 -199.69293 
L 472.923178 -199.69293 
L 473.329402 -199.69293 
L 473.735627 -199.69293 
L 474.141851 -199.69293 
L 474.548075 -199.69293 
L 474.9543 -199.69293 
L 475.360524 -199.69293 
L 475.766749 -199.69293 
L 476.172973 -199.69293 
L 476.579197 -199.69293 
L 476.985422 -199.69293 
L 477.391646 -199.69293 
L 477.797871 -199.69293 
L 478.204095 -199.69293 
L 478.610319 -199.69293 
L 479.016544 -199.69293 
L 479.422768 -199.69293 
L 479.828993 -199.69293 
L 480.235217 -199.69293 
L 480.641441 -199.69293 
L 481.047666 -199.69293 
L 481.45389 -199.69293 
L 481.860115 -199.69293 
L 482.266339 -199.69293 
L 482.672563 -199.69293 
L 483.078788 -199.69293 
L 483.485012 -199.69293 
L 483.891237 -199.69293 
L 484.297461 -199.69293 
L 484.703686 -199.69293 
L 485.10991 -199.69293 
L 485.516134 -199.69293 
L 485.922359 -199.69293 
L 486.328583 -199.69293 
L 486.734808 -199.69293 
L 487.141032 -199.69293 
L 487.547256 -199.69293 
L 487.953481 -199.69293 
L 488.359705 -199.69293 
L 488.76593 -199.69293 
L 489.172154 -199.69293 
L 489.578378 -199.69293 
L 489.984603 -199.69293 
L 490.390827 -199.69293 
L 490.797052 -199.69293 
L 491.203276 -199.69293 
L 491.6095 -199.69293 
L 492.015725 -199.69293 
L 492.421949 -199.69293 
L 492.828174 -199.69293 
L 493.234398 -199.69293 
L 493.640622 -199.69293 
L 494.046847 -199.69293 
L 494.453071 -199.69293 
L 494.859296 -199.69293 
L 495.26552 -199.69293 
L 495.671744 -199.69293 
L 496.077969 -199.69293 
L 496.484193 -199.69293 
L 496.890418 -199.69293 
L 497.296642 -199.69293 
L 497.702867 -199.69293 
L 498.109091 -199.69293 
L 498.109091 -52.2 
L 498.109091 -52.2 
L 497.702867 -52.2 
L 497.296642 -52.2 
L 496.890418 -52.2 
L 496.484193 -52.2 
L 496.077969 -52.2 
L 495.671744 -52.2 
L 495.26552 -52.2 
L 494.859296 -52.2 
L 494.453071 -52.2 
L 494.046847 -52.2 
L 493.640622 -52.2 
L 493.234398 -52.2 
L 492.828174 -52.2 
L 492.421949 -52.2 
L 492.015725 -52.2 
L 491.6095 -52.2 
L 491.203276 -52.2 
L 490.797052 -52.2 
L 490.390827 -52.2 
L 489.984603 -52.2 
L 489.578378 -52.2 
L 489.172154 -52.2 
L 488.76593 -52.2 
L 488.359705 -52.2 
L 487.953481 -52.2 
L 487.547256 -52.2 
L 487.141032 -52.2 
L 486.734808 -52.2 
L 486.328583 -52.2 
L 485.922359 -52.2 
L 485.516134 -52.2 
L 485.10991 -52.2 
L 484.703686 -52.2 
L 484.297461 -52.2 
L 483.891237 -52.2 
L 483.485012 -52.2 
L 483.078788 -52.2 
L 482.672563 -52.2 
L 482.266339 -52.2 
L 481.860115 -52.2 
L 481.45389 -52.2 
L 481.047666 -52.2 
L 480.641441 -52.2 
L 480.235217 -52.2 
L 479.828993 -52.2 
L 479.422768 -52.2 
L 479.016544 -52.2 
L 478.610319 -52.2 
L 478.204095 -52.2 
L 477.797871 -52.2 
L 477.391646 -52.2 
L 476.985422 -52.2 
L 476.579197 -52.2 
L 476.172973 -52.2 
L 475.766749 -52.2 
L 475.360524 -52.2 
L 474.9543 -52.2 
L 474.548075 -52.2 
L 474.141851 -52.2 
L 473.735627 -52.2 
L 473.329402 -52.2 
L 472.923178 -52.2 
L 472.516953 -52.2 
L 472.110729 -52.2 
L 471.704505 -52.2 
L 471.29828 -52.2 
L 470.892056 -52.2 
L 470.485831 -52.2 
L 470.079607 -52.2 
L 469.673382 -52.2 
L 469.267158 -52.2 
L 468.860934 -52.2 
L 468.454709 -52.2 
L 468.048485 -52.2 
L 467.64226 -52.2 
L 467.236036 -52.2 
L 466.829812 -52.2 
L 466.423587 -52.2 
L 466.017363 -52.2 
L 465.611138 -52.2 
L 465.204914 -52.2 
L 464.79869 -52.2 
L 464.392465 -52.2 
L 463.986241 -52.2 
L 463.580016 -52.2 
L 463.173792 -52.2 
L 462.767568 -52.2 
L 462.361343 -52.2 
L 461.955119 -52.2 
L 461.548894 -52.2 
L 461.14267 -52.2 
L 460.736446 -52.2 
L 460.330221 -52.2 
L 459.923997 -52.2 
L 459.517772 -52.2 
L 459.111548 -52.2 
L 458.705324 -52.2 
L 458.299099 -52.2 
L 457.892875 -52.2 
L 457.48665 -52.2 
L 457.080426 -52.2 
L 456.674201 -52.2 
L 456.267977 -52.2 
L 455.861753 -52.2 
L 455.455528 -52.2 
L 455.049304 -52.2 
L 454.643079 -52.2 
L 454.236855 -52.2 
L 453.830631 -52.2 
L 453.424406 -52.2 
L 453.018182 -52.2 
L 452.611957 -52.2 
L 452.205733 -52.2 
L 451.799509 -52.2 
L 451.393284 -52.2 
L 450.98706 -52.2 
L 450.580835 -52.2 
L 450.174611 -52.2 
L 449.768387 -52.2 
L 449.362162 -52.2 
L 448.955938 -52.2 
L 448.549713 -52.2 
L 448.143489 -52.2 
L 447.737265 -52.2 
L 447.33104 -52.2 
L 446.924816 -52.2 
L 446.518591 -52.2 
L 446.112367 -52.2 
L 445.706143 -52.2 
L 445.299918 -52.2 
L 444.893694 -52.2 
L 444.487469 -52.2 
L 444.081245 -52.2 
L 443.67502 -52.2 
L 443.268796 -52.2 
L 442.862572 -52.2 
L 442.456347 -52.2 
L 442.050123 -52.2 
L 441.643898 -52.2 
L 441.237674 -52.2 
L 440.83145 -52.2 
L 440.425225 -52.2 
L 440.019001 -52.2 
L 439.612776 -52.2 
L 439.206552 -52.2 
L 438.800328 -52.2 
L 438.394103 -52.2 
L 437.987879 -52.2 
L 437.581654 -52.2 
L 437.17543 -52.2 
L 436.769206 -52.2 
L 436.362981 -52.2 
L 435.956757 -52.2 
L 435.550532 -52.2 
L 435.144308 -52.2 
L 434.738084 -52.2 
L 434.331859 -52.2 
L 433.925635 -52.2 
L 433.51941 -52.2 
L 433.113186 -52.2 
L 432.706962 -52.2 
L 432.300737 -52.2 
L 431.894513 -52.2 
L 431.488288 -52.2 
L 431.082064 -52.2 
L 430.675839 -52.2 
L 430.269615 -52.2 
L 429.863391 -52.2 
L 429.457166 -52.2 
L 429.050942 -52.2 
L 428.644717 -52.2 
L 428.238493 -52.2 
L 427.832269 -52.2 
L 427.426044 -52.2 
L 427.01982 -52.2 
L 426.613595 -52.2 
L 426.207371 -52.2 
L 425.801147 -52.2 
L 425.394922 -52.2 
L 424.988698 -52.2 
L 424.582473 -52.2 
L 424.176249 -52.2 
L 423.770025 -52.2 
L 423.3638 -52.2 
L 422.957576 -52.2 
L 422.551351 -52.2 
L 422.145127 -52.2 
L 421.738903 -52.2 
L 421.332678 -52.2 
L 420.926454 -52.2 
L 420.520229 -52.2 
L 420.114005 -52.2 
L 419.707781 -52.2 
L 419.301556 -52.2 
L 418.895332 -52.2 
L 418.489107 -52.2 
L 418.082883 -52.2 
L 417.676658 -52.2 
L 417.270434 -52.2 
L 416.86421 -52.2 
L 416.457985 -52.2 
L 416.051761 -52.2 
L 415.645536 -52.2 
L 415.239312 -52.2 
L 414.833088 -52.2 
L 414.426863 -52.2 
L 414.020639 -52.2 
L 413.614414 -52.2 
L 413.20819 -52.2 
L 412.801966 -52.2 
L 412.395741 -52.2 
L 411.989517 -52.2 
L 411.583292 -52.2 
L 411.177068 -52.2 
L 410.770844 -52.2 
L 410.364619 -52.2 
L 409.958395 -52.2 
L 409.55217 -52.2 
L 409.145946 -52.2 
L 408.739722 -52.2 
L 408.333497 -52.2 
L 407.927273 -52.2 
L 407.521048 -52.2 
L 407.114824 -52.2 
L 406.7086 -52.2 
L 406.302375 -52.2 
L 405.896151 -52.2 
L 405.489926 -52.2 
L 405.083702 -52.2 
L 404.677477 -52.2 
L 404.271253 -52.2 
L 403.865029 -52.2 
L 403.458804 -52.2 
L 403.05258 -52.2 
L 402.646355 -52.2 
L 402.240131 -52.2 
L 401.833907 -52.2 
L 401.427682 -52.2 
L 401.021458 -52.2 
L 400.615233 -52.2 
L 400.209009 -52.2 
L 399.802785 -52.2 
L 399.39656 -52.2 
L 398.990336 -52.2 
L 398.584111 -52.2 
L 398.177887 -52.2 
L 397.771663 -52.2 
L 397.365438 -52.2 
L 396.959214 -52.2 
L 396.552989 -52.2 
L 396.146765 -52.2 
L 395.740541 -52.2 
L 395.334316 -52.2 
L 394.928092 -52.2 
L 394.521867 -52.2 
L 394.115643 -52.2 
L 393.709419 -52.2 
L 393.303194 -52.2 
L 392.89697 -52.2 
L 392.490745 -52.2 
L 392.084521 -52.2 
L 391.678296 -52.2 
L 391.272072 -52.2 
L 390.865848 -52.2 
L 390.459623 -52.2 
L 390.053399 -52.2 
L 389.647174 -52.2 
L 389.24095 -52.2 
L 388.834726 -52.2 
L 388.428501 -52.2 
L 388.022277 -52.2 
L 387.616052 -52.2 
L 387.209828 -52.2 
L 386.803604 -52.2 
L 386.397379 -52.2 
L 385.991155 -52.2 
L 385.58493 -52.2 
L 385.178706 -52.2 
L 384.772482 -52.2 
L 384.366257 -52.2 
L 383.960033 -52.2 
L 383.553808 -52.2 
L 383.147584 -52.2 
L 382.74136 -52.2 
L 382.335135 -52.2 
L 381.928911 -52.2 
L 381.522686 -52.2 
L 381.116462 -52.2 
L 380.710238 -52.2 
L 380.304013 -52.2 
L 379.897789 -52.2 
L 379.491564 -52.2 
L 379.08534 -52.2 
L 378.679115 -52.2 
L 378.272891 -52.2 
L 377.866667 -52.2 
L 377.460442 -52.2 
L 377.054218 -52.2 
L 376.647993 -52.2 
L 376.241769 -52.2 
L 375.835545 -52.2 
L 375.42932 -52.2 
L 375.023096 -52.2 
L 374.616871 -52.2 
L 374.210647 -52.2 
L 373.804423 -52.2 
L 373.398198 -52.2 
L 372.991974 -52.2 
L 372.585749 -52.2 
L 372.179525 -52.2 
L 371.773301 -52.2 
L 371.367076 -52.2 
L 370.960852 -52.2 
L 370.554627 -52.2 
L 370.148403 -52.2 
L 369.742179 -52.2 
L 369.335954 -52.2 
L 368.92973 -52.2 
L 368.523505 -52.2 
L 368.117281 -52.2 
L 367.711057 -52.2 
L 367.304832 -52.2 
L 366.898608 -52.2 
L 366.492383 -52.2 
L 366.086159 -52.2 
L 365.679934 -52.2 
L 365.27371 -52.2 
L 364.867486 -52.2 
L 364.461261 -52.2 
L 364.055037 -52.2 
L 363.648812 -52.2 
L 363.242588 -52.2 
L 362.836364 -52.2 
L 362.430139 -52.2 
L 362.023915 -52.2 
L 361.61769 -52.2 
L 361.211466 -52.2 
L 360.805242 -52.2 
L 360.399017 -52.2 
L 359.992793 -52.2 
L 359.586568 -52.2 
L 359.180344 -52.2 
L 358.77412 -52.2 
L 358.367895 -52.2 
L 357.961671 -52.2 
L 357.555446 -52.2 
L 357.149222 -52.2 
L 356.742998 -52.2 
L 356.336773 -52.2 
L 355.930549 -52.2 
L 355.524324 -52.2 
L 355.1181 -52.2 
L 354.711876 -52.2 
L 354.305651 -52.2 
L 353.899427 -52.2 
L 353.493202 -52.2 
L 353.086978 -52.2 
L 352.680753 -52.2 
L 352.274529 -52.2 
L 351.868305 -52.2 
L 351.46208 -52.2 
L 351.055856 -52.2 
L 350.649631 -52.2 
L 350.243407 -52.2 
L 349.837183 -52.2 
L 349.430958 -52.2 
L 349.024734 -52.2 
L 348.618509 -52.2 
L 348.212285 -52.2 
L 347.806061 -52.2 
L 347.399836 -52.2 
L 346.993612 -52.2 
L 346.587387 -52.2 
L 346.181163 -52.2 
L 345.774939 -52.2 
L 345.368714 -52.2 
L 344.96249 -52.2 
L 344.556265 -52.2 
L 344.150041 -52.2 
L 343.743817 -52.2 
L 343.337592 -52.2 
L 342.931368 -52.2 
L 342.525143 -52.2 
L 342.118919 -52.2 
L 341.712695 -52.2 
L 341.30647 -52.2 
L 340.900246 -52.2 
L 340.494021 -52.2 
L 340.087797 -52.2 
L 339.681572 -52.2 
L 339.275348 -52.2 
L 338.869124 -52.2 
L 338.462899 -52.2 
L 338.056675 -52.2 
L 337.65045 -52.2 
L 337.244226 -52.2 
L 336.838002 -52.2 
L 336.431777 -52.2 
L 336.025553 -52.2 
L 335.619328 -52.2 
L 335.213104 -52.2 
L 334.80688 -52.2 
L 334.400655 -52.2 
L 333.994431 -52.2 
L 333.588206 -52.2 
L 333.181982 -52.2 
L 332.775758 -52.2 
L 332.369533 -52.2 
L 331.963309 -52.2 
L 331.557084 -52.2 
L 331.15086 -52.2 
L 330.744636 -52.2 
L 330.338411 -52.2 
L 329.932187 -52.2 
L 329.525962 -52.2 
L 329.119738 -52.2 
L 328.713514 -52.2 
L 328.307289 -52.2 
L 327.901065 -52.2 
L 327.49484 -52.2 
L 327.088616 -52.2 
L 326.682391 -52.2 
L 326.276167 -52.2 
L 325.869943 -52.2 
L 325.463718 -52.2 
L 325.057494 -52.2 
L 324.651269 -52.2 
L 324.245045 -52.2 
L 323.838821 -52.2 
L 323.432596 -52.2 
L 323.026372 -52.2 
L 322.620147 -52.2 
L 322.213923 -52.2 
L 321.807699 -52.2 
L 321.401474 -52.2 
L 320.99525 -52.2 
L 320.589025 -52.2 
L 320.182801 -52.2 
L 319.776577 -52.2 
L 319.370352 -52.2 
L 318.964128 -52.2 
L 318.557903 -52.2 
L 318.151679 -52.2 
L 317.745455 -52.2 
L 317.33923 -52.2 
L 316.933006 -52.2 
L 316.526781 -52.2 
L 316.120557 -52.2 
L 315.714333 -52.2 
L 315.308108 -52.2 
L 314.901884 -52.2 
L 314.495659 -52.2 
L 314.089435 -52.2 
L 313.68321 -52.2 
L 313.276986 -52.2 
L 312.870762 -52.2 
L 312.464537 -52.2 
L 312.058313 -52.2 
L 311.652088 -52.2 
L 311.245864 -52.2 
L 310.83964 -52.2 
L 310.433415 -52.2 
L 310.027191 -52.2 
L 309.620966 -52.2 
L 309.214742 -52.2 
L 308.808518 -52.2 
L 308.402293 -52.2 
L 307.996069 -52.2 
L 307.589844 -52.2 
L 307.18362 -52.2 
L 306.777396 -52.2 
L 306.371171 -52.2 
L 305.964947 -52.2 
L 305.558722 -52.2 
L 305.152498 -52.2 
L 304.746274 -52.2 
L 304.340049 -52.2 
L 303.933825 -52.2 
L 303.5276 -52.2 
L 303.121376 -52.2 
L 302.715152 -52.2 
L 302.308927 -52.2 
L 301.902703 -52.2 
L 301.496478 -52.2 
L 301.090254 -52.2 
L 300.684029 -52.2 
L 300.277805 -52.2 
L 299.871581 -52.2 
L 299.465356 -52.2 
L 299.059132 -52.2 
L 298.652907 -52.2 
L 298.246683 -52.2 
L 297.840459 -52.2 
L 297.434234 -52.2 
L 297.02801 -52.2 
L 296.621785 -52.2 
L 296.215561 -52.2 
L 295.809337 -52.2 
L 295.403112 -52.2 
L 294.996888 -52.2 
L 294.590663 -52.2 
L 294.184439 -52.2 
L 293.778215 -52.2 
L 293.37199 -52.2 
L 292.965766 -52.2 
L 292.559541 -52.2 
L 292.153317 -52.2 
L 291.747093 -52.2 
L 291.340868 -52.2 
L 290.934644 -52.2 
L 290.528419 -52.2 
L 290.122195 -52.2 
L 289.715971 -52.2 
L 289.309746 -52.2 
L 288.903522 -52.2 
L 288.497297 -52.2 
L 288.091073 -52.2 
L 287.684848 -52.2 
L 287.278624 -52.2 
L 286.8724 -52.2 
L 286.466175 -52.2 
L 286.059951 -52.2 
L 285.653726 -52.2 
L 285.247502 -52.2 
L 284.841278 -52.2 
L 284.435053 -52.2 
L 284.028829 -52.2 
L 283.622604 -52.2 
L 283.21638 -52.2 
L 282.810156 -52.2 
L 282.403931 -52.2 
L 281.997707 -52.2 
L 281.591482 -52.2 
L 281.185258 -52.2 
L 280.779034 -52.2 
L 280.372809 -52.2 
L 279.966585 -52.2 
L 279.56036 -52.2 
L 279.154136 -52.2 
L 278.747912 -52.2 
L 278.341687 -52.2 
L 277.935463 -52.2 
L 277.529238 -52.2 
L 277.123014 -52.2 
L 276.71679 -52.2 
L 276.310565 -52.2 
L 275.904341 -52.2 
L 275.498116 -52.2 
L 275.091892 -52.2 
L 274.685667 -52.2 
L 274.279443 -52.2 
L 273.873219 -52.2 
L 273.466994 -52.2 
L 273.06077 -52.2 
L 272.654545 -52.2 
L 272.248321 -52.2 
L 271.842097 -52.2 
L 271.435872 -52.2 
L 271.029648 -52.2 
L 270.623423 -52.2 
L 270.217199 -52.2 
L 269.810975 -52.2 
L 269.40475 -52.2 
L 268.998526 -52.2 
L 268.592301 -52.2 
L 268.186077 -52.2 
L 267.779853 -52.2 
L 267.373628 -52.2 
L 266.967404 -52.2 
L 266.561179 -52.2 
L 266.154955 -52.2 
L 265.748731 -52.2 
L 265.342506 -52.2 
L 264.936282 -52.2 
L 264.530057 -52.2 
L 264.123833 -52.2 
L 263.717609 -52.2 
L 263.311384 -52.2 
L 262.90516 -52.2 
L 262.498935 -52.2 
L 262.092711 -52.2 
L 261.686486 -52.2 
L 261.280262 -52.2 
L 260.874038 -52.2 
L 260.467813 -52.2 
L 260.061589 -52.2 
L 259.655364 -52.2 
L 259.24914 -52.2 
L 258.842916 -52.2 
L 258.436691 -52.2 
L 258.030467 -52.2 
L 257.624242 -52.2 
L 257.218018 -52.2 
L 256.811794 -52.2 
L 256.405569 -52.2 
L 255.999345 -52.2 
L 255.59312 -52.2 
L 255.186896 -52.2 
L 254.780672 -52.2 
L 254.374447 -52.2 
L 253.968223 -52.2 
L 253.561998 -52.2 
L 253.155774 -52.2 
L 252.74955 -52.2 
L 252.343325 -52.2 
L 251.937101 -52.2 
L 251.530876 -52.2 
L 251.124652 -52.2 
L 250.718428 -52.2 
L 250.312203 -52.2 
L 249.905979 -52.2 
L 249.499754 -52.2 
L 249.09353 -52.2 
L 248.687305 -52.2 
L 248.281081 -52.2 
L 247.874857 -52.2 
L 247.468632 -52.2 
L 247.062408 -52.2 
L 246.656183 -52.2 
L 246.249959 -52.2 
L 245.843735 -52.2 
L 245.43751 -52.2 
L 245.031286 -52.2 
L 244.625061 -52.2 
L 244.218837 -52.2 
L 243.812613 -52.2 
L 243.406388 -52.2 
L 243.000164 -52.2 
L 242.593939 -52.2 
L 242.187715 -52.2 
L 241.781491 -52.2 
L 241.375266 -52.2 
L 240.969042 -52.2 
L 240.562817 -52.2 
L 240.156593 -52.2 
L 239.750369 -52.2 
L 239.344144 -52.2 
L 238.93792 -52.2 
L 238.531695 -52.2 
L 238.125471 -52.2 
L 237.719247 -52.2 
L 237.313022 -52.2 
L 236.906798 -52.2 
L 236.500573 -52.2 
L 236.094349 -52.2 
L 235.688124 -52.2 
L 235.2819 -52.2 
L 234.875676 -52.2 
L 234.469451 -52.2 
L 234.063227 -52.2 
L 233.657002 -52.2 
L 233.250778 -52.2 
L 232.844554 -52.2 
L 232.438329 -52.2 
L 232.032105 -52.2 
L 231.62588 -52.2 
L 231.219656 -52.2 
L 230.813432 -52.2 
L 230.407207 -52.2 
L 230.000983 -52.2 
L 229.594758 -52.2 
L 229.188534 -52.2 
L 228.78231 -52.2 
L 228.376085 -52.2 
L 227.969861 -52.2 
L 227.563636 -52.2 
L 227.157412 -52.2 
L 226.751188 -52.2 
L 226.344963 -52.2 
L 225.938739 -52.2 
L 225.532514 -52.2 
L 225.12629 -52.2 
L 224.720066 -52.2 
L 224.313841 -52.2 
L 223.907617 -52.2 
L 223.501392 -52.2 
L 223.095168 -52.2 
L 222.688943 -52.2 
L 222.282719 -52.2 
L 221.876495 -52.2 
L 221.47027 -52.2 
L 221.064046 -52.2 
L 220.657821 -52.2 
L 220.251597 -52.2 
L 219.845373 -52.2 
L 219.439148 -52.2 
L 219.032924 -52.2 
L 218.626699 -52.2 
L 218.220475 -52.2 
L 217.814251 -52.2 
L 217.408026 -52.2 
L 217.001802 -52.2 
L 216.595577 -52.2 
L 216.189353 -52.2 
L 215.783129 -52.2 
L 215.376904 -52.2 
L 214.97068 -52.2 
L 214.564455 -52.2 
L 214.158231 -52.2 
L 213.752007 -52.2 
L 213.345782 -52.2 
L 212.939558 -52.2 
L 212.533333 -52.2 
L 212.127109 -52.2 
L 211.720885 -52.2 
L 211.31466 -52.2 
L 210.908436 -52.2 
L 210.502211 -52.2 
L 210.095987 -52.2 
L 209.689762 -52.2 
L 209.283538 -52.2 
L 208.877314 -52.2 
L 208.471089 -52.2 
L 208.064865 -52.2 
L 207.65864 -52.2 
L 207.252416 -52.2 
L 206.846192 -52.2 
L 206.439967 -52.2 
L 206.033743 -52.2 
L 205.627518 -52.2 
L 205.221294 -52.2 
L 204.81507 -52.2 
L 204.408845 -52.2 
L 204.002621 -52.2 
L 203.596396 -52.2 
L 203.190172 -52.2 
L 202.783948 -52.2 
L 202.377723 -52.2 
L 201.971499 -52.2 
L 201.565274 -52.2 
L 201.15905 -52.2 
L 200.752826 -52.2 
L 200.346601 -52.2 
L 199.940377 -52.2 
L 199.534152 -52.2 
L 199.127928 -52.2 
L 198.721704 -52.2 
L 198.315479 -52.2 
L 197.909255 -52.2 
L 197.50303 -52.2 
L 197.096806 -52.2 
L 196.690581 -52.2 
L 196.284357 -52.2 
L 195.878133 -52.2 
L 195.471908 -52.2 
L 195.065684 -52.2 
L 194.659459 -52.2 
L 194.253235 -52.2 
L 193.847011 -52.2 
L 193.440786 -52.2 
L 193.034562 -52.2 
L 192.628337 -52.2 
L 192.222113 -52.2 
L 191.815889 -52.2 
L 191.409664 -52.2 
L 191.00344 -52.2 
L 190.597215 -52.2 
L 190.190991 -52.2 
L 189.784767 -52.2 
L 189.378542 -52.2 
L 188.972318 -52.2 
L 188.566093 -52.2 
L 188.159869 -52.2 
L 187.753645 -52.2 
L 187.34742 -52.2 
L 186.941196 -52.2 
L 186.534971 -52.2 
L 186.128747 -52.2 
L 185.722523 -52.2 
L 185.316298 -52.2 
L 184.910074 -52.2 
L 184.503849 -52.2 
L 184.097625 -52.2 
L 183.6914 -52.2 
L 183.285176 -52.2 
L 182.878952 -52.2 
L 182.472727 -52.2 
L 182.066503 -52.2 
L 181.660278 -52.2 
L 181.254054 -52.2 
L 180.84783 -52.2 
L 180.441605 -52.2 
L 180.035381 -52.2 
L 179.629156 -52.2 
L 179.222932 -52.2 
L 178.816708 -52.2 
L 178.410483 -52.2 
L 178.004259 -52.2 
L 177.598034 -52.2 
L 177.19181 -52.2 
L 176.785586 -52.2 
L 176.379361 -52.2 
L 175.973137 -52.2 
L 175.566912 -52.2 
L 175.160688 -52.2 
L 174.754464 -52.2 
L 174.348239 -52.2 
L 173.942015 -52.2 
L 173.53579 -52.2 
L 173.129566 -52.2 
L 172.723342 -52.2 
L 172.317117 -52.2 
L 171.910893 -52.2 
L 171.504668 -52.2 
L 171.098444 -52.2 
L 170.692219 -52.2 
L 170.285995 -52.2 
L 169.879771 -52.2 
L 169.473546 -52.2 
L 169.067322 -52.2 
L 168.661097 -52.2 
L 168.254873 -52.2 
L 167.848649 -52.2 
L 167.442424 -52.2 
L 167.0362 -52.2 
L 166.629975 -52.2 
L 166.223751 -52.2 
L 165.817527 -52.2 
L 165.411302 -52.2 
L 165.005078 -52.2 
L 164.598853 -52.2 
L 164.192629 -52.2 
L 163.786405 -52.2 
L 163.38018 -52.2 
L 162.973956 -52.2 
L 162.567731 -52.2 
L 162.161507 -52.2 
L 161.755283 -52.2 
L 161.349058 -52.2 
L 160.942834 -52.2 
L 160.536609 -52.2 
L 160.130385 -52.2 
L 159.724161 -52.2 
L 159.317936 -52.2 
L 158.911712 -52.2 
L 158.505487 -52.2 
L 158.099263 -52.2 
L 157.693038 -52.2 
L 157.286814 -52.2 
L 156.88059 -52.2 
L 156.474365 -52.2 
L 156.068141 -52.2 
L 155.661916 -52.2 
L 155.255692 -52.2 
L 154.849468 -52.2 
L 154.443243 -52.2 
L 154.037019 -52.2 
L 153.630794 -52.2 
L 153.22457 -52.2 
L 152.818346 -52.2 
L 152.412121 -52.2 
L 152.005897 -52.2 
L 151.599672 -52.2 
L 151.193448 -52.2 
L 150.787224 -52.2 
L 150.380999 -52.2 
L 149.974775 -52.2 
L 149.56855 -52.2 
L 149.162326 -52.2 
L 148.756102 -52.2 
L 148.349877 -52.2 
L 147.943653 -52.2 
L 147.537428 -52.2 
L 147.131204 -52.2 
L 146.72498 -52.2 
L 146.318755 -52.2 
L 145.912531 -52.2 
L 145.506306 -52.2 
L 145.100082 -52.2 
L 144.693857 -52.2 
L 144.287633 -52.2 
L 143.881409 -52.2 
L 143.475184 -52.2 
L 143.06896 -52.2 
L 142.662735 -52.2 
L 142.256511 -52.2 
L 141.850287 -52.2 
L 141.444062 -52.2 
L 141.037838 -52.2 
L 140.631613 -52.2 
L 140.225389 -52.2 
L 139.819165 -52.2 
L 139.41294 -52.2 
L 139.006716 -52.2 
L 138.600491 -52.2 
L 138.194267 -52.2 
L 137.788043 -52.2 
L 137.381818 -52.2 
L 136.975594 -52.2 
L 136.569369 -52.2 
L 136.163145 -52.2 
L 135.756921 -52.2 
L 135.350696 -52.2 
L 134.944472 -52.2 
L 134.538247 -52.2 
L 134.132023 -52.2 
L 133.725799 -52.2 
L 133.319574 -52.2 
L 132.91335 -52.2 
L 132.507125 -52.2 
L 132.100901 -52.2 
L 131.694676 -52.2 
L 131.288452 -52.2 
L 130.882228 -52.2 
L 130.476003 -52.2 
L 130.069779 -52.2 
L 129.663554 -52.2 
L 129.25733 -52.2 
L 128.851106 -52.2 
L 128.444881 -52.2 
L 128.038657 -52.2 
L 127.632432 -52.2 
L 127.226208 -52.2 
L 126.819984 -52.2 
L 126.413759 -52.2 
L 126.007535 -52.2 
L 125.60131 -52.2 
L 125.195086 -52.2 
L 124.788862 -52.2 
L 124.382637 -52.2 
L 123.976413 -52.2 
L 123.570188 -52.2 
L 123.163964 -52.2 
L 122.75774 -52.2 
L 122.351515 -52.2 
L 121.945291 -52.2 
L 121.539066 -52.2 
L 121.132842 -52.2 
L 120.726618 -52.2 
L 120.320393 -52.2 
L 119.914169 -52.2 
L 119.507944 -52.2 
L 119.10172 -52.2 
L 118.695495 -52.2 
L 118.289271 -52.2 
L 117.883047 -52.2 
L 117.476822 -52.2 
L 117.070598 -52.2 
L 116.664373 -52.2 
L 116.258149 -52.2 
L 115.851925 -52.2 
L 115.4457 -52.2 
L 115.039476 -52.2 
L 114.633251 -52.2 
L 114.227027 -52.2 
L 113.820803 -52.2 
L 113.414578 -52.2 
L 113.008354 -52.2 
L 112.602129 -52.2 
L 112.195905 -52.2 
L 111.789681 -52.2 
L 111.383456 -52.2 
L 110.977232 -52.2 
L 110.571007 -52.2 
L 110.164783 -52.2 
L 109.758559 -52.2 
L 109.352334 -52.2 
L 108.94611 -52.2 
L 108.539885 -52.2 
L 108.133661 -52.2 
L 107.727437 -52.2 
L 107.321212 -52.2 
L 106.914988 -52.2 
L 106.508763 -52.2 
L 106.102539 -52.2 
L 105.696314 -52.2 
L 105.29009 -52.2 
L 104.883866 -52.2 
L 104.477641 -52.2 
L 104.071417 -52.2 
L 103.665192 -52.2 
L 103.258968 -52.2 
L 102.852744 -52.2 
L 102.446519 -52.2 
L 102.040295 -52.2 
L 101.63407 -52.2 
L 101.227846 -52.2 
L 100.821622 -52.2 
L 100.415397 -52.2 
L 100.009173 -52.2 
L 99.602948 -52.2 
L 99.196724 -52.2 
L 98.7905 -52.2 
L 98.384275 -52.2 
L 97.978051 -52.2 
L 97.571826 -52.2 
L 97.165602 -52.2 
L 96.759378 -52.2 
L 96.353153 -52.2 
L 95.946929 -52.2 
L 95.540704 -52.2 
L 95.13448 -52.2 
L 94.728256 -52.2 
L 94.322031 -52.2 
L 93.915807 -52.2 
L 93.509582 -52.2 
L 93.103358 -52.2 
L 92.697133 -52.2 
L 92.290909 -52.2 
z
" style="stroke: #2257ec; stroke-opacity: 0.2"/>
    </defs>
    <g clip-path="url(#pf64716649d)">
     <use xlink:href="#m3a51177211" x="0" y="360" style="fill: #2257ec; fill-opacity: 0.2; stroke: #2257ec; stroke-opacity: 0.2"/>
    </g>
   </g>
   <g id="matplotlib.axis_1">
    <g id="xtick_1">
     <g id="line2d_1">
      <path d="M 92.290909 320.4 
L 92.290909 43.2 
" clip-path="url(#pf64716649d)" style="fill: none; stroke: #b0b0b0; stroke-width: 0.8; stroke-linecap: square"/>
     </g>
     <g id="line2d_2">
      <defs>
       <path id="md550fa5d2e" d="M 0 0 
L 0 3.5 
" style="stroke: #000000; stroke-width: 0.8"/>
      </defs>
      <g>
       <use xlink:href="#md550fa5d2e" x="92.290909" y="320.4" style="stroke: #000000; stroke-width: 0.8"/>
      </g>
     </g>
     <g id="text_1">
      <!-- 0.0 -->
      <g transform="translate(84.339347 334.998438) scale(0.1 -0.1)">
       <defs>
        <path id="DejaVuSans-30" d="M 2034 4250 
Q 1547 4250 1301 3770 
Q 1056 3291 1056 2328 
Q 1056 1369 1301 889 
Q 1547 409 2034 409 
Q 2525 409 2770 889 
Q 3016 1369 3016 2328 
Q 3016 3291 2770 3770 
Q 2525 4250 2034 4250 
z
M 2034 4750 
Q 2819 4750 3233 4129 
Q 3647 3509 3647 2328 
Q 3647 1150 3233 529 
Q 2819 -91 2034 -91 
Q 1250 -91 836 529 
Q 422 1150 422 2328 
Q 422 3509 836 4129 
Q 1250 4750 2034 4750 
z
" transform="scale(0.015625)"/>
        <path id="DejaVuSans-2e" d="M 684 794 
L 1344 794 
L 1344 0 
L 684 0 
L 684 794 
z
" transform="scale(0.015625)"/>
       </defs>
       <use xlink:href="#DejaVuSans-30"/>
       <use xlink:href="#DejaVuSans-2e" transform="translate(63.623047 0)"/>
       <use xlink:href="#DejaVuSans-30" transform="translate(95.410156 0)"/>
      </g>
     </g>
    </g>
    <g id="xtick_2">
     <g id="line2d_3">
      <path d="M 173.454545 320.4 
L 173.454545 43.2 
" clip-path="url(#pf64716649d)" style="fill: none; stroke: #b0b0b0; stroke-width: 0.8; stroke-linecap: square"/>
     </g>
     <g id="line2d_4">
      <g>
       <use xlink:href="#md550fa5d2e" x="173.454545" y="320.4" style="stroke: #000000; stroke-width: 0.8"/>
      </g>
     </g>
     <g id="text_2">
      <!-- 0.2 -->
      <g transform="translate(165.502983 334.998438) scale(0.1 -0.1)">
       <defs>
        <path id="DejaVuSans-32" d="M 1228 531 
L 3431 531 
L 3431 0 
L 469 0 
L 469 531 
Q 828 903 1448 1529 
Q 2069 2156 2228 2338 
Q 2531 2678 2651 2914 
Q 2772 3150 2772 3378 
Q 2772 3750 2511 3984 
Q 2250 4219 1831 4219 
Q 1534 4219 1204 4116 
Q 875 4013 500 3803 
L 500 4441 
Q 881 4594 1212 4672 
Q 1544 4750 1819 4750 
Q 2544 4750 2975 4387 
Q 3406 4025 3406 3419 
Q 3406 3131 3298 2873 
Q 3191 2616 2906 2266 
Q 2828 2175 2409 1742 
Q 1991 1309 1228 531 
z
" transform="scale(0.015625)"/>
       </defs>
       <use xlink:href="#DejaVuSans-30"/>
       <use xlink:href="#DejaVuSans-2e" transform="translate(63.623047 0)"/>
       <use xlink:href="#DejaVuSans-32" transform="translate(95.410156 0)"/>
      </g>
     </g>
    </g>
    <g id="xtick_3">
     <g id="line2d_5">
      <path d="M 254.618182 320.4 
L 254.618182 43.2 
" clip-path="url(#pf64716649d)" style="fill: none; stroke: #b0b0b0; stroke-width: 0.8; stroke-linecap: square"/>
     </g>
     <g id="line2d_6">
      <g>
       <use xlink:href="#md550fa5d2e" x="254.618182" y="320.4" style="stroke: #000000; stroke-width: 0.8"/>
      </g>
     </g>
     <g id="text_3">
      <!-- 0.4 -->
      <g transform="translate(246.666619 334.998438) scale(0.1 -0.1)">
       <defs>
        <path id="DejaVuSans-34" d="M 2419 4116 
L 825 1625 
L 2419 1625 
L 2419 4116 
z
M 2253 4666 
L 3047 4666 
L 3047 1625 
L 3713 1625 
L 3713 1100 
L 3047 1100 
L 3047 0 
L 2419 0 
L 2419 1100 
L 313 1100 
L 313 1709 
L 2253 4666 
z
" transform="scale(0.015625)"/>
       </defs>
       <use xlink:href="#DejaVuSans-30"/>
       <use xlink:href="#DejaVuSans-2e" transform="translate(63.623047 0)"/>
       <use xlink:href="#DejaVuSans-34" transform="translate(95.410156 0)"/>
      </g>
     </g>
    </g>
    <g id="xtick_4">
     <g id="line2d_7">
      <path d="M 335.781818 320.4 
L 335.781818 43.2 
" clip-path="url(#pf64716649d)" style="fill: none; stroke: #b0b0b0; stroke-width: 0.8; stroke-linecap: square"/>
     </g>
     <g id="line2d_8">
      <g>
       <use xlink:href="#md550fa5d2e" x="335.781818" y="320.4" style="stroke: #000000; stroke-width: 0.8"/>
      </g>
     </g>
     <g id="text_4">
      <!-- 0.6 -->
      <g transform="translate(327.830256 334.998438) scale(0.1 -0.1)">
       <defs>
        <path id="DejaVuSans-36" d="M 2113 2584 
Q 1688 2584 1439 2293 
Q 1191 2003 1191 1497 
Q 1191 994 1439 701 
Q 1688 409 2113 409 
Q 2538 409 2786 701 
Q 3034 994 3034 1497 
Q 3034 2003 2786 2293 
Q 2538 2584 2113 2584 
z
M 3366 4563 
L 3366 3988 
Q 3128 4100 2886 4159 
Q 2644 4219 2406 4219 
Q 1781 4219 1451 3797 
Q 1122 3375 1075 2522 
Q 1259 2794 1537 2939 
Q 1816 3084 2150 3084 
Q 2853 3084 3261 2657 
Q 3669 2231 3669 1497 
Q 3669 778 3244 343 
Q 2819 -91 2113 -91 
Q 1303 -91 875 529 
Q 447 1150 447 2328 
Q 447 3434 972 4092 
Q 1497 4750 2381 4750 
Q 2619 4750 2861 4703 
Q 3103 4656 3366 4563 
z
" transform="scale(0.015625)"/>
       </defs>
       <use xlink:href="#DejaVuSans-30"/>
       <use xlink:href="#DejaVuSans-2e" transform="translate(63.623047 0)"/>
       <use xlink:href="#DejaVuSans-36" transform="translate(95.410156 0)"/>
      </g>
     </g>
    </g>
    <g id="xtick_5">
     <g id="line2d_9">
      <path d="M 416.945455 320.4 
L 416.945455 43.2 
" clip-path="url(#pf64716649d)" style="fill: none; stroke: #b0b0b0; stroke-width: 0.8; stroke-linecap: square"/>
     </g>
     <g id="line2d_10">
      <g>
       <use xlink:href="#md550fa5d2e" x="416.945455" y="320.4" style="stroke: #000000; stroke-width: 0.8"/>
      </g>
     </g>
     <g id="text_5">
      <!-- 0.8 -->
      <g transform="translate(408.993892 334.998438) scale(0.1 -0.1)">
       <defs>
        <path id="DejaVuSans-38" d="M 2034 2216 
Q 1584 2216 1326 1975 
Q 1069 1734 1069 1313 
Q 1069 891 1326 650 
Q 1584 409 2034 409 
Q 2484 409 2743 651 
Q 3003 894 3003 1313 
Q 3003 1734 2745 1975 
Q 2488 2216 2034 2216 
z
M 1403 2484 
Q 997 2584 770 2862 
Q 544 3141 544 3541 
Q 544 4100 942 4425 
Q 1341 4750 2034 4750 
Q 2731 4750 3128 4425 
Q 3525 4100 3525 3541 
Q 3525 3141 3298 2862 
Q 3072 2584 2669 2484 
Q 3125 2378 3379 2068 
Q 3634 1759 3634 1313 
Q 3634 634 3220 271 
Q 2806 -91 2034 -91 
Q 1263 -91 848 271 
Q 434 634 434 1313 
Q 434 1759 690 2068 
Q 947 2378 1403 2484 
z
M 1172 3481 
Q 1172 3119 1398 2916 
Q 1625 2713 2034 2713 
Q 2441 2713 2670 2916 
Q 2900 3119 2900 3481 
Q 2900 3844 2670 4047 
Q 2441 4250 2034 4250 
Q 1625 4250 1398 4047 
Q 1172 3844 1172 3481 
z
" transform="scale(0.015625)"/>
       </defs>
       <use xlink:href="#DejaVuSans-30"/>
       <use xlink:href="#DejaVuSans-2e" transform="translate(63.623047 0)"/>
       <use xlink:href="#DejaVuSans-38" transform="translate(95.410156 0)"/>
      </g>
     </g>
    </g>
    <g id="xtick_6">
     <g id="line2d_11">
      <path d="M 498.109091 320.4 
L 498.109091 43.2 
" clip-path="url(#pf64716649d)" style="fill: none; stroke: #b0b0b0; stroke-width: 0.8; stroke-linecap: square"/>
     </g>
     <g id="line2d_12">
      <g>
       <use xlink:href="#md550fa5d2e" x="498.109091" y="320.4" style="stroke: #000000; stroke-width: 0.8"/>
      </g>
     </g>
     <g id="text_6">
      <!-- 1.0 -->
      <g transform="translate(490.157528 334.998438) scale(0.1 -0.1)">
       <defs>
        <path id="DejaVuSans-31" d="M 794 531 
L 1825 531 
L 1825 4091 
L 703 3866 
L 703 4441 
L 1819 4666 
L 2450 4666 
L 2450 531 
L 3481 531 
L 3481 0 
L 794 0 
L 794 531 
z
" transform="scale(0.015625)"/>
       </defs>
       <use xlink:href="#DejaVuSans-31"/>
       <use xlink:href="#DejaVuSans-2e" transform="translate(63.623047 0)"/>
       <use xlink:href="#DejaVuSans-30" transform="translate(95.410156 0)"/>
      </g>
     </g>
    </g>
    <g id="text_7">
     <!-- Bounding Box Size (Normalided) -->
     <g transform="translate(214.335156 348.676562) scale(0.1 -0.1)">
      <defs>
       <path id="DejaVuSans-42" d="M 1259 2228 
L 1259 519 
L 2272 519 
Q 2781 519 3026 730 
Q 3272 941 3272 1375 
Q 3272 1813 3026 2020 
Q 2781 2228 2272 2228 
L 1259 2228 
z
M 1259 4147 
L 1259 2741 
L 2194 2741 
Q 2656 2741 2882 2914 
Q 3109 3088 3109 3444 
Q 3109 3797 2882 3972 
Q 2656 4147 2194 4147 
L 1259 4147 
z
M 628 4666 
L 2241 4666 
Q 2963 4666 3353 4366 
Q 3744 4066 3744 3513 
Q 3744 3084 3544 2831 
Q 3344 2578 2956 2516 
Q 3422 2416 3680 2098 
Q 3938 1781 3938 1306 
Q 3938 681 3513 340 
Q 3088 0 2303 0 
L 628 0 
L 628 4666 
z
" transform="scale(0.015625)"/>
       <path id="DejaVuSans-6f" d="M 1959 3097 
Q 1497 3097 1228 2736 
Q 959 2375 959 1747 
Q 959 1119 1226 758 
Q 1494 397 1959 397 
Q 2419 397 2687 759 
Q 2956 1122 2956 1747 
Q 2956 2369 2687 2733 
Q 2419 3097 1959 3097 
z
M 1959 3584 
Q 2709 3584 3137 3096 
Q 3566 2609 3566 1747 
Q 3566 888 3137 398 
Q 2709 -91 1959 -91 
Q 1206 -91 779 398 
Q 353 888 353 1747 
Q 353 2609 779 3096 
Q 1206 3584 1959 3584 
z
" transform="scale(0.015625)"/>
       <path id="DejaVuSans-75" d="M 544 1381 
L 544 3500 
L 1119 3500 
L 1119 1403 
Q 1119 906 1312 657 
Q 1506 409 1894 409 
Q 2359 409 2629 706 
Q 2900 1003 2900 1516 
L 2900 3500 
L 3475 3500 
L 3475 0 
L 2900 0 
L 2900 538 
Q 2691 219 2414 64 
Q 2138 -91 1772 -91 
Q 1169 -91 856 284 
Q 544 659 544 1381 
z
M 1991 3584 
L 1991 3584 
z
" transform="scale(0.015625)"/>
       <path id="DejaVuSans-6e" d="M 3513 2113 
L 3513 0 
L 2938 0 
L 2938 2094 
Q 2938 2591 2744 2837 
Q 2550 3084 2163 3084 
Q 1697 3084 1428 2787 
Q 1159 2491 1159 1978 
L 1159 0 
L 581 0 
L 581 3500 
L 1159 3500 
L 1159 2956 
Q 1366 3272 1645 3428 
Q 1925 3584 2291 3584 
Q 2894 3584 3203 3211 
Q 3513 2838 3513 2113 
z
" transform="scale(0.015625)"/>
       <path id="DejaVuSans-64" d="M 2906 2969 
L 2906 4863 
L 3481 4863 
L 3481 0 
L 2906 0 
L 2906 525 
Q 2725 213 2448 61 
Q 2172 -91 1784 -91 
Q 1150 -91 751 415 
Q 353 922 353 1747 
Q 353 2572 751 3078 
Q 1150 3584 1784 3584 
Q 2172 3584 2448 3432 
Q 2725 3281 2906 2969 
z
M 947 1747 
Q 947 1113 1208 752 
Q 1469 391 1925 391 
Q 2381 391 2643 752 
Q 2906 1113 2906 1747 
Q 2906 2381 2643 2742 
Q 2381 3103 1925 3103 
Q 1469 3103 1208 2742 
Q 947 2381 947 1747 
z
" transform="scale(0.015625)"/>
       <path id="DejaVuSans-69" d="M 603 3500 
L 1178 3500 
L 1178 0 
L 603 0 
L 603 3500 
z
M 603 4863 
L 1178 4863 
L 1178 4134 
L 603 4134 
L 603 4863 
z
" transform="scale(0.015625)"/>
       <path id="DejaVuSans-67" d="M 2906 1791 
Q 2906 2416 2648 2759 
Q 2391 3103 1925 3103 
Q 1463 3103 1205 2759 
Q 947 2416 947 1791 
Q 947 1169 1205 825 
Q 1463 481 1925 481 
Q 2391 481 2648 825 
Q 2906 1169 2906 1791 
z
M 3481 434 
Q 3481 -459 3084 -895 
Q 2688 -1331 1869 -1331 
Q 1566 -1331 1297 -1286 
Q 1028 -1241 775 -1147 
L 775 -588 
Q 1028 -725 1275 -790 
Q 1522 -856 1778 -856 
Q 2344 -856 2625 -561 
Q 2906 -266 2906 331 
L 2906 616 
Q 2728 306 2450 153 
Q 2172 0 1784 0 
Q 1141 0 747 490 
Q 353 981 353 1791 
Q 353 2603 747 3093 
Q 1141 3584 1784 3584 
Q 2172 3584 2450 3431 
Q 2728 3278 2906 2969 
L 2906 3500 
L 3481 3500 
L 3481 434 
z
" transform="scale(0.015625)"/>
       <path id="DejaVuSans-20" transform="scale(0.015625)"/>
       <path id="DejaVuSans-78" d="M 3513 3500 
L 2247 1797 
L 3578 0 
L 2900 0 
L 1881 1375 
L 863 0 
L 184 0 
L 1544 1831 
L 300 3500 
L 978 3500 
L 1906 2253 
L 2834 3500 
L 3513 3500 
z
" transform="scale(0.015625)"/>
       <path id="DejaVuSans-53" d="M 3425 4513 
L 3425 3897 
Q 3066 4069 2747 4153 
Q 2428 4238 2131 4238 
Q 1616 4238 1336 4038 
Q 1056 3838 1056 3469 
Q 1056 3159 1242 3001 
Q 1428 2844 1947 2747 
L 2328 2669 
Q 3034 2534 3370 2195 
Q 3706 1856 3706 1288 
Q 3706 609 3251 259 
Q 2797 -91 1919 -91 
Q 1588 -91 1214 -16 
Q 841 59 441 206 
L 441 856 
Q 825 641 1194 531 
Q 1563 422 1919 422 
Q 2459 422 2753 634 
Q 3047 847 3047 1241 
Q 3047 1584 2836 1778 
Q 2625 1972 2144 2069 
L 1759 2144 
Q 1053 2284 737 2584 
Q 422 2884 422 3419 
Q 422 4038 858 4394 
Q 1294 4750 2059 4750 
Q 2388 4750 2728 4690 
Q 3069 4631 3425 4513 
z
" transform="scale(0.015625)"/>
       <path id="DejaVuSans-7a" d="M 353 3500 
L 3084 3500 
L 3084 2975 
L 922 459 
L 3084 459 
L 3084 0 
L 275 0 
L 275 525 
L 2438 3041 
L 353 3041 
L 353 3500 
z
" transform="scale(0.015625)"/>
       <path id="DejaVuSans-65" d="M 3597 1894 
L 3597 1613 
L 953 1613 
Q 991 1019 1311 708 
Q 1631 397 2203 397 
Q 2534 397 2845 478 
Q 3156 559 3463 722 
L 3463 178 
Q 3153 47 2828 -22 
Q 2503 -91 2169 -91 
Q 1331 -91 842 396 
Q 353 884 353 1716 
Q 353 2575 817 3079 
Q 1281 3584 2069 3584 
Q 2775 3584 3186 3129 
Q 3597 2675 3597 1894 
z
M 3022 2063 
Q 3016 2534 2758 2815 
Q 2500 3097 2075 3097 
Q 1594 3097 1305 2825 
Q 1016 2553 972 2059 
L 3022 2063 
z
" transform="scale(0.015625)"/>
       <path id="DejaVuSans-28" d="M 1984 4856 
Q 1566 4138 1362 3434 
Q 1159 2731 1159 2009 
Q 1159 1288 1364 580 
Q 1569 -128 1984 -844 
L 1484 -844 
Q 1016 -109 783 600 
Q 550 1309 550 2009 
Q 550 2706 781 3412 
Q 1013 4119 1484 4856 
L 1984 4856 
z
" transform="scale(0.015625)"/>
       <path id="DejaVuSans-4e" d="M 628 4666 
L 1478 4666 
L 3547 763 
L 3547 4666 
L 4159 4666 
L 4159 0 
L 3309 0 
L 1241 3903 
L 1241 0 
L 628 0 
L 628 4666 
z
" transform="scale(0.015625)"/>
       <path id="DejaVuSans-72" d="M 2631 2963 
Q 2534 3019 2420 3045 
Q 2306 3072 2169 3072 
Q 1681 3072 1420 2755 
Q 1159 2438 1159 1844 
L 1159 0 
L 581 0 
L 581 3500 
L 1159 3500 
L 1159 2956 
Q 1341 3275 1631 3429 
Q 1922 3584 2338 3584 
Q 2397 3584 2469 3576 
Q 2541 3569 2628 3553 
L 2631 2963 
z
" transform="scale(0.015625)"/>
       <path id="DejaVuSans-6d" d="M 3328 2828 
Q 3544 3216 3844 3400 
Q 4144 3584 4550 3584 
Q 5097 3584 5394 3201 
Q 5691 2819 5691 2113 
L 5691 0 
L 5113 0 
L 5113 2094 
Q 5113 2597 4934 2840 
Q 4756 3084 4391 3084 
Q 3944 3084 3684 2787 
Q 3425 2491 3425 1978 
L 3425 0 
L 2847 0 
L 2847 2094 
Q 2847 2600 2669 2842 
Q 2491 3084 2119 3084 
Q 1678 3084 1418 2786 
Q 1159 2488 1159 1978 
L 1159 0 
L 581 0 
L 581 3500 
L 1159 3500 
L 1159 2956 
Q 1356 3278 1631 3431 
Q 1906 3584 2284 3584 
Q 2666 3584 2933 3390 
Q 3200 3197 3328 2828 
z
" transform="scale(0.015625)"/>
       <path id="DejaVuSans-61" d="M 2194 1759 
Q 1497 1759 1228 1600 
Q 959 1441 959 1056 
Q 959 750 1161 570 
Q 1363 391 1709 391 
Q 2188 391 2477 730 
Q 2766 1069 2766 1631 
L 2766 1759 
L 2194 1759 
z
M 3341 1997 
L 3341 0 
L 2766 0 
L 2766 531 
Q 2569 213 2275 61 
Q 1981 -91 1556 -91 
Q 1019 -91 701 211 
Q 384 513 384 1019 
Q 384 1609 779 1909 
Q 1175 2209 1959 2209 
L 2766 2209 
L 2766 2266 
Q 2766 2663 2505 2880 
Q 2244 3097 1772 3097 
Q 1472 3097 1187 3025 
Q 903 2953 641 2809 
L 641 3341 
Q 956 3463 1253 3523 
Q 1550 3584 1831 3584 
Q 2591 3584 2966 3190 
Q 3341 2797 3341 1997 
z
" transform="scale(0.015625)"/>
       <path id="DejaVuSans-6c" d="M 603 4863 
L 1178 4863 
L 1178 0 
L 603 0 
L 603 4863 
z
" transform="scale(0.015625)"/>
       <path id="DejaVuSans-29" d="M 513 4856 
L 1013 4856 
Q 1481 4119 1714 3412 
Q 1947 2706 1947 2009 
Q 1947 1309 1714 600 
Q 1481 -109 1013 -844 
L 513 -844 
Q 928 -128 1133 580 
Q 1338 1288 1338 2009 
Q 1338 2731 1133 3434 
Q 928 4138 513 4856 
z
" transform="scale(0.015625)"/>
      </defs>
      <use xlink:href="#DejaVuSans-42"/>
      <use xlink:href="#DejaVuSans-6f" transform="translate(68.603516 0)"/>
      <use xlink:href="#DejaVuSans-75" transform="translate(129.785156 0)"/>
      <use xlink:href="#DejaVuSans-6e" transform="translate(193.164062 0)"/>
      <use xlink:href="#DejaVuSans-64" transform="translate(256.542969 0)"/>
      <use xlink:href="#DejaVuSans-69" transform="translate(320.019531 0)"/>
      <use xlink:href="#DejaVuSans-6e" transform="translate(347.802734 0)"/>
      <use xlink:href="#DejaVuSans-67" transform="translate(411.181641 0)"/>
      <use xlink:href="#DejaVuSans-20" transform="translate(474.658203 0)"/>
      <use xlink:href="#DejaVuSans-42" transform="translate(506.445312 0)"/>
      <use xlink:href="#DejaVuSans-6f" transform="translate(575.048828 0)"/>
      <use xlink:href="#DejaVuSans-78" transform="translate(633.105469 0)"/>
      <use xlink:href="#DejaVuSans-20" transform="translate(692.285156 0)"/>
      <use xlink:href="#DejaVuSans-53" transform="translate(724.072266 0)"/>
      <use xlink:href="#DejaVuSans-69" transform="translate(787.548828 0)"/>
      <use xlink:href="#DejaVuSans-7a" transform="translate(815.332031 0)"/>
      <use xlink:href="#DejaVuSans-65" transform="translate(867.822266 0)"/>
      <use xlink:href="#DejaVuSans-20" transform="translate(929.345703 0)"/>
      <use xlink:href="#DejaVuSans-28" transform="translate(961.132812 0)"/>
      <use xlink:href="#DejaVuSans-4e" transform="translate(1000.146484 0)"/>
      <use xlink:href="#DejaVuSans-6f" transform="translate(1074.951172 0)"/>
      <use xlink:href="#DejaVuSans-72" transform="translate(1136.132812 0)"/>
      <use xlink:href="#DejaVuSans-6d" transform="translate(1175.496094 0)"/>
      <use xlink:href="#DejaVuSans-61" transform="translate(1272.908203 0)"/>
      <use xlink:href="#DejaVuSans-6c" transform="translate(1334.1875 0)"/>
      <use xlink:href="#DejaVuSans-69" transform="translate(1361.970703 0)"/>
      <use xlink:href="#DejaVuSans-64" transform="translate(1389.753906 0)"/>
      <use xlink:href="#DejaVuSans-65" transform="translate(1453.230469 0)"/>
      <use xlink:href="#DejaVuSans-64" transform="translate(1514.753906 0)"/>
      <use xlink:href="#DejaVuSans-29" transform="translate(1578.230469 0)"/>
     </g>
    </g>
   </g>
   <g id="matplotlib.axis_2">
    <g id="ytick_1">
     <g id="line2d_13">
      <path d="M 72 307.8 
L 518.4 307.8 
" clip-path="url(#pf64716649d)" style="fill: none; stroke: #b0b0b0; stroke-width: 0.8; stroke-linecap: square"/>
     </g>
     <g id="line2d_14">
      <defs>
       <path id="mc87d86148b" d="M 0 0 
L -3.5 0 
" style="stroke: #000000; stroke-width: 0.8"/>
      </defs>
      <g>
       <use xlink:href="#mc87d86148b" x="72" y="307.8" style="stroke: #000000; stroke-width: 0.8"/>
      </g>
     </g>
     <g id="text_8">
      <!-- 0.00 -->
      <g transform="translate(42.734375 311.599219) scale(0.1 -0.1)">
       <use xlink:href="#DejaVuSans-30"/>
       <use xlink:href="#DejaVuSans-2e" transform="translate(63.623047 0)"/>
       <use xlink:href="#DejaVuSans-30" transform="translate(95.410156 0)"/>
       <use xlink:href="#DejaVuSans-30" transform="translate(159.033203 0)"/>
      </g>
     </g>
    </g>
    <g id="ytick_2">
     <g id="line2d_15">
      <path d="M 72 270.893962 
L 518.4 270.893962 
" clip-path="url(#pf64716649d)" style="fill: none; stroke: #b0b0b0; stroke-width: 0.8; stroke-linecap: square"/>
     </g>
     <g id="line2d_16">
      <g>
       <use xlink:href="#mc87d86148b" x="72" y="270.893962" style="stroke: #000000; stroke-width: 0.8"/>
      </g>
     </g>
     <g id="text_9">
      <!-- 0.25 -->
      <g transform="translate(42.734375 274.693181) scale(0.1 -0.1)">
       <defs>
        <path id="DejaVuSans-35" d="M 691 4666 
L 3169 4666 
L 3169 4134 
L 1269 4134 
L 1269 2991 
Q 1406 3038 1543 3061 
Q 1681 3084 1819 3084 
Q 2600 3084 3056 2656 
Q 3513 2228 3513 1497 
Q 3513 744 3044 326 
Q 2575 -91 1722 -91 
Q 1428 -91 1123 -41 
Q 819 9 494 109 
L 494 744 
Q 775 591 1075 516 
Q 1375 441 1709 441 
Q 2250 441 2565 725 
Q 2881 1009 2881 1497 
Q 2881 1984 2565 2268 
Q 2250 2553 1709 2553 
Q 1456 2553 1204 2497 
Q 953 2441 691 2322 
L 691 4666 
z
" transform="scale(0.015625)"/>
       </defs>
       <use xlink:href="#DejaVuSans-30"/>
       <use xlink:href="#DejaVuSans-2e" transform="translate(63.623047 0)"/>
       <use xlink:href="#DejaVuSans-32" transform="translate(95.410156 0)"/>
       <use xlink:href="#DejaVuSans-35" transform="translate(159.033203 0)"/>
      </g>
     </g>
    </g>
    <g id="ytick_3">
     <g id="line2d_17">
      <path d="M 72 233.987924 
L 518.4 233.987924 
" clip-path="url(#pf64716649d)" style="fill: none; stroke: #b0b0b0; stroke-width: 0.8; stroke-linecap: square"/>
     </g>
     <g id="line2d_18">
      <g>
       <use xlink:href="#mc87d86148b" x="72" y="233.987924" style="stroke: #000000; stroke-width: 0.8"/>
      </g>
     </g>
     <g id="text_10">
      <!-- 0.50 -->
      <g transform="translate(42.734375 237.787143) scale(0.1 -0.1)">
       <use xlink:href="#DejaVuSans-30"/>
       <use xlink:href="#DejaVuSans-2e" transform="translate(63.623047 0)"/>
       <use xlink:href="#DejaVuSans-35" transform="translate(95.410156 0)"/>
       <use xlink:href="#DejaVuSans-30" transform="translate(159.033203 0)"/>
      </g>
     </g>
    </g>
    <g id="ytick_4">
     <g id="line2d_19">
      <path d="M 72 197.081886 
L 518.4 197.081886 
" clip-path="url(#pf64716649d)" style="fill: none; stroke: #b0b0b0; stroke-width: 0.8; stroke-linecap: square"/>
     </g>
     <g id="line2d_20">
      <g>
       <use xlink:href="#mc87d86148b" x="72" y="197.081886" style="stroke: #000000; stroke-width: 0.8"/>
      </g>
     </g>
     <g id="text_11">
      <!-- 0.75 -->
      <g transform="translate(42.734375 200.881105) scale(0.1 -0.1)">
       <defs>
        <path id="DejaVuSans-37" d="M 525 4666 
L 3525 4666 
L 3525 4397 
L 1831 0 
L 1172 0 
L 2766 4134 
L 525 4134 
L 525 4666 
z
" transform="scale(0.015625)"/>
       </defs>
       <use xlink:href="#DejaVuSans-30"/>
       <use xlink:href="#DejaVuSans-2e" transform="translate(63.623047 0)"/>
       <use xlink:href="#DejaVuSans-37" transform="translate(95.410156 0)"/>
       <use xlink:href="#DejaVuSans-35" transform="translate(159.033203 0)"/>
      </g>
     </g>
    </g>
    <g id="ytick_5">
     <g id="line2d_21">
      <path d="M 72 160.175849 
L 518.4 160.175849 
" clip-path="url(#pf64716649d)" style="fill: none; stroke: #b0b0b0; stroke-width: 0.8; stroke-linecap: square"/>
     </g>
     <g id="line2d_22">
      <g>
       <use xlink:href="#mc87d86148b" x="72" y="160.175849" style="stroke: #000000; stroke-width: 0.8"/>
      </g>
     </g>
     <g id="text_12">
      <!-- 1.00 -->
      <g transform="translate(42.734375 163.975067) scale(0.1 -0.1)">
       <use xlink:href="#DejaVuSans-31"/>
       <use xlink:href="#DejaVuSans-2e" transform="translate(63.623047 0)"/>
       <use xlink:href="#DejaVuSans-30" transform="translate(95.410156 0)"/>
       <use xlink:href="#DejaVuSans-30" transform="translate(159.033203 0)"/>
      </g>
     </g>
    </g>
    <g id="ytick_6">
     <g id="line2d_23">
      <path d="M 72 123.269811 
L 518.4 123.269811 
" clip-path="url(#pf64716649d)" style="fill: none; stroke: #b0b0b0; stroke-width: 0.8; stroke-linecap: square"/>
     </g>
     <g id="line2d_24">
      <g>
       <use xlink:href="#mc87d86148b" x="72" y="123.269811" style="stroke: #000000; stroke-width: 0.8"/>
      </g>
     </g>
     <g id="text_13">
      <!-- 1.25 -->
      <g transform="translate(42.734375 127.06903) scale(0.1 -0.1)">
       <use xlink:href="#DejaVuSans-31"/>
       <use xlink:href="#DejaVuSans-2e" transform="translate(63.623047 0)"/>
       <use xlink:href="#DejaVuSans-32" transform="translate(95.410156 0)"/>
       <use xlink:href="#DejaVuSans-35" transform="translate(159.033203 0)"/>
      </g>
     </g>
    </g>
    <g id="ytick_7">
     <g id="line2d_25">
      <path d="M 72 86.363773 
L 518.4 86.363773 
" clip-path="url(#pf64716649d)" style="fill: none; stroke: #b0b0b0; stroke-width: 0.8; stroke-linecap: square"/>
     </g>
     <g id="line2d_26">
      <g>
       <use xlink:href="#mc87d86148b" x="72" y="86.363773" style="stroke: #000000; stroke-width: 0.8"/>
      </g>
     </g>
     <g id="text_14">
      <!-- 1.50 -->
      <g transform="translate(42.734375 90.162992) scale(0.1 -0.1)">
       <use xlink:href="#DejaVuSans-31"/>
       <use xlink:href="#DejaVuSans-2e" transform="translate(63.623047 0)"/>
       <use xlink:href="#DejaVuSans-35" transform="translate(95.410156 0)"/>
       <use xlink:href="#DejaVuSans-30" transform="translate(159.033203 0)"/>
      </g>
     </g>
    </g>
    <g id="ytick_8">
     <g id="line2d_27">
      <path d="M 72 49.457735 
L 518.4 49.457735 
" clip-path="url(#pf64716649d)" style="fill: none; stroke: #b0b0b0; stroke-width: 0.8; stroke-linecap: square"/>
     </g>
     <g id="line2d_28">
      <g>
       <use xlink:href="#mc87d86148b" x="72" y="49.457735" style="stroke: #000000; stroke-width: 0.8"/>
      </g>
     </g>
     <g id="text_15">
      <!-- 1.75 -->
      <g transform="translate(42.734375 53.256954) scale(0.1 -0.1)">
       <use xlink:href="#DejaVuSans-31"/>
       <use xlink:href="#DejaVuSans-2e" transform="translate(63.623047 0)"/>
       <use xlink:href="#DejaVuSans-37" transform="translate(95.410156 0)"/>
       <use xlink:href="#DejaVuSans-35" transform="translate(159.033203 0)"/>
      </g>
     </g>
    </g>
    <g id="text_16">
     <!-- IoU Weight -->
     <g transform="translate(36.654687 209.001562) rotate(-90) scale(0.1 -0.1)">
      <defs>
       <path id="DejaVuSans-49" d="M 628 4666 
L 1259 4666 
L 1259 0 
L 628 0 
L 628 4666 
z
" transform="scale(0.015625)"/>
       <path id="DejaVuSans-55" d="M 556 4666 
L 1191 4666 
L 1191 1831 
Q 1191 1081 1462 751 
Q 1734 422 2344 422 
Q 2950 422 3222 751 
Q 3494 1081 3494 1831 
L 3494 4666 
L 4128 4666 
L 4128 1753 
Q 4128 841 3676 375 
Q 3225 -91 2344 -91 
Q 1459 -91 1007 375 
Q 556 841 556 1753 
L 556 4666 
z
" transform="scale(0.015625)"/>
       <path id="DejaVuSans-57" d="M 213 4666 
L 850 4666 
L 1831 722 
L 2809 4666 
L 3519 4666 
L 4500 722 
L 5478 4666 
L 6119 4666 
L 4947 0 
L 4153 0 
L 3169 4050 
L 2175 0 
L 1381 0 
L 213 4666 
z
" transform="scale(0.015625)"/>
       <path id="DejaVuSans-68" d="M 3513 2113 
L 3513 0 
L 2938 0 
L 2938 2094 
Q 2938 2591 2744 2837 
Q 2550 3084 2163 3084 
Q 1697 3084 1428 2787 
Q 1159 2491 1159 1978 
L 1159 0 
L 581 0 
L 581 4863 
L 1159 4863 
L 1159 2956 
Q 1366 3272 1645 3428 
Q 1925 3584 2291 3584 
Q 2894 3584 3203 3211 
Q 3513 2838 3513 2113 
z
" transform="scale(0.015625)"/>
       <path id="DejaVuSans-74" d="M 1172 4494 
L 1172 3500 
L 2356 3500 
L 2356 3053 
L 1172 3053 
L 1172 1153 
Q 1172 725 1289 603 
Q 1406 481 1766 481 
L 2356 481 
L 2356 0 
L 1766 0 
Q 1100 0 847 248 
Q 594 497 594 1153 
L 594 3053 
L 172 3053 
L 172 3500 
L 594 3500 
L 594 4494 
L 1172 4494 
z
" transform="scale(0.015625)"/>
      </defs>
      <use xlink:href="#DejaVuSans-49"/>
      <use xlink:href="#DejaVuSans-6f" transform="translate(29.492188 0)"/>
      <use xlink:href="#DejaVuSans-55" transform="translate(90.673828 0)"/>
      <use xlink:href="#DejaVuSans-20" transform="translate(163.867188 0)"/>
      <use xlink:href="#DejaVuSans-57" transform="translate(195.654297 0)"/>
      <use xlink:href="#DejaVuSans-65" transform="translate(288.65625 0)"/>
      <use xlink:href="#DejaVuSans-69" transform="translate(350.179688 0)"/>
      <use xlink:href="#DejaVuSans-67" transform="translate(377.962891 0)"/>
      <use xlink:href="#DejaVuSans-68" transform="translate(441.439453 0)"/>
      <use xlink:href="#DejaVuSans-74" transform="translate(504.818359 0)"/>
     </g>
    </g>
   </g>
   <g id="line2d_29">
    <path d="M 92.290909 55.8 
L 94.322031 69.36066 
L 96.353153 81.276857 
L 98.384275 91.719427 
L 100.415397 100.848708 
L 102.446519 108.81316 
L 104.477641 115.748719 
L 106.508763 121.778696 
L 108.539885 127.014082 
L 110.571007 131.554123 
L 112.602129 135.487071 
L 114.633251 138.89103 
L 116.664373 141.834849 
L 118.695495 144.379008 
L 120.726618 146.576481 
L 122.75774 148.473554 
L 125.195086 150.409951 
L 127.632432 152.0315 
L 130.069779 153.388784 
L 132.91335 154.694786 
L 135.756921 155.755106 
L 139.006716 156.724574 
L 142.662735 157.571236 
L 146.72498 158.279827 
L 151.599672 158.892559 
L 157.286814 159.377717 
L 164.598853 159.765624 
L 174.348239 160.043654 
L 188.972318 160.2177 
L 217.814251 160.296472 
L 375.42932 160.30707 
L 498.109091 160.30707 
L 498.109091 160.30707 
" clip-path="url(#pf64716649d)" style="fill: none; stroke: #2257ec; stroke-width: 1.5; stroke-linecap: square"/>
   </g>
   <g id="line2d_30">
    <path d="M 72 55.8 
L 518.4 55.8 
" clip-path="url(#pf64716649d)" style="fill: none; stroke-dasharray: 5.55,2.4; stroke-dashoffset: 0; stroke: #ff0000; stroke-width: 1.5"/>
   </g>
   <g id="line2d_31">
    <path d="M 72 307.8 
L 518.4 307.8 
" clip-path="url(#pf64716649d)" style="fill: none; stroke-dasharray: 1.85,0.8; stroke-dashoffset: 0; stroke: #000000; stroke-width: 0.5"/>
   </g>
   <g id="line2d_32">
    <path d="M 92.290909 320.4 
L 92.290909 43.2 
" clip-path="url(#pf64716649d)" style="fill: none; stroke-dasharray: 1.85,0.8; stroke-dashoffset: 0; stroke: #000000; stroke-width: 0.5"/>
   </g>
   <g id="patch_3">
    <path d="M 72 320.4 
L 72 43.2 
" style="fill: none; stroke: #000000; stroke-width: 0.8; stroke-linejoin: miter; stroke-linecap: square"/>
   </g>
   <g id="patch_4">
    <path d="M 518.4 320.4 
L 518.4 43.2 
" style="fill: none; stroke: #000000; stroke-width: 0.8; stroke-linejoin: miter; stroke-linecap: square"/>
   </g>
   <g id="patch_5">
    <path d="M 72 320.4 
L 518.4 320.4 
" style="fill: none; stroke: #000000; stroke-width: 0.8; stroke-linejoin: miter; stroke-linecap: square"/>
   </g>
   <g id="patch_6">
    <path d="M 72 43.2 
L 518.4 43.2 
" style="fill: none; stroke: #000000; stroke-width: 0.8; stroke-linejoin: miter; stroke-linecap: square"/>
   </g>
   <g id="text_17">
    <!-- IoU weight as a function of the normalised predicted bbox size -->
    <g transform="translate(107.386875 37.2) scale(0.12 -0.12)">
     <defs>
      <path id="DejaVuSans-77" d="M 269 3500 
L 844 3500 
L 1563 769 
L 2278 3500 
L 2956 3500 
L 3675 769 
L 4391 3500 
L 4966 3500 
L 4050 0 
L 3372 0 
L 2619 2869 
L 1863 0 
L 1184 0 
L 269 3500 
z
" transform="scale(0.015625)"/>
      <path id="DejaVuSans-73" d="M 2834 3397 
L 2834 2853 
Q 2591 2978 2328 3040 
Q 2066 3103 1784 3103 
Q 1356 3103 1142 2972 
Q 928 2841 928 2578 
Q 928 2378 1081 2264 
Q 1234 2150 1697 2047 
L 1894 2003 
Q 2506 1872 2764 1633 
Q 3022 1394 3022 966 
Q 3022 478 2636 193 
Q 2250 -91 1575 -91 
Q 1294 -91 989 -36 
Q 684 19 347 128 
L 347 722 
Q 666 556 975 473 
Q 1284 391 1588 391 
Q 1994 391 2212 530 
Q 2431 669 2431 922 
Q 2431 1156 2273 1281 
Q 2116 1406 1581 1522 
L 1381 1569 
Q 847 1681 609 1914 
Q 372 2147 372 2553 
Q 372 3047 722 3315 
Q 1072 3584 1716 3584 
Q 2034 3584 2315 3537 
Q 2597 3491 2834 3397 
z
" transform="scale(0.015625)"/>
      <path id="DejaVuSans-66" d="M 2375 4863 
L 2375 4384 
L 1825 4384 
Q 1516 4384 1395 4259 
Q 1275 4134 1275 3809 
L 1275 3500 
L 2222 3500 
L 2222 3053 
L 1275 3053 
L 1275 0 
L 697 0 
L 697 3053 
L 147 3053 
L 147 3500 
L 697 3500 
L 697 3744 
Q 697 4328 969 4595 
Q 1241 4863 1831 4863 
L 2375 4863 
z
" transform="scale(0.015625)"/>
      <path id="DejaVuSans-63" d="M 3122 3366 
L 3122 2828 
Q 2878 2963 2633 3030 
Q 2388 3097 2138 3097 
Q 1578 3097 1268 2742 
Q 959 2388 959 1747 
Q 959 1106 1268 751 
Q 1578 397 2138 397 
Q 2388 397 2633 464 
Q 2878 531 3122 666 
L 3122 134 
Q 2881 22 2623 -34 
Q 2366 -91 2075 -91 
Q 1284 -91 818 406 
Q 353 903 353 1747 
Q 353 2603 823 3093 
Q 1294 3584 2113 3584 
Q 2378 3584 2631 3529 
Q 2884 3475 3122 3366 
z
" transform="scale(0.015625)"/>
      <path id="DejaVuSans-70" d="M 1159 525 
L 1159 -1331 
L 581 -1331 
L 581 3500 
L 1159 3500 
L 1159 2969 
Q 1341 3281 1617 3432 
Q 1894 3584 2278 3584 
Q 2916 3584 3314 3078 
Q 3713 2572 3713 1747 
Q 3713 922 3314 415 
Q 2916 -91 2278 -91 
Q 1894 -91 1617 61 
Q 1341 213 1159 525 
z
M 3116 1747 
Q 3116 2381 2855 2742 
Q 2594 3103 2138 3103 
Q 1681 3103 1420 2742 
Q 1159 2381 1159 1747 
Q 1159 1113 1420 752 
Q 1681 391 2138 391 
Q 2594 391 2855 752 
Q 3116 1113 3116 1747 
z
" transform="scale(0.015625)"/>
      <path id="DejaVuSans-62" d="M 3116 1747 
Q 3116 2381 2855 2742 
Q 2594 3103 2138 3103 
Q 1681 3103 1420 2742 
Q 1159 2381 1159 1747 
Q 1159 1113 1420 752 
Q 1681 391 2138 391 
Q 2594 391 2855 752 
Q 3116 1113 3116 1747 
z
M 1159 2969 
Q 1341 3281 1617 3432 
Q 1894 3584 2278 3584 
Q 2916 3584 3314 3078 
Q 3713 2572 3713 1747 
Q 3713 922 3314 415 
Q 2916 -91 2278 -91 
Q 1894 -91 1617 61 
Q 1341 213 1159 525 
L 1159 0 
L 581 0 
L 581 4863 
L 1159 4863 
L 1159 2969 
z
" transform="scale(0.015625)"/>
     </defs>
     <use xlink:href="#DejaVuSans-49"/>
     <use xlink:href="#DejaVuSans-6f" transform="translate(29.492188 0)"/>
     <use xlink:href="#DejaVuSans-55" transform="translate(90.673828 0)"/>
     <use xlink:href="#DejaVuSans-20" transform="translate(163.867188 0)"/>
     <use xlink:href="#DejaVuSans-77" transform="translate(195.654297 0)"/>
     <use xlink:href="#DejaVuSans-65" transform="translate(277.441406 0)"/>
     <use xlink:href="#DejaVuSans-69" transform="translate(338.964844 0)"/>
     <use xlink:href="#DejaVuSans-67" transform="translate(366.748047 0)"/>
     <use xlink:href="#DejaVuSans-68" transform="translate(430.224609 0)"/>
     <use xlink:href="#DejaVuSans-74" transform="translate(493.603516 0)"/>
     <use xlink:href="#DejaVuSans-20" transform="translate(532.8125 0)"/>
     <use xlink:href="#DejaVuSans-61" transform="translate(564.599609 0)"/>
     <use xlink:href="#DejaVuSans-73" transform="translate(625.878906 0)"/>
     <use xlink:href="#DejaVuSans-20" transform="translate(677.978516 0)"/>
     <use xlink:href="#DejaVuSans-61" transform="translate(709.765625 0)"/>
     <use xlink:href="#DejaVuSans-20" transform="translate(771.044922 0)"/>
     <use xlink:href="#DejaVuSans-66" transform="translate(802.832031 0)"/>
     <use xlink:href="#DejaVuSans-75" transform="translate(838.037109 0)"/>
     <use xlink:href="#DejaVuSans-6e" transform="translate(901.416016 0)"/>
     <use xlink:href="#DejaVuSans-63" transform="translate(964.794922 0)"/>
     <use xlink:href="#DejaVuSans-74" transform="translate(1019.775391 0)"/>
     <use xlink:href="#DejaVuSans-69" transform="translate(1058.984375 0)"/>
     <use xlink:href="#DejaVuSans-6f" transform="translate(1086.767578 0)"/>
     <use xlink:href="#DejaVuSans-6e" transform="translate(1147.949219 0)"/>
     <use xlink:href="#DejaVuSans-20" transform="translate(1211.328125 0)"/>
     <use xlink:href="#DejaVuSans-6f" transform="translate(1243.115234 0)"/>
     <use xlink:href="#DejaVuSans-66" transform="translate(1304.296875 0)"/>
     <use xlink:href="#DejaVuSans-20" transform="translate(1339.501953 0)"/>
     <use xlink:href="#DejaVuSans-74" transform="translate(1371.289062 0)"/>
     <use xlink:href="#DejaVuSans-68" transform="translate(1410.498047 0)"/>
     <use xlink:href="#DejaVuSans-65" transform="translate(1473.876953 0)"/>
     <use xlink:href="#DejaVuSans-20" transform="translate(1535.400391 0)"/>
     <use xlink:href="#DejaVuSans-6e" transform="translate(1567.1875 0)"/>
     <use xlink:href="#DejaVuSans-6f" transform="translate(1630.566406 0)"/>
     <use xlink:href="#DejaVuSans-72" transform="translate(1691.748047 0)"/>
     <use xlink:href="#DejaVuSans-6d" transform="translate(1731.111328 0)"/>
     <use xlink:href="#DejaVuSans-61" transform="translate(1828.523438 0)"/>
     <use xlink:href="#DejaVuSans-6c" transform="translate(1889.802734 0)"/>
     <use xlink:href="#DejaVuSans-69" transform="translate(1917.585938 0)"/>
     <use xlink:href="#DejaVuSans-73" transform="translate(1945.369141 0)"/>
     <use xlink:href="#DejaVuSans-65" transform="translate(1997.46875 0)"/>
     <use xlink:href="#DejaVuSans-64" transform="translate(2058.992188 0)"/>
     <use xlink:href="#DejaVuSans-20" transform="translate(2122.46875 0)"/>
     <use xlink:href="#DejaVuSans-70" transform="translate(2154.255859 0)"/>
     <use xlink:href="#DejaVuSans-72" transform="translate(2217.732422 0)"/>
     <use xlink:href="#DejaVuSans-65" transform="translate(2256.595703 0)"/>
     <use xlink:href="#DejaVuSans-64" transform="translate(2318.119141 0)"/>
     <use xlink:href="#DejaVuSans-69" transform="translate(2381.595703 0)"/>
     <use xlink:href="#DejaVuSans-63" transform="translate(2409.378906 0)"/>
     <use xlink:href="#DejaVuSans-74" transform="translate(2464.359375 0)"/>
     <use xlink:href="#DejaVuSans-65" transform="translate(2503.568359 0)"/>
     <use xlink:href="#DejaVuSans-64" transform="translate(2565.091797 0)"/>
     <use xlink:href="#DejaVuSans-20" transform="translate(2628.568359 0)"/>
     <use xlink:href="#DejaVuSans-62" transform="translate(2660.355469 0)"/>
     <use xlink:href="#DejaVuSans-62" transform="translate(2723.832031 0)"/>
     <use xlink:href="#DejaVuSans-6f" transform="translate(2787.308594 0)"/>
     <use xlink:href="#DejaVuSans-78" transform="translate(2845.365234 0)"/>
     <use xlink:href="#DejaVuSans-20" transform="translate(2904.544922 0)"/>
     <use xlink:href="#DejaVuSans-73" transform="translate(2936.332031 0)"/>
     <use xlink:href="#DejaVuSans-69" transform="translate(2988.431641 0)"/>
     <use xlink:href="#DejaVuSans-7a" transform="translate(3016.214844 0)"/>
     <use xlink:href="#DejaVuSans-65" transform="translate(3068.705078 0)"/>
    </g>
   </g>
   <g id="legend_1">
    <g id="patch_7">
     <path d="M 234.035156 198.117188 
L 356.364844 198.117188 
Q 358.364844 198.117188 358.364844 196.117188 
L 358.364844 167.482813 
Q 358.364844 165.482813 356.364844 165.482813 
L 234.035156 165.482813 
Q 232.035156 165.482813 232.035156 167.482813 
L 232.035156 196.117188 
Q 232.035156 198.117188 234.035156 198.117188 
z
" style="fill: #ffffff; opacity: 0.8; stroke: #cccccc; stroke-linejoin: miter"/>
    </g>
    <g id="line2d_33">
     <path d="M 236.035156 173.58125 
L 246.035156 173.58125 
L 256.035156 173.58125 
" style="fill: none; stroke: #2257ec; stroke-width: 1.5; stroke-linecap: square"/>
    </g>
    <g id="text_18">
     <!-- weight(bbox_size) -->
     <g transform="translate(264.035156 177.08125) scale(0.1 -0.1)">
      <defs>
       <path id="DejaVuSans-5f" d="M 3263 -1063 
L 3263 -1509 
L -63 -1509 
L -63 -1063 
L 3263 -1063 
z
" transform="scale(0.015625)"/>
      </defs>
      <use xlink:href="#DejaVuSans-77"/>
      <use xlink:href="#DejaVuSans-65" transform="translate(81.787109 0)"/>
      <use xlink:href="#DejaVuSans-69" transform="translate(143.310547 0)"/>
      <use xlink:href="#DejaVuSans-67" transform="translate(171.09375 0)"/>
      <use xlink:href="#DejaVuSans-68" transform="translate(234.570312 0)"/>
      <use xlink:href="#DejaVuSans-74" transform="translate(297.949219 0)"/>
      <use xlink:href="#DejaVuSans-28" transform="translate(337.158203 0)"/>
      <use xlink:href="#DejaVuSans-62" transform="translate(376.171875 0)"/>
      <use xlink:href="#DejaVuSans-62" transform="translate(439.648438 0)"/>
      <use xlink:href="#DejaVuSans-6f" transform="translate(503.125 0)"/>
      <use xlink:href="#DejaVuSans-78" transform="translate(561.181641 0)"/>
      <use xlink:href="#DejaVuSans-5f" transform="translate(620.361328 0)"/>
      <use xlink:href="#DejaVuSans-73" transform="translate(670.361328 0)"/>
      <use xlink:href="#DejaVuSans-69" transform="translate(722.460938 0)"/>
      <use xlink:href="#DejaVuSans-7a" transform="translate(750.244141 0)"/>
      <use xlink:href="#DejaVuSans-65" transform="translate(802.734375 0)"/>
      <use xlink:href="#DejaVuSans-29" transform="translate(864.257812 0)"/>
     </g>
    </g>
    <g id="line2d_34">
     <path d="M 236.035156 188.5375 
L 246.035156 188.5375 
L 256.035156 188.5375 
" style="fill: none; stroke-dasharray: 5.55,2.4; stroke-dashoffset: 0; stroke: #ff0000; stroke-width: 1.5"/>
    </g>
    <g id="text_19">
     <!-- y(0) = 1.707 -->
     <g transform="translate(264.035156 192.0375) scale(0.1 -0.1)">
      <defs>
       <path id="DejaVuSans-79" d="M 2059 -325 
Q 1816 -950 1584 -1140 
Q 1353 -1331 966 -1331 
L 506 -1331 
L 506 -850 
L 844 -850 
Q 1081 -850 1212 -737 
Q 1344 -625 1503 -206 
L 1606 56 
L 191 3500 
L 800 3500 
L 1894 763 
L 2988 3500 
L 3597 3500 
L 2059 -325 
z
" transform="scale(0.015625)"/>
       <path id="DejaVuSans-3d" d="M 678 2906 
L 4684 2906 
L 4684 2381 
L 678 2381 
L 678 2906 
z
M 678 1631 
L 4684 1631 
L 4684 1100 
L 678 1100 
L 678 1631 
z
" transform="scale(0.015625)"/>
      </defs>
      <use xlink:href="#DejaVuSans-79"/>
      <use xlink:href="#DejaVuSans-28" transform="translate(59.179688 0)"/>
      <use xlink:href="#DejaVuSans-30" transform="translate(98.193359 0)"/>
      <use xlink:href="#DejaVuSans-29" transform="translate(161.816406 0)"/>
      <use xlink:href="#DejaVuSans-20" transform="translate(200.830078 0)"/>
      <use xlink:href="#DejaVuSans-3d" transform="translate(232.617188 0)"/>
      <use xlink:href="#DejaVuSans-20" transform="translate(316.40625 0)"/>
      <use xlink:href="#DejaVuSans-31" transform="translate(348.193359 0)"/>
      <use xlink:href="#DejaVuSans-2e" transform="translate(411.816406 0)"/>
      <use xlink:href="#DejaVuSans-37" transform="translate(443.603516 0)"/>
      <use xlink:href="#DejaVuSans-30" transform="translate(507.226562 0)"/>
      <use xlink:href="#DejaVuSans-37" transform="translate(570.849609 0)"/>
     </g>
    </g>
   </g>
  </g>
 </g>
 <defs>
  <clipPath id="pf64716649d">
   <rect x="72" y="43.2" width="446.4" height="277.2"/>
  </clipPath>
 </defs>
</svg>
