<?xml version="1.0" encoding="utf-8" standalone="no"?>
<!DOCTYPE svg PUBLIC "-//W3C//DTD SVG 1.1//EN"
  "http://www.w3.org/Graphics/SVG/1.1/DTD/svg11.dtd">
<svg xmlns:xlink="http://www.w3.org/1999/xlink" width="576pt" height="360pt" viewBox="0 0 576 360" xmlns="http://www.w3.org/2000/svg" version="1.1">
 <metadata>
  <rdf:RDF xmlns:dc="http://purl.org/dc/elements/1.1/" xmlns:cc="http://creativecommons.org/ns#" xmlns:rdf="http://www.w3.org/1999/02/22-rdf-syntax-ns#">
   <cc:Work>
    <dc:type rdf:resource="http://purl.org/dc/dcmitype/StillImage"/>
    <dc:date>2025-03-26T15:58:13.110141</dc:date>
    <dc:format>image/svg+xml</dc:format>
    <dc:creator>
     <cc:Agent>
      <dc:title>Matplotlib v3.10.1, https://matplotlib.org/</dc:title>
     </cc:Agent>
    </dc:creator>
   </cc:Work>
  </rdf:RDF>
 </metadata>
 <defs>
  <style type="text/css">*{stroke-linejoin: round; stroke-linecap: butt}</style>
 </defs>
 <g id="figure_1">
  <g id="patch_1">
   <path d="M 0 360 
L 576 360 
L 576 0 
L 0 0 
z
" style="fill: #ffffff"/>
  </g>
  <g id="axes_1">
   <g id="patch_2">
    <path d="M 72 320.4 
L 518.4 320.4 
L 518.4 43.2 
L 72 43.2 
z
" style="fill: #ffffff"/>
   </g>
   <g id="FillBetweenPolyCollection_1">
    <defs>
     <path id="m9cc7a9a404" d="M 92.290909 -52.2 
L 92.290909 -304.2 
L 92.697133 -302.497482 
L 93.103358 -300.796068 
L 93.509582 -299.096861 
L 93.915807 -297.400957 
L 94.322031 -295.709444 
L 94.728256 -294.023399 
L 95.13448 -292.343883 
L 95.540704 -290.671942 
L 95.946929 -289.008603 
L 96.353153 -287.354871 
L 96.759378 -285.711727 
L 97.165602 -284.080126 
L 97.571826 -282.460993 
L 97.978051 -280.855226 
L 98.384275 -279.263689 
L 98.7905 -277.687213 
L 99.196724 -276.126593 
L 99.602948 -274.58259 
L 100.009173 -273.055925 
L 100.415397 -271.547282 
L 100.821622 -270.057306 
L 101.227846 -268.586601 
L 101.63407 -267.135733 
L 102.040295 -265.705224 
L 102.446519 -264.29556 
L 102.852744 -262.907182 
L 103.258968 -261.540493 
L 103.665192 -260.195855 
L 104.071417 -258.87359 
L 104.477641 -257.573981 
L 104.883866 -256.297273 
L 105.29009 -255.043674 
L 105.696314 -253.813352 
L 106.102539 -252.606443 
L 106.508763 -251.423045 
L 106.914988 -250.263223 
L 107.321212 -249.127012 
L 107.727437 -248.014411 
L 108.133661 -246.925394 
L 108.539885 -245.859902 
L 108.94611 -244.817851 
L 109.352334 -243.799129 
L 109.758559 -242.803603 
L 110.164783 -241.831111 
L 110.571007 -240.881475 
L 110.977232 -239.954492 
L 111.383456 -239.049942 
L 111.789681 -238.167587 
L 112.195905 -237.307171 
L 112.602129 -236.468424 
L 113.008354 -235.651062 
L 113.414578 -234.854788 
L 113.820803 -234.079294 
L 114.227027 -233.32426 
L 114.633251 -232.589358 
L 115.039476 -231.874253 
L 115.4457 -231.178599 
L 115.851925 -230.502049 
L 116.258149 -229.844246 
L 116.664373 -229.204832 
L 117.070598 -228.583445 
L 117.476822 -227.979719 
L 117.883047 -227.393287 
L 118.289271 -226.823782 
L 118.695495 -226.270834 
L 119.10172 -225.734076 
L 119.507944 -225.213141 
L 119.914169 -224.707661 
L 120.320393 -224.217274 
L 120.726618 -223.741618 
L 121.132842 -223.280333 
L 121.539066 -222.833065 
L 121.945291 -222.399461 
L 122.351515 -221.979173 
L 122.75774 -221.571858 
L 123.163964 -221.177177 
L 123.570188 -220.794795 
L 123.976413 -220.424383 
L 124.382637 -220.065617 
L 124.788862 -219.718179 
L 125.195086 -219.381755 
L 125.60131 -219.056038 
L 126.007535 -218.740727 
L 126.413759 -218.435525 
L 126.819984 -218.140143 
L 127.226208 -217.854298 
L 127.632432 -217.57771 
L 128.038657 -217.31011 
L 128.444881 -217.051231 
L 128.851106 -216.800814 
L 129.25733 -216.558605 
L 129.663554 -216.324356 
L 130.069779 -216.097828 
L 130.476003 -215.878783 
L 130.882228 -215.666993 
L 131.288452 -215.462233 
L 131.694676 -215.264287 
L 132.100901 -215.07294 
L 132.507125 -214.887988 
L 132.91335 -214.709229 
L 133.319574 -214.536467 
L 133.725799 -214.369512 
L 134.132023 -214.20818 
L 134.538247 -214.052289 
L 134.944472 -213.901667 
L 135.350696 -213.756143 
L 135.756921 -213.615552 
L 136.163145 -213.479735 
L 136.569369 -213.348536 
L 136.975594 -213.221804 
L 137.381818 -213.099394 
L 137.788043 -212.981163 
L 138.194267 -212.866974 
L 138.600491 -212.756693 
L 139.006716 -212.650192 
L 139.41294 -212.547345 
L 139.819165 -212.44803 
L 140.225389 -212.35213 
L 140.631613 -212.25953 
L 141.037838 -212.170121 
L 141.444062 -212.083795 
L 141.850287 -212.000449 
L 142.256511 -211.919982 
L 142.662735 -211.842298 
L 143.06896 -211.767302 
L 143.475184 -211.694903 
L 143.881409 -211.625013 
L 144.287633 -211.557548 
L 144.693857 -211.492425 
L 145.100082 -211.429564 
L 145.506306 -211.368887 
L 145.912531 -211.310321 
L 146.318755 -211.253793 
L 146.72498 -211.199234 
L 147.131204 -211.146575 
L 147.537428 -211.095753 
L 147.943653 -211.046703 
L 148.349877 -210.999365 
L 148.756102 -210.953679 
L 149.162326 -210.90959 
L 149.56855 -210.867042 
L 149.974775 -210.825981 
L 150.380999 -210.786356 
L 150.787224 -210.748119 
L 151.193448 -210.71122 
L 151.599672 -210.675613 
L 152.005897 -210.641253 
L 152.412121 -210.608098 
L 152.818346 -210.576106 
L 153.22457 -210.545235 
L 153.630794 -210.515447 
L 154.037019 -210.486705 
L 154.443243 -210.458972 
L 154.849468 -210.432213 
L 155.255692 -210.406393 
L 155.661916 -210.381481 
L 156.068141 -210.357444 
L 156.474365 -210.334252 
L 156.88059 -210.311876 
L 157.286814 -210.290287 
L 157.693038 -210.269457 
L 158.099263 -210.24936 
L 158.505487 -210.22997 
L 158.911712 -210.211263 
L 159.317936 -210.193214 
L 159.724161 -210.175801 
L 160.130385 -210.159001 
L 160.536609 -210.142793 
L 160.942834 -210.127156 
L 161.349058 -210.11207 
L 161.755283 -210.097516 
L 162.161507 -210.083474 
L 162.567731 -210.069928 
L 162.973956 -210.056859 
L 163.38018 -210.044252 
L 163.786405 -210.032088 
L 164.192629 -210.020354 
L 164.598853 -210.009034 
L 165.005078 -209.998113 
L 165.411302 -209.987578 
L 165.817527 -209.977414 
L 166.223751 -209.967609 
L 166.629975 -209.95815 
L 167.0362 -209.949025 
L 167.442424 -209.940222 
L 167.848649 -209.93173 
L 168.254873 -209.923538 
L 168.661097 -209.915635 
L 169.067322 -209.908011 
L 169.473546 -209.900656 
L 169.879771 -209.893561 
L 170.285995 -209.886717 
L 170.692219 -209.880115 
L 171.098444 -209.873746 
L 171.504668 -209.867601 
L 171.910893 -209.861674 
L 172.317117 -209.855957 
L 172.723342 -209.850441 
L 173.129566 -209.84512 
L 173.53579 -209.839988 
L 173.942015 -209.835036 
L 174.348239 -209.83026 
L 174.754464 -209.825653 
L 175.160688 -209.821208 
L 175.566912 -209.816921 
L 175.973137 -209.812785 
L 176.379361 -209.808795 
L 176.785586 -209.804947 
L 177.19181 -209.801234 
L 177.598034 -209.797653 
L 178.004259 -209.794198 
L 178.410483 -209.790866 
L 178.816708 -209.787651 
L 179.222932 -209.78455 
L 179.629156 -209.781559 
L 180.035381 -209.778673 
L 180.441605 -209.77589 
L 180.84783 -209.773205 
L 181.254054 -209.770615 
L 181.660278 -209.768116 
L 182.066503 -209.765706 
L 182.472727 -209.763381 
L 182.878952 -209.761139 
L 183.285176 -209.758975 
L 183.6914 -209.756888 
L 184.097625 -209.754876 
L 184.503849 -209.752934 
L 184.910074 -209.751061 
L 185.316298 -209.749254 
L 185.722523 -209.747511 
L 186.128747 -209.74583 
L 186.534971 -209.744208 
L 186.941196 -209.742644 
L 187.34742 -209.741135 
L 187.753645 -209.739679 
L 188.159869 -209.738275 
L 188.566093 -209.73692 
L 188.972318 -209.735614 
L 189.378542 -209.734354 
L 189.784767 -209.733138 
L 190.190991 -209.731965 
L 190.597215 -209.730834 
L 191.00344 -209.729743 
L 191.409664 -209.72869 
L 191.815889 -209.727675 
L 192.222113 -209.726696 
L 192.628337 -209.725751 
L 193.034562 -209.724839 
L 193.440786 -209.72396 
L 193.847011 -209.723112 
L 194.253235 -209.722294 
L 194.659459 -209.721505 
L 195.065684 -209.720744 
L 195.471908 -209.72001 
L 195.878133 -209.719302 
L 196.284357 -209.718619 
L 196.690581 -209.71796 
L 197.096806 -209.717324 
L 197.50303 -209.716711 
L 197.909255 -209.71612 
L 198.315479 -209.715549 
L 198.721704 -209.714999 
L 199.127928 -209.714468 
L 199.534152 -209.713956 
L 199.940377 -209.713462 
L 200.346601 -209.712986 
L 200.752826 -209.712526 
L 201.15905 -209.712083 
L 201.565274 -209.711655 
L 201.971499 -209.711243 
L 202.377723 -209.710845 
L 202.783948 -209.710461 
L 203.190172 -209.710091 
L 203.596396 -209.709734 
L 204.002621 -209.709389 
L 204.408845 -209.709057 
L 204.81507 -209.708736 
L 205.221294 -209.708427 
L 205.627518 -209.708129 
L 206.033743 -209.707841 
L 206.439967 -209.707564 
L 206.846192 -209.707296 
L 207.252416 -209.707038 
L 207.65864 -209.706789 
L 208.064865 -209.706548 
L 208.471089 -209.706316 
L 208.877314 -209.706093 
L 209.283538 -209.705877 
L 209.689762 -209.705669 
L 210.095987 -209.705469 
L 210.502211 -209.705275 
L 210.908436 -209.705088 
L 211.31466 -209.704908 
L 211.720885 -209.704735 
L 212.127109 -209.704567 
L 212.533333 -209.704405 
L 212.939558 -209.704249 
L 213.345782 -209.704099 
L 213.752007 -209.703954 
L 214.158231 -209.703814 
L 214.564455 -209.703679 
L 214.97068 -209.703549 
L 215.376904 -209.703423 
L 215.783129 -209.703302 
L 216.189353 -209.703185 
L 216.595577 -209.703072 
L 217.001802 -209.702964 
L 217.408026 -209.702859 
L 217.814251 -209.702758 
L 218.220475 -209.70266 
L 218.626699 -209.702566 
L 219.032924 -209.702475 
L 219.439148 -209.702387 
L 219.845373 -209.702303 
L 220.251597 -209.702221 
L 220.657821 -209.702143 
L 221.064046 -209.702067 
L 221.47027 -209.701994 
L 221.876495 -209.701923 
L 222.282719 -209.701855 
L 222.688943 -209.701789 
L 223.095168 -209.701726 
L 223.501392 -209.701665 
L 223.907617 -209.701606 
L 224.313841 -209.701549 
L 224.720066 -209.701494 
L 225.12629 -209.701442 
L 225.532514 -209.701391 
L 225.938739 -209.701341 
L 226.344963 -209.701294 
L 226.751188 -209.701248 
L 227.157412 -209.701204 
L 227.563636 -209.701161 
L 227.969861 -209.70112 
L 228.376085 -209.701081 
L 228.78231 -209.701042 
L 229.188534 -209.701005 
L 229.594758 -209.70097 
L 230.000983 -209.700935 
L 230.407207 -209.700902 
L 230.813432 -209.70087 
L 231.219656 -209.70084 
L 231.62588 -209.70081 
L 232.032105 -209.700781 
L 232.438329 -209.700754 
L 232.844554 -209.700727 
L 233.250778 -209.700701 
L 233.657002 -209.700676 
L 234.063227 -209.700652 
L 234.469451 -209.700629 
L 234.875676 -209.700607 
L 235.2819 -209.700586 
L 235.688124 -209.700565 
L 236.094349 -209.700545 
L 236.500573 -209.700526 
L 236.906798 -209.700507 
L 237.313022 -209.700489 
L 237.719247 -209.700472 
L 238.125471 -209.700455 
L 238.531695 -209.700439 
L 238.93792 -209.700423 
L 239.344144 -209.700408 
L 239.750369 -209.700394 
L 240.156593 -209.70038 
L 240.562817 -209.700367 
L 240.969042 -209.700354 
L 241.375266 -209.700341 
L 241.781491 -209.700329 
L 242.187715 -209.700317 
L 242.593939 -209.700306 
L 243.000164 -209.700295 
L 243.406388 -209.700285 
L 243.812613 -209.700275 
L 244.218837 -209.700265 
L 244.625061 -209.700256 
L 245.031286 -209.700247 
L 245.43751 -209.700238 
L 245.843735 -209.700229 
L 246.249959 -209.700221 
L 246.656183 -209.700213 
L 247.062408 -209.700206 
L 247.468632 -209.700199 
L 247.874857 -209.700192 
L 248.281081 -209.700185 
L 248.687305 -209.700178 
L 249.09353 -209.700172 
L 249.499754 -209.700166 
L 249.905979 -209.70016 
L 250.312203 -209.700154 
L 250.718428 -209.700149 
L 251.124652 -209.700144 
L 251.530876 -209.700139 
L 251.937101 -209.700134 
L 252.343325 -209.700129 
L 252.74955 -209.700124 
L 253.155774 -209.70012 
L 253.561998 -209.700116 
L 253.968223 -209.700112 
L 254.374447 -209.700108 
L 254.780672 -209.700104 
L 255.186896 -209.7001 
L 255.59312 -209.700097 
L 255.999345 -209.700093 
L 256.405569 -209.70009 
L 256.811794 -209.700087 
L 257.218018 -209.700084 
L 257.624242 -209.700081 
L 258.030467 -209.700078 
L 258.436691 -209.700075 
L 258.842916 -209.700072 
L 259.24914 -209.70007 
L 259.655364 -209.700067 
L 260.061589 -209.700065 
L 260.467813 -209.700063 
L 260.874038 -209.70006 
L 261.280262 -209.700058 
L 261.686486 -209.700056 
L 262.092711 -209.700054 
L 262.498935 -209.700052 
L 262.90516 -209.700051 
L 263.311384 -209.700049 
L 263.717609 -209.700047 
L 264.123833 -209.700045 
L 264.530057 -209.700044 
L 264.936282 -209.700042 
L 265.342506 -209.700041 
L 265.748731 -209.700039 
L 266.154955 -209.700038 
L 266.561179 -209.700037 
L 266.967404 -209.700035 
L 267.373628 -209.700034 
L 267.779853 -209.700033 
L 268.186077 -209.700032 
L 268.592301 -209.70003 
L 268.998526 -209.700029 
L 269.40475 -209.700028 
L 269.810975 -209.700027 
L 270.217199 -209.700026 
L 270.623423 -209.700025 
L 271.029648 -209.700025 
L 271.435872 -209.700024 
L 271.842097 -209.700023 
L 272.248321 -209.700022 
L 272.654545 -209.700021 
L 273.06077 -209.700021 
L 273.466994 -209.70002 
L 273.873219 -209.700019 
L 274.279443 -209.700018 
L 274.685667 -209.700018 
L 275.091892 -209.700017 
L 275.498116 -209.700017 
L 275.904341 -209.700016 
L 276.310565 -209.700015 
L 276.71679 -209.700015 
L 277.123014 -209.700014 
L 277.529238 -209.700014 
L 277.935463 -209.700013 
L 278.341687 -209.700013 
L 278.747912 -209.700012 
L 279.154136 -209.700012 
L 279.56036 -209.700012 
L 279.966585 -209.700011 
L 280.372809 -209.700011 
L 280.779034 -209.70001 
L 281.185258 -209.70001 
L 281.591482 -209.70001 
L 281.997707 -209.700009 
L 282.403931 -209.700009 
L 282.810156 -209.700009 
L 283.21638 -209.700008 
L 283.622604 -209.700008 
L 284.028829 -209.700008 
L 284.435053 -209.700007 
L 284.841278 -209.700007 
L 285.247502 -209.700007 
L 285.653726 -209.700007 
L 286.059951 -209.700006 
L 286.466175 -209.700006 
L 286.8724 -209.700006 
L 287.278624 -209.700006 
L 287.684848 -209.700006 
L 288.091073 -209.700005 
L 288.497297 -209.700005 
L 288.903522 -209.700005 
L 289.309746 -209.700005 
L 289.715971 -209.700005 
L 290.122195 -209.700005 
L 290.528419 -209.700004 
L 290.934644 -209.700004 
L 291.340868 -209.700004 
L 291.747093 -209.700004 
L 292.153317 -209.700004 
L 292.559541 -209.700004 
L 292.965766 -209.700004 
L 293.37199 -209.700003 
L 293.778215 -209.700003 
L 294.184439 -209.700003 
L 294.590663 -209.700003 
L 294.996888 -209.700003 
L 295.403112 -209.700003 
L 295.809337 -209.700003 
L 296.215561 -209.700003 
L 296.621785 -209.700003 
L 297.02801 -209.700002 
L 297.434234 -209.700002 
L 297.840459 -209.700002 
L 298.246683 -209.700002 
L 298.652907 -209.700002 
L 299.059132 -209.700002 
L 299.465356 -209.700002 
L 299.871581 -209.700002 
L 300.277805 -209.700002 
L 300.684029 -209.700002 
L 301.090254 -209.700002 
L 301.496478 -209.700002 
L 301.902703 -209.700002 
L 302.308927 -209.700002 
L 302.715152 -209.700001 
L 303.121376 -209.700001 
L 303.5276 -209.700001 
L 303.933825 -209.700001 
L 304.340049 -209.700001 
L 304.746274 -209.700001 
L 305.152498 -209.700001 
L 305.558722 -209.700001 
L 305.964947 -209.700001 
L 306.371171 -209.700001 
L 306.777396 -209.700001 
L 307.18362 -209.700001 
L 307.589844 -209.700001 
L 307.996069 -209.700001 
L 308.402293 -209.700001 
L 308.808518 -209.700001 
L 309.214742 -209.700001 
L 309.620966 -209.700001 
L 310.027191 -209.700001 
L 310.433415 -209.700001 
L 310.83964 -209.700001 
L 311.245864 -209.700001 
L 311.652088 -209.700001 
L 312.058313 -209.700001 
L 312.464537 -209.700001 
L 312.870762 -209.700001 
L 313.276986 -209.700001 
L 313.68321 -209.700001 
L 314.089435 -209.700001 
L 314.495659 -209.700001 
L 314.901884 -209.700001 
L 315.308108 -209.7 
L 315.714333 -209.7 
L 316.120557 -209.7 
L 316.526781 -209.7 
L 316.933006 -209.7 
L 317.33923 -209.7 
L 317.745455 -209.7 
L 318.151679 -209.7 
L 318.557903 -209.7 
L 318.964128 -209.7 
L 319.370352 -209.7 
L 319.776577 -209.7 
L 320.182801 -209.7 
L 320.589025 -209.7 
L 320.99525 -209.7 
L 321.401474 -209.7 
L 321.807699 -209.7 
L 322.213923 -209.7 
L 322.620147 -209.7 
L 323.026372 -209.7 
L 323.432596 -209.7 
L 323.838821 -209.7 
L 324.245045 -209.7 
L 324.651269 -209.7 
L 325.057494 -209.7 
L 325.463718 -209.7 
L 325.869943 -209.7 
L 326.276167 -209.7 
L 326.682391 -209.7 
L 327.088616 -209.7 
L 327.49484 -209.7 
L 327.901065 -209.7 
L 328.307289 -209.7 
L 328.713514 -209.7 
L 329.119738 -209.7 
L 329.525962 -209.7 
L 329.932187 -209.7 
L 330.338411 -209.7 
L 330.744636 -209.7 
L 331.15086 -209.7 
L 331.557084 -209.7 
L 331.963309 -209.7 
L 332.369533 -209.7 
L 332.775758 -209.7 
L 333.181982 -209.7 
L 333.588206 -209.7 
L 333.994431 -209.7 
L 334.400655 -209.7 
L 334.80688 -209.7 
L 335.213104 -209.7 
L 335.619328 -209.7 
L 336.025553 -209.7 
L 336.431777 -209.7 
L 336.838002 -209.7 
L 337.244226 -209.7 
L 337.65045 -209.7 
L 338.056675 -209.7 
L 338.462899 -209.7 
L 338.869124 -209.7 
L 339.275348 -209.7 
L 339.681572 -209.7 
L 340.087797 -209.7 
L 340.494021 -209.7 
L 340.900246 -209.7 
L 341.30647 -209.7 
L 341.712695 -209.7 
L 342.118919 -209.7 
L 342.525143 -209.7 
L 342.931368 -209.7 
L 343.337592 -209.7 
L 343.743817 -209.7 
L 344.150041 -209.7 
L 344.556265 -209.7 
L 344.96249 -209.7 
L 345.368714 -209.7 
L 345.774939 -209.7 
L 346.181163 -209.7 
L 346.587387 -209.7 
L 346.993612 -209.7 
L 347.399836 -209.7 
L 347.806061 -209.7 
L 348.212285 -209.7 
L 348.618509 -209.7 
L 349.024734 -209.7 
L 349.430958 -209.7 
L 349.837183 -209.7 
L 350.243407 -209.7 
L 350.649631 -209.7 
L 351.055856 -209.7 
L 351.46208 -209.7 
L 351.868305 -209.7 
L 352.274529 -209.7 
L 352.680753 -209.7 
L 353.086978 -209.7 
L 353.493202 -209.7 
L 353.899427 -209.7 
L 354.305651 -209.7 
L 354.711876 -209.7 
L 355.1181 -209.7 
L 355.524324 -209.7 
L 355.930549 -209.7 
L 356.336773 -209.7 
L 356.742998 -209.7 
L 357.149222 -209.7 
L 357.555446 -209.7 
L 357.961671 -209.7 
L 358.367895 -209.7 
L 358.77412 -209.7 
L 359.180344 -209.7 
L 359.586568 -209.7 
L 359.992793 -209.7 
L 360.399017 -209.7 
L 360.805242 -209.7 
L 361.211466 -209.7 
L 361.61769 -209.7 
L 362.023915 -209.7 
L 362.430139 -209.7 
L 362.836364 -209.7 
L 363.242588 -209.7 
L 363.648812 -209.7 
L 364.055037 -209.7 
L 364.461261 -209.7 
L 364.867486 -209.7 
L 365.27371 -209.7 
L 365.679934 -209.7 
L 366.086159 -209.7 
L 366.492383 -209.7 
L 366.898608 -209.7 
L 367.304832 -209.7 
L 367.711057 -209.7 
L 368.117281 -209.7 
L 368.523505 -209.7 
L 368.92973 -209.7 
L 369.335954 -209.7 
L 369.742179 -209.7 
L 370.148403 -209.7 
L 370.554627 -209.7 
L 370.960852 -209.7 
L 371.367076 -209.7 
L 371.773301 -209.7 
L 372.179525 -209.7 
L 372.585749 -209.7 
L 372.991974 -209.7 
L 373.398198 -209.7 
L 373.804423 -209.7 
L 374.210647 -209.7 
L 374.616871 -209.7 
L 375.023096 -209.7 
L 375.42932 -209.7 
L 375.835545 -209.7 
L 376.241769 -209.7 
L 376.647993 -209.7 
L 377.054218 -209.7 
L 377.460442 -209.7 
L 377.866667 -209.7 
L 378.272891 -209.7 
L 378.679115 -209.7 
L 379.08534 -209.7 
L 379.491564 -209.7 
L 379.897789 -209.7 
L 380.304013 -209.7 
L 380.710238 -209.7 
L 381.116462 -209.7 
L 381.522686 -209.7 
L 381.928911 -209.7 
L 382.335135 -209.7 
L 382.74136 -209.7 
L 383.147584 -209.7 
L 383.553808 -209.7 
L 383.960033 -209.7 
L 384.366257 -209.7 
L 384.772482 -209.7 
L 385.178706 -209.7 
L 385.58493 -209.7 
L 385.991155 -209.7 
L 386.397379 -209.7 
L 386.803604 -209.7 
L 387.209828 -209.7 
L 387.616052 -209.7 
L 388.022277 -209.7 
L 388.428501 -209.7 
L 388.834726 -209.7 
L 389.24095 -209.7 
L 389.647174 -209.7 
L 390.053399 -209.7 
L 390.459623 -209.7 
L 390.865848 -209.7 
L 391.272072 -209.7 
L 391.678296 -209.7 
L 392.084521 -209.7 
L 392.490745 -209.7 
L 392.89697 -209.7 
L 393.303194 -209.7 
L 393.709419 -209.7 
L 394.115643 -209.7 
L 394.521867 -209.7 
L 394.928092 -209.7 
L 395.334316 -209.7 
L 395.740541 -209.7 
L 396.146765 -209.7 
L 396.552989 -209.7 
L 396.959214 -209.7 
L 397.365438 -209.7 
L 397.771663 -209.7 
L 398.177887 -209.7 
L 398.584111 -209.7 
L 398.990336 -209.7 
L 399.39656 -209.7 
L 399.802785 -209.7 
L 400.209009 -209.7 
L 400.615233 -209.7 
L 401.021458 -209.7 
L 401.427682 -209.7 
L 401.833907 -209.7 
L 402.240131 -209.7 
L 402.646355 -209.7 
L 403.05258 -209.7 
L 403.458804 -209.7 
L 403.865029 -209.7 
L 404.271253 -209.7 
L 404.677477 -209.7 
L 405.083702 -209.7 
L 405.489926 -209.7 
L 405.896151 -209.7 
L 406.302375 -209.7 
L 406.7086 -209.7 
L 407.114824 -209.7 
L 407.521048 -209.7 
L 407.927273 -209.7 
L 408.333497 -209.7 
L 408.739722 -209.7 
L 409.145946 -209.7 
L 409.55217 -209.7 
L 409.958395 -209.7 
L 410.364619 -209.7 
L 410.770844 -209.7 
L 411.177068 -209.7 
L 411.583292 -209.7 
L 411.989517 -209.7 
L 412.395741 -209.7 
L 412.801966 -209.7 
L 413.20819 -209.7 
L 413.614414 -209.7 
L 414.020639 -209.7 
L 414.426863 -209.7 
L 414.833088 -209.7 
L 415.239312 -209.7 
L 415.645536 -209.7 
L 416.051761 -209.7 
L 416.457985 -209.7 
L 416.86421 -209.7 
L 417.270434 -209.7 
L 417.676658 -209.7 
L 418.082883 -209.7 
L 418.489107 -209.7 
L 418.895332 -209.7 
L 419.301556 -209.7 
L 419.707781 -209.7 
L 420.114005 -209.7 
L 420.520229 -209.7 
L 420.926454 -209.7 
L 421.332678 -209.7 
L 421.738903 -209.7 
L 422.145127 -209.7 
L 422.551351 -209.7 
L 422.957576 -209.7 
L 423.3638 -209.7 
L 423.770025 -209.7 
L 424.176249 -209.7 
L 424.582473 -209.7 
L 424.988698 -209.7 
L 425.394922 -209.7 
L 425.801147 -209.7 
L 426.207371 -209.7 
L 426.613595 -209.7 
L 427.01982 -209.7 
L 427.426044 -209.7 
L 427.832269 -209.7 
L 428.238493 -209.7 
L 428.644717 -209.7 
L 429.050942 -209.7 
L 429.457166 -209.7 
L 429.863391 -209.7 
L 430.269615 -209.7 
L 430.675839 -209.7 
L 431.082064 -209.7 
L 431.488288 -209.7 
L 431.894513 -209.7 
L 432.300737 -209.7 
L 432.706962 -209.7 
L 433.113186 -209.7 
L 433.51941 -209.7 
L 433.925635 -209.7 
L 434.331859 -209.7 
L 434.738084 -209.7 
L 435.144308 -209.7 
L 435.550532 -209.7 
L 435.956757 -209.7 
L 436.362981 -209.7 
L 436.769206 -209.7 
L 437.17543 -209.7 
L 437.581654 -209.7 
L 437.987879 -209.7 
L 438.394103 -209.7 
L 438.800328 -209.7 
L 439.206552 -209.7 
L 439.612776 -209.7 
L 440.019001 -209.7 
L 440.425225 -209.7 
L 440.83145 -209.7 
L 441.237674 -209.7 
L 441.643898 -209.7 
L 442.050123 -209.7 
L 442.456347 -209.7 
L 442.862572 -209.7 
L 443.268796 -209.7 
L 443.67502 -209.7 
L 444.081245 -209.7 
L 444.487469 -209.7 
L 444.893694 -209.7 
L 445.299918 -209.7 
L 445.706143 -209.7 
L 446.112367 -209.7 
L 446.518591 -209.7 
L 446.924816 -209.7 
L 447.33104 -209.7 
L 447.737265 -209.7 
L 448.143489 -209.7 
L 448.549713 -209.7 
L 448.955938 -209.7 
L 449.362162 -209.7 
L 449.768387 -209.7 
L 450.174611 -209.7 
L 450.580835 -209.7 
L 450.98706 -209.7 
L 451.393284 -209.7 
L 451.799509 -209.7 
L 452.205733 -209.7 
L 452.611957 -209.7 
L 453.018182 -209.7 
L 453.424406 -209.7 
L 453.830631 -209.7 
L 454.236855 -209.7 
L 454.643079 -209.7 
L 455.049304 -209.7 
L 455.455528 -209.7 
L 455.861753 -209.7 
L 456.267977 -209.7 
L 456.674201 -209.7 
L 457.080426 -209.7 
L 457.48665 -209.7 
L 457.892875 -209.7 
L 458.299099 -209.7 
L 458.705324 -209.7 
L 459.111548 -209.7 
L 459.517772 -209.7 
L 459.923997 -209.7 
L 460.330221 -209.7 
L 460.736446 -209.7 
L 461.14267 -209.7 
L 461.548894 -209.7 
L 461.955119 -209.7 
L 462.361343 -209.7 
L 462.767568 -209.7 
L 463.173792 -209.7 
L 463.580016 -209.7 
L 463.986241 -209.7 
L 464.392465 -209.7 
L 464.79869 -209.7 
L 465.204914 -209.7 
L 465.611138 -209.7 
L 466.017363 -209.7 
L 466.423587 -209.7 
L 466.829812 -209.7 
L 467.236036 -209.7 
L 467.64226 -209.7 
L 468.048485 -209.7 
L 468.454709 -209.7 
L 468.860934 -209.7 
L 469.267158 -209.7 
L 469.673382 -209.7 
L 470.079607 -209.7 
L 470.485831 -209.7 
L 470.892056 -209.7 
L 471.29828 -209.7 
L 471.704505 -209.7 
L 472.110729 -209.7 
L 472.516953 -209.7 
L 472.923178 -209.7 
L 473.329402 -209.7 
L 473.735627 -209.7 
L 474.141851 -209.7 
L 474.548075 -209.7 
L 474.9543 -209.7 
L 475.360524 -209.7 
L 475.766749 -209.7 
L 476.172973 -209.7 
L 476.579197 -209.7 
L 476.985422 -209.7 
L 477.391646 -209.7 
L 477.797871 -209.7 
L 478.204095 -209.7 
L 478.610319 -209.7 
L 479.016544 -209.7 
L 479.422768 -209.7 
L 479.828993 -209.7 
L 480.235217 -209.7 
L 480.641441 -209.7 
L 481.047666 -209.7 
L 481.45389 -209.7 
L 481.860115 -209.7 
L 482.266339 -209.7 
L 482.672563 -209.7 
L 483.078788 -209.7 
L 483.485012 -209.7 
L 483.891237 -209.7 
L 484.297461 -209.7 
L 484.703686 -209.7 
L 485.10991 -209.7 
L 485.516134 -209.7 
L 485.922359 -209.7 
L 486.328583 -209.7 
L 486.734808 -209.7 
L 487.141032 -209.7 
L 487.547256 -209.7 
L 487.953481 -209.7 
L 488.359705 -209.7 
L 488.76593 -209.7 
L 489.172154 -209.7 
L 489.578378 -209.7 
L 489.984603 -209.7 
L 490.390827 -209.7 
L 490.797052 -209.7 
L 491.203276 -209.7 
L 491.6095 -209.7 
L 492.015725 -209.7 
L 492.421949 -209.7 
L 492.828174 -209.7 
L 493.234398 -209.7 
L 493.640622 -209.7 
L 494.046847 -209.7 
L 494.453071 -209.7 
L 494.859296 -209.7 
L 495.26552 -209.7 
L 495.671744 -209.7 
L 496.077969 -209.7 
L 496.484193 -209.7 
L 496.890418 -209.7 
L 497.296642 -209.7 
L 497.702867 -209.7 
L 498.109091 -209.7 
L 498.109091 -52.2 
L 498.109091 -52.2 
L 497.702867 -52.2 
L 497.296642 -52.2 
L 496.890418 -52.2 
L 496.484193 -52.2 
L 496.077969 -52.2 
L 495.671744 -52.2 
L 495.26552 -52.2 
L 494.859296 -52.2 
L 494.453071 -52.2 
L 494.046847 -52.2 
L 493.640622 -52.2 
L 493.234398 -52.2 
L 492.828174 -52.2 
L 492.421949 -52.2 
L 492.015725 -52.2 
L 491.6095 -52.2 
L 491.203276 -52.2 
L 490.797052 -52.2 
L 490.390827 -52.2 
L 489.984603 -52.2 
L 489.578378 -52.2 
L 489.172154 -52.2 
L 488.76593 -52.2 
L 488.359705 -52.2 
L 487.953481 -52.2 
L 487.547256 -52.2 
L 487.141032 -52.2 
L 486.734808 -52.2 
L 486.328583 -52.2 
L 485.922359 -52.2 
L 485.516134 -52.2 
L 485.10991 -52.2 
L 484.703686 -52.2 
L 484.297461 -52.2 
L 483.891237 -52.2 
L 483.485012 -52.2 
L 483.078788 -52.2 
L 482.672563 -52.2 
L 482.266339 -52.2 
L 481.860115 -52.2 
L 481.45389 -52.2 
L 481.047666 -52.2 
L 480.641441 -52.2 
L 480.235217 -52.2 
L 479.828993 -52.2 
L 479.422768 -52.2 
L 479.016544 -52.2 
L 478.610319 -52.2 
L 478.204095 -52.2 
L 477.797871 -52.2 
L 477.391646 -52.2 
L 476.985422 -52.2 
L 476.579197 -52.2 
L 476.172973 -52.2 
L 475.766749 -52.2 
L 475.360524 -52.2 
L 474.9543 -52.2 
L 474.548075 -52.2 
L 474.141851 -52.2 
L 473.735627 -52.2 
L 473.329402 -52.2 
L 472.923178 -52.2 
L 472.516953 -52.2 
L 472.110729 -52.2 
L 471.704505 -52.2 
L 471.29828 -52.2 
L 470.892056 -52.2 
L 470.485831 -52.2 
L 470.079607 -52.2 
L 469.673382 -52.2 
L 469.267158 -52.2 
L 468.860934 -52.2 
L 468.454709 -52.2 
L 468.048485 -52.2 
L 467.64226 -52.2 
L 467.236036 -52.2 
L 466.829812 -52.2 
L 466.423587 -52.2 
L 466.017363 -52.2 
L 465.611138 -52.2 
L 465.204914 -52.2 
L 464.79869 -52.2 
L 464.392465 -52.2 
L 463.986241 -52.2 
L 463.580016 -52.2 
L 463.173792 -52.2 
L 462.767568 -52.2 
L 462.361343 -52.2 
L 461.955119 -52.2 
L 461.548894 -52.2 
L 461.14267 -52.2 
L 460.736446 -52.2 
L 460.330221 -52.2 
L 459.923997 -52.2 
L 459.517772 -52.2 
L 459.111548 -52.2 
L 458.705324 -52.2 
L 458.299099 -52.2 
L 457.892875 -52.2 
L 457.48665 -52.2 
L 457.080426 -52.2 
L 456.674201 -52.2 
L 456.267977 -52.2 
L 455.861753 -52.2 
L 455.455528 -52.2 
L 455.049304 -52.2 
L 454.643079 -52.2 
L 454.236855 -52.2 
L 453.830631 -52.2 
L 453.424406 -52.2 
L 453.018182 -52.2 
L 452.611957 -52.2 
L 452.205733 -52.2 
L 451.799509 -52.2 
L 451.393284 -52.2 
L 450.98706 -52.2 
L 450.580835 -52.2 
L 450.174611 -52.2 
L 449.768387 -52.2 
L 449.362162 -52.2 
L 448.955938 -52.2 
L 448.549713 -52.2 
L 448.143489 -52.2 
L 447.737265 -52.2 
L 447.33104 -52.2 
L 446.924816 -52.2 
L 446.518591 -52.2 
L 446.112367 -52.2 
L 445.706143 -52.2 
L 445.299918 -52.2 
L 444.893694 -52.2 
L 444.487469 -52.2 
L 444.081245 -52.2 
L 443.67502 -52.2 
L 443.268796 -52.2 
L 442.862572 -52.2 
L 442.456347 -52.2 
L 442.050123 -52.2 
L 441.643898 -52.2 
L 441.237674 -52.2 
L 440.83145 -52.2 
L 440.425225 -52.2 
L 440.019001 -52.2 
L 439.612776 -52.2 
L 439.206552 -52.2 
L 438.800328 -52.2 
L 438.394103 -52.2 
L 437.987879 -52.2 
L 437.581654 -52.2 
L 437.17543 -52.2 
L 436.769206 -52.2 
L 436.362981 -52.2 
L 435.956757 -52.2 
L 435.550532 -52.2 
L 435.144308 -52.2 
L 434.738084 -52.2 
L 434.331859 -52.2 
L 433.925635 -52.2 
L 433.51941 -52.2 
L 433.113186 -52.2 
L 432.706962 -52.2 
L 432.300737 -52.2 
L 431.894513 -52.2 
L 431.488288 -52.2 
L 431.082064 -52.2 
L 430.675839 -52.2 
L 430.269615 -52.2 
L 429.863391 -52.2 
L 429.457166 -52.2 
L 429.050942 -52.2 
L 428.644717 -52.2 
L 428.238493 -52.2 
L 427.832269 -52.2 
L 427.426044 -52.2 
L 427.01982 -52.2 
L 426.613595 -52.2 
L 426.207371 -52.2 
L 425.801147 -52.2 
L 425.394922 -52.2 
L 424.988698 -52.2 
L 424.582473 -52.2 
L 424.176249 -52.2 
L 423.770025 -52.2 
L 423.3638 -52.2 
L 422.957576 -52.2 
L 422.551351 -52.2 
L 422.145127 -52.2 
L 421.738903 -52.2 
L 421.332678 -52.2 
L 420.926454 -52.2 
L 420.520229 -52.2 
L 420.114005 -52.2 
L 419.707781 -52.2 
L 419.301556 -52.2 
L 418.895332 -52.2 
L 418.489107 -52.2 
L 418.082883 -52.2 
L 417.676658 -52.2 
L 417.270434 -52.2 
L 416.86421 -52.2 
L 416.457985 -52.2 
L 416.051761 -52.2 
L 415.645536 -52.2 
L 415.239312 -52.2 
L 414.833088 -52.2 
L 414.426863 -52.2 
L 414.020639 -52.2 
L 413.614414 -52.2 
L 413.20819 -52.2 
L 412.801966 -52.2 
L 412.395741 -52.2 
L 411.989517 -52.2 
L 411.583292 -52.2 
L 411.177068 -52.2 
L 410.770844 -52.2 
L 410.364619 -52.2 
L 409.958395 -52.2 
L 409.55217 -52.2 
L 409.145946 -52.2 
L 408.739722 -52.2 
L 408.333497 -52.2 
L 407.927273 -52.2 
L 407.521048 -52.2 
L 407.114824 -52.2 
L 406.7086 -52.2 
L 406.302375 -52.2 
L 405.896151 -52.2 
L 405.489926 -52.2 
L 405.083702 -52.2 
L 404.677477 -52.2 
L 404.271253 -52.2 
L 403.865029 -52.2 
L 403.458804 -52.2 
L 403.05258 -52.2 
L 402.646355 -52.2 
L 402.240131 -52.2 
L 401.833907 -52.2 
L 401.427682 -52.2 
L 401.021458 -52.2 
L 400.615233 -52.2 
L 400.209009 -52.2 
L 399.802785 -52.2 
L 399.39656 -52.2 
L 398.990336 -52.2 
L 398.584111 -52.2 
L 398.177887 -52.2 
L 397.771663 -52.2 
L 397.365438 -52.2 
L 396.959214 -52.2 
L 396.552989 -52.2 
L 396.146765 -52.2 
L 395.740541 -52.2 
L 395.334316 -52.2 
L 394.928092 -52.2 
L 394.521867 -52.2 
L 394.115643 -52.2 
L 393.709419 -52.2 
L 393.303194 -52.2 
L 392.89697 -52.2 
L 392.490745 -52.2 
L 392.084521 -52.2 
L 391.678296 -52.2 
L 391.272072 -52.2 
L 390.865848 -52.2 
L 390.459623 -52.2 
L 390.053399 -52.2 
L 389.647174 -52.2 
L 389.24095 -52.2 
L 388.834726 -52.2 
L 388.428501 -52.2 
L 388.022277 -52.2 
L 387.616052 -52.2 
L 387.209828 -52.2 
L 386.803604 -52.2 
L 386.397379 -52.2 
L 385.991155 -52.2 
L 385.58493 -52.2 
L 385.178706 -52.2 
L 384.772482 -52.2 
L 384.366257 -52.2 
L 383.960033 -52.2 
L 383.553808 -52.2 
L 383.147584 -52.2 
L 382.74136 -52.2 
L 382.335135 -52.2 
L 381.928911 -52.2 
L 381.522686 -52.2 
L 381.116462 -52.2 
L 380.710238 -52.2 
L 380.304013 -52.2 
L 379.897789 -52.2 
L 379.491564 -52.2 
L 379.08534 -52.2 
L 378.679115 -52.2 
L 378.272891 -52.2 
L 377.866667 -52.2 
L 377.460442 -52.2 
L 377.054218 -52.2 
L 376.647993 -52.2 
L 376.241769 -52.2 
L 375.835545 -52.2 
L 375.42932 -52.2 
L 375.023096 -52.2 
L 374.616871 -52.2 
L 374.210647 -52.2 
L 373.804423 -52.2 
L 373.398198 -52.2 
L 372.991974 -52.2 
L 372.585749 -52.2 
L 372.179525 -52.2 
L 371.773301 -52.2 
L 371.367076 -52.2 
L 370.960852 -52.2 
L 370.554627 -52.2 
L 370.148403 -52.2 
L 369.742179 -52.2 
L 369.335954 -52.2 
L 368.92973 -52.2 
L 368.523505 -52.2 
L 368.117281 -52.2 
L 367.711057 -52.2 
L 367.304832 -52.2 
L 366.898608 -52.2 
L 366.492383 -52.2 
L 366.086159 -52.2 
L 365.679934 -52.2 
L 365.27371 -52.2 
L 364.867486 -52.2 
L 364.461261 -52.2 
L 364.055037 -52.2 
L 363.648812 -52.2 
L 363.242588 -52.2 
L 362.836364 -52.2 
L 362.430139 -52.2 
L 362.023915 -52.2 
L 361.61769 -52.2 
L 361.211466 -52.2 
L 360.805242 -52.2 
L 360.399017 -52.2 
L 359.992793 -52.2 
L 359.586568 -52.2 
L 359.180344 -52.2 
L 358.77412 -52.2 
L 358.367895 -52.2 
L 357.961671 -52.2 
L 357.555446 -52.2 
L 357.149222 -52.2 
L 356.742998 -52.2 
L 356.336773 -52.2 
L 355.930549 -52.2 
L 355.524324 -52.2 
L 355.1181 -52.2 
L 354.711876 -52.2 
L 354.305651 -52.2 
L 353.899427 -52.2 
L 353.493202 -52.2 
L 353.086978 -52.2 
L 352.680753 -52.2 
L 352.274529 -52.2 
L 351.868305 -52.2 
L 351.46208 -52.2 
L 351.055856 -52.2 
L 350.649631 -52.2 
L 350.243407 -52.2 
L 349.837183 -52.2 
L 349.430958 -52.2 
L 349.024734 -52.2 
L 348.618509 -52.2 
L 348.212285 -52.2 
L 347.806061 -52.2 
L 347.399836 -52.2 
L 346.993612 -52.2 
L 346.587387 -52.2 
L 346.181163 -52.2 
L 345.774939 -52.2 
L 345.368714 -52.2 
L 344.96249 -52.2 
L 344.556265 -52.2 
L 344.150041 -52.2 
L 343.743817 -52.2 
L 343.337592 -52.2 
L 342.931368 -52.2 
L 342.525143 -52.2 
L 342.118919 -52.2 
L 341.712695 -52.2 
L 341.30647 -52.2 
L 340.900246 -52.2 
L 340.494021 -52.2 
L 340.087797 -52.2 
L 339.681572 -52.2 
L 339.275348 -52.2 
L 338.869124 -52.2 
L 338.462899 -52.2 
L 338.056675 -52.2 
L 337.65045 -52.2 
L 337.244226 -52.2 
L 336.838002 -52.2 
L 336.431777 -52.2 
L 336.025553 -52.2 
L 335.619328 -52.2 
L 335.213104 -52.2 
L 334.80688 -52.2 
L 334.400655 -52.2 
L 333.994431 -52.2 
L 333.588206 -52.2 
L 333.181982 -52.2 
L 332.775758 -52.2 
L 332.369533 -52.2 
L 331.963309 -52.2 
L 331.557084 -52.2 
L 331.15086 -52.2 
L 330.744636 -52.2 
L 330.338411 -52.2 
L 329.932187 -52.2 
L 329.525962 -52.2 
L 329.119738 -52.2 
L 328.713514 -52.2 
L 328.307289 -52.2 
L 327.901065 -52.2 
L 327.49484 -52.2 
L 327.088616 -52.2 
L 326.682391 -52.2 
L 326.276167 -52.2 
L 325.869943 -52.2 
L 325.463718 -52.2 
L 325.057494 -52.2 
L 324.651269 -52.2 
L 324.245045 -52.2 
L 323.838821 -52.2 
L 323.432596 -52.2 
L 323.026372 -52.2 
L 322.620147 -52.2 
L 322.213923 -52.2 
L 321.807699 -52.2 
L 321.401474 -52.2 
L 320.99525 -52.2 
L 320.589025 -52.2 
L 320.182801 -52.2 
L 319.776577 -52.2 
L 319.370352 -52.2 
L 318.964128 -52.2 
L 318.557903 -52.2 
L 318.151679 -52.2 
L 317.745455 -52.2 
L 317.33923 -52.2 
L 316.933006 -52.2 
L 316.526781 -52.2 
L 316.120557 -52.2 
L 315.714333 -52.2 
L 315.308108 -52.2 
L 314.901884 -52.2 
L 314.495659 -52.2 
L 314.089435 -52.2 
L 313.68321 -52.2 
L 313.276986 -52.2 
L 312.870762 -52.2 
L 312.464537 -52.2 
L 312.058313 -52.2 
L 311.652088 -52.2 
L 311.245864 -52.2 
L 310.83964 -52.2 
L 310.433415 -52.2 
L 310.027191 -52.2 
L 309.620966 -52.2 
L 309.214742 -52.2 
L 308.808518 -52.2 
L 308.402293 -52.2 
L 307.996069 -52.2 
L 307.589844 -52.2 
L 307.18362 -52.2 
L 306.777396 -52.2 
L 306.371171 -52.2 
L 305.964947 -52.2 
L 305.558722 -52.2 
L 305.152498 -52.2 
L 304.746274 -52.2 
L 304.340049 -52.2 
L 303.933825 -52.2 
L 303.5276 -52.2 
L 303.121376 -52.2 
L 302.715152 -52.2 
L 302.308927 -52.2 
L 301.902703 -52.2 
L 301.496478 -52.2 
L 301.090254 -52.2 
L 300.684029 -52.2 
L 300.277805 -52.2 
L 299.871581 -52.2 
L 299.465356 -52.2 
L 299.059132 -52.2 
L 298.652907 -52.2 
L 298.246683 -52.2 
L 297.840459 -52.2 
L 297.434234 -52.2 
L 297.02801 -52.2 
L 296.621785 -52.2 
L 296.215561 -52.2 
L 295.809337 -52.2 
L 295.403112 -52.2 
L 294.996888 -52.2 
L 294.590663 -52.2 
L 294.184439 -52.2 
L 293.778215 -52.2 
L 293.37199 -52.2 
L 292.965766 -52.2 
L 292.559541 -52.2 
L 292.153317 -52.2 
L 291.747093 -52.2 
L 291.340868 -52.2 
L 290.934644 -52.2 
L 290.528419 -52.2 
L 290.122195 -52.2 
L 289.715971 -52.2 
L 289.309746 -52.2 
L 288.903522 -52.2 
L 288.497297 -52.2 
L 288.091073 -52.2 
L 287.684848 -52.2 
L 287.278624 -52.2 
L 286.8724 -52.2 
L 286.466175 -52.2 
L 286.059951 -52.2 
L 285.653726 -52.2 
L 285.247502 -52.2 
L 284.841278 -52.2 
L 284.435053 -52.2 
L 284.028829 -52.2 
L 283.622604 -52.2 
L 283.21638 -52.2 
L 282.810156 -52.2 
L 282.403931 -52.2 
L 281.997707 -52.2 
L 281.591482 -52.2 
L 281.185258 -52.2 
L 280.779034 -52.2 
L 280.372809 -52.2 
L 279.966585 -52.2 
L 279.56036 -52.2 
L 279.154136 -52.2 
L 278.747912 -52.2 
L 278.341687 -52.2 
L 277.935463 -52.2 
L 277.529238 -52.2 
L 277.123014 -52.2 
L 276.71679 -52.2 
L 276.310565 -52.2 
L 275.904341 -52.2 
L 275.498116 -52.2 
L 275.091892 -52.2 
L 274.685667 -52.2 
L 274.279443 -52.2 
L 273.873219 -52.2 
L 273.466994 -52.2 
L 273.06077 -52.2 
L 272.654545 -52.2 
L 272.248321 -52.2 
L 271.842097 -52.2 
L 271.435872 -52.2 
L 271.029648 -52.2 
L 270.623423 -52.2 
L 270.217199 -52.2 
L 269.810975 -52.2 
L 269.40475 -52.2 
L 268.998526 -52.2 
L 268.592301 -52.2 
L 268.186077 -52.2 
L 267.779853 -52.2 
L 267.373628 -52.2 
L 266.967404 -52.2 
L 266.561179 -52.2 
L 266.154955 -52.2 
L 265.748731 -52.2 
L 265.342506 -52.2 
L 264.936282 -52.2 
L 264.530057 -52.2 
L 264.123833 -52.2 
L 263.717609 -52.2 
L 263.311384 -52.2 
L 262.90516 -52.2 
L 262.498935 -52.2 
L 262.092711 -52.2 
L 261.686486 -52.2 
L 261.280262 -52.2 
L 260.874038 -52.2 
L 260.467813 -52.2 
L 260.061589 -52.2 
L 259.655364 -52.2 
L 259.24914 -52.2 
L 258.842916 -52.2 
L 258.436691 -52.2 
L 258.030467 -52.2 
L 257.624242 -52.2 
L 257.218018 -52.2 
L 256.811794 -52.2 
L 256.405569 -52.2 
L 255.999345 -52.2 
L 255.59312 -52.2 
L 255.186896 -52.2 
L 254.780672 -52.2 
L 254.374447 -52.2 
L 253.968223 -52.2 
L 253.561998 -52.2 
L 253.155774 -52.2 
L 252.74955 -52.2 
L 252.343325 -52.2 
L 251.937101 -52.2 
L 251.530876 -52.2 
L 251.124652 -52.2 
L 250.718428 -52.2 
L 250.312203 -52.2 
L 249.905979 -52.2 
L 249.499754 -52.2 
L 249.09353 -52.2 
L 248.687305 -52.2 
L 248.281081 -52.2 
L 247.874857 -52.2 
L 247.468632 -52.2 
L 247.062408 -52.2 
L 246.656183 -52.2 
L 246.249959 -52.2 
L 245.843735 -52.2 
L 245.43751 -52.2 
L 245.031286 -52.2 
L 244.625061 -52.2 
L 244.218837 -52.2 
L 243.812613 -52.2 
L 243.406388 -52.2 
L 243.000164 -52.2 
L 242.593939 -52.2 
L 242.187715 -52.2 
L 241.781491 -52.2 
L 241.375266 -52.2 
L 240.969042 -52.2 
L 240.562817 -52.2 
L 240.156593 -52.2 
L 239.750369 -52.2 
L 239.344144 -52.2 
L 238.93792 -52.2 
L 238.531695 -52.2 
L 238.125471 -52.2 
L 237.719247 -52.2 
L 237.313022 -52.2 
L 236.906798 -52.2 
L 236.500573 -52.2 
L 236.094349 -52.2 
L 235.688124 -52.2 
L 235.2819 -52.2 
L 234.875676 -52.2 
L 234.469451 -52.2 
L 234.063227 -52.2 
L 233.657002 -52.2 
L 233.250778 -52.2 
L 232.844554 -52.2 
L 232.438329 -52.2 
L 232.032105 -52.2 
L 231.62588 -52.2 
L 231.219656 -52.2 
L 230.813432 -52.2 
L 230.407207 -52.2 
L 230.000983 -52.2 
L 229.594758 -52.2 
L 229.188534 -52.2 
L 228.78231 -52.2 
L 228.376085 -52.2 
L 227.969861 -52.2 
L 227.563636 -52.2 
L 227.157412 -52.2 
L 226.751188 -52.2 
L 226.344963 -52.2 
L 225.938739 -52.2 
L 225.532514 -52.2 
L 225.12629 -52.2 
L 224.720066 -52.2 
L 224.313841 -52.2 
L 223.907617 -52.2 
L 223.501392 -52.2 
L 223.095168 -52.2 
L 222.688943 -52.2 
L 222.282719 -52.2 
L 221.876495 -52.2 
L 221.47027 -52.2 
L 221.064046 -52.2 
L 220.657821 -52.2 
L 220.251597 -52.2 
L 219.845373 -52.2 
L 219.439148 -52.2 
L 219.032924 -52.2 
L 218.626699 -52.2 
L 218.220475 -52.2 
L 217.814251 -52.2 
L 217.408026 -52.2 
L 217.001802 -52.2 
L 216.595577 -52.2 
L 216.189353 -52.2 
L 215.783129 -52.2 
L 215.376904 -52.2 
L 214.97068 -52.2 
L 214.564455 -52.2 
L 214.158231 -52.2 
L 213.752007 -52.2 
L 213.345782 -52.2 
L 212.939558 -52.2 
L 212.533333 -52.2 
L 212.127109 -52.2 
L 211.720885 -52.2 
L 211.31466 -52.2 
L 210.908436 -52.2 
L 210.502211 -52.2 
L 210.095987 -52.2 
L 209.689762 -52.2 
L 209.283538 -52.2 
L 208.877314 -52.2 
L 208.471089 -52.2 
L 208.064865 -52.2 
L 207.65864 -52.2 
L 207.252416 -52.2 
L 206.846192 -52.2 
L 206.439967 -52.2 
L 206.033743 -52.2 
L 205.627518 -52.2 
L 205.221294 -52.2 
L 204.81507 -52.2 
L 204.408845 -52.2 
L 204.002621 -52.2 
L 203.596396 -52.2 
L 203.190172 -52.2 
L 202.783948 -52.2 
L 202.377723 -52.2 
L 201.971499 -52.2 
L 201.565274 -52.2 
L 201.15905 -52.2 
L 200.752826 -52.2 
L 200.346601 -52.2 
L 199.940377 -52.2 
L 199.534152 -52.2 
L 199.127928 -52.2 
L 198.721704 -52.2 
L 198.315479 -52.2 
L 197.909255 -52.2 
L 197.50303 -52.2 
L 197.096806 -52.2 
L 196.690581 -52.2 
L 196.284357 -52.2 
L 195.878133 -52.2 
L 195.471908 -52.2 
L 195.065684 -52.2 
L 194.659459 -52.2 
L 194.253235 -52.2 
L 193.847011 -52.2 
L 193.440786 -52.2 
L 193.034562 -52.2 
L 192.628337 -52.2 
L 192.222113 -52.2 
L 191.815889 -52.2 
L 191.409664 -52.2 
L 191.00344 -52.2 
L 190.597215 -52.2 
L 190.190991 -52.2 
L 189.784767 -52.2 
L 189.378542 -52.2 
L 188.972318 -52.2 
L 188.566093 -52.2 
L 188.159869 -52.2 
L 187.753645 -52.2 
L 187.34742 -52.2 
L 186.941196 -52.2 
L 186.534971 -52.2 
L 186.128747 -52.2 
L 185.722523 -52.2 
L 185.316298 -52.2 
L 184.910074 -52.2 
L 184.503849 -52.2 
L 184.097625 -52.2 
L 183.6914 -52.2 
L 183.285176 -52.2 
L 182.878952 -52.2 
L 182.472727 -52.2 
L 182.066503 -52.2 
L 181.660278 -52.2 
L 181.254054 -52.2 
L 180.84783 -52.2 
L 180.441605 -52.2 
L 180.035381 -52.2 
L 179.629156 -52.2 
L 179.222932 -52.2 
L 178.816708 -52.2 
L 178.410483 -52.2 
L 178.004259 -52.2 
L 177.598034 -52.2 
L 177.19181 -52.2 
L 176.785586 -52.2 
L 176.379361 -52.2 
L 175.973137 -52.2 
L 175.566912 -52.2 
L 175.160688 -52.2 
L 174.754464 -52.2 
L 174.348239 -52.2 
L 173.942015 -52.2 
L 173.53579 -52.2 
L 173.129566 -52.2 
L 172.723342 -52.2 
L 172.317117 -52.2 
L 171.910893 -52.2 
L 171.504668 -52.2 
L 171.098444 -52.2 
L 170.692219 -52.2 
L 170.285995 -52.2 
L 169.879771 -52.2 
L 169.473546 -52.2 
L 169.067322 -52.2 
L 168.661097 -52.2 
L 168.254873 -52.2 
L 167.848649 -52.2 
L 167.442424 -52.2 
L 167.0362 -52.2 
L 166.629975 -52.2 
L 166.223751 -52.2 
L 165.817527 -52.2 
L 165.411302 -52.2 
L 165.005078 -52.2 
L 164.598853 -52.2 
L 164.192629 -52.2 
L 163.786405 -52.2 
L 163.38018 -52.2 
L 162.973956 -52.2 
L 162.567731 -52.2 
L 162.161507 -52.2 
L 161.755283 -52.2 
L 161.349058 -52.2 
L 160.942834 -52.2 
L 160.536609 -52.2 
L 160.130385 -52.2 
L 159.724161 -52.2 
L 159.317936 -52.2 
L 158.911712 -52.2 
L 158.505487 -52.2 
L 158.099263 -52.2 
L 157.693038 -52.2 
L 157.286814 -52.2 
L 156.88059 -52.2 
L 156.474365 -52.2 
L 156.068141 -52.2 
L 155.661916 -52.2 
L 155.255692 -52.2 
L 154.849468 -52.2 
L 154.443243 -52.2 
L 154.037019 -52.2 
L 153.630794 -52.2 
L 153.22457 -52.2 
L 152.818346 -52.2 
L 152.412121 -52.2 
L 152.005897 -52.2 
L 151.599672 -52.2 
L 151.193448 -52.2 
L 150.787224 -52.2 
L 150.380999 -52.2 
L 149.974775 -52.2 
L 149.56855 -52.2 
L 149.162326 -52.2 
L 148.756102 -52.2 
L 148.349877 -52.2 
L 147.943653 -52.2 
L 147.537428 -52.2 
L 147.131204 -52.2 
L 146.72498 -52.2 
L 146.318755 -52.2 
L 145.912531 -52.2 
L 145.506306 -52.2 
L 145.100082 -52.2 
L 144.693857 -52.2 
L 144.287633 -52.2 
L 143.881409 -52.2 
L 143.475184 -52.2 
L 143.06896 -52.2 
L 142.662735 -52.2 
L 142.256511 -52.2 
L 141.850287 -52.2 
L 141.444062 -52.2 
L 141.037838 -52.2 
L 140.631613 -52.2 
L 140.225389 -52.2 
L 139.819165 -52.2 
L 139.41294 -52.2 
L 139.006716 -52.2 
L 138.600491 -52.2 
L 138.194267 -52.2 
L 137.788043 -52.2 
L 137.381818 -52.2 
L 136.975594 -52.2 
L 136.569369 -52.2 
L 136.163145 -52.2 
L 135.756921 -52.2 
L 135.350696 -52.2 
L 134.944472 -52.2 
L 134.538247 -52.2 
L 134.132023 -52.2 
L 133.725799 -52.2 
L 133.319574 -52.2 
L 132.91335 -52.2 
L 132.507125 -52.2 
L 132.100901 -52.2 
L 131.694676 -52.2 
L 131.288452 -52.2 
L 130.882228 -52.2 
L 130.476003 -52.2 
L 130.069779 -52.2 
L 129.663554 -52.2 
L 129.25733 -52.2 
L 128.851106 -52.2 
L 128.444881 -52.2 
L 128.038657 -52.2 
L 127.632432 -52.2 
L 127.226208 -52.2 
L 126.819984 -52.2 
L 126.413759 -52.2 
L 126.007535 -52.2 
L 125.60131 -52.2 
L 125.195086 -52.2 
L 124.788862 -52.2 
L 124.382637 -52.2 
L 123.976413 -52.2 
L 123.570188 -52.2 
L 123.163964 -52.2 
L 122.75774 -52.2 
L 122.351515 -52.2 
L 121.945291 -52.2 
L 121.539066 -52.2 
L 121.132842 -52.2 
L 120.726618 -52.2 
L 120.320393 -52.2 
L 119.914169 -52.2 
L 119.507944 -52.2 
L 119.10172 -52.2 
L 118.695495 -52.2 
L 118.289271 -52.2 
L 117.883047 -52.2 
L 117.476822 -52.2 
L 117.070598 -52.2 
L 116.664373 -52.2 
L 116.258149 -52.2 
L 115.851925 -52.2 
L 115.4457 -52.2 
L 115.039476 -52.2 
L 114.633251 -52.2 
L 114.227027 -52.2 
L 113.820803 -52.2 
L 113.414578 -52.2 
L 113.008354 -52.2 
L 112.602129 -52.2 
L 112.195905 -52.2 
L 111.789681 -52.2 
L 111.383456 -52.2 
L 110.977232 -52.2 
L 110.571007 -52.2 
L 110.164783 -52.2 
L 109.758559 -52.2 
L 109.352334 -52.2 
L 108.94611 -52.2 
L 108.539885 -52.2 
L 108.133661 -52.2 
L 107.727437 -52.2 
L 107.321212 -52.2 
L 106.914988 -52.2 
L 106.508763 -52.2 
L 106.102539 -52.2 
L 105.696314 -52.2 
L 105.29009 -52.2 
L 104.883866 -52.2 
L 104.477641 -52.2 
L 104.071417 -52.2 
L 103.665192 -52.2 
L 103.258968 -52.2 
L 102.852744 -52.2 
L 102.446519 -52.2 
L 102.040295 -52.2 
L 101.63407 -52.2 
L 101.227846 -52.2 
L 100.821622 -52.2 
L 100.415397 -52.2 
L 100.009173 -52.2 
L 99.602948 -52.2 
L 99.196724 -52.2 
L 98.7905 -52.2 
L 98.384275 -52.2 
L 97.978051 -52.2 
L 97.571826 -52.2 
L 97.165602 -52.2 
L 96.759378 -52.2 
L 96.353153 -52.2 
L 95.946929 -52.2 
L 95.540704 -52.2 
L 95.13448 -52.2 
L 94.728256 -52.2 
L 94.322031 -52.2 
L 93.915807 -52.2 
L 93.509582 -52.2 
L 93.103358 -52.2 
L 92.697133 -52.2 
L 92.290909 -52.2 
z
" style="stroke: #2257ec; stroke-opacity: 0.2"/>
    </defs>
    <g clip-path="url(#p13f78ede36)">
     <use xlink:href="#m9cc7a9a404" x="0" y="360" style="fill: #2257ec; fill-opacity: 0.2; stroke: #2257ec; stroke-opacity: 0.2"/>
    </g>
   </g>
   <g id="matplotlib.axis_1">
    <g id="xtick_1">
     <g id="line2d_1">
      <path d="M 92.290909 320.4 
L 92.290909 43.2 
" clip-path="url(#p13f78ede36)" style="fill: none; stroke: #b0b0b0; stroke-width: 0.8; stroke-linecap: square"/>
     </g>
     <g id="line2d_2">
      <defs>
       <path id="mf94e587983" d="M 0 0 
L 0 3.5 
" style="stroke: #000000; stroke-width: 0.8"/>
      </defs>
      <g>
       <use xlink:href="#mf94e587983" x="92.290909" y="320.4" style="stroke: #000000; stroke-width: 0.8"/>
      </g>
     </g>
     <g id="text_1">
      <!-- 0.0 -->
      <g transform="translate(84.339347 334.998438) scale(0.1 -0.1)">
       <defs>
        <path id="DejaVuSans-30" d="M 2034 4250 
Q 1547 4250 1301 3770 
Q 1056 3291 1056 2328 
Q 1056 1369 1301 889 
Q 1547 409 2034 409 
Q 2525 409 2770 889 
Q 3016 1369 3016 2328 
Q 3016 3291 2770 3770 
Q 2525 4250 2034 4250 
z
M 2034 4750 
Q 2819 4750 3233 4129 
Q 3647 3509 3647 2328 
Q 3647 1150 3233 529 
Q 2819 -91 2034 -91 
Q 1250 -91 836 529 
Q 422 1150 422 2328 
Q 422 3509 836 4129 
Q 1250 4750 2034 4750 
z
" transform="scale(0.015625)"/>
        <path id="DejaVuSans-2e" d="M 684 794 
L 1344 794 
L 1344 0 
L 684 0 
L 684 794 
z
" transform="scale(0.015625)"/>
       </defs>
       <use xlink:href="#DejaVuSans-30"/>
       <use xlink:href="#DejaVuSans-2e" transform="translate(63.623047 0)"/>
       <use xlink:href="#DejaVuSans-30" transform="translate(95.410156 0)"/>
      </g>
     </g>
    </g>
    <g id="xtick_2">
     <g id="line2d_3">
      <path d="M 173.454545 320.4 
L 173.454545 43.2 
" clip-path="url(#p13f78ede36)" style="fill: none; stroke: #b0b0b0; stroke-width: 0.8; stroke-linecap: square"/>
     </g>
     <g id="line2d_4">
      <g>
       <use xlink:href="#mf94e587983" x="173.454545" y="320.4" style="stroke: #000000; stroke-width: 0.8"/>
      </g>
     </g>
     <g id="text_2">
      <!-- 0.2 -->
      <g transform="translate(165.502983 334.998438) scale(0.1 -0.1)">
       <defs>
        <path id="DejaVuSans-32" d="M 1228 531 
L 3431 531 
L 3431 0 
L 469 0 
L 469 531 
Q 828 903 1448 1529 
Q 2069 2156 2228 2338 
Q 2531 2678 2651 2914 
Q 2772 3150 2772 3378 
Q 2772 3750 2511 3984 
Q 2250 4219 1831 4219 
Q 1534 4219 1204 4116 
Q 875 4013 500 3803 
L 500 4441 
Q 881 4594 1212 4672 
Q 1544 4750 1819 4750 
Q 2544 4750 2975 4387 
Q 3406 4025 3406 3419 
Q 3406 3131 3298 2873 
Q 3191 2616 2906 2266 
Q 2828 2175 2409 1742 
Q 1991 1309 1228 531 
z
" transform="scale(0.015625)"/>
       </defs>
       <use xlink:href="#DejaVuSans-30"/>
       <use xlink:href="#DejaVuSans-2e" transform="translate(63.623047 0)"/>
       <use xlink:href="#DejaVuSans-32" transform="translate(95.410156 0)"/>
      </g>
     </g>
    </g>
    <g id="xtick_3">
     <g id="line2d_5">
      <path d="M 254.618182 320.4 
L 254.618182 43.2 
" clip-path="url(#p13f78ede36)" style="fill: none; stroke: #b0b0b0; stroke-width: 0.8; stroke-linecap: square"/>
     </g>
     <g id="line2d_6">
      <g>
       <use xlink:href="#mf94e587983" x="254.618182" y="320.4" style="stroke: #000000; stroke-width: 0.8"/>
      </g>
     </g>
     <g id="text_3">
      <!-- 0.4 -->
      <g transform="translate(246.666619 334.998438) scale(0.1 -0.1)">
       <defs>
        <path id="DejaVuSans-34" d="M 2419 4116 
L 825 1625 
L 2419 1625 
L 2419 4116 
z
M 2253 4666 
L 3047 4666 
L 3047 1625 
L 3713 1625 
L 3713 1100 
L 3047 1100 
L 3047 0 
L 2419 0 
L 2419 1100 
L 313 1100 
L 313 1709 
L 2253 4666 
z
" transform="scale(0.015625)"/>
       </defs>
       <use xlink:href="#DejaVuSans-30"/>
       <use xlink:href="#DejaVuSans-2e" transform="translate(63.623047 0)"/>
       <use xlink:href="#DejaVuSans-34" transform="translate(95.410156 0)"/>
      </g>
     </g>
    </g>
    <g id="xtick_4">
     <g id="line2d_7">
      <path d="M 335.781818 320.4 
L 335.781818 43.2 
" clip-path="url(#p13f78ede36)" style="fill: none; stroke: #b0b0b0; stroke-width: 0.8; stroke-linecap: square"/>
     </g>
     <g id="line2d_8">
      <g>
       <use xlink:href="#mf94e587983" x="335.781818" y="320.4" style="stroke: #000000; stroke-width: 0.8"/>
      </g>
     </g>
     <g id="text_4">
      <!-- 0.6 -->
      <g transform="translate(327.830256 334.998438) scale(0.1 -0.1)">
       <defs>
        <path id="DejaVuSans-36" d="M 2113 2584 
Q 1688 2584 1439 2293 
Q 1191 2003 1191 1497 
Q 1191 994 1439 701 
Q 1688 409 2113 409 
Q 2538 409 2786 701 
Q 3034 994 3034 1497 
Q 3034 2003 2786 2293 
Q 2538 2584 2113 2584 
z
M 3366 4563 
L 3366 3988 
Q 3128 4100 2886 4159 
Q 2644 4219 2406 4219 
Q 1781 4219 1451 3797 
Q 1122 3375 1075 2522 
Q 1259 2794 1537 2939 
Q 1816 3084 2150 3084 
Q 2853 3084 3261 2657 
Q 3669 2231 3669 1497 
Q 3669 778 3244 343 
Q 2819 -91 2113 -91 
Q 1303 -91 875 529 
Q 447 1150 447 2328 
Q 447 3434 972 4092 
Q 1497 4750 2381 4750 
Q 2619 4750 2861 4703 
Q 3103 4656 3366 4563 
z
" transform="scale(0.015625)"/>
       </defs>
       <use xlink:href="#DejaVuSans-30"/>
       <use xlink:href="#DejaVuSans-2e" transform="translate(63.623047 0)"/>
       <use xlink:href="#DejaVuSans-36" transform="translate(95.410156 0)"/>
      </g>
     </g>
    </g>
    <g id="xtick_5">
     <g id="line2d_9">
      <path d="M 416.945455 320.4 
L 416.945455 43.2 
" clip-path="url(#p13f78ede36)" style="fill: none; stroke: #b0b0b0; stroke-width: 0.8; stroke-linecap: square"/>
     </g>
     <g id="line2d_10">
      <g>
       <use xlink:href="#mf94e587983" x="416.945455" y="320.4" style="stroke: #000000; stroke-width: 0.8"/>
      </g>
     </g>
     <g id="text_5">
      <!-- 0.8 -->
      <g transform="translate(408.993892 334.998438) scale(0.1 -0.1)">
       <defs>
        <path id="DejaVuSans-38" d="M 2034 2216 
Q 1584 2216 1326 1975 
Q 1069 1734 1069 1313 
Q 1069 891 1326 650 
Q 1584 409 2034 409 
Q 2484 409 2743 651 
Q 3003 894 3003 1313 
Q 3003 1734 2745 1975 
Q 2488 2216 2034 2216 
z
M 1403 2484 
Q 997 2584 770 2862 
Q 544 3141 544 3541 
Q 544 4100 942 4425 
Q 1341 4750 2034 4750 
Q 2731 4750 3128 4425 
Q 3525 4100 3525 3541 
Q 3525 3141 3298 2862 
Q 3072 2584 2669 2484 
Q 3125 2378 3379 2068 
Q 3634 1759 3634 1313 
Q 3634 634 3220 271 
Q 2806 -91 2034 -91 
Q 1263 -91 848 271 
Q 434 634 434 1313 
Q 434 1759 690 2068 
Q 947 2378 1403 2484 
z
M 1172 3481 
Q 1172 3119 1398 2916 
Q 1625 2713 2034 2713 
Q 2441 2713 2670 2916 
Q 2900 3119 2900 3481 
Q 2900 3844 2670 4047 
Q 2441 4250 2034 4250 
Q 1625 4250 1398 4047 
Q 1172 3844 1172 3481 
z
" transform="scale(0.015625)"/>
       </defs>
       <use xlink:href="#DejaVuSans-30"/>
       <use xlink:href="#DejaVuSans-2e" transform="translate(63.623047 0)"/>
       <use xlink:href="#DejaVuSans-38" transform="translate(95.410156 0)"/>
      </g>
     </g>
    </g>
    <g id="xtick_6">
     <g id="line2d_11">
      <path d="M 498.109091 320.4 
L 498.109091 43.2 
" clip-path="url(#p13f78ede36)" style="fill: none; stroke: #b0b0b0; stroke-width: 0.8; stroke-linecap: square"/>
     </g>
     <g id="line2d_12">
      <g>
       <use xlink:href="#mf94e587983" x="498.109091" y="320.4" style="stroke: #000000; stroke-width: 0.8"/>
      </g>
     </g>
     <g id="text_6">
      <!-- 1.0 -->
      <g transform="translate(490.157528 334.998438) scale(0.1 -0.1)">
       <defs>
        <path id="DejaVuSans-31" d="M 794 531 
L 1825 531 
L 1825 4091 
L 703 3866 
L 703 4441 
L 1819 4666 
L 2450 4666 
L 2450 531 
L 3481 531 
L 3481 0 
L 794 0 
L 794 531 
z
" transform="scale(0.015625)"/>
       </defs>
       <use xlink:href="#DejaVuSans-31"/>
       <use xlink:href="#DejaVuSans-2e" transform="translate(63.623047 0)"/>
       <use xlink:href="#DejaVuSans-30" transform="translate(95.410156 0)"/>
      </g>
     </g>
    </g>
    <g id="text_7">
     <!-- Bounding Box Size (Normalised) -->
     <g transform="translate(214.904687 348.676562) scale(0.1 -0.1)">
      <defs>
       <path id="DejaVuSans-42" d="M 1259 2228 
L 1259 519 
L 2272 519 
Q 2781 519 3026 730 
Q 3272 941 3272 1375 
Q 3272 1813 3026 2020 
Q 2781 2228 2272 2228 
L 1259 2228 
z
M 1259 4147 
L 1259 2741 
L 2194 2741 
Q 2656 2741 2882 2914 
Q 3109 3088 3109 3444 
Q 3109 3797 2882 3972 
Q 2656 4147 2194 4147 
L 1259 4147 
z
M 628 4666 
L 2241 4666 
Q 2963 4666 3353 4366 
Q 3744 4066 3744 3513 
Q 3744 3084 3544 2831 
Q 3344 2578 2956 2516 
Q 3422 2416 3680 2098 
Q 3938 1781 3938 1306 
Q 3938 681 3513 340 
Q 3088 0 2303 0 
L 628 0 
L 628 4666 
z
" transform="scale(0.015625)"/>
       <path id="DejaVuSans-6f" d="M 1959 3097 
Q 1497 3097 1228 2736 
Q 959 2375 959 1747 
Q 959 1119 1226 758 
Q 1494 397 1959 397 
Q 2419 397 2687 759 
Q 2956 1122 2956 1747 
Q 2956 2369 2687 2733 
Q 2419 3097 1959 3097 
z
M 1959 3584 
Q 2709 3584 3137 3096 
Q 3566 2609 3566 1747 
Q 3566 888 3137 398 
Q 2709 -91 1959 -91 
Q 1206 -91 779 398 
Q 353 888 353 1747 
Q 353 2609 779 3096 
Q 1206 3584 1959 3584 
z
" transform="scale(0.015625)"/>
       <path id="DejaVuSans-75" d="M 544 1381 
L 544 3500 
L 1119 3500 
L 1119 1403 
Q 1119 906 1312 657 
Q 1506 409 1894 409 
Q 2359 409 2629 706 
Q 2900 1003 2900 1516 
L 2900 3500 
L 3475 3500 
L 3475 0 
L 2900 0 
L 2900 538 
Q 2691 219 2414 64 
Q 2138 -91 1772 -91 
Q 1169 -91 856 284 
Q 544 659 544 1381 
z
M 1991 3584 
L 1991 3584 
z
" transform="scale(0.015625)"/>
       <path id="DejaVuSans-6e" d="M 3513 2113 
L 3513 0 
L 2938 0 
L 2938 2094 
Q 2938 2591 2744 2837 
Q 2550 3084 2163 3084 
Q 1697 3084 1428 2787 
Q 1159 2491 1159 1978 
L 1159 0 
L 581 0 
L 581 3500 
L 1159 3500 
L 1159 2956 
Q 1366 3272 1645 3428 
Q 1925 3584 2291 3584 
Q 2894 3584 3203 3211 
Q 3513 2838 3513 2113 
z
" transform="scale(0.015625)"/>
       <path id="DejaVuSans-64" d="M 2906 2969 
L 2906 4863 
L 3481 4863 
L 3481 0 
L 2906 0 
L 2906 525 
Q 2725 213 2448 61 
Q 2172 -91 1784 -91 
Q 1150 -91 751 415 
Q 353 922 353 1747 
Q 353 2572 751 3078 
Q 1150 3584 1784 3584 
Q 2172 3584 2448 3432 
Q 2725 3281 2906 2969 
z
M 947 1747 
Q 947 1113 1208 752 
Q 1469 391 1925 391 
Q 2381 391 2643 752 
Q 2906 1113 2906 1747 
Q 2906 2381 2643 2742 
Q 2381 3103 1925 3103 
Q 1469 3103 1208 2742 
Q 947 2381 947 1747 
z
" transform="scale(0.015625)"/>
       <path id="DejaVuSans-69" d="M 603 3500 
L 1178 3500 
L 1178 0 
L 603 0 
L 603 3500 
z
M 603 4863 
L 1178 4863 
L 1178 4134 
L 603 4134 
L 603 4863 
z
" transform="scale(0.015625)"/>
       <path id="DejaVuSans-67" d="M 2906 1791 
Q 2906 2416 2648 2759 
Q 2391 3103 1925 3103 
Q 1463 3103 1205 2759 
Q 947 2416 947 1791 
Q 947 1169 1205 825 
Q 1463 481 1925 481 
Q 2391 481 2648 825 
Q 2906 1169 2906 1791 
z
M 3481 434 
Q 3481 -459 3084 -895 
Q 2688 -1331 1869 -1331 
Q 1566 -1331 1297 -1286 
Q 1028 -1241 775 -1147 
L 775 -588 
Q 1028 -725 1275 -790 
Q 1522 -856 1778 -856 
Q 2344 -856 2625 -561 
Q 2906 -266 2906 331 
L 2906 616 
Q 2728 306 2450 153 
Q 2172 0 1784 0 
Q 1141 0 747 490 
Q 353 981 353 1791 
Q 353 2603 747 3093 
Q 1141 3584 1784 3584 
Q 2172 3584 2450 3431 
Q 2728 3278 2906 2969 
L 2906 3500 
L 3481 3500 
L 3481 434 
z
" transform="scale(0.015625)"/>
       <path id="DejaVuSans-20" transform="scale(0.015625)"/>
       <path id="DejaVuSans-78" d="M 3513 3500 
L 2247 1797 
L 3578 0 
L 2900 0 
L 1881 1375 
L 863 0 
L 184 0 
L 1544 1831 
L 300 3500 
L 978 3500 
L 1906 2253 
L 2834 3500 
L 3513 3500 
z
" transform="scale(0.015625)"/>
       <path id="DejaVuSans-53" d="M 3425 4513 
L 3425 3897 
Q 3066 4069 2747 4153 
Q 2428 4238 2131 4238 
Q 1616 4238 1336 4038 
Q 1056 3838 1056 3469 
Q 1056 3159 1242 3001 
Q 1428 2844 1947 2747 
L 2328 2669 
Q 3034 2534 3370 2195 
Q 3706 1856 3706 1288 
Q 3706 609 3251 259 
Q 2797 -91 1919 -91 
Q 1588 -91 1214 -16 
Q 841 59 441 206 
L 441 856 
Q 825 641 1194 531 
Q 1563 422 1919 422 
Q 2459 422 2753 634 
Q 3047 847 3047 1241 
Q 3047 1584 2836 1778 
Q 2625 1972 2144 2069 
L 1759 2144 
Q 1053 2284 737 2584 
Q 422 2884 422 3419 
Q 422 4038 858 4394 
Q 1294 4750 2059 4750 
Q 2388 4750 2728 4690 
Q 3069 4631 3425 4513 
z
" transform="scale(0.015625)"/>
       <path id="DejaVuSans-7a" d="M 353 3500 
L 3084 3500 
L 3084 2975 
L 922 459 
L 3084 459 
L 3084 0 
L 275 0 
L 275 525 
L 2438 3041 
L 353 3041 
L 353 3500 
z
" transform="scale(0.015625)"/>
       <path id="DejaVuSans-65" d="M 3597 1894 
L 3597 1613 
L 953 1613 
Q 991 1019 1311 708 
Q 1631 397 2203 397 
Q 2534 397 2845 478 
Q 3156 559 3463 722 
L 3463 178 
Q 3153 47 2828 -22 
Q 2503 -91 2169 -91 
Q 1331 -91 842 396 
Q 353 884 353 1716 
Q 353 2575 817 3079 
Q 1281 3584 2069 3584 
Q 2775 3584 3186 3129 
Q 3597 2675 3597 1894 
z
M 3022 2063 
Q 3016 2534 2758 2815 
Q 2500 3097 2075 3097 
Q 1594 3097 1305 2825 
Q 1016 2553 972 2059 
L 3022 2063 
z
" transform="scale(0.015625)"/>
       <path id="DejaVuSans-28" d="M 1984 4856 
Q 1566 4138 1362 3434 
Q 1159 2731 1159 2009 
Q 1159 1288 1364 580 
Q 1569 -128 1984 -844 
L 1484 -844 
Q 1016 -109 783 600 
Q 550 1309 550 2009 
Q 550 2706 781 3412 
Q 1013 4119 1484 4856 
L 1984 4856 
z
" transform="scale(0.015625)"/>
       <path id="DejaVuSans-4e" d="M 628 4666 
L 1478 4666 
L 3547 763 
L 3547 4666 
L 4159 4666 
L 4159 0 
L 3309 0 
L 1241 3903 
L 1241 0 
L 628 0 
L 628 4666 
z
" transform="scale(0.015625)"/>
       <path id="DejaVuSans-72" d="M 2631 2963 
Q 2534 3019 2420 3045 
Q 2306 3072 2169 3072 
Q 1681 3072 1420 2755 
Q 1159 2438 1159 1844 
L 1159 0 
L 581 0 
L 581 3500 
L 1159 3500 
L 1159 2956 
Q 1341 3275 1631 3429 
Q 1922 3584 2338 3584 
Q 2397 3584 2469 3576 
Q 2541 3569 2628 3553 
L 2631 2963 
z
" transform="scale(0.015625)"/>
       <path id="DejaVuSans-6d" d="M 3328 2828 
Q 3544 3216 3844 3400 
Q 4144 3584 4550 3584 
Q 5097 3584 5394 3201 
Q 5691 2819 5691 2113 
L 5691 0 
L 5113 0 
L 5113 2094 
Q 5113 2597 4934 2840 
Q 4756 3084 4391 3084 
Q 3944 3084 3684 2787 
Q 3425 2491 3425 1978 
L 3425 0 
L 2847 0 
L 2847 2094 
Q 2847 2600 2669 2842 
Q 2491 3084 2119 3084 
Q 1678 3084 1418 2786 
Q 1159 2488 1159 1978 
L 1159 0 
L 581 0 
L 581 3500 
L 1159 3500 
L 1159 2956 
Q 1356 3278 1631 3431 
Q 1906 3584 2284 3584 
Q 2666 3584 2933 3390 
Q 3200 3197 3328 2828 
z
" transform="scale(0.015625)"/>
       <path id="DejaVuSans-61" d="M 2194 1759 
Q 1497 1759 1228 1600 
Q 959 1441 959 1056 
Q 959 750 1161 570 
Q 1363 391 1709 391 
Q 2188 391 2477 730 
Q 2766 1069 2766 1631 
L 2766 1759 
L 2194 1759 
z
M 3341 1997 
L 3341 0 
L 2766 0 
L 2766 531 
Q 2569 213 2275 61 
Q 1981 -91 1556 -91 
Q 1019 -91 701 211 
Q 384 513 384 1019 
Q 384 1609 779 1909 
Q 1175 2209 1959 2209 
L 2766 2209 
L 2766 2266 
Q 2766 2663 2505 2880 
Q 2244 3097 1772 3097 
Q 1472 3097 1187 3025 
Q 903 2953 641 2809 
L 641 3341 
Q 956 3463 1253 3523 
Q 1550 3584 1831 3584 
Q 2591 3584 2966 3190 
Q 3341 2797 3341 1997 
z
" transform="scale(0.015625)"/>
       <path id="DejaVuSans-6c" d="M 603 4863 
L 1178 4863 
L 1178 0 
L 603 0 
L 603 4863 
z
" transform="scale(0.015625)"/>
       <path id="DejaVuSans-73" d="M 2834 3397 
L 2834 2853 
Q 2591 2978 2328 3040 
Q 2066 3103 1784 3103 
Q 1356 3103 1142 2972 
Q 928 2841 928 2578 
Q 928 2378 1081 2264 
Q 1234 2150 1697 2047 
L 1894 2003 
Q 2506 1872 2764 1633 
Q 3022 1394 3022 966 
Q 3022 478 2636 193 
Q 2250 -91 1575 -91 
Q 1294 -91 989 -36 
Q 684 19 347 128 
L 347 722 
Q 666 556 975 473 
Q 1284 391 1588 391 
Q 1994 391 2212 530 
Q 2431 669 2431 922 
Q 2431 1156 2273 1281 
Q 2116 1406 1581 1522 
L 1381 1569 
Q 847 1681 609 1914 
Q 372 2147 372 2553 
Q 372 3047 722 3315 
Q 1072 3584 1716 3584 
Q 2034 3584 2315 3537 
Q 2597 3491 2834 3397 
z
" transform="scale(0.015625)"/>
       <path id="DejaVuSans-29" d="M 513 4856 
L 1013 4856 
Q 1481 4119 1714 3412 
Q 1947 2706 1947 2009 
Q 1947 1309 1714 600 
Q 1481 -109 1013 -844 
L 513 -844 
Q 928 -128 1133 580 
Q 1338 1288 1338 2009 
Q 1338 2731 1133 3434 
Q 928 4138 513 4856 
z
" transform="scale(0.015625)"/>
      </defs>
      <use xlink:href="#DejaVuSans-42"/>
      <use xlink:href="#DejaVuSans-6f" transform="translate(68.603516 0)"/>
      <use xlink:href="#DejaVuSans-75" transform="translate(129.785156 0)"/>
      <use xlink:href="#DejaVuSans-6e" transform="translate(193.164062 0)"/>
      <use xlink:href="#DejaVuSans-64" transform="translate(256.542969 0)"/>
      <use xlink:href="#DejaVuSans-69" transform="translate(320.019531 0)"/>
      <use xlink:href="#DejaVuSans-6e" transform="translate(347.802734 0)"/>
      <use xlink:href="#DejaVuSans-67" transform="translate(411.181641 0)"/>
      <use xlink:href="#DejaVuSans-20" transform="translate(474.658203 0)"/>
      <use xlink:href="#DejaVuSans-42" transform="translate(506.445312 0)"/>
      <use xlink:href="#DejaVuSans-6f" transform="translate(575.048828 0)"/>
      <use xlink:href="#DejaVuSans-78" transform="translate(633.105469 0)"/>
      <use xlink:href="#DejaVuSans-20" transform="translate(692.285156 0)"/>
      <use xlink:href="#DejaVuSans-53" transform="translate(724.072266 0)"/>
      <use xlink:href="#DejaVuSans-69" transform="translate(787.548828 0)"/>
      <use xlink:href="#DejaVuSans-7a" transform="translate(815.332031 0)"/>
      <use xlink:href="#DejaVuSans-65" transform="translate(867.822266 0)"/>
      <use xlink:href="#DejaVuSans-20" transform="translate(929.345703 0)"/>
      <use xlink:href="#DejaVuSans-28" transform="translate(961.132812 0)"/>
      <use xlink:href="#DejaVuSans-4e" transform="translate(1000.146484 0)"/>
      <use xlink:href="#DejaVuSans-6f" transform="translate(1074.951172 0)"/>
      <use xlink:href="#DejaVuSans-72" transform="translate(1136.132812 0)"/>
      <use xlink:href="#DejaVuSans-6d" transform="translate(1175.496094 0)"/>
      <use xlink:href="#DejaVuSans-61" transform="translate(1272.908203 0)"/>
      <use xlink:href="#DejaVuSans-6c" transform="translate(1334.1875 0)"/>
      <use xlink:href="#DejaVuSans-69" transform="translate(1361.970703 0)"/>
      <use xlink:href="#DejaVuSans-73" transform="translate(1389.753906 0)"/>
      <use xlink:href="#DejaVuSans-65" transform="translate(1441.853516 0)"/>
      <use xlink:href="#DejaVuSans-64" transform="translate(1503.376953 0)"/>
      <use xlink:href="#DejaVuSans-29" transform="translate(1566.853516 0)"/>
     </g>
    </g>
   </g>
   <g id="matplotlib.axis_2">
    <g id="ytick_1">
     <g id="line2d_13">
      <path d="M 72 307.8 
L 518.4 307.8 
" clip-path="url(#p13f78ede36)" style="fill: none; stroke: #b0b0b0; stroke-width: 0.8; stroke-linecap: square"/>
     </g>
     <g id="line2d_14">
      <defs>
       <path id="m254b213af3" d="M 0 0 
L -3.5 0 
" style="stroke: #000000; stroke-width: 0.8"/>
      </defs>
      <g>
       <use xlink:href="#m254b213af3" x="72" y="307.8" style="stroke: #000000; stroke-width: 0.8"/>
      </g>
     </g>
     <g id="text_8">
      <!-- 0.0 -->
      <g transform="translate(49.096875 311.599219) scale(0.1 -0.1)">
       <use xlink:href="#DejaVuSans-30"/>
       <use xlink:href="#DejaVuSans-2e" transform="translate(63.623047 0)"/>
       <use xlink:href="#DejaVuSans-30" transform="translate(95.410156 0)"/>
      </g>
     </g>
    </g>
    <g id="ytick_2">
     <g id="line2d_15">
      <path d="M 72 276.3 
L 518.4 276.3 
" clip-path="url(#p13f78ede36)" style="fill: none; stroke: #b0b0b0; stroke-width: 0.8; stroke-linecap: square"/>
     </g>
     <g id="line2d_16">
      <g>
       <use xlink:href="#m254b213af3" x="72" y="276.3" style="stroke: #000000; stroke-width: 0.8"/>
      </g>
     </g>
     <g id="text_9">
      <!-- 0.2 -->
      <g transform="translate(49.096875 280.099219) scale(0.1 -0.1)">
       <use xlink:href="#DejaVuSans-30"/>
       <use xlink:href="#DejaVuSans-2e" transform="translate(63.623047 0)"/>
       <use xlink:href="#DejaVuSans-32" transform="translate(95.410156 0)"/>
      </g>
     </g>
    </g>
    <g id="ytick_3">
     <g id="line2d_17">
      <path d="M 72 244.8 
L 518.4 244.8 
" clip-path="url(#p13f78ede36)" style="fill: none; stroke: #b0b0b0; stroke-width: 0.8; stroke-linecap: square"/>
     </g>
     <g id="line2d_18">
      <g>
       <use xlink:href="#m254b213af3" x="72" y="244.8" style="stroke: #000000; stroke-width: 0.8"/>
      </g>
     </g>
     <g id="text_10">
      <!-- 0.4 -->
      <g transform="translate(49.096875 248.599219) scale(0.1 -0.1)">
       <use xlink:href="#DejaVuSans-30"/>
       <use xlink:href="#DejaVuSans-2e" transform="translate(63.623047 0)"/>
       <use xlink:href="#DejaVuSans-34" transform="translate(95.410156 0)"/>
      </g>
     </g>
    </g>
    <g id="ytick_4">
     <g id="line2d_19">
      <path d="M 72 213.3 
L 518.4 213.3 
" clip-path="url(#p13f78ede36)" style="fill: none; stroke: #b0b0b0; stroke-width: 0.8; stroke-linecap: square"/>
     </g>
     <g id="line2d_20">
      <g>
       <use xlink:href="#m254b213af3" x="72" y="213.3" style="stroke: #000000; stroke-width: 0.8"/>
      </g>
     </g>
     <g id="text_11">
      <!-- 0.6 -->
      <g transform="translate(49.096875 217.099219) scale(0.1 -0.1)">
       <use xlink:href="#DejaVuSans-30"/>
       <use xlink:href="#DejaVuSans-2e" transform="translate(63.623047 0)"/>
       <use xlink:href="#DejaVuSans-36" transform="translate(95.410156 0)"/>
      </g>
     </g>
    </g>
    <g id="ytick_5">
     <g id="line2d_21">
      <path d="M 72 181.8 
L 518.4 181.8 
" clip-path="url(#p13f78ede36)" style="fill: none; stroke: #b0b0b0; stroke-width: 0.8; stroke-linecap: square"/>
     </g>
     <g id="line2d_22">
      <g>
       <use xlink:href="#m254b213af3" x="72" y="181.8" style="stroke: #000000; stroke-width: 0.8"/>
      </g>
     </g>
     <g id="text_12">
      <!-- 0.8 -->
      <g transform="translate(49.096875 185.599219) scale(0.1 -0.1)">
       <use xlink:href="#DejaVuSans-30"/>
       <use xlink:href="#DejaVuSans-2e" transform="translate(63.623047 0)"/>
       <use xlink:href="#DejaVuSans-38" transform="translate(95.410156 0)"/>
      </g>
     </g>
    </g>
    <g id="ytick_6">
     <g id="line2d_23">
      <path d="M 72 150.3 
L 518.4 150.3 
" clip-path="url(#p13f78ede36)" style="fill: none; stroke: #b0b0b0; stroke-width: 0.8; stroke-linecap: square"/>
     </g>
     <g id="line2d_24">
      <g>
       <use xlink:href="#m254b213af3" x="72" y="150.3" style="stroke: #000000; stroke-width: 0.8"/>
      </g>
     </g>
     <g id="text_13">
      <!-- 1.0 -->
      <g transform="translate(49.096875 154.099219) scale(0.1 -0.1)">
       <use xlink:href="#DejaVuSans-31"/>
       <use xlink:href="#DejaVuSans-2e" transform="translate(63.623047 0)"/>
       <use xlink:href="#DejaVuSans-30" transform="translate(95.410156 0)"/>
      </g>
     </g>
    </g>
    <g id="ytick_7">
     <g id="line2d_25">
      <path d="M 72 118.8 
L 518.4 118.8 
" clip-path="url(#p13f78ede36)" style="fill: none; stroke: #b0b0b0; stroke-width: 0.8; stroke-linecap: square"/>
     </g>
     <g id="line2d_26">
      <g>
       <use xlink:href="#m254b213af3" x="72" y="118.8" style="stroke: #000000; stroke-width: 0.8"/>
      </g>
     </g>
     <g id="text_14">
      <!-- 1.2 -->
      <g transform="translate(49.096875 122.599219) scale(0.1 -0.1)">
       <use xlink:href="#DejaVuSans-31"/>
       <use xlink:href="#DejaVuSans-2e" transform="translate(63.623047 0)"/>
       <use xlink:href="#DejaVuSans-32" transform="translate(95.410156 0)"/>
      </g>
     </g>
    </g>
    <g id="ytick_8">
     <g id="line2d_27">
      <path d="M 72 87.3 
L 518.4 87.3 
" clip-path="url(#p13f78ede36)" style="fill: none; stroke: #b0b0b0; stroke-width: 0.8; stroke-linecap: square"/>
     </g>
     <g id="line2d_28">
      <g>
       <use xlink:href="#m254b213af3" x="72" y="87.3" style="stroke: #000000; stroke-width: 0.8"/>
      </g>
     </g>
     <g id="text_15">
      <!-- 1.4 -->
      <g transform="translate(49.096875 91.099219) scale(0.1 -0.1)">
       <use xlink:href="#DejaVuSans-31"/>
       <use xlink:href="#DejaVuSans-2e" transform="translate(63.623047 0)"/>
       <use xlink:href="#DejaVuSans-34" transform="translate(95.410156 0)"/>
      </g>
     </g>
    </g>
    <g id="ytick_9">
     <g id="line2d_29">
      <path d="M 72 55.8 
L 518.4 55.8 
" clip-path="url(#p13f78ede36)" style="fill: none; stroke: #b0b0b0; stroke-width: 0.8; stroke-linecap: square"/>
     </g>
     <g id="line2d_30">
      <g>
       <use xlink:href="#m254b213af3" x="72" y="55.8" style="stroke: #000000; stroke-width: 0.8"/>
      </g>
     </g>
     <g id="text_16">
      <!-- 1.6 -->
      <g transform="translate(49.096875 59.599219) scale(0.1 -0.1)">
       <use xlink:href="#DejaVuSans-31"/>
       <use xlink:href="#DejaVuSans-2e" transform="translate(63.623047 0)"/>
       <use xlink:href="#DejaVuSans-36" transform="translate(95.410156 0)"/>
      </g>
     </g>
    </g>
    <g id="text_17">
     <!-- IoU Weight -->
     <g transform="translate(43.017187 209.001562) rotate(-90) scale(0.1 -0.1)">
      <defs>
       <path id="DejaVuSans-49" d="M 628 4666 
L 1259 4666 
L 1259 0 
L 628 0 
L 628 4666 
z
" transform="scale(0.015625)"/>
       <path id="DejaVuSans-55" d="M 556 4666 
L 1191 4666 
L 1191 1831 
Q 1191 1081 1462 751 
Q 1734 422 2344 422 
Q 2950 422 3222 751 
Q 3494 1081 3494 1831 
L 3494 4666 
L 4128 4666 
L 4128 1753 
Q 4128 841 3676 375 
Q 3225 -91 2344 -91 
Q 1459 -91 1007 375 
Q 556 841 556 1753 
L 556 4666 
z
" transform="scale(0.015625)"/>
       <path id="DejaVuSans-57" d="M 213 4666 
L 850 4666 
L 1831 722 
L 2809 4666 
L 3519 4666 
L 4500 722 
L 5478 4666 
L 6119 4666 
L 4947 0 
L 4153 0 
L 3169 4050 
L 2175 0 
L 1381 0 
L 213 4666 
z
" transform="scale(0.015625)"/>
       <path id="DejaVuSans-68" d="M 3513 2113 
L 3513 0 
L 2938 0 
L 2938 2094 
Q 2938 2591 2744 2837 
Q 2550 3084 2163 3084 
Q 1697 3084 1428 2787 
Q 1159 2491 1159 1978 
L 1159 0 
L 581 0 
L 581 4863 
L 1159 4863 
L 1159 2956 
Q 1366 3272 1645 3428 
Q 1925 3584 2291 3584 
Q 2894 3584 3203 3211 
Q 3513 2838 3513 2113 
z
" transform="scale(0.015625)"/>
       <path id="DejaVuSans-74" d="M 1172 4494 
L 1172 3500 
L 2356 3500 
L 2356 3053 
L 1172 3053 
L 1172 1153 
Q 1172 725 1289 603 
Q 1406 481 1766 481 
L 2356 481 
L 2356 0 
L 1766 0 
Q 1100 0 847 248 
Q 594 497 594 1153 
L 594 3053 
L 172 3053 
L 172 3500 
L 594 3500 
L 594 4494 
L 1172 4494 
z
" transform="scale(0.015625)"/>
      </defs>
      <use xlink:href="#DejaVuSans-49"/>
      <use xlink:href="#DejaVuSans-6f" transform="translate(29.492188 0)"/>
      <use xlink:href="#DejaVuSans-55" transform="translate(90.673828 0)"/>
      <use xlink:href="#DejaVuSans-20" transform="translate(163.867188 0)"/>
      <use xlink:href="#DejaVuSans-57" transform="translate(195.654297 0)"/>
      <use xlink:href="#DejaVuSans-65" transform="translate(288.65625 0)"/>
      <use xlink:href="#DejaVuSans-69" transform="translate(350.179688 0)"/>
      <use xlink:href="#DejaVuSans-67" transform="translate(377.962891 0)"/>
      <use xlink:href="#DejaVuSans-68" transform="translate(441.439453 0)"/>
      <use xlink:href="#DejaVuSans-74" transform="translate(504.818359 0)"/>
     </g>
    </g>
   </g>
   <g id="line2d_31">
    <path d="M 92.290909 55.8 
L 97.571826 77.539007 
L 100.821622 89.942694 
L 103.258968 98.459507 
L 105.696314 106.186648 
L 107.727437 111.985589 
L 109.758559 117.196397 
L 111.789681 121.832413 
L 113.820803 125.920706 
L 115.851925 129.497951 
L 117.883047 132.606713 
L 119.914169 135.292339 
L 121.945291 137.600539 
L 123.976413 139.575617 
L 126.007535 141.259273 
L 128.038657 142.68989 
L 130.476003 144.121217 
L 132.91335 145.290771 
L 135.756921 146.384448 
L 138.600491 147.243307 
L 141.850287 147.999551 
L 145.506306 148.631113 
L 149.974775 149.174019 
L 155.661916 149.618519 
L 162.973956 149.943141 
L 173.53579 150.160012 
L 191.815889 150.272325 
L 249.09353 150.299828 
L 498.109091 150.3 
L 498.109091 150.3 
" clip-path="url(#p13f78ede36)" style="fill: none; stroke: #2257ec; stroke-width: 1.5; stroke-linecap: square"/>
   </g>
   <g id="line2d_32">
    <path d="M 72 55.8 
L 518.4 55.8 
" clip-path="url(#p13f78ede36)" style="fill: none; stroke-dasharray: 5.55,2.4; stroke-dashoffset: 0; stroke: #ff0000; stroke-width: 1.5"/>
   </g>
   <g id="line2d_33">
    <path d="M 72 307.8 
L 518.4 307.8 
" clip-path="url(#p13f78ede36)" style="fill: none; stroke-dasharray: 1.85,0.8; stroke-dashoffset: 0; stroke: #000000; stroke-width: 0.5"/>
   </g>
   <g id="line2d_34">
    <path d="M 92.290909 320.4 
L 92.290909 43.2 
" clip-path="url(#p13f78ede36)" style="fill: none; stroke-dasharray: 1.85,0.8; stroke-dashoffset: 0; stroke: #000000; stroke-width: 0.5"/>
   </g>
   <g id="patch_3">
    <path d="M 72 320.4 
L 72 43.2 
" style="fill: none; stroke: #000000; stroke-width: 0.8; stroke-linejoin: miter; stroke-linecap: square"/>
   </g>
   <g id="patch_4">
    <path d="M 518.4 320.4 
L 518.4 43.2 
" style="fill: none; stroke: #000000; stroke-width: 0.8; stroke-linejoin: miter; stroke-linecap: square"/>
   </g>
   <g id="patch_5">
    <path d="M 72 320.4 
L 518.4 320.4 
" style="fill: none; stroke: #000000; stroke-width: 0.8; stroke-linejoin: miter; stroke-linecap: square"/>
   </g>
   <g id="patch_6">
    <path d="M 72 43.2 
L 518.4 43.2 
" style="fill: none; stroke: #000000; stroke-width: 0.8; stroke-linejoin: miter; stroke-linecap: square"/>
   </g>
   <g id="text_18">
    <!-- default IoU weight as a function of the normalised predicted bbox size (a=1.6; b=18) -->
    <g transform="translate(39.133125 37.2) scale(0.12 -0.12)">
     <defs>
      <path id="DejaVuSans-66" d="M 2375 4863 
L 2375 4384 
L 1825 4384 
Q 1516 4384 1395 4259 
Q 1275 4134 1275 3809 
L 1275 3500 
L 2222 3500 
L 2222 3053 
L 1275 3053 
L 1275 0 
L 697 0 
L 697 3053 
L 147 3053 
L 147 3500 
L 697 3500 
L 697 3744 
Q 697 4328 969 4595 
Q 1241 4863 1831 4863 
L 2375 4863 
z
" transform="scale(0.015625)"/>
      <path id="DejaVuSans-77" d="M 269 3500 
L 844 3500 
L 1563 769 
L 2278 3500 
L 2956 3500 
L 3675 769 
L 4391 3500 
L 4966 3500 
L 4050 0 
L 3372 0 
L 2619 2869 
L 1863 0 
L 1184 0 
L 269 3500 
z
" transform="scale(0.015625)"/>
      <path id="DejaVuSans-63" d="M 3122 3366 
L 3122 2828 
Q 2878 2963 2633 3030 
Q 2388 3097 2138 3097 
Q 1578 3097 1268 2742 
Q 959 2388 959 1747 
Q 959 1106 1268 751 
Q 1578 397 2138 397 
Q 2388 397 2633 464 
Q 2878 531 3122 666 
L 3122 134 
Q 2881 22 2623 -34 
Q 2366 -91 2075 -91 
Q 1284 -91 818 406 
Q 353 903 353 1747 
Q 353 2603 823 3093 
Q 1294 3584 2113 3584 
Q 2378 3584 2631 3529 
Q 2884 3475 3122 3366 
z
" transform="scale(0.015625)"/>
      <path id="DejaVuSans-70" d="M 1159 525 
L 1159 -1331 
L 581 -1331 
L 581 3500 
L 1159 3500 
L 1159 2969 
Q 1341 3281 1617 3432 
Q 1894 3584 2278 3584 
Q 2916 3584 3314 3078 
Q 3713 2572 3713 1747 
Q 3713 922 3314 415 
Q 2916 -91 2278 -91 
Q 1894 -91 1617 61 
Q 1341 213 1159 525 
z
M 3116 1747 
Q 3116 2381 2855 2742 
Q 2594 3103 2138 3103 
Q 1681 3103 1420 2742 
Q 1159 2381 1159 1747 
Q 1159 1113 1420 752 
Q 1681 391 2138 391 
Q 2594 391 2855 752 
Q 3116 1113 3116 1747 
z
" transform="scale(0.015625)"/>
      <path id="DejaVuSans-62" d="M 3116 1747 
Q 3116 2381 2855 2742 
Q 2594 3103 2138 3103 
Q 1681 3103 1420 2742 
Q 1159 2381 1159 1747 
Q 1159 1113 1420 752 
Q 1681 391 2138 391 
Q 2594 391 2855 752 
Q 3116 1113 3116 1747 
z
M 1159 2969 
Q 1341 3281 1617 3432 
Q 1894 3584 2278 3584 
Q 2916 3584 3314 3078 
Q 3713 2572 3713 1747 
Q 3713 922 3314 415 
Q 2916 -91 2278 -91 
Q 1894 -91 1617 61 
Q 1341 213 1159 525 
L 1159 0 
L 581 0 
L 581 4863 
L 1159 4863 
L 1159 2969 
z
" transform="scale(0.015625)"/>
      <path id="DejaVuSans-3d" d="M 678 2906 
L 4684 2906 
L 4684 2381 
L 678 2381 
L 678 2906 
z
M 678 1631 
L 4684 1631 
L 4684 1100 
L 678 1100 
L 678 1631 
z
" transform="scale(0.015625)"/>
      <path id="DejaVuSans-3b" d="M 750 3309 
L 1409 3309 
L 1409 2516 
L 750 2516 
L 750 3309 
z
M 750 794 
L 1409 794 
L 1409 256 
L 897 -744 
L 494 -744 
L 750 256 
L 750 794 
z
" transform="scale(0.015625)"/>
     </defs>
     <use xlink:href="#DejaVuSans-64"/>
     <use xlink:href="#DejaVuSans-65" transform="translate(63.476562 0)"/>
     <use xlink:href="#DejaVuSans-66" transform="translate(125 0)"/>
     <use xlink:href="#DejaVuSans-61" transform="translate(160.205078 0)"/>
     <use xlink:href="#DejaVuSans-75" transform="translate(221.484375 0)"/>
     <use xlink:href="#DejaVuSans-6c" transform="translate(284.863281 0)"/>
     <use xlink:href="#DejaVuSans-74" transform="translate(312.646484 0)"/>
     <use xlink:href="#DejaVuSans-20" transform="translate(351.855469 0)"/>
     <use xlink:href="#DejaVuSans-49" transform="translate(383.642578 0)"/>
     <use xlink:href="#DejaVuSans-6f" transform="translate(413.134766 0)"/>
     <use xlink:href="#DejaVuSans-55" transform="translate(474.316406 0)"/>
     <use xlink:href="#DejaVuSans-20" transform="translate(547.509766 0)"/>
     <use xlink:href="#DejaVuSans-77" transform="translate(579.296875 0)"/>
     <use xlink:href="#DejaVuSans-65" transform="translate(661.083984 0)"/>
     <use xlink:href="#DejaVuSans-69" transform="translate(722.607422 0)"/>
     <use xlink:href="#DejaVuSans-67" transform="translate(750.390625 0)"/>
     <use xlink:href="#DejaVuSans-68" transform="translate(813.867188 0)"/>
     <use xlink:href="#DejaVuSans-74" transform="translate(877.246094 0)"/>
     <use xlink:href="#DejaVuSans-20" transform="translate(916.455078 0)"/>
     <use xlink:href="#DejaVuSans-61" transform="translate(948.242188 0)"/>
     <use xlink:href="#DejaVuSans-73" transform="translate(1009.521484 0)"/>
     <use xlink:href="#DejaVuSans-20" transform="translate(1061.621094 0)"/>
     <use xlink:href="#DejaVuSans-61" transform="translate(1093.408203 0)"/>
     <use xlink:href="#DejaVuSans-20" transform="translate(1154.6875 0)"/>
     <use xlink:href="#DejaVuSans-66" transform="translate(1186.474609 0)"/>
     <use xlink:href="#DejaVuSans-75" transform="translate(1221.679688 0)"/>
     <use xlink:href="#DejaVuSans-6e" transform="translate(1285.058594 0)"/>
     <use xlink:href="#DejaVuSans-63" transform="translate(1348.4375 0)"/>
     <use xlink:href="#DejaVuSans-74" transform="translate(1403.417969 0)"/>
     <use xlink:href="#DejaVuSans-69" transform="translate(1442.626953 0)"/>
     <use xlink:href="#DejaVuSans-6f" transform="translate(1470.410156 0)"/>
     <use xlink:href="#DejaVuSans-6e" transform="translate(1531.591797 0)"/>
     <use xlink:href="#DejaVuSans-20" transform="translate(1594.970703 0)"/>
     <use xlink:href="#DejaVuSans-6f" transform="translate(1626.757812 0)"/>
     <use xlink:href="#DejaVuSans-66" transform="translate(1687.939453 0)"/>
     <use xlink:href="#DejaVuSans-20" transform="translate(1723.144531 0)"/>
     <use xlink:href="#DejaVuSans-74" transform="translate(1754.931641 0)"/>
     <use xlink:href="#DejaVuSans-68" transform="translate(1794.140625 0)"/>
     <use xlink:href="#DejaVuSans-65" transform="translate(1857.519531 0)"/>
     <use xlink:href="#DejaVuSans-20" transform="translate(1919.042969 0)"/>
     <use xlink:href="#DejaVuSans-6e" transform="translate(1950.830078 0)"/>
     <use xlink:href="#DejaVuSans-6f" transform="translate(2014.208984 0)"/>
     <use xlink:href="#DejaVuSans-72" transform="translate(2075.390625 0)"/>
     <use xlink:href="#DejaVuSans-6d" transform="translate(2114.753906 0)"/>
     <use xlink:href="#DejaVuSans-61" transform="translate(2212.166016 0)"/>
     <use xlink:href="#DejaVuSans-6c" transform="translate(2273.445312 0)"/>
     <use xlink:href="#DejaVuSans-69" transform="translate(2301.228516 0)"/>
     <use xlink:href="#DejaVuSans-73" transform="translate(2329.011719 0)"/>
     <use xlink:href="#DejaVuSans-65" transform="translate(2381.111328 0)"/>
     <use xlink:href="#DejaVuSans-64" transform="translate(2442.634766 0)"/>
     <use xlink:href="#DejaVuSans-20" transform="translate(2506.111328 0)"/>
     <use xlink:href="#DejaVuSans-70" transform="translate(2537.898438 0)"/>
     <use xlink:href="#DejaVuSans-72" transform="translate(2601.375 0)"/>
     <use xlink:href="#DejaVuSans-65" transform="translate(2640.238281 0)"/>
     <use xlink:href="#DejaVuSans-64" transform="translate(2701.761719 0)"/>
     <use xlink:href="#DejaVuSans-69" transform="translate(2765.238281 0)"/>
     <use xlink:href="#DejaVuSans-63" transform="translate(2793.021484 0)"/>
     <use xlink:href="#DejaVuSans-74" transform="translate(2848.001953 0)"/>
     <use xlink:href="#DejaVuSans-65" transform="translate(2887.210938 0)"/>
     <use xlink:href="#DejaVuSans-64" transform="translate(2948.734375 0)"/>
     <use xlink:href="#DejaVuSans-20" transform="translate(3012.210938 0)"/>
     <use xlink:href="#DejaVuSans-62" transform="translate(3043.998047 0)"/>
     <use xlink:href="#DejaVuSans-62" transform="translate(3107.474609 0)"/>
     <use xlink:href="#DejaVuSans-6f" transform="translate(3170.951172 0)"/>
     <use xlink:href="#DejaVuSans-78" transform="translate(3229.007812 0)"/>
     <use xlink:href="#DejaVuSans-20" transform="translate(3288.1875 0)"/>
     <use xlink:href="#DejaVuSans-73" transform="translate(3319.974609 0)"/>
     <use xlink:href="#DejaVuSans-69" transform="translate(3372.074219 0)"/>
     <use xlink:href="#DejaVuSans-7a" transform="translate(3399.857422 0)"/>
     <use xlink:href="#DejaVuSans-65" transform="translate(3452.347656 0)"/>
     <use xlink:href="#DejaVuSans-20" transform="translate(3513.871094 0)"/>
     <use xlink:href="#DejaVuSans-28" transform="translate(3545.658203 0)"/>
     <use xlink:href="#DejaVuSans-61" transform="translate(3584.671875 0)"/>
     <use xlink:href="#DejaVuSans-3d" transform="translate(3645.951172 0)"/>
     <use xlink:href="#DejaVuSans-31" transform="translate(3729.740234 0)"/>
     <use xlink:href="#DejaVuSans-2e" transform="translate(3793.363281 0)"/>
     <use xlink:href="#DejaVuSans-36" transform="translate(3825.150391 0)"/>
     <use xlink:href="#DejaVuSans-3b" transform="translate(3888.773438 0)"/>
     <use xlink:href="#DejaVuSans-20" transform="translate(3922.464844 0)"/>
     <use xlink:href="#DejaVuSans-62" transform="translate(3954.251953 0)"/>
     <use xlink:href="#DejaVuSans-3d" transform="translate(4017.728516 0)"/>
     <use xlink:href="#DejaVuSans-31" transform="translate(4101.517578 0)"/>
     <use xlink:href="#DejaVuSans-38" transform="translate(4165.140625 0)"/>
     <use xlink:href="#DejaVuSans-29" transform="translate(4228.763672 0)"/>
    </g>
   </g>
   <g id="legend_1">
    <g id="patch_7">
     <path d="M 234.035156 198.117188 
L 356.364844 198.117188 
Q 358.364844 198.117188 358.364844 196.117188 
L 358.364844 167.482813 
Q 358.364844 165.482813 356.364844 165.482813 
L 234.035156 165.482813 
Q 232.035156 165.482813 232.035156 167.482813 
L 232.035156 196.117188 
Q 232.035156 198.117188 234.035156 198.117188 
z
" style="fill: #ffffff; opacity: 0.8; stroke: #cccccc; stroke-linejoin: miter"/>
    </g>
    <g id="line2d_35">
     <path d="M 236.035156 173.58125 
L 246.035156 173.58125 
L 256.035156 173.58125 
" style="fill: none; stroke: #2257ec; stroke-width: 1.5; stroke-linecap: square"/>
    </g>
    <g id="text_19">
     <!-- weight(bbox_size) -->
     <g transform="translate(264.035156 177.08125) scale(0.1 -0.1)">
      <defs>
       <path id="DejaVuSans-5f" d="M 3263 -1063 
L 3263 -1509 
L -63 -1509 
L -63 -1063 
L 3263 -1063 
z
" transform="scale(0.015625)"/>
      </defs>
      <use xlink:href="#DejaVuSans-77"/>
      <use xlink:href="#DejaVuSans-65" transform="translate(81.787109 0)"/>
      <use xlink:href="#DejaVuSans-69" transform="translate(143.310547 0)"/>
      <use xlink:href="#DejaVuSans-67" transform="translate(171.09375 0)"/>
      <use xlink:href="#DejaVuSans-68" transform="translate(234.570312 0)"/>
      <use xlink:href="#DejaVuSans-74" transform="translate(297.949219 0)"/>
      <use xlink:href="#DejaVuSans-28" transform="translate(337.158203 0)"/>
      <use xlink:href="#DejaVuSans-62" transform="translate(376.171875 0)"/>
      <use xlink:href="#DejaVuSans-62" transform="translate(439.648438 0)"/>
      <use xlink:href="#DejaVuSans-6f" transform="translate(503.125 0)"/>
      <use xlink:href="#DejaVuSans-78" transform="translate(561.181641 0)"/>
      <use xlink:href="#DejaVuSans-5f" transform="translate(620.361328 0)"/>
      <use xlink:href="#DejaVuSans-73" transform="translate(670.361328 0)"/>
      <use xlink:href="#DejaVuSans-69" transform="translate(722.460938 0)"/>
      <use xlink:href="#DejaVuSans-7a" transform="translate(750.244141 0)"/>
      <use xlink:href="#DejaVuSans-65" transform="translate(802.734375 0)"/>
      <use xlink:href="#DejaVuSans-29" transform="translate(864.257812 0)"/>
     </g>
    </g>
    <g id="line2d_36">
     <path d="M 236.035156 188.5375 
L 246.035156 188.5375 
L 256.035156 188.5375 
" style="fill: none; stroke-dasharray: 5.55,2.4; stroke-dashoffset: 0; stroke: #ff0000; stroke-width: 1.5"/>
    </g>
    <g id="text_20">
     <!-- y(0) = 1.600 -->
     <g transform="translate(264.035156 192.0375) scale(0.1 -0.1)">
      <defs>
       <path id="DejaVuSans-79" d="M 2059 -325 
Q 1816 -950 1584 -1140 
Q 1353 -1331 966 -1331 
L 506 -1331 
L 506 -850 
L 844 -850 
Q 1081 -850 1212 -737 
Q 1344 -625 1503 -206 
L 1606 56 
L 191 3500 
L 800 3500 
L 1894 763 
L 2988 3500 
L 3597 3500 
L 2059 -325 
z
" transform="scale(0.015625)"/>
      </defs>
      <use xlink:href="#DejaVuSans-79"/>
      <use xlink:href="#DejaVuSans-28" transform="translate(59.179688 0)"/>
      <use xlink:href="#DejaVuSans-30" transform="translate(98.193359 0)"/>
      <use xlink:href="#DejaVuSans-29" transform="translate(161.816406 0)"/>
      <use xlink:href="#DejaVuSans-20" transform="translate(200.830078 0)"/>
      <use xlink:href="#DejaVuSans-3d" transform="translate(232.617188 0)"/>
      <use xlink:href="#DejaVuSans-20" transform="translate(316.40625 0)"/>
      <use xlink:href="#DejaVuSans-31" transform="translate(348.193359 0)"/>
      <use xlink:href="#DejaVuSans-2e" transform="translate(411.816406 0)"/>
      <use xlink:href="#DejaVuSans-36" transform="translate(443.603516 0)"/>
      <use xlink:href="#DejaVuSans-30" transform="translate(507.226562 0)"/>
      <use xlink:href="#DejaVuSans-30" transform="translate(570.849609 0)"/>
     </g>
    </g>
   </g>
  </g>
 </g>
 <defs>
  <clipPath id="p13f78ede36">
   <rect x="72" y="43.2" width="446.4" height="277.2"/>
  </clipPath>
 </defs>
</svg>
