<?xml version="1.0" encoding="utf-8" standalone="no"?>
<!DOCTYPE svg PUBLIC "-//W3C//DTD SVG 1.1//EN"
  "http://www.w3.org/Graphics/SVG/1.1/DTD/svg11.dtd">
<svg xmlns:xlink="http://www.w3.org/1999/xlink" width="576pt" height="360pt" viewBox="0 0 576 360" xmlns="http://www.w3.org/2000/svg" version="1.1">
 <metadata>
  <rdf:RDF xmlns:dc="http://purl.org/dc/elements/1.1/" xmlns:cc="http://creativecommons.org/ns#" xmlns:rdf="http://www.w3.org/1999/02/22-rdf-syntax-ns#">
   <cc:Work>
    <dc:type rdf:resource="http://purl.org/dc/dcmitype/StillImage"/>
    <dc:date>2025-02-26T20:31:00.352017</dc:date>
    <dc:format>image/svg+xml</dc:format>
    <dc:creator>
     <cc:Agent>
      <dc:title>Matplotlib v3.8.3, https://matplotlib.org/</dc:title>
     </cc:Agent>
    </dc:creator>
   </cc:Work>
  </rdf:RDF>
 </metadata>
 <defs>
  <style type="text/css">*{stroke-linejoin: round; stroke-linecap: butt}</style>
 </defs>
 <g id="figure_1">
  <g id="patch_1">
   <path d="M 0 360 
L 576 360 
L 576 0 
L 0 0 
z
" style="fill: #ffffff"/>
  </g>
  <g id="axes_1">
   <g id="patch_2">
    <path d="M 72 320.4 
L 518.4 320.4 
L 518.4 43.2 
L 72 43.2 
z
" style="fill: #ffffff"/>
   </g>
   <g id="PolyCollection_1">
    <defs>
     <path id="m575e31276b" d="M 16.89604 -40.022574 
L 16.89604 -39.6 
L 19.661795 -39.6 
L 22.42755 -39.6 
L 25.193305 -39.6 
L 27.95906 -39.6 
L 30.724815 -39.6 
L 33.49057 -39.6 
L 36.256325 -39.6 
L 39.02208 -39.6 
L 41.787835 -39.6 
L 44.55359 -39.6 
L 47.319345 -39.6 
L 50.0851 -39.6 
L 52.850855 -39.6 
L 55.61661 -39.6 
L 58.382365 -39.6 
L 61.14812 -39.6 
L 63.913875 -39.6 
L 66.67963 -39.6 
L 69.445385 -39.6 
L 72.21114 -39.6 
L 74.976895 -39.6 
L 77.74265 -39.6 
L 80.508405 -39.6 
L 83.27416 -39.6 
L 86.039915 -39.6 
L 88.80567 -39.6 
L 91.571425 -39.6 
L 94.33718 -39.6 
L 97.102935 -39.6 
L 99.86869 -39.6 
L 102.634445 -39.6 
L 105.4002 -39.6 
L 108.165955 -39.6 
L 110.93171 -39.6 
L 113.697465 -39.6 
L 116.46322 -39.6 
L 119.228974 -39.6 
L 121.994729 -39.6 
L 124.760484 -39.6 
L 127.526239 -39.6 
L 130.291994 -39.6 
L 133.057749 -39.6 
L 135.823504 -39.6 
L 138.589259 -39.6 
L 141.355014 -39.6 
L 144.120769 -39.6 
L 146.886524 -39.6 
L 149.652279 -39.6 
L 152.418034 -39.6 
L 155.183789 -39.6 
L 157.949544 -39.6 
L 160.715299 -39.6 
L 163.481054 -39.6 
L 166.246809 -39.6 
L 169.012564 -39.6 
L 171.778319 -39.6 
L 174.544074 -39.6 
L 177.309829 -39.6 
L 180.075584 -39.6 
L 182.841339 -39.6 
L 185.607094 -39.6 
L 188.372849 -39.6 
L 191.138604 -39.6 
L 193.904359 -39.6 
L 196.670114 -39.6 
L 199.435869 -39.6 
L 202.201624 -39.6 
L 204.967379 -39.6 
L 207.733134 -39.6 
L 210.498889 -39.6 
L 213.264644 -39.6 
L 216.030399 -39.6 
L 218.796154 -39.6 
L 221.561909 -39.6 
L 224.327664 -39.6 
L 227.093419 -39.6 
L 229.859174 -39.6 
L 232.624929 -39.6 
L 235.390684 -39.6 
L 238.156439 -39.6 
L 240.922194 -39.6 
L 243.687949 -39.6 
L 246.453704 -39.6 
L 249.219459 -39.6 
L 251.985213 -39.6 
L 254.750968 -39.6 
L 257.516723 -39.6 
L 260.282478 -39.6 
L 263.048233 -39.6 
L 265.813988 -39.6 
L 268.579743 -39.6 
L 271.345498 -39.6 
L 274.111253 -39.6 
L 276.877008 -39.6 
L 279.642763 -39.6 
L 282.408518 -39.6 
L 285.174273 -39.6 
L 287.940028 -39.6 
L 290.705783 -39.6 
L 293.471538 -39.6 
L 296.237293 -39.6 
L 299.003048 -39.6 
L 301.768803 -39.6 
L 304.534558 -39.6 
L 307.300313 -39.6 
L 310.066068 -39.6 
L 312.831823 -39.6 
L 315.597578 -39.6 
L 318.363333 -39.6 
L 321.129088 -39.6 
L 323.894843 -39.6 
L 326.660598 -39.6 
L 329.426353 -39.6 
L 332.192108 -39.6 
L 334.957863 -39.6 
L 337.723618 -39.6 
L 340.489373 -39.6 
L 343.255128 -39.6 
L 346.020883 -39.6 
L 348.786638 -39.6 
L 351.552393 -39.6 
L 354.318148 -39.6 
L 357.083903 -39.6 
L 359.849658 -39.6 
L 362.615413 -39.6 
L 365.381168 -39.6 
L 368.146923 -39.6 
L 370.912678 -39.6 
L 373.678433 -39.6 
L 376.444188 -39.6 
L 379.209943 -39.6 
L 381.975698 -39.6 
L 384.741452 -39.6 
L 387.507207 -39.6 
L 390.272962 -39.6 
L 393.038717 -39.6 
L 395.804472 -39.6 
L 398.570227 -39.6 
L 401.335982 -39.6 
L 404.101737 -39.6 
L 406.867492 -39.6 
L 409.633247 -39.6 
L 412.399002 -39.6 
L 415.164757 -39.6 
L 417.930512 -39.6 
L 420.696267 -39.6 
L 423.462022 -39.6 
L 426.227777 -39.6 
L 428.993532 -39.6 
L 431.759287 -39.6 
L 434.525042 -39.6 
L 437.290797 -39.6 
L 440.056552 -39.6 
L 442.822307 -39.6 
L 445.588062 -39.6 
L 448.353817 -39.6 
L 451.119572 -39.6 
L 453.885327 -39.6 
L 456.651082 -39.6 
L 459.416837 -39.6 
L 462.182592 -39.6 
L 464.948347 -39.6 
L 467.714102 -39.6 
L 470.479857 -39.6 
L 473.245612 -39.6 
L 476.011367 -39.6 
L 478.777122 -39.6 
L 481.542877 -39.6 
L 484.308632 -39.6 
L 487.074387 -39.6 
L 489.840142 -39.6 
L 492.605897 -39.6 
L 495.371652 -39.6 
L 498.137407 -39.6 
L 500.903162 -39.6 
L 503.668917 -39.6 
L 506.434672 -39.6 
L 509.200427 -39.6 
L 511.966182 -39.6 
L 514.731937 -39.6 
L 517.497692 -39.6 
L 520.263446 -39.6 
L 523.029201 -39.6 
L 525.794956 -39.6 
L 528.560711 -39.6 
L 531.326466 -39.6 
L 534.092221 -39.6 
L 536.857976 -39.6 
L 539.623731 -39.6 
L 542.389486 -39.6 
L 545.155241 -39.6 
L 547.920996 -39.6 
L 550.686751 -39.6 
L 553.452506 -39.6 
L 556.218261 -39.6 
L 558.984016 -39.6 
L 561.749771 -39.6 
L 564.515526 -39.6 
L 567.281281 -39.6 
L 567.281281 -39.749422 
L 567.281281 -39.749422 
L 564.515526 -39.848233 
L 561.749771 -40.004465 
L 558.984016 -40.246461 
L 556.218261 -40.6137 
L 553.452506 -41.159718 
L 550.686751 -41.955137 
L 547.920996 -43.090465 
L 545.155241 -44.678207 
L 542.389486 -46.853709 
L 539.623731 -49.774074 
L 536.857976 -53.61449 
L 534.092221 -58.561413 
L 531.326466 -64.80228 
L 528.560711 -72.511816 
L 525.794956 -81.835458 
L 523.029201 -92.871017 
L 520.263446 -105.650211 
L 517.497692 -120.122155 
L 514.731937 -136.141079 
L 511.966182 -153.460449 
L 509.200427 -171.735223 
L 506.434672 -190.533136 
L 503.668917 -209.354901 
L 500.903162 -227.662027 
L 498.137407 -244.909899 
L 495.371652 -260.583005 
L 492.605897 -274.228779 
L 489.840142 -285.486725 
L 487.074387 -294.110047 
L 484.308632 -299.978 
L 481.542877 -303.098294 
L 478.777122 -303.6 
L 476.011367 -301.718313 
L 473.245612 -297.773099 
L 470.479857 -292.143416 
L 467.714102 -285.240175 
L 464.948347 -277.478844 
L 462.182592 -269.25388 
L 459.416837 -260.916247 
L 456.651082 -252.755209 
L 453.885327 -244.985423 
L 451.119572 -237.740162 
L 448.353817 -231.071216 
L 445.588062 -224.955605 
L 442.822307 -219.308625 
L 440.056552 -214.002084 
L 437.290797 -208.885874 
L 434.525042 -203.810516 
L 431.759287 -198.648053 
L 428.993532 -193.308768 
L 426.227777 -187.751753 
L 423.462022 -181.988191 
L 420.696267 -176.077255 
L 417.930512 -170.115637 
L 415.164757 -164.222572 
L 412.399002 -158.522827 
L 409.633247 -153.13021 
L 406.867492 -148.133913 
L 404.101737 -143.589297 
L 401.335982 -139.513929 
L 398.570227 -135.888758 
L 395.804472 -132.663586 
L 393.038717 -129.765474 
L 390.272962 -127.108534 
L 387.507207 -124.603636 
L 384.741452 -122.166862 
L 381.975698 -119.725957 
L 379.209943 -117.224495 
L 376.444188 -114.623808 
L 373.678433 -111.903016 
L 370.912678 -109.05763 
L 368.146923 -106.097205 
L 365.381168 -103.042499 
L 362.615413 -99.922487 
L 359.849658 -96.77148 
L 357.083903 -93.626531 
L 354.318148 -90.525205 
L 351.552393 -87.503754 
L 348.786638 -84.595662 
L 346.020883 -81.830529 
L 343.255128 -79.233218 
L 340.489373 -76.823223 
L 337.723618 -74.61424 
L 334.957863 -72.613965 
L 332.192108 -70.824188 
L 329.426353 -69.241272 
L 326.660598 -67.857047 
L 323.894843 -66.66014 
L 321.129088 -65.6376 
L 318.363333 -64.776599 
L 315.597578 -64.065919 
L 312.831823 -63.496862 
L 310.066068 -63.063333 
L 307.300313 -62.760943 
L 304.534558 -62.585177 
L 301.768803 -62.528923 
L 299.003048 -62.579788 
L 296.237293 -62.717801 
L 293.471538 -62.914047 
L 290.705783 -63.130694 
L 287.940028 -63.322634 
L 285.174273 -63.440673 
L 282.408518 -63.43592 
L 279.642763 -63.264782 
L 276.877008 -62.893832 
L 274.111253 -62.303811 
L 271.345498 -61.492146 
L 268.579743 -60.473596 
L 265.813988 -59.278925 
L 263.048233 -57.951798 
L 260.282478 -56.544349 
L 257.516723 -55.112031 
L 254.750968 -53.708411 
L 251.985213 -52.380534 
L 249.219459 -51.165355 
L 246.453704 -50.087533 
L 243.687949 -49.158721 
L 240.922194 -48.378266 
L 238.156439 -47.735097 
L 235.390684 -47.210479 
L 232.624929 -46.781234 
L 229.859174 -46.423031 
L 227.093419 -46.113353 
L 224.327664 -45.833839 
L 221.561909 -45.571773 
L 218.796154 -45.320609 
L 216.030399 -45.079557 
L 213.264644 -44.852375 
L 210.498889 -44.64562 
L 207.733134 -44.466662 
L 204.967379 -44.321795 
L 202.201624 -44.214736 
L 199.435869 -44.145723 
L 196.670114 -44.111322 
L 193.904359 -44.104925 
L 191.138604 -44.117807 
L 188.372849 -44.140566 
L 185.607094 -44.164662 
L 182.841339 -44.183854 
L 180.075584 -44.195292 
L 177.309829 -44.20014 
L 174.544074 -44.203662 
L 171.778319 -44.214786 
L 169.012564 -44.245248 
L 166.246809 -44.308461 
L 163.481054 -44.418281 
L 160.715299 -44.587852 
L 157.949544 -44.828656 
L 155.183789 -45.14987 
L 152.418034 -45.558036 
L 149.652279 -46.057005 
L 146.886524 -46.648073 
L 144.120769 -47.330197 
L 141.355014 -48.100215 
L 138.589259 -48.953046 
L 135.823504 -49.881898 
L 133.057749 -50.878606 
L 130.291994 -51.934221 
L 127.526239 -53.039995 
L 124.760484 -54.188807 
L 121.994729 -55.376953 
L 119.228974 -56.606061 
L 116.46322 -57.884716 
L 113.697465 -59.229281 
L 110.93171 -60.663352 
L 108.165955 -62.215418 
L 105.4002 -63.914516 
L 102.634445 -65.784072 
L 99.86869 -67.834522 
L 97.102935 -70.055755 
L 94.33718 -72.410699 
L 91.571425 -74.831486 
L 88.80567 -77.219411 
L 86.039915 -79.44947 
L 83.27416 -81.379522 
L 80.508405 -82.863307 
L 77.74265 -83.765803 
L 74.976895 -83.978793 
L 72.21114 -83.434353 
L 69.445385 -82.11416 
L 66.67963 -80.053126 
L 63.913875 -77.336773 
L 61.14812 -74.092772 
L 58.382365 -70.47795 
L 55.61661 -66.662768 
L 52.850855 -62.815468 
L 50.0851 -59.088004 
L 47.319345 -55.605342 
L 44.55359 -52.459048 
L 41.787835 -49.705313 
L 39.02208 -47.366913 
L 36.256325 -45.43812 
L 33.49057 -43.891387 
L 30.724815 -42.684618 
L 27.95906 -41.76804 
L 25.193305 -41.089982 
L 22.42755 -40.601223 
L 19.661795 -40.25782 
L 16.89604 -40.022574 
z
" style="stroke: #0000ff"/>
    </defs>
    <g clip-path="url(#pd206f57dcb)">
     <use xlink:href="#m575e31276b" x="0" y="360" style="fill: #0000ff; fill-opacity: 0.25; stroke: #0000ff"/>
    </g>
   </g>
   <g id="matplotlib.axis_1">
    <g id="xtick_1">
     <g id="line2d_1">
      <path d="M 72 320.4 
L 72 43.2 
" clip-path="url(#pd206f57dcb)" style="fill: none; stroke: #b0b0b0; stroke-width: 0.8; stroke-linecap: square"/>
     </g>
     <g id="line2d_2">
      <defs>
       <path id="mecc5070005" d="M 0 0 
L 0 3.5 
" style="stroke: #000000; stroke-width: 0.8"/>
      </defs>
      <g>
       <use xlink:href="#mecc5070005" x="72" y="320.4" style="stroke: #000000; stroke-width: 0.8"/>
      </g>
     </g>
     <g id="text_1">
      <!-- 0.0 -->
      <g transform="translate(64.048438 334.998438) scale(0.1 -0.1)">
       <defs>
        <path id="DejaVuSans-30" d="M 2034 4250 
Q 1547 4250 1301 3770 
Q 1056 3291 1056 2328 
Q 1056 1369 1301 889 
Q 1547 409 2034 409 
Q 2525 409 2770 889 
Q 3016 1369 3016 2328 
Q 3016 3291 2770 3770 
Q 2525 4250 2034 4250 
z
M 2034 4750 
Q 2819 4750 3233 4129 
Q 3647 3509 3647 2328 
Q 3647 1150 3233 529 
Q 2819 -91 2034 -91 
Q 1250 -91 836 529 
Q 422 1150 422 2328 
Q 422 3509 836 4129 
Q 1250 4750 2034 4750 
z
" transform="scale(0.015625)"/>
        <path id="DejaVuSans-2e" d="M 684 794 
L 1344 794 
L 1344 0 
L 684 0 
L 684 794 
z
" transform="scale(0.015625)"/>
       </defs>
       <use xlink:href="#DejaVuSans-30"/>
       <use xlink:href="#DejaVuSans-2e" x="63.623047"/>
       <use xlink:href="#DejaVuSans-30" x="95.410156"/>
      </g>
     </g>
    </g>
    <g id="xtick_2">
     <g id="line2d_3">
      <path d="M 161.28 320.4 
L 161.28 43.2 
" clip-path="url(#pd206f57dcb)" style="fill: none; stroke: #b0b0b0; stroke-width: 0.8; stroke-linecap: square"/>
     </g>
     <g id="line2d_4">
      <g>
       <use xlink:href="#mecc5070005" x="161.28" y="320.4" style="stroke: #000000; stroke-width: 0.8"/>
      </g>
     </g>
     <g id="text_2">
      <!-- 0.2 -->
      <g transform="translate(153.328438 334.998438) scale(0.1 -0.1)">
       <defs>
        <path id="DejaVuSans-32" d="M 1228 531 
L 3431 531 
L 3431 0 
L 469 0 
L 469 531 
Q 828 903 1448 1529 
Q 2069 2156 2228 2338 
Q 2531 2678 2651 2914 
Q 2772 3150 2772 3378 
Q 2772 3750 2511 3984 
Q 2250 4219 1831 4219 
Q 1534 4219 1204 4116 
Q 875 4013 500 3803 
L 500 4441 
Q 881 4594 1212 4672 
Q 1544 4750 1819 4750 
Q 2544 4750 2975 4387 
Q 3406 4025 3406 3419 
Q 3406 3131 3298 2873 
Q 3191 2616 2906 2266 
Q 2828 2175 2409 1742 
Q 1991 1309 1228 531 
z
" transform="scale(0.015625)"/>
       </defs>
       <use xlink:href="#DejaVuSans-30"/>
       <use xlink:href="#DejaVuSans-2e" x="63.623047"/>
       <use xlink:href="#DejaVuSans-32" x="95.410156"/>
      </g>
     </g>
    </g>
    <g id="xtick_3">
     <g id="line2d_5">
      <path d="M 250.56 320.4 
L 250.56 43.2 
" clip-path="url(#pd206f57dcb)" style="fill: none; stroke: #b0b0b0; stroke-width: 0.8; stroke-linecap: square"/>
     </g>
     <g id="line2d_6">
      <g>
       <use xlink:href="#mecc5070005" x="250.56" y="320.4" style="stroke: #000000; stroke-width: 0.8"/>
      </g>
     </g>
     <g id="text_3">
      <!-- 0.4 -->
      <g transform="translate(242.608438 334.998438) scale(0.1 -0.1)">
       <defs>
        <path id="DejaVuSans-34" d="M 2419 4116 
L 825 1625 
L 2419 1625 
L 2419 4116 
z
M 2253 4666 
L 3047 4666 
L 3047 1625 
L 3713 1625 
L 3713 1100 
L 3047 1100 
L 3047 0 
L 2419 0 
L 2419 1100 
L 313 1100 
L 313 1709 
L 2253 4666 
z
" transform="scale(0.015625)"/>
       </defs>
       <use xlink:href="#DejaVuSans-30"/>
       <use xlink:href="#DejaVuSans-2e" x="63.623047"/>
       <use xlink:href="#DejaVuSans-34" x="95.410156"/>
      </g>
     </g>
    </g>
    <g id="xtick_4">
     <g id="line2d_7">
      <path d="M 339.84 320.4 
L 339.84 43.2 
" clip-path="url(#pd206f57dcb)" style="fill: none; stroke: #b0b0b0; stroke-width: 0.8; stroke-linecap: square"/>
     </g>
     <g id="line2d_8">
      <g>
       <use xlink:href="#mecc5070005" x="339.84" y="320.4" style="stroke: #000000; stroke-width: 0.8"/>
      </g>
     </g>
     <g id="text_4">
      <!-- 0.6 -->
      <g transform="translate(331.888438 334.998438) scale(0.1 -0.1)">
       <defs>
        <path id="DejaVuSans-36" d="M 2113 2584 
Q 1688 2584 1439 2293 
Q 1191 2003 1191 1497 
Q 1191 994 1439 701 
Q 1688 409 2113 409 
Q 2538 409 2786 701 
Q 3034 994 3034 1497 
Q 3034 2003 2786 2293 
Q 2538 2584 2113 2584 
z
M 3366 4563 
L 3366 3988 
Q 3128 4100 2886 4159 
Q 2644 4219 2406 4219 
Q 1781 4219 1451 3797 
Q 1122 3375 1075 2522 
Q 1259 2794 1537 2939 
Q 1816 3084 2150 3084 
Q 2853 3084 3261 2657 
Q 3669 2231 3669 1497 
Q 3669 778 3244 343 
Q 2819 -91 2113 -91 
Q 1303 -91 875 529 
Q 447 1150 447 2328 
Q 447 3434 972 4092 
Q 1497 4750 2381 4750 
Q 2619 4750 2861 4703 
Q 3103 4656 3366 4563 
z
" transform="scale(0.015625)"/>
       </defs>
       <use xlink:href="#DejaVuSans-30"/>
       <use xlink:href="#DejaVuSans-2e" x="63.623047"/>
       <use xlink:href="#DejaVuSans-36" x="95.410156"/>
      </g>
     </g>
    </g>
    <g id="xtick_5">
     <g id="line2d_9">
      <path d="M 429.12 320.4 
L 429.12 43.2 
" clip-path="url(#pd206f57dcb)" style="fill: none; stroke: #b0b0b0; stroke-width: 0.8; stroke-linecap: square"/>
     </g>
     <g id="line2d_10">
      <g>
       <use xlink:href="#mecc5070005" x="429.12" y="320.4" style="stroke: #000000; stroke-width: 0.8"/>
      </g>
     </g>
     <g id="text_5">
      <!-- 0.8 -->
      <g transform="translate(421.168437 334.998438) scale(0.1 -0.1)">
       <defs>
        <path id="DejaVuSans-38" d="M 2034 2216 
Q 1584 2216 1326 1975 
Q 1069 1734 1069 1313 
Q 1069 891 1326 650 
Q 1584 409 2034 409 
Q 2484 409 2743 651 
Q 3003 894 3003 1313 
Q 3003 1734 2745 1975 
Q 2488 2216 2034 2216 
z
M 1403 2484 
Q 997 2584 770 2862 
Q 544 3141 544 3541 
Q 544 4100 942 4425 
Q 1341 4750 2034 4750 
Q 2731 4750 3128 4425 
Q 3525 4100 3525 3541 
Q 3525 3141 3298 2862 
Q 3072 2584 2669 2484 
Q 3125 2378 3379 2068 
Q 3634 1759 3634 1313 
Q 3634 634 3220 271 
Q 2806 -91 2034 -91 
Q 1263 -91 848 271 
Q 434 634 434 1313 
Q 434 1759 690 2068 
Q 947 2378 1403 2484 
z
M 1172 3481 
Q 1172 3119 1398 2916 
Q 1625 2713 2034 2713 
Q 2441 2713 2670 2916 
Q 2900 3119 2900 3481 
Q 2900 3844 2670 4047 
Q 2441 4250 2034 4250 
Q 1625 4250 1398 4047 
Q 1172 3844 1172 3481 
z
" transform="scale(0.015625)"/>
       </defs>
       <use xlink:href="#DejaVuSans-30"/>
       <use xlink:href="#DejaVuSans-2e" x="63.623047"/>
       <use xlink:href="#DejaVuSans-38" x="95.410156"/>
      </g>
     </g>
    </g>
    <g id="xtick_6">
     <g id="line2d_11">
      <path d="M 518.4 320.4 
L 518.4 43.2 
" clip-path="url(#pd206f57dcb)" style="fill: none; stroke: #b0b0b0; stroke-width: 0.8; stroke-linecap: square"/>
     </g>
     <g id="line2d_12">
      <g>
       <use xlink:href="#mecc5070005" x="518.4" y="320.4" style="stroke: #000000; stroke-width: 0.8"/>
      </g>
     </g>
     <g id="text_6">
      <!-- 1.0 -->
      <g transform="translate(510.448437 334.998438) scale(0.1 -0.1)">
       <defs>
        <path id="DejaVuSans-31" d="M 794 531 
L 1825 531 
L 1825 4091 
L 703 3866 
L 703 4441 
L 1819 4666 
L 2450 4666 
L 2450 531 
L 3481 531 
L 3481 0 
L 794 0 
L 794 531 
z
" transform="scale(0.015625)"/>
       </defs>
       <use xlink:href="#DejaVuSans-31"/>
       <use xlink:href="#DejaVuSans-2e" x="63.623047"/>
       <use xlink:href="#DejaVuSans-30" x="95.410156"/>
      </g>
     </g>
    </g>
    <g id="text_7">
     <!-- Best matches -->
     <g transform="translate(261.045312 348.676562) scale(0.1 -0.1)">
      <defs>
       <path id="DejaVuSans-42" d="M 1259 2228 
L 1259 519 
L 2272 519 
Q 2781 519 3026 730 
Q 3272 941 3272 1375 
Q 3272 1813 3026 2020 
Q 2781 2228 2272 2228 
L 1259 2228 
z
M 1259 4147 
L 1259 2741 
L 2194 2741 
Q 2656 2741 2882 2914 
Q 3109 3088 3109 3444 
Q 3109 3797 2882 3972 
Q 2656 4147 2194 4147 
L 1259 4147 
z
M 628 4666 
L 2241 4666 
Q 2963 4666 3353 4366 
Q 3744 4066 3744 3513 
Q 3744 3084 3544 2831 
Q 3344 2578 2956 2516 
Q 3422 2416 3680 2098 
Q 3938 1781 3938 1306 
Q 3938 681 3513 340 
Q 3088 0 2303 0 
L 628 0 
L 628 4666 
z
" transform="scale(0.015625)"/>
       <path id="DejaVuSans-65" d="M 3597 1894 
L 3597 1613 
L 953 1613 
Q 991 1019 1311 708 
Q 1631 397 2203 397 
Q 2534 397 2845 478 
Q 3156 559 3463 722 
L 3463 178 
Q 3153 47 2828 -22 
Q 2503 -91 2169 -91 
Q 1331 -91 842 396 
Q 353 884 353 1716 
Q 353 2575 817 3079 
Q 1281 3584 2069 3584 
Q 2775 3584 3186 3129 
Q 3597 2675 3597 1894 
z
M 3022 2063 
Q 3016 2534 2758 2815 
Q 2500 3097 2075 3097 
Q 1594 3097 1305 2825 
Q 1016 2553 972 2059 
L 3022 2063 
z
" transform="scale(0.015625)"/>
       <path id="DejaVuSans-73" d="M 2834 3397 
L 2834 2853 
Q 2591 2978 2328 3040 
Q 2066 3103 1784 3103 
Q 1356 3103 1142 2972 
Q 928 2841 928 2578 
Q 928 2378 1081 2264 
Q 1234 2150 1697 2047 
L 1894 2003 
Q 2506 1872 2764 1633 
Q 3022 1394 3022 966 
Q 3022 478 2636 193 
Q 2250 -91 1575 -91 
Q 1294 -91 989 -36 
Q 684 19 347 128 
L 347 722 
Q 666 556 975 473 
Q 1284 391 1588 391 
Q 1994 391 2212 530 
Q 2431 669 2431 922 
Q 2431 1156 2273 1281 
Q 2116 1406 1581 1522 
L 1381 1569 
Q 847 1681 609 1914 
Q 372 2147 372 2553 
Q 372 3047 722 3315 
Q 1072 3584 1716 3584 
Q 2034 3584 2315 3537 
Q 2597 3491 2834 3397 
z
" transform="scale(0.015625)"/>
       <path id="DejaVuSans-74" d="M 1172 4494 
L 1172 3500 
L 2356 3500 
L 2356 3053 
L 1172 3053 
L 1172 1153 
Q 1172 725 1289 603 
Q 1406 481 1766 481 
L 2356 481 
L 2356 0 
L 1766 0 
Q 1100 0 847 248 
Q 594 497 594 1153 
L 594 3053 
L 172 3053 
L 172 3500 
L 594 3500 
L 594 4494 
L 1172 4494 
z
" transform="scale(0.015625)"/>
       <path id="DejaVuSans-20" transform="scale(0.015625)"/>
       <path id="DejaVuSans-6d" d="M 3328 2828 
Q 3544 3216 3844 3400 
Q 4144 3584 4550 3584 
Q 5097 3584 5394 3201 
Q 5691 2819 5691 2113 
L 5691 0 
L 5113 0 
L 5113 2094 
Q 5113 2597 4934 2840 
Q 4756 3084 4391 3084 
Q 3944 3084 3684 2787 
Q 3425 2491 3425 1978 
L 3425 0 
L 2847 0 
L 2847 2094 
Q 2847 2600 2669 2842 
Q 2491 3084 2119 3084 
Q 1678 3084 1418 2786 
Q 1159 2488 1159 1978 
L 1159 0 
L 581 0 
L 581 3500 
L 1159 3500 
L 1159 2956 
Q 1356 3278 1631 3431 
Q 1906 3584 2284 3584 
Q 2666 3584 2933 3390 
Q 3200 3197 3328 2828 
z
" transform="scale(0.015625)"/>
       <path id="DejaVuSans-61" d="M 2194 1759 
Q 1497 1759 1228 1600 
Q 959 1441 959 1056 
Q 959 750 1161 570 
Q 1363 391 1709 391 
Q 2188 391 2477 730 
Q 2766 1069 2766 1631 
L 2766 1759 
L 2194 1759 
z
M 3341 1997 
L 3341 0 
L 2766 0 
L 2766 531 
Q 2569 213 2275 61 
Q 1981 -91 1556 -91 
Q 1019 -91 701 211 
Q 384 513 384 1019 
Q 384 1609 779 1909 
Q 1175 2209 1959 2209 
L 2766 2209 
L 2766 2266 
Q 2766 2663 2505 2880 
Q 2244 3097 1772 3097 
Q 1472 3097 1187 3025 
Q 903 2953 641 2809 
L 641 3341 
Q 956 3463 1253 3523 
Q 1550 3584 1831 3584 
Q 2591 3584 2966 3190 
Q 3341 2797 3341 1997 
z
" transform="scale(0.015625)"/>
       <path id="DejaVuSans-63" d="M 3122 3366 
L 3122 2828 
Q 2878 2963 2633 3030 
Q 2388 3097 2138 3097 
Q 1578 3097 1268 2742 
Q 959 2388 959 1747 
Q 959 1106 1268 751 
Q 1578 397 2138 397 
Q 2388 397 2633 464 
Q 2878 531 3122 666 
L 3122 134 
Q 2881 22 2623 -34 
Q 2366 -91 2075 -91 
Q 1284 -91 818 406 
Q 353 903 353 1747 
Q 353 2603 823 3093 
Q 1294 3584 2113 3584 
Q 2378 3584 2631 3529 
Q 2884 3475 3122 3366 
z
" transform="scale(0.015625)"/>
       <path id="DejaVuSans-68" d="M 3513 2113 
L 3513 0 
L 2938 0 
L 2938 2094 
Q 2938 2591 2744 2837 
Q 2550 3084 2163 3084 
Q 1697 3084 1428 2787 
Q 1159 2491 1159 1978 
L 1159 0 
L 581 0 
L 581 4863 
L 1159 4863 
L 1159 2956 
Q 1366 3272 1645 3428 
Q 1925 3584 2291 3584 
Q 2894 3584 3203 3211 
Q 3513 2838 3513 2113 
z
" transform="scale(0.015625)"/>
      </defs>
      <use xlink:href="#DejaVuSans-42"/>
      <use xlink:href="#DejaVuSans-65" x="68.603516"/>
      <use xlink:href="#DejaVuSans-73" x="130.126953"/>
      <use xlink:href="#DejaVuSans-74" x="182.226562"/>
      <use xlink:href="#DejaVuSans-20" x="221.435547"/>
      <use xlink:href="#DejaVuSans-6d" x="253.222656"/>
      <use xlink:href="#DejaVuSans-61" x="350.634766"/>
      <use xlink:href="#DejaVuSans-74" x="411.914062"/>
      <use xlink:href="#DejaVuSans-63" x="451.123047"/>
      <use xlink:href="#DejaVuSans-68" x="506.103516"/>
      <use xlink:href="#DejaVuSans-65" x="569.482422"/>
      <use xlink:href="#DejaVuSans-73" x="631.005859"/>
     </g>
    </g>
   </g>
   <g id="matplotlib.axis_2">
    <g id="ytick_1">
     <g id="line2d_13">
      <path d="M 72 320.4 
L 518.4 320.4 
" clip-path="url(#pd206f57dcb)" style="fill: none; stroke: #b0b0b0; stroke-width: 0.8; stroke-linecap: square"/>
     </g>
     <g id="line2d_14">
      <defs>
       <path id="m5dc024eb64" d="M 0 0 
L -3.5 0 
" style="stroke: #000000; stroke-width: 0.8"/>
      </defs>
      <g>
       <use xlink:href="#m5dc024eb64" x="72" y="320.4" style="stroke: #000000; stroke-width: 0.8"/>
      </g>
     </g>
     <g id="text_8">
      <!-- 0.0 -->
      <g transform="translate(49.096875 324.199219) scale(0.1 -0.1)">
       <use xlink:href="#DejaVuSans-30"/>
       <use xlink:href="#DejaVuSans-2e" x="63.623047"/>
       <use xlink:href="#DejaVuSans-30" x="95.410156"/>
      </g>
     </g>
    </g>
    <g id="ytick_2">
     <g id="line2d_15">
      <path d="M 72 284.654662 
L 518.4 284.654662 
" clip-path="url(#pd206f57dcb)" style="fill: none; stroke: #b0b0b0; stroke-width: 0.8; stroke-linecap: square"/>
     </g>
     <g id="line2d_16">
      <g>
       <use xlink:href="#m5dc024eb64" x="72" y="284.654662" style="stroke: #000000; stroke-width: 0.8"/>
      </g>
     </g>
     <g id="text_9">
      <!-- 0.5 -->
      <g transform="translate(49.096875 288.453881) scale(0.1 -0.1)">
       <defs>
        <path id="DejaVuSans-35" d="M 691 4666 
L 3169 4666 
L 3169 4134 
L 1269 4134 
L 1269 2991 
Q 1406 3038 1543 3061 
Q 1681 3084 1819 3084 
Q 2600 3084 3056 2656 
Q 3513 2228 3513 1497 
Q 3513 744 3044 326 
Q 2575 -91 1722 -91 
Q 1428 -91 1123 -41 
Q 819 9 494 109 
L 494 744 
Q 775 591 1075 516 
Q 1375 441 1709 441 
Q 2250 441 2565 725 
Q 2881 1009 2881 1497 
Q 2881 1984 2565 2268 
Q 2250 2553 1709 2553 
Q 1456 2553 1204 2497 
Q 953 2441 691 2322 
L 691 4666 
z
" transform="scale(0.015625)"/>
       </defs>
       <use xlink:href="#DejaVuSans-30"/>
       <use xlink:href="#DejaVuSans-2e" x="63.623047"/>
       <use xlink:href="#DejaVuSans-35" x="95.410156"/>
      </g>
     </g>
    </g>
    <g id="ytick_3">
     <g id="line2d_17">
      <path d="M 72 248.909324 
L 518.4 248.909324 
" clip-path="url(#pd206f57dcb)" style="fill: none; stroke: #b0b0b0; stroke-width: 0.8; stroke-linecap: square"/>
     </g>
     <g id="line2d_18">
      <g>
       <use xlink:href="#m5dc024eb64" x="72" y="248.909324" style="stroke: #000000; stroke-width: 0.8"/>
      </g>
     </g>
     <g id="text_10">
      <!-- 1.0 -->
      <g transform="translate(49.096875 252.708542) scale(0.1 -0.1)">
       <use xlink:href="#DejaVuSans-31"/>
       <use xlink:href="#DejaVuSans-2e" x="63.623047"/>
       <use xlink:href="#DejaVuSans-30" x="95.410156"/>
      </g>
     </g>
    </g>
    <g id="ytick_4">
     <g id="line2d_19">
      <path d="M 72 213.163985 
L 518.4 213.163985 
" clip-path="url(#pd206f57dcb)" style="fill: none; stroke: #b0b0b0; stroke-width: 0.8; stroke-linecap: square"/>
     </g>
     <g id="line2d_20">
      <g>
       <use xlink:href="#m5dc024eb64" x="72" y="213.163985" style="stroke: #000000; stroke-width: 0.8"/>
      </g>
     </g>
     <g id="text_11">
      <!-- 1.5 -->
      <g transform="translate(49.096875 216.963204) scale(0.1 -0.1)">
       <use xlink:href="#DejaVuSans-31"/>
       <use xlink:href="#DejaVuSans-2e" x="63.623047"/>
       <use xlink:href="#DejaVuSans-35" x="95.410156"/>
      </g>
     </g>
    </g>
    <g id="ytick_5">
     <g id="line2d_21">
      <path d="M 72 177.418647 
L 518.4 177.418647 
" clip-path="url(#pd206f57dcb)" style="fill: none; stroke: #b0b0b0; stroke-width: 0.8; stroke-linecap: square"/>
     </g>
     <g id="line2d_22">
      <g>
       <use xlink:href="#m5dc024eb64" x="72" y="177.418647" style="stroke: #000000; stroke-width: 0.8"/>
      </g>
     </g>
     <g id="text_12">
      <!-- 2.0 -->
      <g transform="translate(49.096875 181.217866) scale(0.1 -0.1)">
       <use xlink:href="#DejaVuSans-32"/>
       <use xlink:href="#DejaVuSans-2e" x="63.623047"/>
       <use xlink:href="#DejaVuSans-30" x="95.410156"/>
      </g>
     </g>
    </g>
    <g id="ytick_6">
     <g id="line2d_23">
      <path d="M 72 141.673309 
L 518.4 141.673309 
" clip-path="url(#pd206f57dcb)" style="fill: none; stroke: #b0b0b0; stroke-width: 0.8; stroke-linecap: square"/>
     </g>
     <g id="line2d_24">
      <g>
       <use xlink:href="#m5dc024eb64" x="72" y="141.673309" style="stroke: #000000; stroke-width: 0.8"/>
      </g>
     </g>
     <g id="text_13">
      <!-- 2.5 -->
      <g transform="translate(49.096875 145.472528) scale(0.1 -0.1)">
       <use xlink:href="#DejaVuSans-32"/>
       <use xlink:href="#DejaVuSans-2e" x="63.623047"/>
       <use xlink:href="#DejaVuSans-35" x="95.410156"/>
      </g>
     </g>
    </g>
    <g id="ytick_7">
     <g id="line2d_25">
      <path d="M 72 105.927971 
L 518.4 105.927971 
" clip-path="url(#pd206f57dcb)" style="fill: none; stroke: #b0b0b0; stroke-width: 0.8; stroke-linecap: square"/>
     </g>
     <g id="line2d_26">
      <g>
       <use xlink:href="#m5dc024eb64" x="72" y="105.927971" style="stroke: #000000; stroke-width: 0.8"/>
      </g>
     </g>
     <g id="text_14">
      <!-- 3.0 -->
      <g transform="translate(49.096875 109.727189) scale(0.1 -0.1)">
       <defs>
        <path id="DejaVuSans-33" d="M 2597 2516 
Q 3050 2419 3304 2112 
Q 3559 1806 3559 1356 
Q 3559 666 3084 287 
Q 2609 -91 1734 -91 
Q 1441 -91 1130 -33 
Q 819 25 488 141 
L 488 750 
Q 750 597 1062 519 
Q 1375 441 1716 441 
Q 2309 441 2620 675 
Q 2931 909 2931 1356 
Q 2931 1769 2642 2001 
Q 2353 2234 1838 2234 
L 1294 2234 
L 1294 2753 
L 1863 2753 
Q 2328 2753 2575 2939 
Q 2822 3125 2822 3475 
Q 2822 3834 2567 4026 
Q 2313 4219 1838 4219 
Q 1578 4219 1281 4162 
Q 984 4106 628 3988 
L 628 4550 
Q 988 4650 1302 4700 
Q 1616 4750 1894 4750 
Q 2613 4750 3031 4423 
Q 3450 4097 3450 3541 
Q 3450 3153 3228 2886 
Q 3006 2619 2597 2516 
z
" transform="scale(0.015625)"/>
       </defs>
       <use xlink:href="#DejaVuSans-33"/>
       <use xlink:href="#DejaVuSans-2e" x="63.623047"/>
       <use xlink:href="#DejaVuSans-30" x="95.410156"/>
      </g>
     </g>
    </g>
    <g id="ytick_8">
     <g id="line2d_27">
      <path d="M 72 70.182632 
L 518.4 70.182632 
" clip-path="url(#pd206f57dcb)" style="fill: none; stroke: #b0b0b0; stroke-width: 0.8; stroke-linecap: square"/>
     </g>
     <g id="line2d_28">
      <g>
       <use xlink:href="#m5dc024eb64" x="72" y="70.182632" style="stroke: #000000; stroke-width: 0.8"/>
      </g>
     </g>
     <g id="text_15">
      <!-- 3.5 -->
      <g transform="translate(49.096875 73.981851) scale(0.1 -0.1)">
       <use xlink:href="#DejaVuSans-33"/>
       <use xlink:href="#DejaVuSans-2e" x="63.623047"/>
       <use xlink:href="#DejaVuSans-35" x="95.410156"/>
      </g>
     </g>
    </g>
    <g id="text_16">
     <!-- Density -->
     <g transform="translate(43.017187 200.808594) rotate(-90) scale(0.1 -0.1)">
      <defs>
       <path id="DejaVuSans-44" d="M 1259 4147 
L 1259 519 
L 2022 519 
Q 2988 519 3436 956 
Q 3884 1394 3884 2338 
Q 3884 3275 3436 3711 
Q 2988 4147 2022 4147 
L 1259 4147 
z
M 628 4666 
L 1925 4666 
Q 3281 4666 3915 4102 
Q 4550 3538 4550 2338 
Q 4550 1131 3912 565 
Q 3275 0 1925 0 
L 628 0 
L 628 4666 
z
" transform="scale(0.015625)"/>
       <path id="DejaVuSans-6e" d="M 3513 2113 
L 3513 0 
L 2938 0 
L 2938 2094 
Q 2938 2591 2744 2837 
Q 2550 3084 2163 3084 
Q 1697 3084 1428 2787 
Q 1159 2491 1159 1978 
L 1159 0 
L 581 0 
L 581 3500 
L 1159 3500 
L 1159 2956 
Q 1366 3272 1645 3428 
Q 1925 3584 2291 3584 
Q 2894 3584 3203 3211 
Q 3513 2838 3513 2113 
z
" transform="scale(0.015625)"/>
       <path id="DejaVuSans-69" d="M 603 3500 
L 1178 3500 
L 1178 0 
L 603 0 
L 603 3500 
z
M 603 4863 
L 1178 4863 
L 1178 4134 
L 603 4134 
L 603 4863 
z
" transform="scale(0.015625)"/>
       <path id="DejaVuSans-79" d="M 2059 -325 
Q 1816 -950 1584 -1140 
Q 1353 -1331 966 -1331 
L 506 -1331 
L 506 -850 
L 844 -850 
Q 1081 -850 1212 -737 
Q 1344 -625 1503 -206 
L 1606 56 
L 191 3500 
L 800 3500 
L 1894 763 
L 2988 3500 
L 3597 3500 
L 2059 -325 
z
" transform="scale(0.015625)"/>
      </defs>
      <use xlink:href="#DejaVuSans-44"/>
      <use xlink:href="#DejaVuSans-65" x="77.001953"/>
      <use xlink:href="#DejaVuSans-6e" x="138.525391"/>
      <use xlink:href="#DejaVuSans-73" x="201.904297"/>
      <use xlink:href="#DejaVuSans-69" x="254.003906"/>
      <use xlink:href="#DejaVuSans-74" x="281.787109"/>
      <use xlink:href="#DejaVuSans-79" x="320.996094"/>
     </g>
    </g>
   </g>
   <g id="line2d_29">
    <path d="M 339.84 320.4 
L 339.84 43.2 
" clip-path="url(#pd206f57dcb)" style="fill: none; stroke-dasharray: 7.4,3.2; stroke-dashoffset: 0; stroke: #ff0000; stroke-width: 2"/>
   </g>
   <g id="patch_3">
    <path d="M 72 320.4 
L 72 43.2 
" style="fill: none; stroke: #000000; stroke-width: 0.8; stroke-linejoin: miter; stroke-linecap: square"/>
   </g>
   <g id="patch_4">
    <path d="M 518.4 320.4 
L 518.4 43.2 
" style="fill: none; stroke: #000000; stroke-width: 0.8; stroke-linejoin: miter; stroke-linecap: square"/>
   </g>
   <g id="patch_5">
    <path d="M 72 320.4 
L 518.4 320.4 
" style="fill: none; stroke: #000000; stroke-width: 0.8; stroke-linejoin: miter; stroke-linecap: square"/>
   </g>
   <g id="patch_6">
    <path d="M 72 43.2 
L 518.4 43.2 
" style="fill: none; stroke: #000000; stroke-width: 0.8; stroke-linejoin: miter; stroke-linecap: square"/>
   </g>
   <g id="text_17">
    <!-- Distribution of the best IOU matches between ground truth and predicted bounding boxes -->
    <g transform="translate(24.685313 37.2) scale(0.12 -0.12)">
     <defs>
      <path id="DejaVuSans-72" d="M 2631 2963 
Q 2534 3019 2420 3045 
Q 2306 3072 2169 3072 
Q 1681 3072 1420 2755 
Q 1159 2438 1159 1844 
L 1159 0 
L 581 0 
L 581 3500 
L 1159 3500 
L 1159 2956 
Q 1341 3275 1631 3429 
Q 1922 3584 2338 3584 
Q 2397 3584 2469 3576 
Q 2541 3569 2628 3553 
L 2631 2963 
z
" transform="scale(0.015625)"/>
      <path id="DejaVuSans-62" d="M 3116 1747 
Q 3116 2381 2855 2742 
Q 2594 3103 2138 3103 
Q 1681 3103 1420 2742 
Q 1159 2381 1159 1747 
Q 1159 1113 1420 752 
Q 1681 391 2138 391 
Q 2594 391 2855 752 
Q 3116 1113 3116 1747 
z
M 1159 2969 
Q 1341 3281 1617 3432 
Q 1894 3584 2278 3584 
Q 2916 3584 3314 3078 
Q 3713 2572 3713 1747 
Q 3713 922 3314 415 
Q 2916 -91 2278 -91 
Q 1894 -91 1617 61 
Q 1341 213 1159 525 
L 1159 0 
L 581 0 
L 581 4863 
L 1159 4863 
L 1159 2969 
z
" transform="scale(0.015625)"/>
      <path id="DejaVuSans-75" d="M 544 1381 
L 544 3500 
L 1119 3500 
L 1119 1403 
Q 1119 906 1312 657 
Q 1506 409 1894 409 
Q 2359 409 2629 706 
Q 2900 1003 2900 1516 
L 2900 3500 
L 3475 3500 
L 3475 0 
L 2900 0 
L 2900 538 
Q 2691 219 2414 64 
Q 2138 -91 1772 -91 
Q 1169 -91 856 284 
Q 544 659 544 1381 
z
M 1991 3584 
L 1991 3584 
z
" transform="scale(0.015625)"/>
      <path id="DejaVuSans-6f" d="M 1959 3097 
Q 1497 3097 1228 2736 
Q 959 2375 959 1747 
Q 959 1119 1226 758 
Q 1494 397 1959 397 
Q 2419 397 2687 759 
Q 2956 1122 2956 1747 
Q 2956 2369 2687 2733 
Q 2419 3097 1959 3097 
z
M 1959 3584 
Q 2709 3584 3137 3096 
Q 3566 2609 3566 1747 
Q 3566 888 3137 398 
Q 2709 -91 1959 -91 
Q 1206 -91 779 398 
Q 353 888 353 1747 
Q 353 2609 779 3096 
Q 1206 3584 1959 3584 
z
" transform="scale(0.015625)"/>
      <path id="DejaVuSans-66" d="M 2375 4863 
L 2375 4384 
L 1825 4384 
Q 1516 4384 1395 4259 
Q 1275 4134 1275 3809 
L 1275 3500 
L 2222 3500 
L 2222 3053 
L 1275 3053 
L 1275 0 
L 697 0 
L 697 3053 
L 147 3053 
L 147 3500 
L 697 3500 
L 697 3744 
Q 697 4328 969 4595 
Q 1241 4863 1831 4863 
L 2375 4863 
z
" transform="scale(0.015625)"/>
      <path id="DejaVuSans-49" d="M 628 4666 
L 1259 4666 
L 1259 0 
L 628 0 
L 628 4666 
z
" transform="scale(0.015625)"/>
      <path id="DejaVuSans-4f" d="M 2522 4238 
Q 1834 4238 1429 3725 
Q 1025 3213 1025 2328 
Q 1025 1447 1429 934 
Q 1834 422 2522 422 
Q 3209 422 3611 934 
Q 4013 1447 4013 2328 
Q 4013 3213 3611 3725 
Q 3209 4238 2522 4238 
z
M 2522 4750 
Q 3503 4750 4090 4092 
Q 4678 3434 4678 2328 
Q 4678 1225 4090 567 
Q 3503 -91 2522 -91 
Q 1538 -91 948 565 
Q 359 1222 359 2328 
Q 359 3434 948 4092 
Q 1538 4750 2522 4750 
z
" transform="scale(0.015625)"/>
      <path id="DejaVuSans-55" d="M 556 4666 
L 1191 4666 
L 1191 1831 
Q 1191 1081 1462 751 
Q 1734 422 2344 422 
Q 2950 422 3222 751 
Q 3494 1081 3494 1831 
L 3494 4666 
L 4128 4666 
L 4128 1753 
Q 4128 841 3676 375 
Q 3225 -91 2344 -91 
Q 1459 -91 1007 375 
Q 556 841 556 1753 
L 556 4666 
z
" transform="scale(0.015625)"/>
      <path id="DejaVuSans-77" d="M 269 3500 
L 844 3500 
L 1563 769 
L 2278 3500 
L 2956 3500 
L 3675 769 
L 4391 3500 
L 4966 3500 
L 4050 0 
L 3372 0 
L 2619 2869 
L 1863 0 
L 1184 0 
L 269 3500 
z
" transform="scale(0.015625)"/>
      <path id="DejaVuSans-67" d="M 2906 1791 
Q 2906 2416 2648 2759 
Q 2391 3103 1925 3103 
Q 1463 3103 1205 2759 
Q 947 2416 947 1791 
Q 947 1169 1205 825 
Q 1463 481 1925 481 
Q 2391 481 2648 825 
Q 2906 1169 2906 1791 
z
M 3481 434 
Q 3481 -459 3084 -895 
Q 2688 -1331 1869 -1331 
Q 1566 -1331 1297 -1286 
Q 1028 -1241 775 -1147 
L 775 -588 
Q 1028 -725 1275 -790 
Q 1522 -856 1778 -856 
Q 2344 -856 2625 -561 
Q 2906 -266 2906 331 
L 2906 616 
Q 2728 306 2450 153 
Q 2172 0 1784 0 
Q 1141 0 747 490 
Q 353 981 353 1791 
Q 353 2603 747 3093 
Q 1141 3584 1784 3584 
Q 2172 3584 2450 3431 
Q 2728 3278 2906 2969 
L 2906 3500 
L 3481 3500 
L 3481 434 
z
" transform="scale(0.015625)"/>
      <path id="DejaVuSans-64" d="M 2906 2969 
L 2906 4863 
L 3481 4863 
L 3481 0 
L 2906 0 
L 2906 525 
Q 2725 213 2448 61 
Q 2172 -91 1784 -91 
Q 1150 -91 751 415 
Q 353 922 353 1747 
Q 353 2572 751 3078 
Q 1150 3584 1784 3584 
Q 2172 3584 2448 3432 
Q 2725 3281 2906 2969 
z
M 947 1747 
Q 947 1113 1208 752 
Q 1469 391 1925 391 
Q 2381 391 2643 752 
Q 2906 1113 2906 1747 
Q 2906 2381 2643 2742 
Q 2381 3103 1925 3103 
Q 1469 3103 1208 2742 
Q 947 2381 947 1747 
z
" transform="scale(0.015625)"/>
      <path id="DejaVuSans-70" d="M 1159 525 
L 1159 -1331 
L 581 -1331 
L 581 3500 
L 1159 3500 
L 1159 2969 
Q 1341 3281 1617 3432 
Q 1894 3584 2278 3584 
Q 2916 3584 3314 3078 
Q 3713 2572 3713 1747 
Q 3713 922 3314 415 
Q 2916 -91 2278 -91 
Q 1894 -91 1617 61 
Q 1341 213 1159 525 
z
M 3116 1747 
Q 3116 2381 2855 2742 
Q 2594 3103 2138 3103 
Q 1681 3103 1420 2742 
Q 1159 2381 1159 1747 
Q 1159 1113 1420 752 
Q 1681 391 2138 391 
Q 2594 391 2855 752 
Q 3116 1113 3116 1747 
z
" transform="scale(0.015625)"/>
      <path id="DejaVuSans-78" d="M 3513 3500 
L 2247 1797 
L 3578 0 
L 2900 0 
L 1881 1375 
L 863 0 
L 184 0 
L 1544 1831 
L 300 3500 
L 978 3500 
L 1906 2253 
L 2834 3500 
L 3513 3500 
z
" transform="scale(0.015625)"/>
     </defs>
     <use xlink:href="#DejaVuSans-44"/>
     <use xlink:href="#DejaVuSans-69" x="77.001953"/>
     <use xlink:href="#DejaVuSans-73" x="104.785156"/>
     <use xlink:href="#DejaVuSans-74" x="156.884766"/>
     <use xlink:href="#DejaVuSans-72" x="196.09375"/>
     <use xlink:href="#DejaVuSans-69" x="237.207031"/>
     <use xlink:href="#DejaVuSans-62" x="264.990234"/>
     <use xlink:href="#DejaVuSans-75" x="328.466797"/>
     <use xlink:href="#DejaVuSans-74" x="391.845703"/>
     <use xlink:href="#DejaVuSans-69" x="431.054688"/>
     <use xlink:href="#DejaVuSans-6f" x="458.837891"/>
     <use xlink:href="#DejaVuSans-6e" x="520.019531"/>
     <use xlink:href="#DejaVuSans-20" x="583.398438"/>
     <use xlink:href="#DejaVuSans-6f" x="615.185547"/>
     <use xlink:href="#DejaVuSans-66" x="676.367188"/>
     <use xlink:href="#DejaVuSans-20" x="711.572266"/>
     <use xlink:href="#DejaVuSans-74" x="743.359375"/>
     <use xlink:href="#DejaVuSans-68" x="782.568359"/>
     <use xlink:href="#DejaVuSans-65" x="845.947266"/>
     <use xlink:href="#DejaVuSans-20" x="907.470703"/>
     <use xlink:href="#DejaVuSans-62" x="939.257812"/>
     <use xlink:href="#DejaVuSans-65" x="1002.734375"/>
     <use xlink:href="#DejaVuSans-73" x="1064.257812"/>
     <use xlink:href="#DejaVuSans-74" x="1116.357422"/>
     <use xlink:href="#DejaVuSans-20" x="1155.566406"/>
     <use xlink:href="#DejaVuSans-49" x="1187.353516"/>
     <use xlink:href="#DejaVuSans-4f" x="1216.845703"/>
     <use xlink:href="#DejaVuSans-55" x="1295.556641"/>
     <use xlink:href="#DejaVuSans-20" x="1368.75"/>
     <use xlink:href="#DejaVuSans-6d" x="1400.537109"/>
     <use xlink:href="#DejaVuSans-61" x="1497.949219"/>
     <use xlink:href="#DejaVuSans-74" x="1559.228516"/>
     <use xlink:href="#DejaVuSans-63" x="1598.4375"/>
     <use xlink:href="#DejaVuSans-68" x="1653.417969"/>
     <use xlink:href="#DejaVuSans-65" x="1716.796875"/>
     <use xlink:href="#DejaVuSans-73" x="1778.320312"/>
     <use xlink:href="#DejaVuSans-20" x="1830.419922"/>
     <use xlink:href="#DejaVuSans-62" x="1862.207031"/>
     <use xlink:href="#DejaVuSans-65" x="1925.683594"/>
     <use xlink:href="#DejaVuSans-74" x="1987.207031"/>
     <use xlink:href="#DejaVuSans-77" x="2026.416016"/>
     <use xlink:href="#DejaVuSans-65" x="2108.203125"/>
     <use xlink:href="#DejaVuSans-65" x="2169.726562"/>
     <use xlink:href="#DejaVuSans-6e" x="2231.25"/>
     <use xlink:href="#DejaVuSans-20" x="2294.628906"/>
     <use xlink:href="#DejaVuSans-67" x="2326.416016"/>
     <use xlink:href="#DejaVuSans-72" x="2389.892578"/>
     <use xlink:href="#DejaVuSans-6f" x="2428.755859"/>
     <use xlink:href="#DejaVuSans-75" x="2489.9375"/>
     <use xlink:href="#DejaVuSans-6e" x="2553.316406"/>
     <use xlink:href="#DejaVuSans-64" x="2616.695312"/>
     <use xlink:href="#DejaVuSans-20" x="2680.171875"/>
     <use xlink:href="#DejaVuSans-74" x="2711.958984"/>
     <use xlink:href="#DejaVuSans-72" x="2751.167969"/>
     <use xlink:href="#DejaVuSans-75" x="2792.28125"/>
     <use xlink:href="#DejaVuSans-74" x="2855.660156"/>
     <use xlink:href="#DejaVuSans-68" x="2894.869141"/>
     <use xlink:href="#DejaVuSans-20" x="2958.248047"/>
     <use xlink:href="#DejaVuSans-61" x="2990.035156"/>
     <use xlink:href="#DejaVuSans-6e" x="3051.314453"/>
     <use xlink:href="#DejaVuSans-64" x="3114.693359"/>
     <use xlink:href="#DejaVuSans-20" x="3178.169922"/>
     <use xlink:href="#DejaVuSans-70" x="3209.957031"/>
     <use xlink:href="#DejaVuSans-72" x="3273.433594"/>
     <use xlink:href="#DejaVuSans-65" x="3312.296875"/>
     <use xlink:href="#DejaVuSans-64" x="3373.820312"/>
     <use xlink:href="#DejaVuSans-69" x="3437.296875"/>
     <use xlink:href="#DejaVuSans-63" x="3465.080078"/>
     <use xlink:href="#DejaVuSans-74" x="3520.060547"/>
     <use xlink:href="#DejaVuSans-65" x="3559.269531"/>
     <use xlink:href="#DejaVuSans-64" x="3620.792969"/>
     <use xlink:href="#DejaVuSans-20" x="3684.269531"/>
     <use xlink:href="#DejaVuSans-62" x="3716.056641"/>
     <use xlink:href="#DejaVuSans-6f" x="3779.533203"/>
     <use xlink:href="#DejaVuSans-75" x="3840.714844"/>
     <use xlink:href="#DejaVuSans-6e" x="3904.09375"/>
     <use xlink:href="#DejaVuSans-64" x="3967.472656"/>
     <use xlink:href="#DejaVuSans-69" x="4030.949219"/>
     <use xlink:href="#DejaVuSans-6e" x="4058.732422"/>
     <use xlink:href="#DejaVuSans-67" x="4122.111328"/>
     <use xlink:href="#DejaVuSans-20" x="4185.587891"/>
     <use xlink:href="#DejaVuSans-62" x="4217.375"/>
     <use xlink:href="#DejaVuSans-6f" x="4280.851562"/>
     <use xlink:href="#DejaVuSans-78" x="4338.908203"/>
     <use xlink:href="#DejaVuSans-65" x="4394.962891"/>
     <use xlink:href="#DejaVuSans-73" x="4456.486328"/>
    </g>
   </g>
   <g id="legend_1">
    <g id="patch_7">
     <path d="M 79 80.55625 
L 187.160937 80.55625 
Q 189.160937 80.55625 189.160937 78.55625 
L 189.160937 50.2 
Q 189.160937 48.2 187.160937 48.2 
L 79 48.2 
Q 77 48.2 77 50.2 
L 77 78.55625 
Q 77 80.55625 79 80.55625 
z
" style="fill: #ffffff; opacity: 0.8; stroke: #cccccc; stroke-linejoin: miter"/>
    </g>
    <g id="patch_8">
     <path d="M 81 59.798437 
L 101 59.798437 
L 101 52.798437 
L 81 52.798437 
z
" style="fill: #0000ff; fill-opacity: 0.25; stroke: #0000ff; stroke-linejoin: miter"/>
    </g>
    <g id="text_18">
     <!-- Density Curve -->
     <g transform="translate(109 59.798437) scale(0.1 -0.1)">
      <defs>
       <path id="DejaVuSans-43" d="M 4122 4306 
L 4122 3641 
Q 3803 3938 3442 4084 
Q 3081 4231 2675 4231 
Q 1875 4231 1450 3742 
Q 1025 3253 1025 2328 
Q 1025 1406 1450 917 
Q 1875 428 2675 428 
Q 3081 428 3442 575 
Q 3803 722 4122 1019 
L 4122 359 
Q 3791 134 3420 21 
Q 3050 -91 2638 -91 
Q 1578 -91 968 557 
Q 359 1206 359 2328 
Q 359 3453 968 4101 
Q 1578 4750 2638 4750 
Q 3056 4750 3426 4639 
Q 3797 4528 4122 4306 
z
" transform="scale(0.015625)"/>
       <path id="DejaVuSans-76" d="M 191 3500 
L 800 3500 
L 1894 563 
L 2988 3500 
L 3597 3500 
L 2284 0 
L 1503 0 
L 191 3500 
z
" transform="scale(0.015625)"/>
      </defs>
      <use xlink:href="#DejaVuSans-44"/>
      <use xlink:href="#DejaVuSans-65" x="77.001953"/>
      <use xlink:href="#DejaVuSans-6e" x="138.525391"/>
      <use xlink:href="#DejaVuSans-73" x="201.904297"/>
      <use xlink:href="#DejaVuSans-69" x="254.003906"/>
      <use xlink:href="#DejaVuSans-74" x="281.787109"/>
      <use xlink:href="#DejaVuSans-79" x="320.996094"/>
      <use xlink:href="#DejaVuSans-20" x="380.175781"/>
      <use xlink:href="#DejaVuSans-43" x="411.962891"/>
      <use xlink:href="#DejaVuSans-75" x="481.787109"/>
      <use xlink:href="#DejaVuSans-72" x="545.166016"/>
      <use xlink:href="#DejaVuSans-76" x="586.279297"/>
      <use xlink:href="#DejaVuSans-65" x="645.458984"/>
     </g>
    </g>
    <g id="line2d_30">
     <path d="M 81 70.976562 
L 91 70.976562 
L 101 70.976562 
" style="fill: none; stroke-dasharray: 7.4,3.2; stroke-dashoffset: 0; stroke: #ff0000; stroke-width: 2"/>
    </g>
    <g id="text_19">
     <!-- Threshold (0.6) -->
     <g transform="translate(109 74.476562) scale(0.1 -0.1)">
      <defs>
       <path id="DejaVuSans-54" d="M -19 4666 
L 3928 4666 
L 3928 4134 
L 2272 4134 
L 2272 0 
L 1638 0 
L 1638 4134 
L -19 4134 
L -19 4666 
z
" transform="scale(0.015625)"/>
       <path id="DejaVuSans-6c" d="M 603 4863 
L 1178 4863 
L 1178 0 
L 603 0 
L 603 4863 
z
" transform="scale(0.015625)"/>
       <path id="DejaVuSans-28" d="M 1984 4856 
Q 1566 4138 1362 3434 
Q 1159 2731 1159 2009 
Q 1159 1288 1364 580 
Q 1569 -128 1984 -844 
L 1484 -844 
Q 1016 -109 783 600 
Q 550 1309 550 2009 
Q 550 2706 781 3412 
Q 1013 4119 1484 4856 
L 1984 4856 
z
" transform="scale(0.015625)"/>
       <path id="DejaVuSans-29" d="M 513 4856 
L 1013 4856 
Q 1481 4119 1714 3412 
Q 1947 2706 1947 2009 
Q 1947 1309 1714 600 
Q 1481 -109 1013 -844 
L 513 -844 
Q 928 -128 1133 580 
Q 1338 1288 1338 2009 
Q 1338 2731 1133 3434 
Q 928 4138 513 4856 
z
" transform="scale(0.015625)"/>
      </defs>
      <use xlink:href="#DejaVuSans-54"/>
      <use xlink:href="#DejaVuSans-68" x="61.083984"/>
      <use xlink:href="#DejaVuSans-72" x="124.462891"/>
      <use xlink:href="#DejaVuSans-65" x="163.326172"/>
      <use xlink:href="#DejaVuSans-73" x="224.849609"/>
      <use xlink:href="#DejaVuSans-68" x="276.949219"/>
      <use xlink:href="#DejaVuSans-6f" x="340.328125"/>
      <use xlink:href="#DejaVuSans-6c" x="401.509766"/>
      <use xlink:href="#DejaVuSans-64" x="429.292969"/>
      <use xlink:href="#DejaVuSans-20" x="492.769531"/>
      <use xlink:href="#DejaVuSans-28" x="524.556641"/>
      <use xlink:href="#DejaVuSans-30" x="563.570312"/>
      <use xlink:href="#DejaVuSans-2e" x="627.193359"/>
      <use xlink:href="#DejaVuSans-36" x="658.980469"/>
      <use xlink:href="#DejaVuSans-29" x="722.603516"/>
     </g>
    </g>
   </g>
  </g>
 </g>
 <defs>
  <clipPath id="pd206f57dcb">
   <rect x="72" y="43.2" width="446.4" height="277.2"/>
  </clipPath>
 </defs>
</svg>
